<svg width="560" height="59" viewBox="0 0 560 59" fill="none" xmlns="http://www.w3.org/2000/svg">
<path d="M211.508 25.254C211.442 25.362 211.373 25.443 211.301 25.497C211.229 25.545 211.139 25.569 211.031 25.569C210.917 25.569 210.788 25.521 210.644 25.425C210.506 25.329 210.332 25.224 210.122 25.11C209.918 24.99 209.675 24.882 209.393 24.786C209.111 24.684 208.775 24.633 208.385 24.633C208.025 24.633 207.707 24.678 207.431 24.768C207.161 24.858 206.933 24.984 206.747 25.146C206.561 25.308 206.42 25.5 206.324 25.722C206.234 25.938 206.189 26.175 206.189 26.433C206.189 26.763 206.276 27.039 206.45 27.261C206.624 27.477 206.852 27.663 207.134 27.819C207.422 27.975 207.749 28.113 208.115 28.233C208.481 28.347 208.853 28.47 209.231 28.602C209.615 28.734 209.99 28.884 210.356 29.052C210.722 29.22 211.046 29.433 211.328 29.691C211.616 29.949 211.847 30.264 212.021 30.636C212.195 31.008 212.282 31.461 212.282 31.995C212.282 32.571 212.183 33.111 211.985 33.615C211.787 34.119 211.499 34.56 211.121 34.938C210.749 35.31 210.287 35.604 209.735 35.82C209.189 36.036 208.565 36.144 207.863 36.144C207.449 36.144 207.044 36.102 206.648 36.018C206.258 35.94 205.883 35.829 205.523 35.685C205.169 35.535 204.836 35.355 204.524 35.145C204.212 34.935 203.933 34.701 203.687 34.443L204.299 33.435C204.353 33.351 204.422 33.285 204.506 33.237C204.59 33.189 204.683 33.165 204.785 33.165C204.923 33.165 205.076 33.231 205.244 33.363C205.412 33.489 205.613 33.63 205.847 33.786C206.087 33.936 206.375 34.077 206.711 34.209C207.047 34.335 207.449 34.398 207.917 34.398C208.679 34.398 209.267 34.212 209.681 33.84C210.101 33.468 210.311 32.955 210.311 32.301C210.311 31.935 210.224 31.638 210.05 31.41C209.876 31.176 209.645 30.981 209.357 30.825C209.075 30.669 208.751 30.537 208.385 30.429C208.019 30.321 207.647 30.207 207.269 30.087C206.891 29.961 206.519 29.817 206.153 29.655C205.787 29.487 205.46 29.271 205.172 29.007C204.89 28.737 204.662 28.407 204.488 28.017C204.314 27.621 204.227 27.129 204.227 26.541C204.227 26.073 204.317 25.62 204.497 25.182C204.683 24.744 204.95 24.357 205.298 24.021C205.652 23.679 206.087 23.406 206.603 23.202C207.119 22.998 207.707 22.896 208.367 22.896C209.111 22.896 209.792 23.013 210.41 23.247C211.034 23.481 211.571 23.814 212.021 24.246L211.508 25.254ZM216.143 26.82V36H214.208V26.82H216.143ZM216.467 24.048C216.467 24.222 216.431 24.387 216.359 24.543C216.293 24.699 216.2 24.837 216.08 24.957C215.96 25.071 215.819 25.164 215.657 25.236C215.501 25.302 215.333 25.335 215.153 25.335C214.979 25.335 214.814 25.302 214.658 25.236C214.508 25.164 214.376 25.071 214.262 24.957C214.148 24.837 214.055 24.699 213.983 24.543C213.917 24.387 213.884 24.222 213.884 24.048C213.884 23.868 213.917 23.7 213.983 23.544C214.055 23.388 214.148 23.253 214.262 23.139C214.376 23.019 214.508 22.926 214.658 22.86C214.814 22.788 214.979 22.752 215.153 22.752C215.333 22.752 215.501 22.788 215.657 22.86C215.819 22.926 215.96 23.019 216.08 23.139C216.2 23.253 216.293 23.388 216.359 23.544C216.431 23.7 216.467 23.868 216.467 24.048ZM221.851 31.329C222.451 31.329 222.901 31.176 223.201 30.87C223.501 30.564 223.651 30.165 223.651 29.673C223.651 29.169 223.501 28.77 223.201 28.476C222.901 28.182 222.451 28.035 221.851 28.035C221.257 28.035 220.807 28.182 220.501 28.476C220.201 28.77 220.051 29.169 220.051 29.673C220.051 29.913 220.09 30.135 220.168 30.339C220.246 30.543 220.36 30.72 220.51 30.87C220.66 31.014 220.846 31.128 221.068 31.212C221.296 31.29 221.557 31.329 221.851 31.329ZM224.542 36.45C224.542 36.246 224.482 36.084 224.362 35.964C224.248 35.838 224.092 35.742 223.894 35.676C223.696 35.604 223.465 35.553 223.201 35.523C222.937 35.487 222.655 35.463 222.355 35.451C222.061 35.433 221.758 35.418 221.446 35.406C221.14 35.388 220.843 35.358 220.555 35.316C220.267 35.466 220.03 35.646 219.844 35.856C219.664 36.066 219.574 36.309 219.574 36.585C219.574 36.765 219.619 36.933 219.709 37.089C219.805 37.245 219.949 37.38 220.141 37.494C220.339 37.608 220.588 37.698 220.888 37.764C221.194 37.83 221.56 37.863 221.986 37.863C222.838 37.863 223.477 37.731 223.903 37.467C224.329 37.203 224.542 36.864 224.542 36.45ZM226.486 27.153V27.873C226.486 28.113 226.342 28.26 226.054 28.314L225.136 28.467C225.292 28.815 225.37 29.202 225.37 29.628C225.37 30.078 225.28 30.486 225.1 30.852C224.926 31.218 224.683 31.53 224.371 31.788C224.059 32.046 223.687 32.244 223.255 32.382C222.823 32.52 222.355 32.589 221.851 32.589C221.659 32.589 221.47 32.58 221.284 32.562C221.104 32.538 220.927 32.508 220.753 32.472C220.579 32.574 220.45 32.682 220.366 32.796C220.282 32.91 220.24 33.027 220.24 33.147C220.24 33.345 220.327 33.492 220.501 33.588C220.675 33.684 220.903 33.753 221.185 33.795C221.473 33.837 221.8 33.864 222.166 33.876C222.532 33.888 222.904 33.909 223.282 33.939C223.66 33.969 224.032 34.02 224.398 34.092C224.764 34.158 225.088 34.272 225.37 34.434C225.658 34.59 225.889 34.803 226.063 35.073C226.237 35.343 226.324 35.694 226.324 36.126C226.324 36.522 226.225 36.909 226.027 37.287C225.829 37.665 225.541 38.001 225.163 38.295C224.791 38.589 224.335 38.823 223.795 38.997C223.255 39.177 222.64 39.267 221.95 39.267C221.266 39.267 220.669 39.201 220.159 39.069C219.655 38.937 219.232 38.757 218.89 38.529C218.554 38.307 218.302 38.049 218.134 37.755C217.972 37.461 217.891 37.155 217.891 36.837C217.891 36.405 218.026 36.036 218.296 35.73C218.572 35.424 218.944 35.184 219.412 35.01C219.16 34.89 218.956 34.725 218.8 34.515C218.65 34.305 218.575 34.029 218.575 33.687C218.575 33.417 218.674 33.135 218.872 32.841C219.07 32.547 219.367 32.298 219.763 32.094C219.307 31.842 218.947 31.509 218.683 31.095C218.419 30.675 218.287 30.186 218.287 29.628C218.287 29.172 218.374 28.761 218.548 28.395C218.728 28.029 218.977 27.717 219.295 27.459C219.613 27.201 219.988 27.003 220.42 26.865C220.858 26.727 221.335 26.658 221.851 26.658C222.643 26.658 223.333 26.823 223.921 27.153H226.486ZM229.823 28.035C230.021 27.831 230.225 27.648 230.435 27.486C230.651 27.318 230.879 27.174 231.119 27.054C231.359 26.934 231.614 26.841 231.884 26.775C232.154 26.709 232.448 26.676 232.766 26.676C233.27 26.676 233.711 26.76 234.089 26.928C234.473 27.096 234.794 27.333 235.052 27.639C235.316 27.945 235.514 28.314 235.646 28.746C235.778 29.172 235.844 29.643 235.844 30.159V36H233.918V30.159C233.918 29.541 233.774 29.061 233.486 28.719C233.204 28.377 232.772 28.206 232.19 28.206C231.758 28.206 231.356 28.305 230.984 28.503C230.618 28.701 230.273 28.971 229.949 29.313V36H228.014V26.82H229.184C229.448 26.82 229.616 26.943 229.688 27.189L229.823 28.035ZM244.602 26.82V36H242.667V26.82H244.602ZM244.926 24.048C244.926 24.222 244.89 24.387 244.818 24.543C244.752 24.699 244.659 24.837 244.539 24.957C244.419 25.071 244.278 25.164 244.116 25.236C243.96 25.302 243.792 25.335 243.612 25.335C243.438 25.335 243.273 25.302 243.117 25.236C242.967 25.164 242.835 25.071 242.721 24.957C242.607 24.837 242.514 24.699 242.442 24.543C242.376 24.387 242.343 24.222 242.343 24.048C242.343 23.868 242.376 23.7 242.442 23.544C242.514 23.388 242.607 23.253 242.721 23.139C242.835 23.019 242.967 22.926 243.117 22.86C243.273 22.788 243.438 22.752 243.612 22.752C243.792 22.752 243.96 22.788 244.116 22.86C244.278 22.926 244.419 23.019 244.539 23.139C244.659 23.253 244.752 23.388 244.818 23.544C244.89 23.7 244.926 23.868 244.926 24.048ZM248.842 28.035C249.04 27.831 249.244 27.648 249.454 27.486C249.67 27.318 249.898 27.174 250.138 27.054C250.378 26.934 250.633 26.841 250.903 26.775C251.173 26.709 251.467 26.676 251.785 26.676C252.289 26.676 252.73 26.76 253.108 26.928C253.492 27.096 253.813 27.333 254.071 27.639C254.335 27.945 254.533 28.314 254.665 28.746C254.797 29.172 254.863 29.643 254.863 30.159V36H252.937V30.159C252.937 29.541 252.793 29.061 252.505 28.719C252.223 28.377 251.791 28.206 251.209 28.206C250.777 28.206 250.375 28.305 250.003 28.503C249.637 28.701 249.292 28.971 248.968 29.313V36H247.033V26.82H248.203C248.467 26.82 248.635 26.943 248.707 27.189L248.842 28.035ZM274.134 26.82L271.191 36H269.652C269.472 36 269.346 35.883 269.274 35.649L267.447 29.934C267.399 29.772 267.354 29.61 267.312 29.448C267.276 29.286 267.243 29.127 267.213 28.971C267.147 29.295 267.066 29.619 266.97 29.943L265.116 35.649C265.05 35.883 264.909 36 264.693 36H263.226L260.283 26.82H261.813C261.963 26.82 262.086 26.859 262.182 26.937C262.284 27.009 262.35 27.096 262.38 27.198L263.91 32.544C263.97 32.79 264.021 33.03 264.063 33.264C264.111 33.492 264.153 33.72 264.189 33.948C264.249 33.72 264.312 33.492 264.378 33.264C264.444 33.03 264.513 32.79 264.585 32.544L266.304 27.171C266.334 27.063 266.394 26.976 266.484 26.91C266.58 26.838 266.694 26.802 266.826 26.802H267.672C267.81 26.802 267.927 26.838 268.023 26.91C268.119 26.976 268.182 27.063 268.212 27.171L269.886 32.544C269.958 32.79 270.024 33.03 270.084 33.264C270.15 33.498 270.21 33.732 270.264 33.966C270.306 33.738 270.351 33.507 270.399 33.273C270.447 33.039 270.504 32.796 270.57 32.544L272.127 27.198C272.163 27.09 272.229 27 272.325 26.928C272.421 26.856 272.538 26.82 272.676 26.82H274.134ZM277.561 26.82V36H275.626V26.82H277.561ZM277.885 24.048C277.885 24.222 277.849 24.387 277.777 24.543C277.711 24.699 277.618 24.837 277.498 24.957C277.378 25.071 277.237 25.164 277.075 25.236C276.919 25.302 276.751 25.335 276.571 25.335C276.397 25.335 276.232 25.302 276.076 25.236C275.926 25.164 275.794 25.071 275.68 24.957C275.566 24.837 275.473 24.699 275.401 24.543C275.335 24.387 275.302 24.222 275.302 24.048C275.302 23.868 275.335 23.7 275.401 23.544C275.473 23.388 275.566 23.253 275.68 23.139C275.794 23.019 275.926 22.926 276.076 22.86C276.232 22.788 276.397 22.752 276.571 22.752C276.751 22.752 276.919 22.788 277.075 22.86C277.237 22.926 277.378 23.019 277.498 23.139C277.618 23.253 277.711 23.388 277.777 23.544C277.849 23.7 277.885 23.868 277.885 24.048ZM282.935 36.144C282.173 36.144 281.585 35.931 281.171 35.505C280.763 35.073 280.559 34.467 280.559 33.687V28.341H279.551C279.443 28.341 279.35 28.308 279.272 28.242C279.194 28.17 279.155 28.065 279.155 27.927V27.144L280.64 26.928L281.063 24.273C281.093 24.171 281.144 24.09 281.216 24.03C281.288 23.964 281.384 23.931 281.504 23.931H282.494V26.946H285.041V28.341H282.494V33.552C282.494 33.882 282.575 34.134 282.737 34.308C282.899 34.482 283.115 34.569 283.385 34.569C283.535 34.569 283.664 34.551 283.772 34.515C283.88 34.473 283.973 34.431 284.051 34.389C284.129 34.341 284.195 34.299 284.249 34.263C284.309 34.221 284.366 34.2 284.42 34.2C284.528 34.2 284.615 34.26 284.681 34.38L285.257 35.325C284.957 35.589 284.603 35.793 284.195 35.937C283.787 36.075 283.367 36.144 282.935 36.144ZM288.502 27.909C288.88 27.537 289.294 27.24 289.744 27.018C290.194 26.79 290.719 26.676 291.319 26.676C291.823 26.676 292.264 26.76 292.642 26.928C293.026 27.096 293.347 27.333 293.605 27.639C293.869 27.945 294.067 28.314 294.199 28.746C294.331 29.172 294.397 29.643 294.397 30.159V36H292.471V30.159C292.471 29.541 292.327 29.061 292.039 28.719C291.757 28.377 291.325 28.206 290.743 28.206C290.311 28.206 289.909 28.305 289.537 28.503C289.171 28.701 288.826 28.971 288.502 29.313V36H286.567V22.68H288.502V27.909ZM312.11 29.619V34.749C310.82 35.679 309.32 36.144 307.61 36.144C306.56 36.144 305.609 35.982 304.757 35.658C303.911 35.328 303.188 34.872 302.588 34.29C301.988 33.702 301.526 33.003 301.202 32.193C300.878 31.383 300.716 30.492 300.716 29.52C300.716 28.542 300.872 27.648 301.184 26.838C301.496 26.022 301.943 25.323 302.525 24.741C303.107 24.153 303.809 23.7 304.631 23.382C305.453 23.058 306.377 22.896 307.403 22.896C307.925 22.896 308.408 22.938 308.852 23.022C309.302 23.1 309.719 23.211 310.103 23.355C310.487 23.499 310.841 23.673 311.165 23.877C311.489 24.081 311.786 24.309 312.056 24.561L311.453 25.524C311.357 25.674 311.234 25.767 311.084 25.803C310.934 25.839 310.772 25.803 310.598 25.695C310.424 25.593 310.238 25.485 310.04 25.371C309.848 25.257 309.626 25.152 309.374 25.056C309.122 24.954 308.831 24.873 308.501 24.813C308.171 24.747 307.781 24.714 307.331 24.714C306.647 24.714 306.029 24.828 305.477 25.056C304.931 25.278 304.463 25.599 304.073 26.019C303.683 26.433 303.383 26.937 303.173 27.531C302.963 28.125 302.858 28.788 302.858 29.52C302.858 30.294 302.969 30.987 303.191 31.599C303.413 32.205 303.728 32.721 304.136 33.147C304.544 33.567 305.036 33.888 305.612 34.11C306.194 34.332 306.842 34.443 307.556 34.443C308.09 34.443 308.564 34.386 308.978 34.272C309.398 34.158 309.809 33.999 310.211 33.795V31.221H308.402C308.264 31.221 308.156 31.185 308.078 31.113C308 31.035 307.961 30.936 307.961 30.816V29.619H312.11ZM318.098 26.676C318.776 26.676 319.388 26.787 319.934 27.009C320.486 27.231 320.954 27.546 321.338 27.954C321.728 28.362 322.028 28.857 322.238 29.439C322.448 30.021 322.553 30.675 322.553 31.401C322.553 32.127 322.448 32.781 322.238 33.363C322.028 33.945 321.728 34.443 321.338 34.857C320.954 35.265 320.486 35.58 319.934 35.802C319.388 36.024 318.776 36.135 318.098 36.135C317.414 36.135 316.796 36.024 316.244 35.802C315.698 35.58 315.23 35.265 314.84 34.857C314.45 34.443 314.15 33.945 313.94 33.363C313.73 32.781 313.625 32.127 313.625 31.401C313.625 30.675 313.73 30.021 313.94 29.439C314.15 28.857 314.45 28.362 314.84 27.954C315.23 27.546 315.698 27.231 316.244 27.009C316.796 26.787 317.414 26.676 318.098 26.676ZM318.098 34.623C318.926 34.623 319.541 34.347 319.943 33.795C320.351 33.237 320.555 32.442 320.555 31.41C320.555 30.378 320.351 29.583 319.943 29.025C319.541 28.461 318.926 28.179 318.098 28.179C317.258 28.179 316.634 28.461 316.226 29.025C315.818 29.583 315.614 30.378 315.614 31.41C315.614 32.442 315.818 33.237 316.226 33.795C316.634 34.347 317.258 34.623 318.098 34.623ZM328.381 26.676C329.059 26.676 329.671 26.787 330.217 27.009C330.769 27.231 331.237 27.546 331.621 27.954C332.011 28.362 332.311 28.857 332.521 29.439C332.731 30.021 332.836 30.675 332.836 31.401C332.836 32.127 332.731 32.781 332.521 33.363C332.311 33.945 332.011 34.443 331.621 34.857C331.237 35.265 330.769 35.58 330.217 35.802C329.671 36.024 329.059 36.135 328.381 36.135C327.697 36.135 327.079 36.024 326.527 35.802C325.981 35.58 325.513 35.265 325.123 34.857C324.733 34.443 324.433 33.945 324.223 33.363C324.013 32.781 323.908 32.127 323.908 31.401C323.908 30.675 324.013 30.021 324.223 29.439C324.433 28.857 324.733 28.362 325.123 27.954C325.513 27.546 325.981 27.231 326.527 27.009C327.079 26.787 327.697 26.676 328.381 26.676ZM328.381 34.623C329.209 34.623 329.824 34.347 330.226 33.795C330.634 33.237 330.838 32.442 330.838 31.41C330.838 30.378 330.634 29.583 330.226 29.025C329.824 28.461 329.209 28.179 328.381 28.179C327.541 28.179 326.917 28.461 326.509 29.025C326.101 29.583 325.897 30.378 325.897 31.41C325.897 32.442 326.101 33.237 326.509 33.795C326.917 34.347 327.541 34.623 328.381 34.623ZM337.901 31.329C338.501 31.329 338.951 31.176 339.251 30.87C339.551 30.564 339.701 30.165 339.701 29.673C339.701 29.169 339.551 28.77 339.251 28.476C338.951 28.182 338.501 28.035 337.901 28.035C337.307 28.035 336.857 28.182 336.551 28.476C336.251 28.77 336.101 29.169 336.101 29.673C336.101 29.913 336.14 30.135 336.218 30.339C336.296 30.543 336.41 30.72 336.56 30.87C336.71 31.014 336.896 31.128 337.118 31.212C337.346 31.29 337.607 31.329 337.901 31.329ZM340.592 36.45C340.592 36.246 340.532 36.084 340.412 35.964C340.298 35.838 340.142 35.742 339.944 35.676C339.746 35.604 339.515 35.553 339.251 35.523C338.987 35.487 338.705 35.463 338.405 35.451C338.111 35.433 337.808 35.418 337.496 35.406C337.19 35.388 336.893 35.358 336.605 35.316C336.317 35.466 336.08 35.646 335.894 35.856C335.714 36.066 335.624 36.309 335.624 36.585C335.624 36.765 335.669 36.933 335.759 37.089C335.855 37.245 335.999 37.38 336.191 37.494C336.389 37.608 336.638 37.698 336.938 37.764C337.244 37.83 337.61 37.863 338.036 37.863C338.888 37.863 339.527 37.731 339.953 37.467C340.379 37.203 340.592 36.864 340.592 36.45ZM342.536 27.153V27.873C342.536 28.113 342.392 28.26 342.104 28.314L341.186 28.467C341.342 28.815 341.42 29.202 341.42 29.628C341.42 30.078 341.33 30.486 341.15 30.852C340.976 31.218 340.733 31.53 340.421 31.788C340.109 32.046 339.737 32.244 339.305 32.382C338.873 32.52 338.405 32.589 337.901 32.589C337.709 32.589 337.52 32.58 337.334 32.562C337.154 32.538 336.977 32.508 336.803 32.472C336.629 32.574 336.5 32.682 336.416 32.796C336.332 32.91 336.29 33.027 336.29 33.147C336.29 33.345 336.377 33.492 336.551 33.588C336.725 33.684 336.953 33.753 337.235 33.795C337.523 33.837 337.85 33.864 338.216 33.876C338.582 33.888 338.954 33.909 339.332 33.939C339.71 33.969 340.082 34.02 340.448 34.092C340.814 34.158 341.138 34.272 341.42 34.434C341.708 34.59 341.939 34.803 342.113 35.073C342.287 35.343 342.374 35.694 342.374 36.126C342.374 36.522 342.275 36.909 342.077 37.287C341.879 37.665 341.591 38.001 341.213 38.295C340.841 38.589 340.385 38.823 339.845 38.997C339.305 39.177 338.69 39.267 338 39.267C337.316 39.267 336.719 39.201 336.209 39.069C335.705 38.937 335.282 38.757 334.94 38.529C334.604 38.307 334.352 38.049 334.184 37.755C334.022 37.461 333.941 37.155 333.941 36.837C333.941 36.405 334.076 36.036 334.346 35.73C334.622 35.424 334.994 35.184 335.462 35.01C335.21 34.89 335.006 34.725 334.85 34.515C334.7 34.305 334.625 34.029 334.625 33.687C334.625 33.417 334.724 33.135 334.922 32.841C335.12 32.547 335.417 32.298 335.813 32.094C335.357 31.842 334.997 31.509 334.733 31.095C334.469 30.675 334.337 30.186 334.337 29.628C334.337 29.172 334.424 28.761 334.598 28.395C334.778 28.029 335.027 27.717 335.345 27.459C335.663 27.201 336.038 27.003 336.47 26.865C336.908 26.727 337.385 26.658 337.901 26.658C338.693 26.658 339.383 26.823 339.971 27.153H342.536ZM346.036 22.68V36H344.101V22.68H346.036ZM354.445 30.375C354.445 30.051 354.397 29.751 354.301 29.475C354.211 29.193 354.076 28.95 353.896 28.746C353.716 28.536 353.491 28.374 353.221 28.26C352.957 28.14 352.651 28.08 352.303 28.08C351.601 28.08 351.049 28.281 350.647 28.683C350.245 29.085 349.99 29.649 349.882 30.375H354.445ZM349.828 31.563C349.852 32.085 349.933 32.538 350.071 32.922C350.209 33.3 350.392 33.615 350.62 33.867C350.854 34.119 351.13 34.308 351.448 34.434C351.772 34.554 352.132 34.614 352.528 34.614C352.906 34.614 353.233 34.572 353.509 34.488C353.785 34.398 354.025 34.302 354.229 34.2C354.433 34.092 354.607 33.996 354.751 33.912C354.895 33.822 355.027 33.777 355.147 33.777C355.303 33.777 355.423 33.837 355.507 33.957L356.056 34.668C355.828 34.938 355.57 35.166 355.282 35.352C354.994 35.538 354.688 35.691 354.364 35.811C354.04 35.925 353.707 36.006 353.365 36.054C353.023 36.108 352.69 36.135 352.366 36.135C351.73 36.135 351.139 36.03 350.593 35.82C350.053 35.604 349.582 35.289 349.18 34.875C348.784 34.461 348.472 33.948 348.244 33.336C348.022 32.724 347.911 32.019 347.911 31.221C347.911 30.585 348.01 29.991 348.208 29.439C348.412 28.887 348.7 28.407 349.072 27.999C349.45 27.591 349.906 27.27 350.44 27.036C350.98 26.796 351.589 26.676 352.267 26.676C352.831 26.676 353.353 26.769 353.833 26.955C354.313 27.135 354.727 27.402 355.075 27.756C355.423 28.11 355.693 28.545 355.885 29.061C356.083 29.571 356.182 30.153 356.182 30.807C356.182 31.107 356.149 31.308 356.083 31.41C356.017 31.512 355.897 31.563 355.723 31.563H349.828Z" fill="#2B2C34"/>
<rect x="0.5" y="0.5" width="559" height="58" rx="3.5" stroke="#D2D3D4"/>
<g clip-path="url(#clip0_5275_31094)">
<path d="M58.7075 31.3458C58.7075 30.3261 58.6248 29.301 58.4485 28.2979H44.3V34.0741H52.4022C52.0659 35.937 50.9857 37.585 49.4038 38.6322V42.3802H54.2375C57.0761 39.7676 58.7075 35.9095 58.7075 31.3458Z" fill="#4285F4"/>
<path d="M44.3 46.0007C48.3455 46.0007 51.7573 44.6724 54.243 42.3795L49.4093 38.6316C48.0644 39.5465 46.3283 40.0646 44.3055 40.0646C40.3922 40.0646 37.0742 37.4245 35.8837 33.875H30.8956V37.7387C33.442 42.8039 38.6285 46.0007 44.3 46.0007Z" fill="#34A853"/>
<path d="M35.8782 33.8754C35.2498 32.0124 35.2498 29.9952 35.8782 28.1322V24.2686H30.8956C28.7681 28.507 28.7681 33.5006 30.8956 37.7391L35.8782 33.8754Z" fill="#FBBC04"/>
<path d="M44.3 21.9371C46.4385 21.904 48.5054 22.7087 50.0542 24.1858L54.3367 19.9033C51.625 17.3569 48.0259 15.9569 44.3 16.001C38.6285 16.001 33.442 19.1978 30.8956 24.2685L35.8781 28.1322C37.0632 24.5772 40.3867 21.9371 44.3 21.9371Z" fill="#EA4335"/>
</g>
<defs>
<clipPath id="clip0_5275_31094">
<rect width="30" height="30" fill="white" transform="translate(29 16)"/>
</clipPath>
</defs>
</svg>
