<svg width="15" height="11" viewBox="0 0 15 11" fill="none" xmlns="http://www.w3.org/2000/svg">
<path d="M9.35334 5.40476C10.1463 4.61064 10.9048 3.84989 11.6641 3.08877C12.314 2.43888 12.9639 1.78999 13.6137 1.1421C13.8263 0.931008 14.0828 0.86577 14.3719 0.950881C14.6609 1.03599 14.833 1.24108 14.8968 1.53091C14.9583 1.81286 14.8507 2.0442 14.6534 2.24329C13.7521 3.14414 12.8515 4.04523 11.9517 4.94658C11.2845 5.61347 10.6169 6.27998 9.94874 6.94612C9.58243 7.30981 9.15837 7.31169 8.79356 6.95175C8.28664 6.45183 7.7831 5.94816 7.28294 5.44075C7.22632 5.38376 7.1907 5.30615 7.15058 5.24616L2.93779 9.4627C2.99778 9.46645 3.05552 9.47282 3.11364 9.4732C3.60106 9.4732 4.08848 9.46832 4.57589 9.4762C4.89796 9.48107 5.14055 9.63742 5.2729 9.93024C5.39925 10.2099 5.35726 10.4814 5.16042 10.7199C5.08981 10.8082 4.99984 10.8792 4.89745 10.9273C4.79507 10.9754 4.683 10.9994 4.56989 10.9973C3.40309 10.9999 2.23329 11.0022 1.06499 10.9962C0.623684 10.9939 0.297113 10.6587 0.295613 10.2182C0.291864 9.05589 0.291864 7.89359 0.295613 6.73128C0.295613 6.28961 0.641681 5.94392 1.06086 5.94766C1.48004 5.95141 1.80324 6.28136 1.81073 6.72416C1.81786 7.19883 1.81261 7.67387 1.81261 8.14892V8.34576L1.88085 8.39C1.92327 8.32319 1.97065 8.25965 2.02257 8.19991C3.51432 6.70541 5.0072 5.21204 6.50119 3.71979C6.89 3.33173 7.31031 3.33098 7.69762 3.71642C8.20628 4.22283 8.71407 4.73087 9.22099 5.24053C9.26448 5.2844 9.29935 5.33839 9.35334 5.40476Z" fill="#FF718B"/>
</svg>
