<svg width="15" height="11" viewBox="0 0 15 11" fill="none" xmlns="http://www.w3.org/2000/svg">
<path d="M5.9201 5.59524C5.12711 6.38936 4.36861 7.15011 3.60936 7.91123C2.95947 8.56112 2.30958 9.21001 1.65969 9.8579C1.4471 10.069 1.19064 10.1342 0.901568 10.0491C0.612491 9.96401 0.440395 9.75892 0.376656 9.46909C0.315167 9.18714 0.422773 8.9558 0.61999 8.75671C1.52134 7.85586 2.42194 6.95477 3.32179 6.05342C3.98892 5.38653 4.65656 4.72002 5.3247 4.05388C5.69101 3.69019 6.11507 3.68831 6.47988 4.04825C6.98679 4.54817 7.49033 5.05184 7.9905 5.55925C8.04712 5.61624 8.08273 5.69385 8.12285 5.75384L12.3356 1.5373C12.2757 1.53355 12.2179 1.52718 12.1598 1.5268C11.6724 1.5268 11.185 1.53168 10.6975 1.5238C10.3755 1.51893 10.1329 1.36258 10.0005 1.06976C9.87418 0.790052 9.91618 0.518598 10.113 0.280138C10.1836 0.191758 10.2736 0.120779 10.376 0.0726733C10.4784 0.0245681 10.5904 0.000622976 10.7035 0.00268492C11.8703 6.03599e-05 13.0401 -0.00218926 14.2085 0.00380973C14.6498 0.00605935 14.9763 0.341253 14.9778 0.781804C14.9816 1.94411 14.9816 3.10641 14.9778 4.26872C14.9778 4.71039 14.6318 5.05608 14.2126 5.05234C13.7934 5.04859 13.4702 4.71864 13.4627 4.27584C13.4556 3.80117 13.4608 3.32613 13.4608 2.85108V2.65424L13.3926 2.61C13.3502 2.67681 13.3028 2.74035 13.2509 2.80009C11.7591 4.29459 10.2662 5.78796 8.77224 7.28021C8.38343 7.66827 7.96313 7.66902 7.57582 7.28358C7.06716 6.77717 6.55937 6.26913 6.05245 5.75947C6.00896 5.7156 5.97409 5.66161 5.9201 5.59524Z" fill="#32D583"/>
</svg>
