<svg width="24" height="24" viewBox="0 0 24 24" fill="none" xmlns="http://www.w3.org/2000/svg">
<path d="M17.8335 18.6436L5.10553 5.9157C4.81562 5.62578 4.81562 5.14495 5.10553 4.85504C5.39545 4.56512 5.87628 4.56512 6.16619 4.85504L18.8941 17.583C19.184 17.8729 19.184 18.3537 18.8941 18.6436C18.6042 18.9335 18.1234 18.9335 17.8335 18.6436Z" fill="#28292A"/>
<path d="M18.8943 5.91618L6.16637 18.6441C5.87645 18.934 5.39562 18.934 5.10571 18.6441C4.81579 18.3542 4.81579 17.8734 5.10571 17.5834L17.8336 4.85552C18.1235 4.5656 18.6044 4.5656 18.8943 4.85552C19.1842 5.14543 19.1842 5.62626 18.8943 5.91618Z" fill="#28292A"/>
</svg>
