<svg width="329" height="326" viewBox="0 0 329 326" fill="none" xmlns="http://www.w3.org/2000/svg">
<path d="M123.622 183.99H122.374C122.234 183.99 122.118 183.956 122.026 183.888C121.938 183.816 121.874 183.728 121.834 183.624L121.186 181.854H117.592L116.944 183.624C116.912 183.716 116.848 183.8 116.752 183.876C116.66 183.952 116.546 183.99 116.41 183.99H115.156L118.564 175.314H120.214L123.622 183.99ZM118.006 180.714H120.772L119.716 177.828C119.668 177.7 119.614 177.55 119.554 177.378C119.498 177.202 119.442 177.012 119.386 176.808C119.33 177.012 119.274 177.202 119.218 177.378C119.166 177.554 119.114 177.708 119.062 177.84L118.006 180.714ZM126.965 183.99H125.621L123.173 177.834H124.403C124.511 177.834 124.601 177.86 124.673 177.912C124.749 177.964 124.801 178.03 124.829 178.11L126.017 181.398C126.085 181.59 126.141 181.778 126.185 181.962C126.233 182.146 126.275 182.33 126.311 182.514C126.347 182.33 126.387 182.146 126.431 181.962C126.479 181.778 126.539 181.59 126.611 181.398L127.829 178.11C127.857 178.03 127.907 177.964 127.979 177.912C128.051 177.86 128.137 177.834 128.237 177.834H129.407L126.965 183.99ZM132.624 177.738C133.012 177.738 133.368 177.8 133.692 177.924C134.02 178.048 134.302 178.23 134.538 178.47C134.774 178.706 134.958 178.998 135.09 179.346C135.222 179.69 135.288 180.084 135.288 180.528C135.288 180.64 135.282 180.734 135.27 180.81C135.262 180.882 135.244 180.94 135.216 180.984C135.192 181.024 135.158 181.054 135.114 181.074C135.07 181.09 135.014 181.098 134.946 181.098H131.142C131.186 181.73 131.356 182.194 131.652 182.49C131.948 182.786 132.34 182.934 132.828 182.934C133.068 182.934 133.274 182.906 133.446 182.85C133.622 182.794 133.774 182.732 133.902 182.664C134.034 182.596 134.148 182.534 134.244 182.478C134.344 182.422 134.44 182.394 134.532 182.394C134.592 182.394 134.644 182.406 134.688 182.43C134.732 182.454 134.77 182.488 134.802 182.532L135.234 183.072C135.07 183.264 134.886 183.426 134.682 183.558C134.478 183.686 134.264 183.79 134.04 183.87C133.82 183.946 133.594 184 133.362 184.032C133.134 184.064 132.912 184.08 132.696 184.08C132.268 184.08 131.87 184.01 131.502 183.87C131.134 183.726 130.814 183.516 130.542 183.24C130.27 182.96 130.056 182.616 129.9 182.208C129.744 181.796 129.666 181.32 129.666 180.78C129.666 180.36 129.734 179.966 129.87 179.598C130.006 179.226 130.2 178.904 130.452 178.632C130.708 178.356 131.018 178.138 131.382 177.978C131.75 177.818 132.164 177.738 132.624 177.738ZM132.654 178.8C132.222 178.8 131.884 178.922 131.64 179.166C131.396 179.41 131.24 179.756 131.172 180.204H133.956C133.956 180.012 133.93 179.832 133.878 179.664C133.826 179.492 133.746 179.342 133.638 179.214C133.53 179.086 133.394 178.986 133.23 178.914C133.066 178.838 132.874 178.8 132.654 178.8ZM136.491 183.99V177.834H137.361C137.513 177.834 137.619 177.862 137.679 177.918C137.739 177.974 137.779 178.07 137.799 178.206L137.889 178.95C138.109 178.57 138.367 178.27 138.663 178.05C138.959 177.83 139.291 177.72 139.659 177.72C139.963 177.72 140.215 177.79 140.415 177.93L140.223 179.04C140.211 179.112 140.185 179.164 140.145 179.196C140.105 179.224 140.051 179.238 139.983 179.238C139.923 179.238 139.841 179.224 139.737 179.196C139.633 179.168 139.495 179.154 139.323 179.154C139.015 179.154 138.751 179.24 138.531 179.412C138.311 179.58 138.125 179.828 137.973 180.156V183.99H136.491ZM146.037 183.99H145.371C145.231 183.99 145.121 183.97 145.041 183.93C144.961 183.886 144.901 183.8 144.861 183.672L144.729 183.234C144.573 183.374 144.419 183.498 144.267 183.606C144.119 183.71 143.965 183.798 143.805 183.87C143.645 183.942 143.475 183.996 143.295 184.032C143.115 184.068 142.915 184.086 142.695 184.086C142.435 184.086 142.195 184.052 141.975 183.984C141.755 183.912 141.565 183.806 141.405 183.666C141.249 183.526 141.127 183.352 141.039 183.144C140.951 182.936 140.907 182.694 140.907 182.418C140.907 182.186 140.967 181.958 141.087 181.734C141.211 181.506 141.415 181.302 141.699 181.122C141.983 180.938 142.361 180.786 142.833 180.666C143.305 180.546 143.891 180.478 144.591 180.462V180.102C144.591 179.69 144.503 179.386 144.327 179.19C144.155 178.99 143.903 178.89 143.571 178.89C143.331 178.89 143.131 178.918 142.971 178.974C142.811 179.03 142.671 179.094 142.551 179.166C142.435 179.234 142.327 179.296 142.227 179.352C142.127 179.408 142.017 179.436 141.897 179.436C141.797 179.436 141.711 179.41 141.639 179.358C141.567 179.306 141.509 179.242 141.465 179.166L141.195 178.692C141.903 178.044 142.757 177.72 143.757 177.72C144.117 177.72 144.437 177.78 144.717 177.9C145.001 178.016 145.241 178.18 145.437 178.392C145.633 178.6 145.781 178.85 145.881 179.142C145.985 179.434 146.037 179.754 146.037 180.102V183.99ZM143.157 183.066C143.309 183.066 143.449 183.052 143.577 183.024C143.705 182.996 143.825 182.954 143.937 182.898C144.053 182.842 144.163 182.774 144.267 182.694C144.375 182.61 144.483 182.512 144.591 182.4V181.362C144.159 181.382 143.797 181.42 143.505 181.476C143.217 181.528 142.985 181.596 142.809 181.68C142.633 181.764 142.507 181.862 142.431 181.974C142.359 182.086 142.323 182.208 142.323 182.34C142.323 182.6 142.399 182.786 142.551 182.898C142.707 183.01 142.909 183.066 143.157 183.066ZM149.624 177.726C149.888 177.726 150.136 177.754 150.368 177.81C150.6 177.862 150.812 177.94 151.004 178.044H152.774V178.596C152.774 178.688 152.75 178.76 152.702 178.812C152.654 178.864 152.572 178.9 152.456 178.92L151.904 179.022C151.944 179.126 151.974 179.236 151.994 179.352C152.018 179.468 152.03 179.59 152.03 179.718C152.03 180.022 151.968 180.298 151.844 180.546C151.724 180.79 151.556 180.998 151.34 181.17C151.128 181.342 150.874 181.476 150.578 181.572C150.286 181.664 149.968 181.71 149.624 181.71C149.392 181.71 149.166 181.688 148.946 181.644C148.754 181.76 148.658 181.89 148.658 182.034C148.658 182.158 148.714 182.25 148.826 182.31C148.942 182.366 149.092 182.406 149.276 182.43C149.464 182.454 149.676 182.47 149.912 182.478C150.148 182.482 150.39 182.494 150.638 182.514C150.886 182.534 151.128 182.57 151.364 182.622C151.6 182.67 151.81 182.748 151.994 182.856C152.182 182.964 152.332 183.112 152.444 183.3C152.56 183.484 152.618 183.722 152.618 184.014C152.618 184.286 152.55 184.55 152.414 184.806C152.282 185.062 152.088 185.29 151.832 185.49C151.58 185.69 151.27 185.85 150.902 185.97C150.534 186.094 150.114 186.156 149.642 186.156C149.174 186.156 148.768 186.11 148.424 186.018C148.08 185.93 147.794 185.81 147.566 185.658C147.342 185.51 147.174 185.338 147.062 185.142C146.95 184.946 146.894 184.742 146.894 184.53C146.894 184.242 146.982 184 147.158 183.804C147.334 183.608 147.578 183.452 147.89 183.336C147.738 183.252 147.616 183.14 147.524 183C147.432 182.86 147.386 182.678 147.386 182.454C147.386 182.362 147.402 182.268 147.434 182.172C147.466 182.072 147.514 181.974 147.578 181.878C147.646 181.782 147.73 181.692 147.83 181.608C147.93 181.52 148.048 181.442 148.184 181.374C147.872 181.206 147.626 180.982 147.446 180.702C147.27 180.422 147.182 180.094 147.182 179.718C147.182 179.414 147.242 179.14 147.362 178.896C147.486 178.648 147.656 178.438 147.872 178.266C148.092 178.09 148.35 177.956 148.646 177.864C148.946 177.772 149.272 177.726 149.624 177.726ZM151.25 184.266C151.25 184.146 151.214 184.048 151.142 183.972C151.07 183.896 150.972 183.838 150.848 183.798C150.724 183.754 150.578 183.722 150.41 183.702C150.246 183.682 150.07 183.668 149.882 183.66C149.698 183.648 149.506 183.638 149.306 183.63C149.11 183.618 148.92 183.6 148.736 183.576C148.568 183.668 148.432 183.778 148.328 183.906C148.228 184.03 148.178 184.174 148.178 184.338C148.178 184.446 148.204 184.546 148.256 184.638C148.312 184.734 148.398 184.816 148.514 184.884C148.634 184.952 148.788 185.004 148.976 185.04C149.164 185.08 149.394 185.1 149.666 185.1C149.942 185.1 150.18 185.078 150.38 185.034C150.58 184.994 150.744 184.936 150.872 184.86C151.004 184.788 151.1 184.7 151.16 184.596C151.22 184.496 151.25 184.386 151.25 184.266ZM149.624 180.762C149.808 180.762 149.968 180.738 150.104 180.69C150.24 180.638 150.352 180.568 150.44 180.48C150.532 180.392 150.6 180.286 150.644 180.162C150.692 180.038 150.716 179.902 150.716 179.754C150.716 179.45 150.624 179.21 150.44 179.034C150.26 178.854 149.988 178.764 149.624 178.764C149.26 178.764 148.986 178.854 148.802 179.034C148.622 179.21 148.532 179.45 148.532 179.754C148.532 179.898 148.554 180.032 148.598 180.156C148.646 180.28 148.714 180.388 148.802 180.48C148.894 180.568 149.008 180.638 149.144 180.69C149.284 180.738 149.444 180.762 149.624 180.762ZM156.249 177.738C156.637 177.738 156.993 177.8 157.317 177.924C157.645 178.048 157.927 178.23 158.163 178.47C158.399 178.706 158.583 178.998 158.715 179.346C158.847 179.69 158.913 180.084 158.913 180.528C158.913 180.64 158.907 180.734 158.895 180.81C158.887 180.882 158.869 180.94 158.841 180.984C158.817 181.024 158.783 181.054 158.739 181.074C158.695 181.09 158.639 181.098 158.571 181.098H154.767C154.811 181.73 154.981 182.194 155.277 182.49C155.573 182.786 155.965 182.934 156.453 182.934C156.693 182.934 156.899 182.906 157.071 182.85C157.247 182.794 157.399 182.732 157.527 182.664C157.659 182.596 157.773 182.534 157.869 182.478C157.969 182.422 158.065 182.394 158.157 182.394C158.217 182.394 158.269 182.406 158.313 182.43C158.357 182.454 158.395 182.488 158.427 182.532L158.859 183.072C158.695 183.264 158.511 183.426 158.307 183.558C158.103 183.686 157.889 183.79 157.665 183.87C157.445 183.946 157.219 184 156.987 184.032C156.759 184.064 156.537 184.08 156.321 184.08C155.893 184.08 155.495 184.01 155.127 183.87C154.759 183.726 154.439 183.516 154.167 183.24C153.895 182.96 153.681 182.616 153.525 182.208C153.369 181.796 153.291 181.32 153.291 180.78C153.291 180.36 153.359 179.966 153.495 179.598C153.631 179.226 153.825 178.904 154.077 178.632C154.333 178.356 154.643 178.138 155.007 177.978C155.375 177.818 155.789 177.738 156.249 177.738ZM156.279 178.8C155.847 178.8 155.509 178.922 155.265 179.166C155.021 179.41 154.865 179.756 154.797 180.204H157.581C157.581 180.012 157.555 179.832 157.503 179.664C157.451 179.492 157.371 179.342 157.263 179.214C157.155 179.086 157.019 178.986 156.855 178.914C156.691 178.838 156.499 178.8 156.279 178.8ZM162.436 183.99V177.834H163.306C163.458 177.834 163.564 177.862 163.624 177.918C163.684 177.974 163.724 178.07 163.744 178.206L163.834 178.95C164.054 178.57 164.312 178.27 164.608 178.05C164.904 177.83 165.236 177.72 165.604 177.72C165.908 177.72 166.16 177.79 166.36 177.93L166.168 179.04C166.156 179.112 166.13 179.164 166.09 179.196C166.05 179.224 165.996 179.238 165.928 179.238C165.868 179.238 165.786 179.224 165.682 179.196C165.578 179.168 165.44 179.154 165.268 179.154C164.96 179.154 164.696 179.24 164.476 179.412C164.256 179.58 164.07 179.828 163.918 180.156V183.99H162.436ZM169.878 177.738C170.266 177.738 170.622 177.8 170.946 177.924C171.274 178.048 171.556 178.23 171.792 178.47C172.028 178.706 172.212 178.998 172.344 179.346C172.476 179.69 172.542 180.084 172.542 180.528C172.542 180.64 172.536 180.734 172.524 180.81C172.516 180.882 172.498 180.94 172.47 180.984C172.446 181.024 172.412 181.054 172.368 181.074C172.324 181.09 172.268 181.098 172.2 181.098H168.396C168.44 181.73 168.61 182.194 168.906 182.49C169.202 182.786 169.594 182.934 170.082 182.934C170.322 182.934 170.528 182.906 170.7 182.85C170.876 182.794 171.028 182.732 171.156 182.664C171.288 182.596 171.402 182.534 171.498 182.478C171.598 182.422 171.694 182.394 171.786 182.394C171.846 182.394 171.898 182.406 171.942 182.43C171.986 182.454 172.024 182.488 172.056 182.532L172.488 183.072C172.324 183.264 172.14 183.426 171.936 183.558C171.732 183.686 171.518 183.79 171.294 183.87C171.074 183.946 170.848 184 170.616 184.032C170.388 184.064 170.166 184.08 169.95 184.08C169.522 184.08 169.124 184.01 168.756 183.87C168.388 183.726 168.068 183.516 167.796 183.24C167.524 182.96 167.31 182.616 167.154 182.208C166.998 181.796 166.92 181.32 166.92 180.78C166.92 180.36 166.988 179.966 167.124 179.598C167.26 179.226 167.454 178.904 167.706 178.632C167.962 178.356 168.272 178.138 168.636 177.978C169.004 177.818 169.418 177.738 169.878 177.738ZM169.908 178.8C169.476 178.8 169.138 178.922 168.894 179.166C168.65 179.41 168.494 179.756 168.426 180.204H171.21C171.21 180.012 171.184 179.832 171.132 179.664C171.08 179.492 171 179.342 170.892 179.214C170.784 179.086 170.648 178.986 170.484 178.914C170.32 178.838 170.128 178.8 169.908 178.8ZM173.744 183.99V177.834H174.65C174.842 177.834 174.968 177.924 175.028 178.104L175.124 178.56C175.232 178.44 175.344 178.33 175.46 178.23C175.58 178.13 175.706 178.044 175.838 177.972C175.974 177.9 176.118 177.844 176.27 177.804C176.426 177.76 176.596 177.738 176.78 177.738C177.168 177.738 177.486 177.844 177.734 178.056C177.986 178.264 178.174 178.542 178.298 178.89C178.394 178.686 178.514 178.512 178.658 178.368C178.802 178.22 178.96 178.1 179.132 178.008C179.304 177.916 179.486 177.848 179.678 177.804C179.874 177.76 180.07 177.738 180.266 177.738C180.606 177.738 180.908 177.79 181.172 177.894C181.436 177.998 181.658 178.15 181.838 178.35C182.018 178.55 182.154 178.794 182.246 179.082C182.342 179.37 182.39 179.7 182.39 180.072V183.99H180.908V180.072C180.908 179.68 180.822 179.386 180.65 179.19C180.478 178.99 180.226 178.89 179.894 178.89C179.742 178.89 179.6 178.916 179.468 178.968C179.34 179.02 179.226 179.096 179.126 179.196C179.03 179.292 178.954 179.414 178.898 179.562C178.842 179.71 178.814 179.88 178.814 180.072V183.99H177.326V180.072C177.326 179.66 177.242 179.36 177.074 179.172C176.91 178.984 176.666 178.89 176.342 178.89C176.13 178.89 175.93 178.944 175.742 179.052C175.558 179.156 175.386 179.3 175.226 179.484V183.99H173.744ZM186.474 177.738C186.934 177.738 187.35 177.812 187.722 177.96C188.098 178.108 188.418 178.318 188.682 178.59C188.946 178.862 189.15 179.194 189.294 179.586C189.438 179.978 189.51 180.416 189.51 180.9C189.51 181.388 189.438 181.828 189.294 182.22C189.15 182.612 188.946 182.946 188.682 183.222C188.418 183.498 188.098 183.71 187.722 183.858C187.35 184.006 186.934 184.08 186.474 184.08C186.014 184.08 185.596 184.006 185.22 183.858C184.844 183.71 184.522 183.498 184.254 183.222C183.99 182.946 183.784 182.612 183.636 182.22C183.492 181.828 183.42 181.388 183.42 180.9C183.42 180.416 183.492 179.978 183.636 179.586C183.784 179.194 183.99 178.862 184.254 178.59C184.522 178.318 184.844 178.108 185.22 177.96C185.596 177.812 186.014 177.738 186.474 177.738ZM186.474 182.94C186.986 182.94 187.364 182.768 187.608 182.424C187.856 182.08 187.98 181.576 187.98 180.912C187.98 180.248 187.856 179.742 187.608 179.394C187.364 179.046 186.986 178.872 186.474 178.872C185.954 178.872 185.57 179.048 185.322 179.4C185.074 179.748 184.95 180.252 184.95 180.912C184.95 181.572 185.074 182.076 185.322 182.424C185.57 182.768 185.954 182.94 186.474 182.94ZM193.551 183.99H192.207L189.759 177.834H190.989C191.097 177.834 191.187 177.86 191.259 177.912C191.335 177.964 191.387 178.03 191.415 178.11L192.603 181.398C192.671 181.59 192.727 181.778 192.771 181.962C192.819 182.146 192.861 182.33 192.897 182.514C192.933 182.33 192.973 182.146 193.017 181.962C193.065 181.778 193.125 181.59 193.197 181.398L194.415 178.11C194.443 178.03 194.493 177.964 194.565 177.912C194.637 177.86 194.723 177.834 194.823 177.834H195.993L193.551 183.99ZM201.69 183.99H201.024C200.884 183.99 200.774 183.97 200.694 183.93C200.614 183.886 200.554 183.8 200.514 183.672L200.382 183.234C200.226 183.374 200.072 183.498 199.92 183.606C199.772 183.71 199.618 183.798 199.458 183.87C199.298 183.942 199.128 183.996 198.948 184.032C198.768 184.068 198.568 184.086 198.348 184.086C198.088 184.086 197.848 184.052 197.628 183.984C197.408 183.912 197.218 183.806 197.058 183.666C196.902 183.526 196.78 183.352 196.692 183.144C196.604 182.936 196.56 182.694 196.56 182.418C196.56 182.186 196.62 181.958 196.74 181.734C196.864 181.506 197.068 181.302 197.352 181.122C197.636 180.938 198.014 180.786 198.486 180.666C198.958 180.546 199.544 180.478 200.244 180.462V180.102C200.244 179.69 200.156 179.386 199.98 179.19C199.808 178.99 199.556 178.89 199.224 178.89C198.984 178.89 198.784 178.918 198.624 178.974C198.464 179.03 198.324 179.094 198.204 179.166C198.088 179.234 197.98 179.296 197.88 179.352C197.78 179.408 197.67 179.436 197.55 179.436C197.45 179.436 197.364 179.41 197.292 179.358C197.22 179.306 197.162 179.242 197.118 179.166L196.848 178.692C197.556 178.044 198.41 177.72 199.41 177.72C199.77 177.72 200.09 177.78 200.37 177.9C200.654 178.016 200.894 178.18 201.09 178.392C201.286 178.6 201.434 178.85 201.534 179.142C201.638 179.434 201.69 179.754 201.69 180.102V183.99ZM198.81 183.066C198.962 183.066 199.102 183.052 199.23 183.024C199.358 182.996 199.478 182.954 199.59 182.898C199.706 182.842 199.816 182.774 199.92 182.694C200.028 182.61 200.136 182.512 200.244 182.4V181.362C199.812 181.382 199.45 181.42 199.158 181.476C198.87 181.528 198.638 181.596 198.462 181.68C198.286 181.764 198.16 181.862 198.084 181.974C198.012 182.086 197.976 182.208 197.976 182.34C197.976 182.6 198.052 182.786 198.204 182.898C198.36 183.01 198.562 183.066 198.81 183.066ZM204.725 175.074V183.99H203.243V175.074H204.725ZM210.059 179.034C210.019 179.098 209.977 179.144 209.933 179.172C209.889 179.196 209.833 179.208 209.765 179.208C209.693 179.208 209.615 179.188 209.531 179.148C209.451 179.108 209.357 179.064 209.249 179.016C209.141 178.964 209.017 178.918 208.877 178.878C208.741 178.838 208.579 178.818 208.391 178.818C208.099 178.818 207.869 178.88 207.701 179.004C207.533 179.128 207.449 179.29 207.449 179.49C207.449 179.622 207.491 179.734 207.575 179.826C207.663 179.914 207.777 179.992 207.917 180.06C208.061 180.128 208.223 180.19 208.403 180.246C208.583 180.298 208.767 180.356 208.955 180.42C209.143 180.484 209.327 180.558 209.507 180.642C209.687 180.722 209.847 180.826 209.987 180.954C210.131 181.078 210.245 181.228 210.329 181.404C210.417 181.58 210.461 181.792 210.461 182.04C210.461 182.336 210.407 182.61 210.299 182.862C210.191 183.11 210.033 183.326 209.825 183.51C209.617 183.69 209.359 183.832 209.051 183.936C208.747 184.036 208.397 184.086 208.001 184.086C207.789 184.086 207.581 184.066 207.377 184.026C207.177 183.99 206.983 183.938 206.795 183.87C206.611 183.802 206.439 183.722 206.279 183.63C206.123 183.538 205.985 183.438 205.865 183.33L206.207 182.766C206.251 182.698 206.303 182.646 206.363 182.61C206.423 182.574 206.499 182.556 206.591 182.556C206.683 182.556 206.769 182.582 206.849 182.634C206.933 182.686 207.029 182.742 207.137 182.802C207.245 182.862 207.371 182.918 207.515 182.97C207.663 183.022 207.849 183.048 208.073 183.048C208.249 183.048 208.399 183.028 208.523 182.988C208.651 182.944 208.755 182.888 208.835 182.82C208.919 182.752 208.979 182.674 209.015 182.586C209.055 182.494 209.075 182.4 209.075 182.304C209.075 182.16 209.031 182.042 208.943 181.95C208.859 181.858 208.745 181.778 208.601 181.71C208.461 181.642 208.299 181.582 208.115 181.53C207.935 181.474 207.749 181.414 207.557 181.35C207.369 181.286 207.183 181.212 206.999 181.128C206.819 181.04 206.657 180.93 206.513 180.798C206.373 180.666 206.259 180.504 206.171 180.312C206.087 180.12 206.045 179.888 206.045 179.616C206.045 179.364 206.095 179.124 206.195 178.896C206.295 178.668 206.441 178.47 206.633 178.302C206.829 178.13 207.071 177.994 207.359 177.894C207.651 177.79 207.987 177.738 208.367 177.738C208.791 177.738 209.177 177.808 209.525 177.948C209.873 178.088 210.163 178.272 210.395 178.5L210.059 179.034Z" fill="#BCBDBE"/>
<path d="M159.641 168.32C160.068 168.32 160.404 168.443 160.649 168.688C160.905 168.923 161.033 169.237 161.033 169.632V172H145.161V170.688C145.161 170.421 145.215 170.144 145.321 169.856C145.439 169.557 145.62 169.291 145.865 169.056L152.889 162.016C153.476 161.419 153.999 160.848 154.457 160.304C154.927 159.76 155.316 159.221 155.625 158.688C155.935 158.155 156.169 157.616 156.329 157.072C156.5 156.517 156.585 155.936 156.585 155.328C156.585 154.773 156.505 154.288 156.345 153.872C156.185 153.445 155.956 153.088 155.657 152.8C155.369 152.512 155.017 152.299 154.601 152.16C154.196 152.011 153.737 151.936 153.225 151.936C152.756 151.936 152.319 152.005 151.913 152.144C151.519 152.272 151.167 152.459 150.857 152.704C150.548 152.939 150.287 153.216 150.073 153.536C149.86 153.856 149.7 154.208 149.593 154.592C149.412 155.083 149.177 155.408 148.889 155.568C148.601 155.728 148.185 155.765 147.641 155.68L145.561 155.312C145.721 154.203 146.031 153.232 146.489 152.4C146.948 151.557 147.519 150.859 148.201 150.304C148.895 149.739 149.684 149.317 150.569 149.04C151.465 148.752 152.425 148.608 153.449 148.608C154.516 148.608 155.492 148.768 156.377 149.088C157.263 149.397 158.02 149.84 158.649 150.416C159.279 150.992 159.769 151.685 160.121 152.496C160.473 153.307 160.649 154.208 160.649 155.2C160.649 156.053 160.521 156.843 160.265 157.568C160.02 158.293 159.684 158.987 159.257 159.648C158.841 160.309 158.351 160.949 157.785 161.568C157.22 162.187 156.628 162.816 156.009 163.456L150.793 168.784C151.295 168.635 151.791 168.523 152.281 168.448C152.783 168.363 153.257 168.32 153.705 168.32H159.641ZM169.004 157.264C169.516 157.157 170.006 157.083 170.476 157.04C170.945 156.987 171.398 156.96 171.836 156.96C173.052 156.96 174.124 157.141 175.052 157.504C175.98 157.867 176.758 158.368 177.388 159.008C178.017 159.648 178.492 160.4 178.812 161.264C179.132 162.117 179.292 163.04 179.292 164.032C179.292 165.259 179.073 166.379 178.636 167.392C178.209 168.405 177.612 169.275 176.844 170C176.076 170.715 175.164 171.269 174.108 171.664C173.062 172.059 171.921 172.256 170.684 172.256C169.958 172.256 169.27 172.181 168.62 172.032C167.969 171.883 167.356 171.685 166.78 171.44C166.214 171.184 165.686 170.896 165.196 170.576C164.716 170.245 164.284 169.899 163.9 169.536L165.116 167.856C165.372 167.493 165.708 167.312 166.124 167.312C166.39 167.312 166.662 167.397 166.94 167.568C167.217 167.739 167.532 167.925 167.884 168.128C168.246 168.331 168.668 168.517 169.148 168.688C169.638 168.859 170.225 168.944 170.908 168.944C171.633 168.944 172.273 168.827 172.828 168.592C173.382 168.357 173.841 168.032 174.204 167.616C174.577 167.189 174.854 166.688 175.036 166.112C175.228 165.525 175.324 164.891 175.324 164.208C175.324 162.949 174.956 161.968 174.22 161.264C173.494 160.549 172.417 160.192 170.988 160.192C169.889 160.192 168.764 160.395 167.612 160.8L165.148 160.096L167.068 148.864H178.492V150.544C178.492 151.109 178.316 151.568 177.964 151.92C177.612 152.272 177.014 152.448 176.172 152.448H169.82L169.004 157.264Z" fill="#1E1B39"/>
<path d="M279.035 163C281.244 163 283.042 164.792 282.969 167C282.084 193.545 272.412 219.091 255.411 239.594C237.558 261.126 212.744 275.745 185.257 280.925C157.77 286.104 129.337 281.519 104.872 267.962C81.5744 255.052 63.2684 234.778 52.783 210.376C51.9109 208.346 52.9332 206.023 54.9908 205.219L80.7384 195.158C82.796 194.354 85.1071 195.375 86.0077 197.392C93.4497 214.061 106.118 227.903 122.148 236.785C139.346 246.316 159.334 249.539 178.656 245.898C197.979 242.257 215.422 231.98 227.973 216.844C239.67 202.736 246.432 185.233 247.297 166.999C247.402 164.792 249.183 163 251.392 163H279.035Z" fill="#039855"/>
<path d="M120.377 55.1284C119.565 53.0741 120.57 50.7435 122.65 50C139.793 43.8731 158.123 41.7212 176.252 43.7302C195.708 45.8863 214.341 52.769 230.526 63.7783C246.711 74.7875 259.958 89.5891 269.11 106.892C277.639 123.016 282.371 140.855 282.97 159.05C283.043 161.258 281.244 163.049 279.035 163.048L251.392 163.037C249.183 163.036 247.402 161.243 247.299 159.036C246.716 146.657 243.413 134.541 237.603 123.558C231.169 111.394 221.857 100.989 210.479 93.25C199.102 85.5108 186.003 80.6724 172.327 79.1568C159.977 77.7882 147.494 79.1664 135.767 83.1722C133.676 83.8864 131.355 82.8892 130.543 80.8348L120.377 55.1284Z" fill="#E5AE40"/>
<path d="M55.2168 205.793C53.1635 206.608 50.8316 205.606 50.0855 203.526C45.2215 189.97 42.8338 175.638 43.0483 161.216C43.2826 145.459 46.6182 129.902 52.8645 115.434C59.1109 100.967 68.1457 87.8708 79.4532 76.8947C89.8032 66.848 101.872 58.7573 115.074 53.001C117.099 52.1181 119.427 53.1282 120.242 55.1815L130.44 80.8752C131.255 82.9285 130.246 85.2448 128.234 86.1562C119.377 90.1674 111.27 95.6841 104.279 102.47C96.3305 110.186 89.9793 119.392 85.5883 129.563C81.1972 139.733 78.8524 150.669 78.6877 161.745C78.5429 171.487 80.0869 181.171 83.2413 190.368C83.9581 192.457 82.9638 194.78 80.9104 195.595L55.2168 205.793Z" fill="#F04438"/>
<path d="M226.907 94.376C227.094 94.376 227.24 94.432 227.347 94.544C227.454 94.6507 227.507 94.7893 227.507 94.96V96H219.715V95.416C219.715 95.2987 219.739 95.176 219.787 95.048C219.835 94.92 219.912 94.8027 220.019 94.696L223.603 91.104C223.907 90.8 224.176 90.5093 224.411 90.232C224.651 89.9547 224.854 89.6773 225.019 89.4C225.19 89.1227 225.318 88.8427 225.403 88.56C225.494 88.272 225.539 87.9707 225.539 87.656C225.539 87.352 225.491 87.0853 225.395 86.856C225.304 86.6213 225.176 86.4293 225.011 86.28C224.851 86.1253 224.656 86.0107 224.427 85.936C224.203 85.856 223.955 85.816 223.683 85.816C223.422 85.816 223.179 85.8533 222.955 85.928C222.736 86.0027 222.539 86.1067 222.363 86.24C222.192 86.3733 222.048 86.5333 221.931 86.72C221.819 86.9013 221.736 87.1013 221.683 87.32C221.603 87.5387 221.499 87.6853 221.371 87.76C221.248 87.8347 221.067 87.8507 220.827 87.808L219.923 87.648C220.003 87.104 220.152 86.6267 220.371 86.216C220.595 85.8053 220.875 85.464 221.211 85.192C221.547 84.9147 221.931 84.7067 222.363 84.568C222.8 84.424 223.272 84.352 223.779 84.352C224.291 84.352 224.76 84.4293 225.187 84.584C225.619 84.7333 225.99 84.9493 226.299 85.232C226.614 85.5093 226.859 85.848 227.035 86.248C227.211 86.648 227.299 87.0987 227.299 87.6C227.299 88.0267 227.235 88.4213 227.107 88.784C226.984 89.1467 226.816 89.4933 226.603 89.824C226.39 90.1547 226.139 90.4773 225.851 90.792C225.568 91.1013 225.27 91.416 224.955 91.736L222.171 94.584C222.4 94.52 222.63 94.4693 222.859 94.432C223.094 94.3947 223.315 94.376 223.523 94.376H226.907ZM231.396 88.736C231.674 88.6773 231.938 88.6347 232.188 88.608C232.444 88.5813 232.69 88.568 232.924 88.568C233.527 88.568 234.058 88.6587 234.516 88.84C234.98 89.016 235.367 89.2613 235.676 89.576C235.991 89.8907 236.226 90.2613 236.38 90.688C236.54 91.1093 236.62 91.568 236.62 92.064C236.62 92.6773 236.514 93.2347 236.3 93.736C236.087 94.2373 235.791 94.6667 235.412 95.024C235.034 95.376 234.586 95.648 234.068 95.84C233.556 96.032 233.002 96.128 232.404 96.128C232.052 96.128 231.716 96.0933 231.396 96.024C231.082 95.9547 230.786 95.8613 230.508 95.744C230.231 95.6213 229.975 95.4827 229.74 95.328C229.506 95.168 229.295 95.0027 229.108 94.832L229.636 94.096C229.748 93.936 229.898 93.856 230.084 93.856C230.202 93.856 230.33 93.8987 230.468 93.984C230.607 94.0693 230.767 94.1627 230.948 94.264C231.135 94.36 231.354 94.4507 231.604 94.536C231.855 94.6213 232.154 94.664 232.5 94.664C232.879 94.664 233.218 94.6027 233.516 94.48C233.815 94.3573 234.066 94.1867 234.268 93.968C234.476 93.744 234.634 93.4773 234.74 93.168C234.847 92.8587 234.9 92.52 234.9 92.152C234.9 91.816 234.85 91.5147 234.748 91.248C234.652 90.9813 234.506 90.7547 234.308 90.568C234.116 90.3813 233.874 90.24 233.58 90.144C233.287 90.0427 232.948 89.992 232.564 89.992C232.282 89.992 231.991 90.016 231.692 90.064C231.399 90.112 231.1 90.1867 230.796 90.288L229.724 89.984L230.668 84.48H236.244V85.224C236.244 85.4693 236.167 85.6693 236.012 85.824C235.858 85.9787 235.599 86.056 235.236 86.056H231.86L231.396 88.736ZM243.47 87.264C243.47 87.7067 243.398 88.104 243.254 88.456C243.115 88.808 242.926 89.1093 242.686 89.36C242.446 89.6053 242.168 89.7947 241.854 89.928C241.539 90.056 241.208 90.12 240.862 90.12C240.488 90.12 240.142 90.056 239.822 89.928C239.507 89.7947 239.232 89.6053 238.998 89.36C238.768 89.1093 238.587 88.808 238.454 88.456C238.32 88.104 238.254 87.7067 238.254 87.264C238.254 86.8107 238.32 86.4053 238.454 86.048C238.587 85.6853 238.768 85.3813 238.998 85.136C239.232 84.8853 239.507 84.6933 239.822 84.56C240.142 84.4267 240.488 84.36 240.862 84.36C241.235 84.36 241.579 84.4267 241.894 84.56C242.214 84.6933 242.488 84.8853 242.718 85.136C242.952 85.3813 243.136 85.6853 243.27 86.048C243.403 86.4053 243.47 86.8107 243.47 87.264ZM242.142 87.264C242.142 86.9387 242.107 86.664 242.038 86.44C241.974 86.2107 241.883 86.0267 241.766 85.888C241.654 85.744 241.518 85.6427 241.358 85.584C241.203 85.52 241.038 85.488 240.862 85.488C240.68 85.488 240.512 85.52 240.358 85.584C240.203 85.6427 240.07 85.744 239.958 85.888C239.846 86.0267 239.758 86.2107 239.694 86.44C239.63 86.664 239.598 86.9387 239.598 87.264C239.598 87.584 239.63 87.8533 239.694 88.072C239.758 88.2907 239.846 88.4693 239.958 88.608C240.07 88.7413 240.203 88.8373 240.358 88.896C240.512 88.9547 240.68 88.984 240.862 88.984C241.038 88.984 241.203 88.9547 241.358 88.896C241.518 88.8373 241.654 88.7413 241.766 88.608C241.883 88.4693 241.974 88.2907 242.038 88.072C242.107 87.8533 242.142 87.584 242.142 87.264ZM247.422 84.76C247.48 84.6853 247.55 84.6213 247.63 84.568C247.715 84.5093 247.832 84.48 247.982 84.48H249.222L240.734 95.736C240.675 95.8107 240.603 95.8747 240.518 95.928C240.432 95.976 240.328 96 240.206 96H238.926L247.422 84.76ZM249.918 93.288C249.918 93.7307 249.846 94.128 249.702 94.48C249.558 94.832 249.366 95.1307 249.126 95.376C248.886 95.6213 248.608 95.8107 248.294 95.944C247.979 96.072 247.648 96.136 247.302 96.136C246.928 96.136 246.582 96.072 246.262 95.944C245.947 95.8107 245.672 95.6213 245.438 95.376C245.208 95.1307 245.027 94.832 244.894 94.48C244.766 94.128 244.702 93.7307 244.702 93.288C244.702 92.8347 244.766 92.4293 244.894 92.072C245.027 91.7093 245.208 91.4027 245.438 91.152C245.672 90.9013 245.947 90.712 246.262 90.584C246.582 90.4507 246.928 90.384 247.302 90.384C247.675 90.384 248.022 90.4507 248.342 90.584C248.662 90.712 248.936 90.9013 249.166 91.152C249.4 91.4027 249.584 91.7093 249.718 92.072C249.851 92.4293 249.918 92.8347 249.918 93.288ZM248.59 93.288C248.59 92.9627 248.555 92.688 248.486 92.464C248.422 92.2347 248.331 92.0507 248.214 91.912C248.096 91.768 247.958 91.6667 247.798 91.608C247.643 91.544 247.478 91.512 247.302 91.512C247.126 91.512 246.96 91.544 246.806 91.608C246.651 91.6667 246.515 91.768 246.398 91.912C246.286 92.0507 246.198 92.2347 246.134 92.464C246.07 92.688 246.038 92.9627 246.038 93.288C246.038 93.608 246.07 93.8773 246.134 94.096C246.198 94.3147 246.286 94.4933 246.398 94.632C246.515 94.7653 246.651 94.8613 246.806 94.92C246.96 94.9787 247.126 95.008 247.302 95.008C247.478 95.008 247.643 94.9787 247.798 94.92C247.958 94.8613 248.096 94.7653 248.214 94.632C248.331 94.4933 248.422 94.3147 248.486 94.096C248.555 93.8773 248.59 93.608 248.59 93.288Z" fill="white"/>
<path d="M150.659 269.704C151.006 269.704 151.323 269.648 151.611 269.536C151.899 269.419 152.144 269.259 152.347 269.056C152.555 268.853 152.715 268.613 152.827 268.336C152.939 268.059 152.995 267.757 152.995 267.432C152.995 267.08 152.939 266.765 152.827 266.488C152.72 266.205 152.566 265.968 152.363 265.776C152.166 265.584 151.926 265.437 151.643 265.336C151.366 265.229 151.059 265.176 150.723 265.176C150.376 265.176 150.062 265.235 149.779 265.352C149.502 265.469 149.264 265.629 149.067 265.832C148.87 266.035 148.718 266.272 148.611 266.544C148.504 266.816 148.451 267.104 148.451 267.408C148.451 267.749 148.499 268.061 148.595 268.344C148.691 268.627 148.832 268.869 149.019 269.072C149.206 269.269 149.435 269.424 149.707 269.536C149.984 269.648 150.302 269.704 150.659 269.704ZM150.027 263.72C149.942 263.827 149.859 263.928 149.779 264.024C149.704 264.12 149.63 264.216 149.555 264.312C149.8 264.173 150.07 264.064 150.363 263.984C150.656 263.904 150.971 263.864 151.307 263.864C151.755 263.864 152.184 263.939 152.595 264.088C153.006 264.232 153.366 264.451 153.675 264.744C153.99 265.032 154.24 265.392 154.427 265.824C154.614 266.251 154.707 266.744 154.707 267.304C154.707 267.837 154.608 268.336 154.411 268.8C154.219 269.264 153.947 269.669 153.595 270.016C153.243 270.357 152.819 270.629 152.323 270.832C151.832 271.029 151.288 271.128 150.691 271.128C150.094 271.128 149.555 271.032 149.075 270.84C148.595 270.648 148.184 270.379 147.843 270.032C147.507 269.68 147.248 269.259 147.067 268.768C146.886 268.277 146.795 267.731 146.795 267.128C146.795 266.605 146.907 266.059 147.131 265.488C147.355 264.917 147.702 264.317 148.171 263.688L151.003 259.888C151.088 259.776 151.211 259.68 151.371 259.6C151.536 259.52 151.72 259.48 151.923 259.48H153.443L150.027 263.72ZM164.156 265.24C164.156 266.248 164.047 267.12 163.828 267.856C163.615 268.592 163.319 269.203 162.94 269.688C162.562 270.173 162.116 270.533 161.604 270.768C161.092 271.003 160.54 271.12 159.948 271.12C159.356 271.12 158.804 271.003 158.292 270.768C157.78 270.533 157.335 270.173 156.956 269.688C156.583 269.203 156.29 268.592 156.076 267.856C155.863 267.12 155.756 266.248 155.756 265.24C155.756 264.232 155.863 263.36 156.076 262.624C156.29 261.883 156.583 261.272 156.956 260.792C157.335 260.307 157.78 259.947 158.292 259.712C158.804 259.472 159.356 259.352 159.948 259.352C160.54 259.352 161.092 259.472 161.604 259.712C162.116 259.947 162.562 260.307 162.94 260.792C163.319 261.272 163.615 261.883 163.828 262.624C164.047 263.36 164.156 264.232 164.156 265.24ZM162.38 265.24C162.38 264.387 162.311 263.677 162.172 263.112C162.039 262.541 161.86 262.085 161.636 261.744C161.412 261.403 161.154 261.16 160.86 261.016C160.567 260.872 160.263 260.8 159.948 260.8C159.628 260.8 159.322 260.872 159.028 261.016C158.74 261.16 158.484 261.403 158.26 261.744C158.036 262.085 157.858 262.541 157.724 263.112C157.591 263.677 157.524 264.387 157.524 265.24C157.524 266.093 157.591 266.805 157.724 267.376C157.858 267.941 158.036 268.395 158.26 268.736C158.484 269.077 158.74 269.32 159.028 269.464C159.322 269.608 159.628 269.68 159.948 269.68C160.263 269.68 160.567 269.608 160.86 269.464C161.154 269.32 161.412 269.077 161.636 268.736C161.86 268.395 162.039 267.941 162.172 267.376C162.311 266.805 162.38 266.093 162.38 265.24ZM170.47 262.264C170.47 262.707 170.398 263.104 170.254 263.456C170.115 263.808 169.926 264.109 169.686 264.36C169.446 264.605 169.168 264.795 168.854 264.928C168.539 265.056 168.208 265.12 167.862 265.12C167.488 265.12 167.142 265.056 166.822 264.928C166.507 264.795 166.232 264.605 165.998 264.36C165.768 264.109 165.587 263.808 165.454 263.456C165.32 263.104 165.254 262.707 165.254 262.264C165.254 261.811 165.32 261.405 165.454 261.048C165.587 260.685 165.768 260.381 165.998 260.136C166.232 259.885 166.507 259.693 166.822 259.56C167.142 259.427 167.488 259.36 167.862 259.36C168.235 259.36 168.579 259.427 168.894 259.56C169.214 259.693 169.488 259.885 169.718 260.136C169.952 260.381 170.136 260.685 170.27 261.048C170.403 261.405 170.47 261.811 170.47 262.264ZM169.142 262.264C169.142 261.939 169.107 261.664 169.038 261.44C168.974 261.211 168.883 261.027 168.766 260.888C168.654 260.744 168.518 260.643 168.358 260.584C168.203 260.52 168.038 260.488 167.862 260.488C167.68 260.488 167.512 260.52 167.358 260.584C167.203 260.643 167.07 260.744 166.958 260.888C166.846 261.027 166.758 261.211 166.694 261.44C166.63 261.664 166.598 261.939 166.598 262.264C166.598 262.584 166.63 262.853 166.694 263.072C166.758 263.291 166.846 263.469 166.958 263.608C167.07 263.741 167.203 263.837 167.358 263.896C167.512 263.955 167.68 263.984 167.862 263.984C168.038 263.984 168.203 263.955 168.358 263.896C168.518 263.837 168.654 263.741 168.766 263.608C168.883 263.469 168.974 263.291 169.038 263.072C169.107 262.853 169.142 262.584 169.142 262.264ZM174.422 259.76C174.48 259.685 174.55 259.621 174.63 259.568C174.715 259.509 174.832 259.48 174.982 259.48H176.222L167.734 270.736C167.675 270.811 167.603 270.875 167.518 270.928C167.432 270.976 167.328 271 167.206 271H165.926L174.422 259.76ZM176.918 268.288C176.918 268.731 176.846 269.128 176.702 269.48C176.558 269.832 176.366 270.131 176.126 270.376C175.886 270.621 175.608 270.811 175.294 270.944C174.979 271.072 174.648 271.136 174.302 271.136C173.928 271.136 173.582 271.072 173.262 270.944C172.947 270.811 172.672 270.621 172.438 270.376C172.208 270.131 172.027 269.832 171.894 269.48C171.766 269.128 171.702 268.731 171.702 268.288C171.702 267.835 171.766 267.429 171.894 267.072C172.027 266.709 172.208 266.403 172.438 266.152C172.672 265.901 172.947 265.712 173.262 265.584C173.582 265.451 173.928 265.384 174.302 265.384C174.675 265.384 175.022 265.451 175.342 265.584C175.662 265.712 175.936 265.901 176.166 266.152C176.4 266.403 176.584 266.709 176.718 267.072C176.851 267.429 176.918 267.835 176.918 268.288ZM175.59 268.288C175.59 267.963 175.555 267.688 175.486 267.464C175.422 267.235 175.331 267.051 175.214 266.912C175.096 266.768 174.958 266.667 174.798 266.608C174.643 266.544 174.478 266.512 174.302 266.512C174.126 266.512 173.96 266.544 173.806 266.608C173.651 266.667 173.515 266.768 173.398 266.912C173.286 267.051 173.198 267.235 173.134 267.464C173.07 267.688 173.038 267.963 173.038 268.288C173.038 268.608 173.07 268.877 173.134 269.096C173.198 269.315 173.286 269.493 173.398 269.632C173.515 269.765 173.651 269.861 173.806 269.92C173.96 269.979 174.126 270.008 174.302 270.008C174.478 270.008 174.643 269.979 174.798 269.92C174.958 269.861 175.096 269.765 175.214 269.632C175.331 269.493 175.422 269.315 175.486 269.096C175.555 268.877 175.59 268.608 175.59 268.288Z" fill="white"/>
<path d="M62.2512 124.696V126H55.9712V124.696H58.3712V117.48C58.3712 117.224 58.3792 116.963 58.3952 116.696L56.5472 118.256C56.4672 118.32 56.3845 118.363 56.2992 118.384C56.2192 118.4 56.1418 118.4 56.0672 118.384C55.9978 118.368 55.9338 118.344 55.8752 118.312C55.8218 118.275 55.7792 118.235 55.7472 118.192L55.2112 117.44L58.6832 114.456H60.0832V124.696H62.2512ZM66.3964 118.736C66.6737 118.677 66.9377 118.635 67.1884 118.608C67.4444 118.581 67.6897 118.568 67.9244 118.568C68.5271 118.568 69.0577 118.659 69.5164 118.84C69.9804 119.016 70.3671 119.261 70.6764 119.576C70.9911 119.891 71.2257 120.261 71.3804 120.688C71.5404 121.109 71.6204 121.568 71.6204 122.064C71.6204 122.677 71.5137 123.235 71.3004 123.736C71.0871 124.237 70.7911 124.667 70.4124 125.024C70.0337 125.376 69.5857 125.648 69.0684 125.84C68.5564 126.032 68.0017 126.128 67.4044 126.128C67.0524 126.128 66.7164 126.093 66.3964 126.024C66.0817 125.955 65.7857 125.861 65.5084 125.744C65.2311 125.621 64.9751 125.483 64.7404 125.328C64.5057 125.168 64.2951 125.003 64.1084 124.832L64.6364 124.096C64.7484 123.936 64.8977 123.856 65.0844 123.856C65.2017 123.856 65.3297 123.899 65.4684 123.984C65.6071 124.069 65.7671 124.163 65.9484 124.264C66.1351 124.36 66.3537 124.451 66.6044 124.536C66.8551 124.621 67.1537 124.664 67.5004 124.664C67.8791 124.664 68.2177 124.603 68.5164 124.48C68.8151 124.357 69.0657 124.187 69.2684 123.968C69.4764 123.744 69.6337 123.477 69.7404 123.168C69.8471 122.859 69.9004 122.52 69.9004 122.152C69.9004 121.816 69.8497 121.515 69.7484 121.248C69.6524 120.981 69.5057 120.755 69.3084 120.568C69.1164 120.381 68.8737 120.24 68.5804 120.144C68.2871 120.043 67.9484 119.992 67.5644 119.992C67.2817 119.992 66.9911 120.016 66.6924 120.064C66.3991 120.112 66.1004 120.187 65.7964 120.288L64.7244 119.984L65.6684 114.48H71.2444V115.224C71.2444 115.469 71.1671 115.669 71.0124 115.824C70.8577 115.979 70.5991 116.056 70.2364 116.056H66.8604L66.3964 118.736ZM78.4697 117.264C78.4697 117.707 78.3977 118.104 78.2537 118.456C78.115 118.808 77.9257 119.109 77.6857 119.36C77.4457 119.605 77.1683 119.795 76.8537 119.928C76.539 120.056 76.2083 120.12 75.8617 120.12C75.4883 120.12 75.1417 120.056 74.8217 119.928C74.507 119.795 74.2323 119.605 73.9977 119.36C73.7683 119.109 73.587 118.808 73.4537 118.456C73.3203 118.104 73.2537 117.707 73.2537 117.264C73.2537 116.811 73.3203 116.405 73.4537 116.048C73.587 115.685 73.7683 115.381 73.9977 115.136C74.2323 114.885 74.507 114.693 74.8217 114.56C75.1417 114.427 75.4883 114.36 75.8617 114.36C76.235 114.36 76.579 114.427 76.8937 114.56C77.2137 114.693 77.4883 114.885 77.7177 115.136C77.9523 115.381 78.1363 115.685 78.2697 116.048C78.403 116.405 78.4697 116.811 78.4697 117.264ZM77.1417 117.264C77.1417 116.939 77.107 116.664 77.0377 116.44C76.9737 116.211 76.883 116.027 76.7657 115.888C76.6537 115.744 76.5177 115.643 76.3577 115.584C76.203 115.52 76.0377 115.488 75.8617 115.488C75.6803 115.488 75.5123 115.52 75.3577 115.584C75.203 115.643 75.0697 115.744 74.9577 115.888C74.8457 116.027 74.7577 116.211 74.6937 116.44C74.6297 116.664 74.5977 116.939 74.5977 117.264C74.5977 117.584 74.6297 117.853 74.6937 118.072C74.7577 118.291 74.8457 118.469 74.9577 118.608C75.0697 118.741 75.203 118.837 75.3577 118.896C75.5123 118.955 75.6803 118.984 75.8617 118.984C76.0377 118.984 76.203 118.955 76.3577 118.896C76.5177 118.837 76.6537 118.741 76.7657 118.608C76.883 118.469 76.9737 118.291 77.0377 118.072C77.107 117.853 77.1417 117.584 77.1417 117.264ZM82.4217 114.76C82.4803 114.685 82.5497 114.621 82.6297 114.568C82.715 114.509 82.8323 114.48 82.9817 114.48H84.2217L75.7337 125.736C75.675 125.811 75.603 125.875 75.5177 125.928C75.4323 125.976 75.3283 126 75.2057 126H73.9257L82.4217 114.76ZM84.9177 123.288C84.9177 123.731 84.8457 124.128 84.7017 124.48C84.5577 124.832 84.3657 125.131 84.1257 125.376C83.8857 125.621 83.6083 125.811 83.2937 125.944C82.979 126.072 82.6483 126.136 82.3017 126.136C81.9283 126.136 81.5817 126.072 81.2617 125.944C80.947 125.811 80.6723 125.621 80.4377 125.376C80.2083 125.131 80.027 124.832 79.8937 124.48C79.7657 124.128 79.7017 123.731 79.7017 123.288C79.7017 122.835 79.7657 122.429 79.8937 122.072C80.027 121.709 80.2083 121.403 80.4377 121.152C80.6723 120.901 80.947 120.712 81.2617 120.584C81.5817 120.451 81.9283 120.384 82.3017 120.384C82.675 120.384 83.0217 120.451 83.3417 120.584C83.6617 120.712 83.9363 120.901 84.1657 121.152C84.4003 121.403 84.5843 121.709 84.7177 122.072C84.851 122.429 84.9177 122.835 84.9177 123.288ZM83.5897 123.288C83.5897 122.963 83.555 122.688 83.4857 122.464C83.4217 122.235 83.331 122.051 83.2137 121.912C83.0963 121.768 82.9577 121.667 82.7977 121.608C82.643 121.544 82.4777 121.512 82.3017 121.512C82.1257 121.512 81.9603 121.544 81.8057 121.608C81.651 121.667 81.515 121.768 81.3977 121.912C81.2857 122.051 81.1977 122.235 81.1337 122.464C81.0697 122.688 81.0377 122.963 81.0377 123.288C81.0377 123.608 81.0697 123.877 81.1337 124.096C81.1977 124.315 81.2857 124.493 81.3977 124.632C81.515 124.765 81.651 124.861 81.8057 124.92C81.9603 124.979 82.1257 125.008 82.3017 125.008C82.4777 125.008 82.643 124.979 82.7977 124.92C82.9577 124.861 83.0963 124.765 83.2137 124.632C83.331 124.493 83.4217 124.315 83.4857 124.096C83.555 123.877 83.5897 123.608 83.5897 123.288Z" fill="white"/>
</svg>
