<svg width="129" height="19" viewBox="0 0 129 19" fill="none" xmlns="http://www.w3.org/2000/svg">
<rect x="0.351562" y="4.82422" width="10.4781" height="9.46136" rx="4.73068" fill="#F04438"/>
<path d="M25.6721 7.36605V10.593H29.6131V11.916H25.6721V16.123H24.0271V6.04305H30.3131V7.36605H25.6721ZM34.5074 13.001C33.9707 13.0197 33.5181 13.064 33.1494 13.134C32.7807 13.1994 32.4821 13.2857 32.2534 13.393C32.0247 13.4957 31.8591 13.6194 31.7564 13.764C31.6584 13.9087 31.6094 14.0674 31.6094 14.24C31.6094 14.408 31.6351 14.5527 31.6864 14.674C31.7424 14.7907 31.8171 14.8887 31.9104 14.968C32.0084 15.0427 32.1204 15.0987 32.2464 15.136C32.3771 15.1687 32.5194 15.185 32.6734 15.185C33.0654 15.185 33.4014 15.1127 33.6814 14.968C33.9661 14.8187 34.2414 14.604 34.5074 14.324V13.001ZM30.5174 9.97705C31.3247 9.22571 32.2861 8.85005 33.4014 8.85005C33.8121 8.85005 34.1761 8.91771 34.4934 9.05305C34.8154 9.18371 35.0837 9.37038 35.2984 9.61305C35.5177 9.85571 35.6834 10.145 35.7954 10.481C35.9121 10.8124 35.9704 11.181 35.9704 11.587V16.123H35.2984C35.1537 16.123 35.0441 16.102 34.9694 16.06C34.8947 16.0134 34.8317 15.9224 34.7804 15.787L34.6334 15.206C34.4514 15.3694 34.2717 15.5164 34.0944 15.647C33.9171 15.773 33.7327 15.8804 33.5414 15.969C33.3547 16.0577 33.1517 16.123 32.9324 16.165C32.7177 16.2117 32.4797 16.235 32.2184 16.235C31.9291 16.235 31.6584 16.1954 31.4064 16.116C31.1591 16.0367 30.9444 15.9177 30.7624 15.759C30.5804 15.5957 30.4357 15.395 30.3284 15.157C30.2257 14.919 30.1744 14.639 30.1744 14.317C30.1744 14.0417 30.2467 13.7734 30.3914 13.512C30.5407 13.2507 30.7834 13.0174 31.1194 12.812C31.4601 12.602 31.9057 12.4294 32.4564 12.294C33.0117 12.1587 33.6954 12.0817 34.5074 12.063V11.587C34.5074 11.0737 34.3977 10.691 34.1784 10.439C33.9591 10.187 33.6371 10.061 33.2124 10.061C32.9231 10.061 32.6804 10.0984 32.4844 10.173C32.2884 10.243 32.1181 10.32 31.9734 10.404C31.8287 10.488 31.7004 10.5674 31.5884 10.642C31.4764 10.712 31.3574 10.747 31.2314 10.747C31.1287 10.747 31.0401 10.7214 30.9654 10.67C30.8954 10.614 30.8371 10.5464 30.7904 10.467L30.5174 9.97705ZM39.3014 8.98305V16.123H37.7964V8.98305H39.3014ZM39.5534 6.82705C39.5534 6.96238 39.5254 7.09071 39.4694 7.21205C39.4181 7.33338 39.3457 7.44071 39.2524 7.53405C39.1591 7.62271 39.0494 7.69505 38.9234 7.75105C38.8021 7.80238 38.6714 7.82805 38.5314 7.82805C38.3961 7.82805 38.2677 7.80238 38.1464 7.75105C38.0297 7.69505 37.9271 7.62271 37.8384 7.53405C37.7497 7.44071 37.6774 7.33338 37.6214 7.21205C37.5701 7.09071 37.5444 6.96238 37.5444 6.82705C37.5444 6.68705 37.5701 6.55638 37.6214 6.43505C37.6774 6.31371 37.7497 6.20871 37.8384 6.12005C37.9271 6.02671 38.0297 5.95438 38.1464 5.90305C38.2677 5.84705 38.3961 5.81905 38.5314 5.81905C38.6714 5.81905 38.8021 5.84705 38.9234 5.90305C39.0494 5.95438 39.1591 6.02671 39.2524 6.12005C39.3457 6.20871 39.4181 6.31371 39.4694 6.43505C39.5254 6.55638 39.5534 6.68705 39.5534 6.82705ZM42.7254 5.76305V16.123H41.2204V5.76305H42.7254ZM49.266 11.748C49.266 11.496 49.2287 11.2627 49.154 11.048C49.084 10.8287 48.979 10.6397 48.839 10.481C48.699 10.3177 48.524 10.1917 48.314 10.103C48.1087 10.0097 47.8707 9.96305 47.6 9.96305C47.054 9.96305 46.6247 10.1194 46.312 10.432C45.9993 10.7447 45.801 11.1834 45.717 11.748H49.266ZM45.675 12.672C45.6937 13.078 45.7567 13.4304 45.864 13.729C45.9713 14.023 46.1137 14.268 46.291 14.464C46.473 14.66 46.6877 14.807 46.935 14.905C47.187 14.9984 47.467 15.045 47.775 15.045C48.069 15.045 48.3233 15.0124 48.538 14.947C48.7527 14.877 48.9393 14.8024 49.098 14.723C49.2567 14.639 49.392 14.5644 49.504 14.499C49.616 14.429 49.7187 14.394 49.812 14.394C49.9333 14.394 50.0267 14.4407 50.092 14.534L50.519 15.087C50.3417 15.297 50.141 15.4744 49.917 15.619C49.693 15.7637 49.455 15.8827 49.203 15.976C48.951 16.0647 48.692 16.1277 48.426 16.165C48.16 16.207 47.901 16.228 47.649 16.228C47.1543 16.228 46.6947 16.1464 46.27 15.983C45.85 15.815 45.4837 15.57 45.171 15.248C44.863 14.926 44.6203 14.527 44.443 14.051C44.2703 13.575 44.184 13.0267 44.184 12.406C44.184 11.9114 44.261 11.4494 44.415 11.02C44.5737 10.5907 44.7977 10.2174 45.087 9.90005C45.381 9.58271 45.7357 9.33305 46.151 9.15105C46.571 8.96438 47.0447 8.87105 47.572 8.87105C48.0107 8.87105 48.4167 8.94338 48.79 9.08805C49.1633 9.22805 49.4853 9.43571 49.756 9.71105C50.0267 9.98638 50.2367 10.3247 50.386 10.726C50.54 11.1227 50.617 11.5754 50.617 12.084C50.617 12.3174 50.5913 12.4737 50.54 12.553C50.4887 12.6324 50.3953 12.672 50.26 12.672H45.675ZM56.5775 10.74C56.3675 10.4694 56.1365 10.2804 55.8845 10.173C55.6325 10.0657 55.3595 10.012 55.0655 10.012C54.4775 10.012 54.0178 10.229 53.6865 10.663C53.3552 11.0924 53.1895 11.7294 53.1895 12.574C53.1895 13.0127 53.2268 13.3884 53.3015 13.701C53.3762 14.009 53.4835 14.261 53.6235 14.457C53.7635 14.653 53.9338 14.7954 54.1345 14.884C54.3352 14.9727 54.5615 15.017 54.8135 15.017C55.1962 15.017 55.5252 14.9354 55.8005 14.772C56.0805 14.604 56.3395 14.3684 56.5775 14.065V10.74ZM58.0825 5.76305V16.123H57.1725C56.9718 16.123 56.8435 16.0274 56.7875 15.836L56.6545 15.059C56.3558 15.409 56.0152 15.6914 55.6325 15.906C55.2545 16.1207 54.8135 16.228 54.3095 16.228C53.9082 16.228 53.5442 16.1487 53.2175 15.99C52.8908 15.8267 52.6108 15.591 52.3775 15.283C52.1442 14.975 51.9622 14.5947 51.8315 14.142C51.7055 13.6847 51.6425 13.162 51.6425 12.574C51.6425 12.042 51.7125 11.5497 51.8525 11.097C51.9972 10.6444 52.2025 10.2524 52.4685 9.92105C52.7345 9.58505 53.0565 9.32371 53.4345 9.13705C53.8172 8.94571 54.2442 8.85005 54.7155 8.85005C55.1355 8.85005 55.4925 8.91771 55.7865 9.05305C56.0805 9.18371 56.3442 9.36805 56.5775 9.60605V5.76305H58.0825Z" fill="#4D5154"/>
</svg>
