<svg width="68" height="32" viewBox="0 0 68 32" fill="none" xmlns="http://www.w3.org/2000/svg">
<rect width="68" height="32" rx="4" fill="#D1FADF"/>
<path d="M17.2784 22V10.3636H19.0341V15.4205H24.8352V10.3636H26.5966V22H24.8352V16.9261H19.0341V22H17.2784ZM29.017 22V13.2727H30.7159V22H29.017ZM29.875 11.9261C29.5795 11.9261 29.3258 11.8277 29.1136 11.6307C28.9053 11.4299 28.8011 11.1913 28.8011 10.9148C28.8011 10.6345 28.9053 10.3958 29.1136 10.1989C29.3258 9.99811 29.5795 9.89773 29.875 9.89773C30.1705 9.89773 30.4223 9.99811 30.6307 10.1989C30.8428 10.3958 30.9489 10.6345 30.9489 10.9148C30.9489 11.1913 30.8428 11.4299 30.6307 11.6307C30.4223 11.8277 30.1705 11.9261 29.875 11.9261ZM36.6605 25.4545C35.9673 25.4545 35.3707 25.3636 34.8707 25.1818C34.3745 25 33.9692 24.7595 33.6548 24.4602C33.3404 24.161 33.1056 23.8333 32.9503 23.4773L34.4105 22.875C34.5128 23.0417 34.6491 23.2178 34.8196 23.4034C34.9938 23.5928 35.2287 23.7538 35.5241 23.8864C35.8234 24.0189 36.2079 24.0852 36.6776 24.0852C37.3215 24.0852 37.8537 23.928 38.2741 23.6136C38.6946 23.303 38.9048 22.8068 38.9048 22.125V20.4091H38.7969C38.6946 20.5947 38.5469 20.8011 38.3537 21.0284C38.1643 21.2557 37.9029 21.4527 37.5696 21.6193C37.2363 21.786 36.8026 21.8693 36.2685 21.8693C35.5791 21.8693 34.9579 21.7083 34.4048 21.3864C33.8556 21.0606 33.42 20.5814 33.098 19.9489C32.7798 19.3125 32.6207 18.5303 32.6207 17.6023C32.6207 16.6742 32.7779 15.8788 33.0923 15.2159C33.4105 14.553 33.8461 14.0455 34.3991 13.6932C34.9522 13.3371 35.5791 13.1591 36.2798 13.1591C36.8215 13.1591 37.259 13.25 37.5923 13.4318C37.9257 13.6098 38.1851 13.8182 38.3707 14.0568C38.5601 14.2955 38.706 14.5057 38.8082 14.6875H38.9332V13.2727H40.598V22.1932C40.598 22.9432 40.4238 23.5587 40.0753 24.0398C39.7268 24.5208 39.2552 24.8769 38.6605 25.108C38.0696 25.339 37.4029 25.4545 36.6605 25.4545ZM36.6435 20.4602C37.1321 20.4602 37.545 20.3466 37.8821 20.1193C38.223 19.8883 38.4806 19.5587 38.6548 19.1307C38.8329 18.6989 38.9219 18.1818 38.9219 17.5795C38.9219 16.9924 38.8348 16.4754 38.6605 16.0284C38.4863 15.5814 38.2306 15.233 37.8935 14.983C37.5563 14.7292 37.1397 14.6023 36.6435 14.6023C36.1321 14.6023 35.706 14.7348 35.3651 15C35.0241 15.2614 34.7666 15.6174 34.5923 16.0682C34.4219 16.5189 34.3366 17.0227 34.3366 17.5795C34.3366 18.1515 34.4238 18.6534 34.598 19.0852C34.7723 19.517 35.0298 19.8542 35.3707 20.0966C35.7154 20.339 36.1397 20.4602 36.6435 20.4602ZM44.5753 16.8182V22H42.8764V10.3636H44.5526V14.6932H44.6605C44.8651 14.2235 45.1776 13.8504 45.598 13.5739C46.0185 13.2973 46.5677 13.1591 47.2457 13.1591C47.8442 13.1591 48.367 13.2822 48.8139 13.5284C49.2647 13.7746 49.6132 14.142 49.8594 14.6307C50.1094 15.1155 50.2344 15.7216 50.2344 16.4489V22H48.5355V16.6534C48.5355 16.0133 48.3707 15.517 48.0412 15.1648C47.7116 14.8087 47.2533 14.6307 46.6662 14.6307C46.2647 14.6307 45.9048 14.7159 45.5866 14.8864C45.2723 15.0568 45.0241 15.3068 44.8423 15.6364C44.6643 15.9621 44.5753 16.3561 44.5753 16.8182Z" fill="#027A48"/>
</svg>
