<svg width="24" height="24" viewBox="0 0 24 24" fill="none" xmlns="http://www.w3.org/2000/svg">
<path d="M10.0427 3.15016L10.0431 3.14985C11.1273 2.27904 12.8675 2.28414 13.968 3.16073C13.9681 3.16084 13.9682 3.16094 13.9684 3.16105L20.514 8.39756C20.5146 8.39802 20.5152 8.39849 20.5157 8.39895C20.893 8.70711 21.2196 9.18942 21.4304 9.74099C21.641 10.2922 21.7196 10.8699 21.6462 11.351L20.3873 18.8845C20.3872 18.885 20.3872 18.8855 20.3871 18.8859C20.1374 20.3188 18.7432 21.5 17.3 21.5H6.69996C5.23549 21.5 3.8725 20.3476 3.62294 18.8965C3.62288 18.8961 3.62282 18.8958 3.62276 18.8955L2.36313 11.3576L2.36293 11.3565C2.28079 10.8718 2.35452 10.293 2.56465 9.74192C2.77476 9.19094 3.10548 8.70909 3.4918 8.40086L3.49267 8.40016L10.0427 3.15016ZM12 19.25C12.6861 19.25 13.25 18.6862 13.25 18V15C13.25 14.3139 12.6861 13.75 12 13.75C11.3138 13.75 10.75 14.3139 10.75 15V18C10.75 18.6862 11.3138 19.25 12 19.25Z" fill="#A5A6A8" stroke="#A5A6A8"/>
</svg>
