<svg width="64" height="32" viewBox="0 0 64 32" fill="none" xmlns="http://www.w3.org/2000/svg">
<rect width="64" height="32" rx="4" fill="#FECDCA"/>
<path d="M17.2784 22V10.3636H19.0341V20.4886H24.3068V22H17.2784ZM29.8494 22.1761C29.0313 22.1761 28.3172 21.9886 27.7074 21.6136C27.0975 21.2386 26.6241 20.714 26.2869 20.0398C25.9498 19.3655 25.7812 18.5777 25.7812 17.6761C25.7812 16.7708 25.9498 15.9792 26.2869 15.3011C26.6241 14.6231 27.0975 14.0966 27.7074 13.7216C28.3172 13.3466 29.0313 13.1591 29.8494 13.1591C30.6676 13.1591 31.3816 13.3466 31.9915 13.7216C32.6013 14.0966 33.0748 14.6231 33.4119 15.3011C33.7491 15.9792 33.9176 16.7708 33.9176 17.6761C33.9176 18.5777 33.7491 19.3655 33.4119 20.0398C33.0748 20.714 32.6013 21.2386 31.9915 21.6136C31.3816 21.9886 30.6676 22.1761 29.8494 22.1761ZM29.8551 20.75C30.3854 20.75 30.8248 20.6098 31.1733 20.3295C31.5218 20.0492 31.7794 19.6761 31.946 19.2102C32.1165 18.7443 32.2017 18.2311 32.2017 17.6705C32.2017 17.1136 32.1165 16.6023 31.946 16.1364C31.7794 15.6667 31.5218 15.2898 31.1733 15.0057C30.8248 14.7216 30.3854 14.5795 29.8551 14.5795C29.321 14.5795 28.8778 14.7216 28.5256 15.0057C28.1771 15.2898 27.9176 15.6667 27.7472 16.1364C27.5805 16.6023 27.4972 17.1136 27.4972 17.6705C27.4972 18.2311 27.5805 18.7443 27.7472 19.2102C27.9176 19.6761 28.1771 20.0492 28.5256 20.3295C28.8778 20.6098 29.321 20.75 29.8551 20.75ZM37.4403 22L34.8722 13.2727H36.6278L38.3381 19.6818H38.4233L40.1392 13.2727H41.8949L43.5994 19.6534H43.6847L45.3835 13.2727H47.1392L44.5767 22H42.8438L41.071 15.6989H40.9403L39.1676 22H37.4403Z" fill="#B42318"/>
</svg>
