<svg width="94" height="32" viewBox="0 0 94 32" fill="none" xmlns="http://www.w3.org/2000/svg">
<rect width="94" height="32" rx="4" fill="#FFE5B2"/>
<path d="M17.2784 10.3636H19.4091L23.1136 19.4091H23.25L26.9545 10.3636H29.0852V22H27.4148V13.5795H27.3068L23.875 21.983H22.4886L19.0568 13.5739H18.9489V22H17.2784V10.3636ZM35.2628 22.1761C34.4029 22.1761 33.6624 21.9924 33.0412 21.625C32.4238 21.2538 31.9465 20.733 31.6094 20.0625C31.276 19.3883 31.1094 18.5985 31.1094 17.6932C31.1094 16.7992 31.276 16.0114 31.6094 15.3295C31.9465 14.6477 32.4162 14.1155 33.0185 13.733C33.6245 13.3504 34.3329 13.1591 35.1435 13.1591C35.6359 13.1591 36.1132 13.2405 36.5753 13.4034C37.0374 13.5663 37.4522 13.822 37.8196 14.1705C38.187 14.5189 38.4768 14.9716 38.6889 15.5284C38.901 16.0814 39.0071 16.7538 39.0071 17.5455V18.1477H32.0696V16.875H37.3423C37.3423 16.428 37.2514 16.0322 37.0696 15.6875C36.8878 15.339 36.6321 15.0644 36.3026 14.8636C35.9768 14.6629 35.5942 14.5625 35.1548 14.5625C34.6776 14.5625 34.2609 14.6799 33.9048 14.9148C33.5526 15.1458 33.2798 15.4489 33.0866 15.8239C32.8973 16.1951 32.8026 16.5985 32.8026 17.0341V18.0284C32.8026 18.6117 32.9048 19.108 33.1094 19.517C33.3177 19.9261 33.6075 20.2386 33.9787 20.4545C34.3499 20.6667 34.7836 20.7727 35.2798 20.7727C35.6018 20.7727 35.8954 20.7273 36.1605 20.6364C36.4257 20.5417 36.6548 20.4015 36.848 20.2159C37.0412 20.0303 37.1889 19.8011 37.2912 19.5284L38.8991 19.8182C38.7704 20.2917 38.5393 20.7064 38.206 21.0625C37.8764 21.4148 37.4616 21.6894 36.9616 21.8864C36.4654 22.0795 35.8991 22.1761 35.2628 22.1761ZM44.1591 22.1705C43.4545 22.1705 42.8258 21.9905 42.2727 21.6307C41.7235 21.267 41.2917 20.75 40.9773 20.0795C40.6667 19.4053 40.5114 18.5966 40.5114 17.6534C40.5114 16.7102 40.6686 15.9034 40.983 15.233C41.3011 14.5625 41.7367 14.0492 42.2898 13.6932C42.8428 13.3371 43.4697 13.1591 44.1705 13.1591C44.7121 13.1591 45.1477 13.25 45.4773 13.4318C45.8106 13.6098 46.0682 13.8182 46.25 14.0568C46.4356 14.2955 46.5795 14.5057 46.6818 14.6875H46.7841V10.3636H48.483V22H46.8239V20.642H46.6818C46.5795 20.8277 46.4318 21.0398 46.2386 21.2784C46.0492 21.517 45.7879 21.7254 45.4545 21.9034C45.1212 22.0814 44.6894 22.1705 44.1591 22.1705ZM44.5341 20.7216C45.0227 20.7216 45.4356 20.5928 45.7727 20.3352C46.1136 20.0739 46.3712 19.7121 46.5455 19.25C46.7235 18.7879 46.8125 18.25 46.8125 17.6364C46.8125 17.0303 46.7254 16.5 46.5511 16.0455C46.3769 15.5909 46.1212 15.2367 45.7841 14.983C45.447 14.7292 45.0303 14.6023 44.5341 14.6023C44.0227 14.6023 43.5966 14.7348 43.2557 15C42.9148 15.2652 42.6572 15.6269 42.483 16.0852C42.3125 16.5436 42.2273 17.0606 42.2273 17.6364C42.2273 18.2197 42.3144 18.7443 42.4886 19.2102C42.6629 19.6761 42.9205 20.0455 43.2614 20.3182C43.6061 20.5871 44.0303 20.7216 44.5341 20.7216ZM50.9077 22V13.2727H52.6065V22H50.9077ZM51.7656 11.9261C51.4702 11.9261 51.2164 11.8277 51.0043 11.6307C50.7959 11.4299 50.6918 11.1913 50.6918 10.9148C50.6918 10.6345 50.7959 10.3958 51.0043 10.1989C51.2164 9.99811 51.4702 9.89773 51.7656 9.89773C52.0611 9.89773 52.313 9.99811 52.5213 10.1989C52.7334 10.3958 52.8395 10.6345 52.8395 10.9148C52.8395 11.1913 52.7334 11.4299 52.5213 11.6307C52.313 11.8277 52.0611 11.9261 51.7656 11.9261ZM60.4205 18.3807V13.2727H62.125V22H60.4545V20.4886H60.3636C60.1629 20.9545 59.8409 21.3428 59.3977 21.6534C58.9583 21.9602 58.411 22.1136 57.7557 22.1136C57.1951 22.1136 56.6989 21.9905 56.267 21.7443C55.839 21.4943 55.5019 21.125 55.2557 20.6364C55.0133 20.1477 54.892 19.5436 54.892 18.8239V13.2727H56.5909V18.6193C56.5909 19.214 56.7557 19.6875 57.0852 20.0398C57.4148 20.392 57.8428 20.5682 58.3693 20.5682C58.6875 20.5682 59.0038 20.4886 59.3182 20.3295C59.6364 20.1705 59.8996 19.9299 60.108 19.608C60.3201 19.286 60.4242 18.8769 60.4205 18.3807ZM64.4077 22V13.2727H66.0384V14.6932H66.1463C66.3281 14.2121 66.6255 13.8371 67.0384 13.5682C67.4512 13.2955 67.9455 13.1591 68.5213 13.1591C69.1046 13.1591 69.5933 13.2955 69.9872 13.5682C70.3849 13.8409 70.6785 14.2159 70.8679 14.6932H70.9588C71.1671 14.2273 71.4986 13.8561 71.9531 13.5795C72.4077 13.2992 72.9493 13.1591 73.5781 13.1591C74.3698 13.1591 75.0156 13.4072 75.5156 13.9034C76.0194 14.3996 76.2713 15.1477 76.2713 16.1477V22H74.5724V16.3068C74.5724 15.7159 74.4115 15.2879 74.0895 15.0227C73.7675 14.7576 73.383 14.625 72.9361 14.625C72.383 14.625 71.9531 14.7955 71.6463 15.1364C71.3395 15.4735 71.1861 15.9072 71.1861 16.4375V22H69.4929V16.1989C69.4929 15.7254 69.3452 15.3447 69.0497 15.0568C68.7543 14.7689 68.3698 14.625 67.8963 14.625C67.5743 14.625 67.277 14.7102 67.0043 14.8807C66.7353 15.0473 66.5175 15.2803 66.3509 15.5795C66.188 15.8788 66.1065 16.2254 66.1065 16.6193V22H64.4077Z" fill="#D6981B"/>
</svg>
