<svg width="103" height="24" viewBox="0 0 103 24" fill="none" xmlns="http://www.w3.org/2000/svg">
<circle cx="8" cy="12" r="8" fill="#CCD4F5"/>
<path d="M34.752 6.536V18H33.976C33.8533 18 33.7493 17.9787 33.664 17.936C33.584 17.8933 33.504 17.8213 33.424 17.72L26.792 9.08C26.8027 9.21333 26.8107 9.344 26.816 9.472C26.8213 9.6 26.824 9.72 26.824 9.832V18H25.464V6.536H26.264C26.3333 6.536 26.392 6.54133 26.44 6.552C26.488 6.55733 26.5307 6.57067 26.568 6.592C26.6053 6.608 26.6427 6.63467 26.68 6.672C26.7173 6.704 26.7573 6.74667 26.8 6.8L33.432 15.432C33.4213 15.2933 33.4107 15.16 33.4 15.032C33.3947 14.8987 33.392 14.7733 33.392 14.656V6.536H34.752ZM42.5208 13.064C42.5208 12.7333 42.4728 12.432 42.3768 12.16C42.2861 11.8827 42.1501 11.6453 41.9688 11.448C41.7928 11.2453 41.5768 11.0907 41.3208 10.984C41.0648 10.872 40.7741 10.816 40.4488 10.816C39.7661 10.816 39.2248 11.016 38.8248 11.416C38.4301 11.8107 38.1848 12.36 38.0888 13.064H42.5208ZM43.6728 16.864C43.4968 17.0773 43.2861 17.264 43.0408 17.424C42.7954 17.5787 42.5314 17.7067 42.2488 17.808C41.9714 17.9093 41.6834 17.984 41.3848 18.032C41.0861 18.0853 40.7901 18.112 40.4968 18.112C39.9368 18.112 39.4194 18.0187 38.9448 17.832C38.4754 17.64 38.0674 17.3627 37.7208 17C37.3794 16.632 37.1128 16.1787 36.9208 15.64C36.7288 15.1013 36.6328 14.4827 36.6328 13.784C36.6328 13.2187 36.7181 12.6907 36.8888 12.2C37.0648 11.7093 37.3154 11.2853 37.6408 10.928C37.9661 10.5653 38.3634 10.2827 38.8328 10.08C39.3021 9.872 39.8301 9.768 40.4168 9.768C40.9021 9.768 41.3501 9.85067 41.7608 10.016C42.1768 10.176 42.5341 10.4107 42.8328 10.72C43.1368 11.024 43.3741 11.4027 43.5448 11.856C43.7154 12.304 43.8008 12.816 43.8008 13.392C43.8008 13.616 43.7768 13.7653 43.7288 13.84C43.6808 13.9147 43.5901 13.952 43.4568 13.952H38.0408C38.0568 14.464 38.1261 14.9093 38.2488 15.288C38.3768 15.6667 38.5528 15.984 38.7768 16.24C39.0008 16.4907 39.2674 16.68 39.5768 16.808C39.8861 16.9307 40.2328 16.992 40.6168 16.992C40.9741 16.992 41.2808 16.952 41.5368 16.872C41.7981 16.7867 42.0221 16.696 42.2088 16.6C42.3954 16.504 42.5501 16.416 42.6728 16.336C42.8008 16.2507 42.9101 16.208 43.0008 16.208C43.1181 16.208 43.2088 16.2533 43.2728 16.344L43.6728 16.864ZM52.0965 18H50.7285C50.6112 18 50.5178 17.9707 50.4485 17.912C50.3845 17.848 50.3312 17.7787 50.2885 17.704L48.2485 14.528C48.2272 14.6027 48.2032 14.6773 48.1765 14.752C48.1552 14.8213 48.1232 14.8853 48.0805 14.944L46.1925 17.704C46.1392 17.7787 46.0805 17.848 46.0165 17.912C45.9578 17.9707 45.8752 18 45.7685 18H44.4965L47.3365 13.84L44.6085 9.896H45.9765C46.0938 9.896 46.1792 9.91467 46.2325 9.952C46.2858 9.98933 46.3338 10.0427 46.3765 10.112L48.3685 13.152C48.4112 12.9973 48.4778 12.848 48.5685 12.704L50.3125 10.144C50.3605 10.0693 50.4112 10.0107 50.4645 9.968C50.5232 9.92 50.5925 9.896 50.6725 9.896H51.9845L49.2565 13.768L52.0965 18ZM55.8973 18.128C55.2573 18.128 54.7639 17.9493 54.4173 17.592C54.0759 17.2347 53.9053 16.72 53.9053 16.048V11.088H52.9293C52.8439 11.088 52.7719 11.064 52.7133 11.016C52.6546 10.9627 52.6253 10.8827 52.6253 10.776V10.208L53.9533 10.04L54.2812 7.536C54.2973 7.456 54.3319 7.392 54.3853 7.344C54.4439 7.29067 54.5186 7.264 54.6093 7.264H55.3293V10.056H57.6733V11.088H55.3293V15.952C55.3293 16.2933 55.4119 16.5467 55.5773 16.712C55.7426 16.8773 55.9559 16.96 56.2173 16.96C56.3666 16.96 56.4946 16.9413 56.6013 16.904C56.7133 16.8613 56.8093 16.816 56.8893 16.768C56.9693 16.72 57.0359 16.6773 57.0893 16.64C57.1479 16.5973 57.1986 16.576 57.2413 16.576C57.3159 16.576 57.3826 16.6213 57.4413 16.712L57.8573 17.392C57.6119 17.6213 57.3159 17.8027 56.9693 17.936C56.6226 18.064 56.2653 18.128 55.8973 18.128ZM78.2106 6.536L74.6346 18H73.2426L70.3386 9.256C70.312 9.17067 70.2853 9.08 70.2586 8.984C70.2373 8.888 70.2133 8.78667 70.1866 8.68C70.16 8.78667 70.1333 8.888 70.1066 8.984C70.08 9.08 70.0533 9.17067 70.0266 9.256L67.1066 18H65.7146L62.1386 6.536H63.4266C63.5653 6.536 63.68 6.57067 63.7706 6.64C63.8666 6.70933 63.928 6.79733 63.9546 6.904L66.3226 14.872C66.36 15.016 66.3946 15.1707 66.4266 15.336C66.464 15.5013 66.4986 15.6773 66.5306 15.864C66.568 15.6773 66.6053 15.5013 66.6426 15.336C66.6853 15.1653 66.7306 15.0107 66.7786 14.872L69.4746 6.904C69.5066 6.81333 69.568 6.73067 69.6586 6.656C69.7546 6.576 69.8693 6.536 70.0026 6.536H70.4506C70.5893 6.536 70.7013 6.57067 70.7866 6.64C70.872 6.70933 70.936 6.79733 70.9786 6.904L73.6666 14.872C73.7146 15.0107 73.7573 15.16 73.7946 15.32C73.8373 15.48 73.8773 15.648 73.9146 15.824C73.9413 15.648 73.9706 15.48 74.0026 15.32C74.0346 15.16 74.0693 15.0107 74.1066 14.872L76.4826 6.904C76.5093 6.808 76.568 6.72267 76.6586 6.648C76.7546 6.57333 76.8693 6.536 77.0026 6.536H78.2106ZM84.0989 13.064C84.0989 12.7333 84.0509 12.432 83.9549 12.16C83.8642 11.8827 83.7282 11.6453 83.5469 11.448C83.3709 11.2453 83.1549 11.0907 82.8989 10.984C82.6429 10.872 82.3522 10.816 82.0269 10.816C81.3442 10.816 80.8029 11.016 80.4029 11.416C80.0082 11.8107 79.7629 12.36 79.6669 13.064H84.0989ZM85.2509 16.864C85.0749 17.0773 84.8642 17.264 84.6189 17.424C84.3735 17.5787 84.1095 17.7067 83.8269 17.808C83.5495 17.9093 83.2615 17.984 82.9629 18.032C82.6642 18.0853 82.3682 18.112 82.0749 18.112C81.5149 18.112 80.9975 18.0187 80.5229 17.832C80.0535 17.64 79.6455 17.3627 79.2989 17C78.9575 16.632 78.6909 16.1787 78.4989 15.64C78.3069 15.1013 78.2109 14.4827 78.2109 13.784C78.2109 13.2187 78.2962 12.6907 78.4669 12.2C78.6429 11.7093 78.8935 11.2853 79.2189 10.928C79.5442 10.5653 79.9415 10.2827 80.4109 10.08C80.8802 9.872 81.4082 9.768 81.9949 9.768C82.4802 9.768 82.9282 9.85067 83.3389 10.016C83.7549 10.176 84.1122 10.4107 84.4109 10.72C84.7149 11.024 84.9522 11.4027 85.1229 11.856C85.2935 12.304 85.3789 12.816 85.3789 13.392C85.3789 13.616 85.3549 13.7653 85.3069 13.84C85.2589 13.9147 85.1682 13.952 85.0349 13.952H79.6189C79.6349 14.464 79.7042 14.9093 79.8269 15.288C79.9549 15.6667 80.1309 15.984 80.3549 16.24C80.5789 16.4907 80.8455 16.68 81.1549 16.808C81.4642 16.9307 81.8109 16.992 82.1949 16.992C82.5522 16.992 82.8589 16.952 83.1149 16.872C83.3762 16.7867 83.6002 16.696 83.7869 16.6C83.9735 16.504 84.1282 16.416 84.2509 16.336C84.3789 16.2507 84.4882 16.208 84.5789 16.208C84.6962 16.208 84.7869 16.2533 84.8509 16.344L85.2509 16.864ZM92.552 13.064C92.552 12.7333 92.504 12.432 92.408 12.16C92.3173 11.8827 92.1813 11.6453 92 11.448C91.824 11.2453 91.608 11.0907 91.352 10.984C91.096 10.872 90.8053 10.816 90.48 10.816C89.7973 10.816 89.256 11.016 88.856 11.416C88.4613 11.8107 88.216 12.36 88.12 13.064H92.552ZM93.704 16.864C93.528 17.0773 93.3173 17.264 93.072 17.424C92.8267 17.5787 92.5627 17.7067 92.28 17.808C92.0027 17.9093 91.7147 17.984 91.416 18.032C91.1173 18.0853 90.8213 18.112 90.528 18.112C89.968 18.112 89.4507 18.0187 88.976 17.832C88.5067 17.64 88.0987 17.3627 87.752 17C87.4107 16.632 87.144 16.1787 86.952 15.64C86.76 15.1013 86.664 14.4827 86.664 13.784C86.664 13.2187 86.7493 12.6907 86.92 12.2C87.096 11.7093 87.3467 11.2853 87.672 10.928C87.9973 10.5653 88.3947 10.2827 88.864 10.08C89.3333 9.872 89.8613 9.768 90.448 9.768C90.9333 9.768 91.3813 9.85067 91.792 10.016C92.208 10.176 92.5653 10.4107 92.864 10.72C93.168 11.024 93.4053 11.4027 93.576 11.856C93.7467 12.304 93.832 12.816 93.832 13.392C93.832 13.616 93.808 13.7653 93.76 13.84C93.712 13.9147 93.6213 13.952 93.488 13.952H88.072C88.088 14.464 88.1573 14.9093 88.28 15.288C88.408 15.6667 88.584 15.984 88.808 16.24C89.032 16.4907 89.2987 16.68 89.608 16.808C89.9173 16.9307 90.264 16.992 90.648 16.992C91.0053 16.992 91.312 16.952 91.568 16.872C91.8293 16.7867 92.0533 16.696 92.24 16.6C92.4267 16.504 92.5813 16.416 92.704 16.336C92.832 16.2507 92.9413 16.208 93.032 16.208C93.1493 16.208 93.24 16.2533 93.304 16.344L93.704 16.864ZM97.0131 6.216V13.152H97.3811C97.4878 13.152 97.5758 13.1387 97.6451 13.112C97.7198 13.08 97.7971 13.0187 97.8771 12.928L100.437 10.184C100.512 10.0933 100.589 10.024 100.669 9.976C100.754 9.92267 100.866 9.896 101.005 9.896H102.293L99.3091 13.072C99.1651 13.2533 99.0105 13.3947 98.8451 13.496C98.9411 13.56 99.0265 13.6347 99.1011 13.72C99.1811 13.8 99.2558 13.8933 99.3251 14L102.493 18H101.221C101.098 18 100.992 17.9813 100.901 17.944C100.816 17.9013 100.741 17.8267 100.677 17.72L98.0131 14.4C97.9331 14.288 97.8531 14.216 97.7731 14.184C97.6985 14.1467 97.5811 14.128 97.4211 14.128H97.0131V18H95.5811V6.216H97.0131Z" fill="#2B2C34"/>
</svg>
