<svg width="24" height="28" viewBox="0 0 24 28" fill="none" xmlns="http://www.w3.org/2000/svg">
<path d="M12.0206 6.91016C8.71058 6.91016 6.02058 9.60016 6.02058 12.9102V15.8002C6.02058 16.4102 5.76058 17.3402 5.45058 17.8602L4.30058 19.7702C3.59058 20.9502 4.08058 22.2602 5.38058 22.7002C9.69058 24.1402 14.3406 24.1402 18.6506 22.7002C19.8606 22.3002 20.3906 20.8702 19.7306 19.7702L18.5806 17.8602C18.2806 17.3402 18.0206 16.4102 18.0206 15.8002V12.9102C18.0206 9.61016 15.3206 6.91016 12.0206 6.91016Z" stroke="#292D32" stroke-width="1.5" stroke-miterlimit="10" stroke-linecap="round"/>
<path d="M13.8699 7.19945C13.5599 7.10945 13.2399 7.03945 12.9099 6.99945C11.9499 6.87945 11.0299 6.94945 10.1699 7.19945C10.4599 6.45945 11.1799 5.93945 12.0199 5.93945C12.8599 5.93945 13.5799 6.45945 13.8699 7.19945Z" stroke="#292D32" stroke-width="1.5" stroke-miterlimit="10" stroke-linecap="round" stroke-linejoin="round"/>
<path d="M15.0195 23.0605C15.0195 24.7105 13.6695 26.0605 12.0195 26.0605C11.1995 26.0605 10.4395 25.7205 9.89953 25.1805C9.35953 24.6405 9.01953 23.8805 9.01953 23.0605" stroke="#292D32" stroke-width="1.5" stroke-miterlimit="10"/>
<rect x="16" width="8" height="8" rx="4" fill="#D92D20"/>
</svg>
