<svg width="25" height="25" viewBox="0 0 25 25" fill="none" xmlns="http://www.w3.org/2000/svg">
<path d="M1.20703 13.9495L4.27078 10.9307L9.48703 10.0063L8.97141 12.7363L1.91953 14.9038L1.46391 14.707L1.20703 13.9495Z" fill="#CA2C31"/>
<path d="M4.80135 11.705L1.4751 14.7275L3.92197 15.92L7.63635 14.0244V13.13L8.39572 11.0825L4.80135 11.705ZM12.6726 17.0281L11.0657 17.7256L9.54885 20.9413C9.54885 20.9413 10.8838 23.8981 10.9438 23.8981C11.0038 23.8981 11.7632 23.9581 11.7632 23.9581L14.4632 20.9394L15.1457 15.7831L12.6726 17.0281Z" fill="#A02422"/>
<path d="M11.0935 19.4074C11.0935 19.4074 11.9879 19.2256 12.6254 18.9218C13.2629 18.6181 14.0504 18.1643 14.0504 18.1643L13.7617 20.6824L10.9398 23.8943C10.9398 23.8943 10.8292 23.7574 10.3604 22.7374C9.98729 21.9237 9.85791 21.6331 9.85791 21.6331L11.0935 19.4074Z" fill="#CA2C31"/>
<path d="M6.42125 15.6238C6.42125 15.6238 5.345 15.5338 4.16563 17.0245C3.08938 18.3857 2.585 20.602 2.39 21.172C2.195 21.742 1.72813 21.8582 1.88375 22.1188C2.03938 22.3795 2.7125 22.3645 3.54313 22.2613C4.37375 22.1582 5.08625 21.8976 5.08625 21.8976C5.08625 21.8976 5.05063 21.9876 4.93063 22.1826C4.8875 22.252 4.7375 22.3513 4.74875 22.4545C4.775 22.7001 6.87875 22.7057 8.55875 20.977C10.3738 19.1113 9.4925 17.5813 9.4925 17.5813L6.42125 15.6238Z" fill="#F7D74D"/>
<path d="M6.74561 16.4919C6.74561 16.4919 5.58498 16.5538 4.62498 18.0444C3.66498 19.5351 3.21873 21.2619 3.31061 21.3782C3.40061 21.4944 5.18936 20.8476 5.61873 20.9769C5.91311 21.0669 5.76123 21.3651 5.83998 21.4438C5.90561 21.5094 6.68186 21.6201 7.93811 20.2588C9.19623 18.8976 8.89811 16.9851 8.89811 16.9851L6.74561 16.4919Z" fill="#FBF0B4"/>
<path d="M7.3157 14.4575C7.3157 14.4575 6.73257 14.9769 6.52445 15.275C6.31632 15.5731 6.31632 15.5994 6.32945 15.6894C6.34257 15.7794 6.5582 16.7675 7.45632 17.6338C8.55882 18.6969 9.5432 18.8394 9.6857 18.8394C9.8282 18.8394 10.7751 17.7763 10.7751 17.7763L7.3157 14.4575Z" fill="#858585"/>
<path d="M9.89355 17.6074C9.89355 17.6074 10.8386 18.228 12.4229 17.6955C14.5886 16.968 16.1767 15.3405 18.1436 13.2855C20.0411 11.3018 21.6329 8.8399 21.6329 8.8399L20.5173 5.10303L9.89355 17.6074Z" fill="#437687"/>
<path d="M13.248 15.562L13.5087 14.752L14.1612 14.8438C14.1612 14.8438 14.658 15.0782 15.0237 15.2488C15.3893 15.4195 15.8599 15.5488 15.8599 15.5488L14.9318 16.3326C14.9318 16.3326 14.4255 16.1413 14.0562 15.9801C13.6399 15.7982 13.248 15.562 13.248 15.562Z" fill="#3F545F"/>
<path d="M16.3101 3.52637C16.3101 3.52637 14.5064 4.57262 11.9207 7.01949C9.5901 9.22449 7.86323 11.2195 7.4451 12.9164C7.09635 14.3376 7.28198 15.2001 8.0751 16.132C8.91323 17.1182 9.89573 17.6076 9.89573 17.6076C9.89573 17.6076 10.6345 17.6189 13.717 15.247C17.5626 12.2864 20.6432 7.32887 20.6432 7.32887L16.3101 3.52637Z" fill="#8DAFBF"/>
<path d="M20.034 8.34509C20.034 8.34509 18.4646 7.67571 17.3452 6.11384C16.2333 4.56321 16.3215 3.51509 16.3215 3.51509C16.3215 3.51509 17.2515 2.78571 19.3421 1.95134C20.7483 1.39071 22.6627 1.10384 23.2927 1.57071C23.9227 2.03759 22.8615 4.37946 22.8615 4.37946L20.9283 8.12197L20.034 8.34509Z" fill="#D83F22"/>
<path d="M13.2821 15.5751C13.2821 15.5751 11.9265 14.8832 11.064 13.8988C9.43271 12.0407 9.09521 10.0007 9.09521 10.0007L9.91459 9.03882C9.91459 9.03882 10.119 11.2063 11.8683 13.0794C13.0083 14.3001 14.199 14.8588 14.199 14.8588C14.199 14.8588 13.9608 15.0594 13.7058 15.2544C13.5427 15.3801 13.2821 15.5751 13.2821 15.5751Z" fill="#6896A5"/>
<path d="M21.6331 8.84007C21.6331 8.84007 22.4468 7.85944 23.2174 5.64882C24.2937 2.56632 23.3562 1.63257 23.3562 1.63257C23.3562 1.63257 23.0393 3.09882 21.9387 5.13694C21.0556 6.77007 19.9868 8.32444 19.9868 8.32444C19.9868 8.32444 20.5756 8.58882 20.8943 8.68069C21.2956 8.79694 21.6331 8.84007 21.6331 8.84007Z" fill="#A02422"/>
<path d="M7.96426 13.5613C8.20801 13.7938 8.57739 13.55 8.81926 12.98C9.06301 12.41 9.05926 12.0913 8.87176 11.9563C8.63926 11.7875 8.24926 12.1569 8.07864 12.485C7.89114 12.8488 7.78051 13.385 7.96426 13.5613ZM16.428 4.27441C16.428 4.27441 15.0011 5.30004 13.4786 6.69504C12.0818 7.97566 11.1555 8.97691 11.028 9.20941C10.893 9.45879 10.8911 9.81129 10.9961 9.99129C11.1011 10.1713 11.3336 10.265 11.5455 10.1075C11.7574 9.94816 13.2668 8.27941 14.6299 7.08691C15.8768 5.99566 16.8386 5.30379 16.8386 5.30379C16.8386 5.30379 17.2286 4.61379 17.1649 4.45629C17.1011 4.29691 16.428 4.27441 16.428 4.27441Z" fill="#B3E1EE"/>
<path d="M16.4282 4.27448C16.4282 4.27448 17.482 3.46635 18.6295 2.89823C19.6963 2.36948 20.7576 1.92885 20.9488 2.31135C21.1307 2.6751 19.942 3.1701 18.8957 3.8376C17.8495 4.5051 16.8426 5.30198 16.8426 5.30198C16.8426 5.30198 16.6888 5.02073 16.5895 4.7601C16.5264 4.60146 16.4726 4.43931 16.4282 4.27448Z" fill="#ED6A65"/>
<path d="M17.2983 7.85934C16.2539 6.89747 14.8008 7.15622 14.0846 8.01122C13.3496 8.89247 13.4039 10.2387 14.2721 11.0487C15.0614 11.7837 16.5296 11.9506 17.4146 10.9193C18.2021 10.0043 18.1533 8.64497 17.2983 7.85934Z" fill="#E1E1E1"/>
<path d="M14.6242 8.35056C14.0036 8.95994 14.0373 10.1674 14.7761 10.7187C15.4211 11.2006 16.3361 11.1762 16.9098 10.5893C17.4836 10.0024 17.4836 8.93556 16.9454 8.38431C16.3267 7.75244 15.3348 7.65306 14.6242 8.35056Z" fill="#3F545F"/>
<path d="M9.87503 14.9168C9.87503 14.9168 11.0357 13.7393 11.1632 13.8668C11.2907 13.9943 11.2738 14.7087 10.7188 15.5037C10.1619 16.2987 8.93753 17.7143 7.96816 18.6687C7.01191 19.6081 5.66378 20.6825 5.53628 20.6637C5.43691 20.6487 5.03378 20.4481 4.87253 20.2531C4.71503 20.06 5.18566 19.1468 5.37503 18.845C5.56628 18.5431 9.87503 14.9168 9.87503 14.9168Z" fill="#A02524"/>
<path d="M4.48087 19.5969C4.46587 19.8669 4.87837 20.2607 4.87837 20.2607L11.1634 13.8688C11.1634 13.8688 10.869 13.5369 10.0027 14.075C9.12899 14.6188 8.36399 15.2713 7.23524 16.3644C5.66212 17.8907 4.49587 19.3269 4.48087 19.5969Z" fill="#CA2C31"/>
<path d="M4.07376 7.42823C3.86563 7.63635 3.85626 7.9701 4.08876 8.16135C4.29501 8.33198 4.63063 8.22135 4.75626 8.0676C4.88188 7.91385 4.86688 7.5801 4.70001 7.4151C4.53313 7.24823 4.20126 7.3026 4.07376 7.42823Z" fill="white"/>
<path opacity="0.5" d="M8.1914 7.18428C8.0339 7.35866 8.08453 7.61741 8.23078 7.71303C8.37703 7.80866 8.5964 7.79928 8.70328 7.66803C8.7989 7.54991 8.81015 7.31366 8.6639 7.16741C8.5364 7.04178 8.29265 7.07178 8.1914 7.18428Z" fill="white"/>
<path d="M10.9158 2.7294C10.9158 2.7294 11.1445 2.0769 11.2795 2.0694C11.4164 2.0619 11.6133 2.7219 11.6133 2.7219C11.6133 2.7219 12.2901 2.7294 12.3351 2.82877C12.3933 2.95627 11.902 3.38377 11.902 3.38377C11.902 3.38377 12.0614 4.02127 11.9864 4.09815C11.902 4.18252 11.3189 3.8469 11.3189 3.8469C11.3189 3.8469 10.7189 4.26502 10.5895 4.15065C10.477 4.05127 10.7114 3.37627 10.7114 3.37627C10.7114 3.37627 10.1489 2.96565 10.1789 2.85127C10.222 2.69002 10.9158 2.7294 10.9158 2.7294ZM18.6895 18.3744C18.9164 18.5 19.2014 18.4288 19.3064 18.1869C19.402 17.9713 19.2258 17.7144 19.0664 17.645C18.907 17.5757 18.6276 17.6675 18.5264 17.8494C18.427 18.0294 18.5526 18.2994 18.6895 18.3744ZM21.9108 12.845C21.7814 12.6444 21.502 12.5788 21.3201 12.74C21.1439 12.8975 21.187 13.145 21.2864 13.2706C21.3858 13.3963 21.652 13.4431 21.8133 13.34C21.9745 13.2369 21.9895 12.965 21.9108 12.845Z" fill="white"/>
</svg>
