<svg width="116" height="19" viewBox="0 0 116 19" fill="none" xmlns="http://www.w3.org/2000/svg">
<rect x="0.351562" y="4.26953" width="10.4781" height="9.46136" rx="4.73068" fill="#E5AE40"/>
<path d="M25.6721 16H24.0271V5.92H25.6721V16ZM29.0779 9.805C29.2319 9.64633 29.3906 9.504 29.5539 9.378C29.7219 9.24733 29.8992 9.13533 30.0859 9.042C30.2726 8.94867 30.4709 8.87633 30.6809 8.825C30.8909 8.77367 31.1196 8.748 31.3669 8.748C31.7589 8.748 32.1019 8.81333 32.3959 8.944C32.6946 9.07467 32.9442 9.259 33.1449 9.497C33.3502 9.735 33.5042 10.022 33.6069 10.358C33.7096 10.6893 33.7609 11.0557 33.7609 11.457V16H32.2629V11.457C32.2629 10.9763 32.1509 10.603 31.9269 10.337C31.7076 10.071 31.3716 9.938 30.9189 9.938C30.5829 9.938 30.2702 10.015 29.9809 10.169C29.6962 10.323 29.4279 10.533 29.1759 10.799V16H27.6709V8.86H28.5809C28.7862 8.86 28.9169 8.95567 28.9729 9.147L29.0779 9.805ZM42.4209 11.058C42.7849 11.058 43.1046 11.0113 43.3799 10.918C43.6599 10.8247 43.8909 10.694 44.0729 10.526C44.2596 10.3533 44.3996 10.1457 44.4929 9.903C44.5862 9.66033 44.6329 9.38967 44.6329 9.091C44.6329 8.797 44.5862 8.53333 44.4929 8.3C44.4042 8.06667 44.2689 7.86833 44.0869 7.705C43.9049 7.54167 43.6739 7.418 43.3939 7.334C43.1186 7.24533 42.7942 7.201 42.4209 7.201H40.9229V11.058H42.4209ZM42.4209 5.92C43.0789 5.92 43.6482 5.997 44.1289 6.151C44.6142 6.305 45.0132 6.522 45.3259 6.802C45.6432 7.07733 45.8789 7.411 46.0329 7.803C46.1869 8.19033 46.2639 8.61967 46.2639 9.091C46.2639 9.57167 46.1822 10.0127 46.0189 10.414C45.8556 10.8107 45.6129 11.1537 45.2909 11.443C44.9689 11.7277 44.5676 11.9517 44.0869 12.115C43.6109 12.2737 43.0556 12.353 42.4209 12.353H40.9229V16H39.2849V5.92H42.4209ZM48.8478 10.183C49.0718 9.73033 49.3424 9.37567 49.6598 9.119C49.9771 8.85767 50.3574 8.727 50.8008 8.727C50.9548 8.727 51.0994 8.74567 51.2348 8.783C51.3701 8.81567 51.4914 8.867 51.5988 8.937L51.4938 10.071C51.4751 10.1503 51.4448 10.2063 51.4028 10.239C51.3654 10.267 51.3141 10.281 51.2488 10.281C51.1788 10.281 51.0784 10.2693 50.9478 10.246C50.8171 10.218 50.6794 10.204 50.5348 10.204C50.3248 10.204 50.1381 10.2343 49.9748 10.295C49.8161 10.3557 49.6714 10.4443 49.5408 10.561C49.4148 10.6777 49.3028 10.82 49.2048 10.988C49.1068 11.156 49.0158 11.3473 48.9318 11.562V16H47.4268V8.86H48.3018C48.4604 8.86 48.5701 8.89033 48.6308 8.951C48.6914 9.007 48.7334 9.10733 48.7568 9.252L48.8478 10.183ZM55.4356 8.748C55.963 8.748 56.439 8.83433 56.8636 9.007C57.293 9.17967 57.657 9.42467 57.9556 9.742C58.259 10.0593 58.4923 10.4443 58.6556 10.897C58.819 11.3497 58.9006 11.8583 58.9006 12.423C58.9006 12.9877 58.819 13.4963 58.6556 13.949C58.4923 14.4017 58.259 14.789 57.9556 15.111C57.657 15.4283 57.293 15.6733 56.8636 15.846C56.439 16.0187 55.963 16.105 55.4356 16.105C54.9036 16.105 54.423 16.0187 53.9936 15.846C53.569 15.6733 53.205 15.4283 52.9016 15.111C52.5983 14.789 52.365 14.4017 52.2016 13.949C52.0383 13.4963 51.9566 12.9877 51.9566 12.423C51.9566 11.8583 52.0383 11.3497 52.2016 10.897C52.365 10.4443 52.5983 10.0593 52.9016 9.742C53.205 9.42467 53.569 9.17967 53.9936 9.007C54.423 8.83433 54.9036 8.748 55.4356 8.748ZM55.4356 14.929C56.0796 14.929 56.558 14.7143 56.8706 14.285C57.188 13.851 57.3466 13.2327 57.3466 12.43C57.3466 11.6273 57.188 11.009 56.8706 10.575C56.558 10.1363 56.0796 9.917 55.4356 9.917C54.7823 9.917 54.297 10.1363 53.9796 10.575C53.6623 11.009 53.5036 11.6273 53.5036 12.43C53.5036 13.2327 53.6623 13.851 53.9796 14.285C54.297 14.7143 54.7823 14.929 55.4356 14.929ZM62.84 12.367C63.3067 12.367 63.6567 12.248 63.89 12.01C64.1233 11.772 64.24 11.4617 64.24 11.079C64.24 10.687 64.1233 10.3767 63.89 10.148C63.6567 9.91933 63.3067 9.805 62.84 9.805C62.378 9.805 62.028 9.91933 61.79 10.148C61.5567 10.3767 61.44 10.687 61.44 11.079C61.44 11.2657 61.4703 11.4383 61.531 11.597C61.5917 11.7557 61.6803 11.8933 61.797 12.01C61.9137 12.122 62.0583 12.2107 62.231 12.276C62.4083 12.3367 62.6113 12.367 62.84 12.367ZM64.933 16.35C64.933 16.1913 64.8863 16.0653 64.793 15.972C64.7043 15.874 64.583 15.7993 64.429 15.748C64.275 15.692 64.0953 15.6523 63.89 15.629C63.6847 15.601 63.4653 15.5823 63.232 15.573C63.0033 15.559 62.7677 15.5473 62.525 15.538C62.287 15.524 62.056 15.5007 61.832 15.468C61.608 15.5847 61.4237 15.7247 61.279 15.888C61.139 16.0513 61.069 16.2403 61.069 16.455C61.069 16.595 61.104 16.7257 61.174 16.847C61.2487 16.9683 61.3607 17.0733 61.51 17.162C61.664 17.2507 61.8577 17.3207 62.091 17.372C62.329 17.4233 62.6137 17.449 62.945 17.449C63.6077 17.449 64.1047 17.3463 64.436 17.141C64.7673 16.9357 64.933 16.672 64.933 16.35ZM66.445 9.119V9.679C66.445 9.86567 66.333 9.98 66.109 10.022L65.395 10.141C65.5163 10.4117 65.577 10.7127 65.577 11.044C65.577 11.394 65.507 11.7113 65.367 11.996C65.2317 12.2807 65.0427 12.5233 64.8 12.724C64.5573 12.9247 64.268 13.0787 63.932 13.186C63.596 13.2933 63.232 13.347 62.84 13.347C62.6907 13.347 62.5437 13.34 62.399 13.326C62.259 13.3073 62.1213 13.284 61.986 13.256C61.8507 13.3353 61.7503 13.4193 61.685 13.508C61.6197 13.5967 61.587 13.6877 61.587 13.781C61.587 13.935 61.6547 14.0493 61.79 14.124C61.9253 14.1987 62.1027 14.2523 62.322 14.285C62.546 14.3177 62.8003 14.3387 63.085 14.348C63.3697 14.3573 63.659 14.3737 63.953 14.397C64.247 14.4203 64.5363 14.46 64.821 14.516C65.1057 14.5673 65.3577 14.656 65.577 14.782C65.801 14.9033 65.9807 15.069 66.116 15.279C66.2513 15.489 66.319 15.762 66.319 16.098C66.319 16.406 66.242 16.707 66.088 17.001C65.934 17.295 65.71 17.5563 65.416 17.785C65.1267 18.0137 64.772 18.1957 64.352 18.331C63.932 18.471 63.4537 18.541 62.917 18.541C62.385 18.541 61.9207 18.4897 61.524 18.387C61.132 18.2843 60.803 18.1443 60.537 17.967C60.2757 17.7943 60.0797 17.5937 59.949 17.365C59.823 17.1363 59.76 16.8983 59.76 16.651C59.76 16.315 59.865 16.028 60.075 15.79C60.2897 15.552 60.579 15.3653 60.943 15.23C60.747 15.1367 60.5883 15.0083 60.467 14.845C60.3503 14.6817 60.292 14.467 60.292 14.201C60.292 13.991 60.369 13.7717 60.523 13.543C60.677 13.3143 60.908 13.1207 61.216 12.962C60.8613 12.766 60.5813 12.507 60.376 12.185C60.1707 11.8583 60.068 11.478 60.068 11.044C60.068 10.6893 60.1357 10.3697 60.271 10.085C60.411 9.80033 60.6047 9.55767 60.852 9.357C61.0993 9.15633 61.391 9.00233 61.727 8.895C62.0677 8.78767 62.4387 8.734 62.84 8.734C63.456 8.734 63.9927 8.86233 64.45 9.119H66.445ZM69.0548 10.183C69.2788 9.73033 69.5495 9.37567 69.8668 9.119C70.1841 8.85767 70.5645 8.727 71.0078 8.727C71.1618 8.727 71.3065 8.74567 71.4418 8.783C71.5771 8.81567 71.6985 8.867 71.8058 8.937L71.7008 10.071C71.6821 10.1503 71.6518 10.2063 71.6098 10.239C71.5725 10.267 71.5211 10.281 71.4558 10.281C71.3858 10.281 71.2855 10.2693 71.1548 10.246C71.0241 10.218 70.8865 10.204 70.7418 10.204C70.5318 10.204 70.3451 10.2343 70.1818 10.295C70.0231 10.3557 69.8785 10.4443 69.7478 10.561C69.6218 10.6777 69.5098 10.82 69.4118 10.988C69.3138 11.156 69.2228 11.3473 69.1388 11.562V16H67.6338V8.86H68.5088C68.6675 8.86 68.7771 8.89033 68.8378 8.951C68.8985 9.007 68.9405 9.10733 68.9638 9.252L69.0548 10.183ZM77.2387 11.625C77.2387 11.373 77.2013 11.1397 77.1267 10.925C77.0567 10.7057 76.9517 10.5167 76.8117 10.358C76.6717 10.1947 76.4967 10.0687 76.2867 9.98C76.0813 9.88667 75.8433 9.84 75.5727 9.84C75.0267 9.84 74.5973 9.99633 74.2847 10.309C73.972 10.6217 73.7737 11.0603 73.6897 11.625H77.2387ZM73.6477 12.549C73.6663 12.955 73.7293 13.3073 73.8367 13.606C73.944 13.9 74.0863 14.145 74.2637 14.341C74.4457 14.537 74.6603 14.684 74.9077 14.782C75.1597 14.8753 75.4397 14.922 75.7477 14.922C76.0417 14.922 76.296 14.8893 76.5107 14.824C76.7253 14.754 76.912 14.6793 77.0707 14.6C77.2293 14.516 77.3647 14.4413 77.4767 14.376C77.5887 14.306 77.6913 14.271 77.7847 14.271C77.906 14.271 77.9993 14.3177 78.0647 14.411L78.4917 14.964C78.3143 15.174 78.1137 15.3513 77.8897 15.496C77.6657 15.6407 77.4277 15.7597 77.1757 15.853C76.9237 15.9417 76.6647 16.0047 76.3987 16.042C76.1327 16.084 75.8737 16.105 75.6217 16.105C75.127 16.105 74.6673 16.0233 74.2427 15.86C73.8227 15.692 73.4563 15.447 73.1437 15.125C72.8357 14.803 72.593 14.404 72.4157 13.928C72.243 13.452 72.1567 12.9037 72.1567 12.283C72.1567 11.7883 72.2337 11.3263 72.3877 10.897C72.5463 10.4677 72.7703 10.0943 73.0597 9.777C73.3537 9.45967 73.7083 9.21 74.1237 9.028C74.5437 8.84133 75.0173 8.748 75.5447 8.748C75.9833 8.748 76.3893 8.82033 76.7627 8.965C77.136 9.105 77.458 9.31267 77.7287 9.588C77.9993 9.86333 78.2093 10.2017 78.3587 10.603C78.5127 10.9997 78.5897 11.4523 78.5897 11.961C78.5897 12.1943 78.564 12.3507 78.5127 12.43C78.4613 12.5093 78.368 12.549 78.2327 12.549H73.6477ZM84.2562 10.155C84.2188 10.2203 84.1768 10.267 84.1302 10.295C84.0835 10.323 84.0252 10.337 83.9552 10.337C83.8758 10.337 83.7895 10.3137 83.6962 10.267C83.6028 10.2157 83.4932 10.1597 83.3672 10.099C83.2412 10.0383 83.0918 9.98467 82.9192 9.938C82.7512 9.88667 82.5528 9.861 82.3242 9.861C82.1375 9.861 81.9672 9.88433 81.8132 9.931C81.6638 9.973 81.5355 10.036 81.4282 10.12C81.3255 10.1993 81.2462 10.295 81.1902 10.407C81.1342 10.5143 81.1062 10.631 81.1062 10.757C81.1062 10.925 81.1575 11.065 81.2602 11.177C81.3628 11.289 81.4982 11.387 81.6662 11.471C81.8342 11.5503 82.0255 11.6227 82.2402 11.688C82.4548 11.7533 82.6742 11.8233 82.8982 11.898C83.1222 11.9727 83.3415 12.059 83.5562 12.157C83.7708 12.255 83.9622 12.3763 84.1302 12.521C84.2982 12.661 84.4335 12.8337 84.5362 13.039C84.6388 13.2397 84.6902 13.4847 84.6902 13.774C84.6902 14.11 84.6295 14.4203 84.5082 14.705C84.3868 14.9897 84.2095 15.237 83.9762 15.447C83.7428 15.657 83.4512 15.8203 83.1012 15.937C82.7558 16.0537 82.3592 16.112 81.9112 16.112C81.6638 16.112 81.4235 16.0887 81.1902 16.042C80.9615 16 80.7422 15.9417 80.5322 15.867C80.3268 15.7877 80.1332 15.6943 79.9512 15.587C79.7738 15.4797 79.6152 15.363 79.4752 15.237L79.8252 14.663C79.8672 14.593 79.9185 14.5393 79.9792 14.502C80.0445 14.46 80.1238 14.439 80.2172 14.439C80.3152 14.439 80.4108 14.4717 80.5042 14.537C80.6022 14.5977 80.7142 14.6653 80.8402 14.74C80.9708 14.8147 81.1272 14.8847 81.3092 14.95C81.4912 15.0107 81.7175 15.041 81.9882 15.041C82.2122 15.041 82.4058 15.0153 82.5692 14.964C82.7325 14.908 82.8678 14.8333 82.9752 14.74C83.0825 14.6467 83.1618 14.5417 83.2132 14.425C83.2645 14.3037 83.2902 14.1753 83.2902 14.04C83.2902 13.858 83.2388 13.7087 83.1362 13.592C83.0335 13.4753 82.8958 13.375 82.7232 13.291C82.5552 13.207 82.3615 13.1323 82.1422 13.067C81.9275 13.0017 81.7082 12.9317 81.4842 12.857C81.2602 12.7823 81.0385 12.696 80.8192 12.598C80.6045 12.5 80.4108 12.3763 80.2382 12.227C80.0702 12.073 79.9348 11.8887 79.8322 11.674C79.7295 11.4547 79.6782 11.1887 79.6782 10.876C79.6782 10.5913 79.7342 10.3207 79.8462 10.064C79.9628 9.80733 80.1308 9.581 80.3502 9.385C80.5742 9.189 80.8472 9.035 81.1692 8.923C81.4958 8.80633 81.8715 8.748 82.2962 8.748C82.7768 8.748 83.2132 8.825 83.6052 8.979C83.9972 9.133 84.3262 9.343 84.5922 9.609L84.2562 10.155ZM90.3675 10.155C90.3302 10.2203 90.2882 10.267 90.2415 10.295C90.1948 10.323 90.1365 10.337 90.0665 10.337C89.9872 10.337 89.9008 10.3137 89.8075 10.267C89.7142 10.2157 89.6045 10.1597 89.4785 10.099C89.3525 10.0383 89.2032 9.98467 89.0305 9.938C88.8625 9.88667 88.6642 9.861 88.4355 9.861C88.2488 9.861 88.0785 9.88433 87.9245 9.931C87.7752 9.973 87.6468 10.036 87.5395 10.12C87.4368 10.1993 87.3575 10.295 87.3015 10.407C87.2455 10.5143 87.2175 10.631 87.2175 10.757C87.2175 10.925 87.2688 11.065 87.3715 11.177C87.4742 11.289 87.6095 11.387 87.7775 11.471C87.9455 11.5503 88.1368 11.6227 88.3515 11.688C88.5662 11.7533 88.7855 11.8233 89.0095 11.898C89.2335 11.9727 89.4528 12.059 89.6675 12.157C89.8822 12.255 90.0735 12.3763 90.2415 12.521C90.4095 12.661 90.5448 12.8337 90.6475 13.039C90.7502 13.2397 90.8015 13.4847 90.8015 13.774C90.8015 14.11 90.7408 14.4203 90.6195 14.705C90.4982 14.9897 90.3208 15.237 90.0875 15.447C89.8542 15.657 89.5625 15.8203 89.2125 15.937C88.8672 16.0537 88.4705 16.112 88.0225 16.112C87.7752 16.112 87.5348 16.0887 87.3015 16.042C87.0728 16 86.8535 15.9417 86.6435 15.867C86.4382 15.7877 86.2445 15.6943 86.0625 15.587C85.8852 15.4797 85.7265 15.363 85.5865 15.237L85.9365 14.663C85.9785 14.593 86.0298 14.5393 86.0905 14.502C86.1558 14.46 86.2352 14.439 86.3285 14.439C86.4265 14.439 86.5222 14.4717 86.6155 14.537C86.7135 14.5977 86.8255 14.6653 86.9515 14.74C87.0822 14.8147 87.2385 14.8847 87.4205 14.95C87.6025 15.0107 87.8288 15.041 88.0995 15.041C88.3235 15.041 88.5172 15.0153 88.6805 14.964C88.8438 14.908 88.9792 14.8333 89.0865 14.74C89.1938 14.6467 89.2732 14.5417 89.3245 14.425C89.3758 14.3037 89.4015 14.1753 89.4015 14.04C89.4015 13.858 89.3502 13.7087 89.2475 13.592C89.1448 13.4753 89.0072 13.375 88.8345 13.291C88.6665 13.207 88.4728 13.1323 88.2535 13.067C88.0388 13.0017 87.8195 12.9317 87.5955 12.857C87.3715 12.7823 87.1498 12.696 86.9305 12.598C86.7158 12.5 86.5222 12.3763 86.3495 12.227C86.1815 12.073 86.0462 11.8887 85.9435 11.674C85.8408 11.4547 85.7895 11.1887 85.7895 10.876C85.7895 10.5913 85.8455 10.3207 85.9575 10.064C86.0742 9.80733 86.2422 9.581 86.4615 9.385C86.6855 9.189 86.9585 9.035 87.2805 8.923C87.6072 8.80633 87.9828 8.748 88.4075 8.748C88.8882 8.748 89.3245 8.825 89.7165 8.979C90.1085 9.133 90.4375 9.343 90.7035 9.609L90.3675 10.155Z" fill="#4D5154"/>
</svg>
