<svg width="161" height="40" viewBox="0 0 161 40" fill="none" xmlns="http://www.w3.org/2000/svg">
<path d="M13.6019 8.91411C15.13 6.26739 18.9502 6.26739 20.4783 8.91411L28.3591 22.564C29.8872 25.2108 27.9771 28.5192 24.9209 28.5192H9.15933C6.10315 28.5192 4.19305 25.2107 5.72114 22.564L13.6019 8.91411Z" fill="white"/>
<path fill-rule="evenodd" clip-rule="evenodd" d="M19.92 22.0972C19.5148 21.692 19.5144 20.8377 19.9197 20.4326C20.66 19.6925 21.118 18.67 21.118 17.5404C21.118 15.282 19.2872 13.4512 17.0287 13.4512C14.7703 13.4512 12.9395 15.282 12.9395 17.5404C12.9395 18.6697 13.3972 19.6921 14.1373 20.4321C14.5426 20.8374 14.5422 21.6919 14.1369 22.0972C13.5005 22.7335 13.0955 23.5581 12.9761 24.44C12.9353 24.7412 13.1856 24.9887 13.4896 24.9887C13.7935 24.9887 14.0348 24.7403 14.0905 24.4414C14.2002 23.8523 14.4856 23.3053 14.9153 22.8756C15.4757 22.3151 16.2358 22.0003 17.0284 22.0003C17.821 22.0003 18.5812 22.3151 19.1416 22.8756C19.5713 23.3053 19.8566 23.8523 19.9664 24.4414C20.0221 24.7403 20.2633 24.9887 20.5673 24.9887C20.8713 24.9887 21.1215 24.7412 21.0807 24.44C20.9613 23.5581 20.5564 22.7335 19.92 22.0972ZM19.9508 17.5416C19.9508 19.1548 18.6431 20.4625 17.0299 20.4625C15.4167 20.4625 14.109 19.1548 14.109 17.5416C14.109 15.9284 15.4167 14.6207 17.0299 14.6207C18.6431 14.6207 19.9508 15.9284 19.9508 17.5416Z" fill="#2A47CB"/>
<path d="M46.3315 17.148C46.983 17.148 47.5353 17.0678 47.9886 16.9073C48.4512 16.7373 48.8289 16.506 49.1216 16.2133C49.4143 15.9206 49.6268 15.5806 49.759 15.1935C49.8912 14.7969 49.9573 14.372 49.9573 13.9188C49.9573 13.0124 49.6598 12.3042 49.065 11.7943C48.4796 11.2845 47.5684 11.0295 46.3315 11.0295H44.4053V17.148H46.3315ZM56.5007 28.082H52.1667C51.3641 28.082 50.7882 27.7799 50.4388 27.1756L47.0113 21.1845C46.8508 20.9296 46.6714 20.7455 46.4731 20.6322C46.2748 20.5094 45.9916 20.4481 45.6233 20.4481H44.4053V28.082H39.6181V7.44623H46.3315C47.8233 7.44623 49.0933 7.60203 50.1414 7.91362C51.1989 8.21577 52.0581 8.64066 52.7191 9.18831C53.3895 9.73595 53.8757 10.3827 54.1779 11.1287C54.48 11.8746 54.6311 12.6866 54.6311 13.5647C54.6311 14.2351 54.5414 14.8678 54.362 15.4626C54.1826 16.0575 53.9182 16.6098 53.5689 17.1197C53.2195 17.6201 52.7852 18.0686 52.2659 18.4652C51.756 18.8618 51.1658 19.1875 50.4955 19.4425C50.807 19.603 51.0997 19.806 51.3736 20.0515C51.6474 20.2875 51.8929 20.5708 52.1101 20.9013L56.5007 28.082ZM65.8922 18.9751C65.8922 18.6257 65.845 18.2858 65.7506 17.9553C65.6656 17.6249 65.5192 17.3322 65.3115 17.0772C65.1132 16.8128 64.8488 16.6004 64.5184 16.4399C64.1879 16.2794 63.7866 16.1991 63.3145 16.1991C62.4836 16.1991 61.8321 16.4399 61.36 16.9214C60.8879 17.3935 60.5763 18.0781 60.4252 18.9751H65.8922ZM60.3685 21.5245C60.5102 22.7519 60.8831 23.6442 61.4874 24.2013C62.0917 24.749 62.8707 25.0228 63.8244 25.0228C64.3342 25.0228 64.7733 24.9614 65.1415 24.8387C65.5098 24.7159 65.8355 24.579 66.1188 24.4279C66.4115 24.2768 66.6759 24.1399 66.9119 24.0172C67.1574 23.8944 67.4124 23.8331 67.6768 23.8331C68.0261 23.8331 68.2905 23.9605 68.4699 24.2155L69.7446 25.7876C69.2914 26.3069 68.8004 26.7318 68.2716 27.0623C67.7523 27.3833 67.2141 27.6383 66.657 27.8271C66.1094 28.0065 65.557 28.1292 64.9999 28.1953C64.4523 28.2709 63.9282 28.3086 63.4278 28.3086C62.3986 28.3086 61.4308 28.1434 60.5243 27.8129C59.6273 27.473 58.8389 26.9726 58.1591 26.3116C57.4887 25.6507 56.9552 24.8292 56.5586 23.8472C56.1715 22.8652 55.9779 21.7227 55.9779 20.4197C55.9779 19.4378 56.1432 18.5077 56.4737 17.6296C56.8136 16.7515 57.2951 15.9819 57.9183 15.321C58.5509 14.66 59.311 14.136 60.1986 13.7489C61.0956 13.3617 62.1059 13.1682 63.2295 13.1682C64.202 13.1682 65.0896 13.3192 65.8922 13.6214C66.7042 13.9235 67.3982 14.3626 67.9742 14.9386C68.5596 15.5145 69.0128 16.2227 69.3338 17.0631C69.6643 17.894 69.8296 18.8382 69.8296 19.8957C69.8296 20.2262 69.8154 20.4953 69.7871 20.703C69.7587 20.9107 69.7068 21.076 69.6313 21.1987C69.5557 21.3215 69.4519 21.4064 69.3197 21.4536C69.1969 21.5009 69.0364 21.5245 68.8381 21.5245H60.3685ZM76.4172 24.088C76.7477 24.4468 77.1065 24.7017 77.4936 24.8528C77.8808 25.0039 78.2868 25.0794 78.7117 25.0794C79.1177 25.0794 79.4906 24.9992 79.8306 24.8387C80.1705 24.6781 80.4632 24.4232 80.7087 24.0738C80.9636 23.715 81.1619 23.2524 81.3035 22.6858C81.4452 22.1193 81.516 21.43 81.516 20.618C81.516 19.8438 81.4593 19.1923 81.346 18.6635C81.2327 18.1347 81.0722 17.7098 80.8645 17.3888C80.6662 17.0583 80.4254 16.8223 80.1421 16.6806C79.8589 16.539 79.5426 16.4682 79.1932 16.4682C78.5511 16.4682 78.0224 16.5862 77.6069 16.8223C77.1915 17.0583 76.7949 17.403 76.4172 17.8562V24.088ZM76.1481 15.2077C76.7241 14.5939 77.3756 14.0935 78.1026 13.7064C78.8391 13.3098 79.7125 13.1115 80.7228 13.1115C81.4877 13.1115 82.1958 13.2815 82.8473 13.6214C83.4988 13.9613 84.0606 14.4523 84.5327 15.0944C85.0048 15.7364 85.3731 16.5249 85.6375 17.4596C85.9113 18.385 86.0482 19.4378 86.0482 20.618C86.0482 21.7227 85.8924 22.7425 85.5808 23.6773C85.2787 24.612 84.8491 25.4241 84.292 26.1133C83.7443 26.8026 83.0834 27.3408 82.3091 27.728C81.5443 28.1151 80.6945 28.3086 79.7597 28.3086C78.9949 28.3086 78.3529 28.2001 77.8335 27.9829C77.3142 27.7657 76.8421 27.473 76.4172 27.1048V32.7417H72.0266V13.3948H74.746C75.2936 13.3948 75.6524 13.6403 75.8224 14.1313L76.1481 15.2077ZM100.741 13.6922V28.082H99.0839C98.7062 28.082 98.4607 27.8979 98.3474 27.5297L98.1491 26.085C97.8375 26.4155 97.5118 26.7176 97.1719 26.9915C96.8319 27.2653 96.4684 27.5013 96.0813 27.6996C95.6942 27.8885 95.2834 28.0348 94.8491 28.1387C94.4148 28.252 93.9474 28.3086 93.4469 28.3086C92.6538 28.3086 91.9551 28.1765 91.3508 27.9121C90.7559 27.6477 90.2555 27.2794 89.8495 26.8073C89.4435 26.3258 89.1366 25.7498 88.9289 25.0794C88.7211 24.409 88.6173 23.6678 88.6173 22.8558V13.6922H91.3933V22.8558C91.3933 23.885 91.6293 24.6876 92.1014 25.2636C92.5735 25.8301 93.2959 26.1133 94.2684 26.1133C94.9766 26.1133 95.6375 25.9481 96.2513 25.6176C96.865 25.2777 97.441 24.8151 97.9792 24.2296V13.6922H100.741ZM109.1 28.3086C107.939 28.3086 107.042 27.9829 106.409 27.3314C105.786 26.6799 105.474 25.7498 105.474 24.5412V15.93H103.803C103.642 15.93 103.505 15.8828 103.392 15.7884C103.288 15.6845 103.236 15.5334 103.236 15.3351V14.2162L105.573 13.8905L106.196 9.59904C106.234 9.43853 106.305 9.31578 106.409 9.2308C106.522 9.13638 106.664 9.08917 106.834 9.08917H108.236V13.9188H112.315V15.93H108.236V24.3571C108.236 24.9236 108.373 25.3485 108.647 25.6318C108.93 25.9056 109.289 26.0425 109.723 26.0425C109.978 26.0425 110.195 26.0095 110.375 25.9434C110.563 25.8773 110.724 25.8065 110.856 25.7309C110.988 25.646 111.102 25.5704 111.196 25.5043C111.291 25.4382 111.375 25.4052 111.451 25.4052C111.545 25.4052 111.616 25.4288 111.663 25.476C111.72 25.5138 111.777 25.5799 111.833 25.6743L112.655 27.0056C112.202 27.4211 111.663 27.7421 111.04 27.9687C110.417 28.1953 109.77 28.3086 109.1 28.3086ZM124.308 19.2867C124.308 18.739 124.227 18.2339 124.067 17.7712C123.916 17.3085 123.689 16.9073 123.387 16.5673C123.085 16.2274 122.717 15.963 122.282 15.7742C121.848 15.5854 121.348 15.4909 120.781 15.4909C119.62 15.4909 118.704 15.8261 118.033 16.4965C117.372 17.1669 116.952 18.097 116.773 19.2867H124.308ZM126.588 26.0284C126.248 26.4249 125.856 26.7696 125.412 27.0623C124.969 27.3455 124.497 27.5769 123.996 27.7563C123.496 27.9357 122.976 28.0679 122.438 28.1528C121.909 28.2378 121.385 28.2803 120.866 28.2803C119.875 28.2803 118.954 28.1151 118.104 27.7846C117.264 27.4447 116.532 26.9537 115.909 26.3116C115.295 25.6601 114.814 24.8575 114.464 23.9039C114.124 22.9408 113.954 21.8361 113.954 20.5897C113.954 19.5888 114.11 18.6588 114.422 17.7995C114.733 16.9309 115.177 16.1755 115.753 15.5334C116.339 14.8914 117.051 14.3862 117.892 14.018C118.732 13.6497 119.676 13.4656 120.724 13.4656C121.603 13.4656 122.41 13.612 123.146 13.9047C123.892 14.1879 124.534 14.6034 125.072 15.151C125.611 15.6987 126.031 16.3738 126.333 17.1764C126.645 17.9789 126.8 18.8948 126.8 19.924C126.8 20.3489 126.753 20.6369 126.659 20.788C126.564 20.9296 126.39 21.0004 126.135 21.0004H116.702C116.73 21.8597 116.853 22.6103 117.07 23.2524C117.287 23.885 117.585 24.4138 117.963 24.8387C118.35 25.2636 118.808 25.5799 119.336 25.7876C119.865 25.9953 120.455 26.0992 121.107 26.0992C121.721 26.0992 122.249 26.0284 122.693 25.8867C123.146 25.7451 123.533 25.594 123.854 25.4335C124.185 25.2636 124.459 25.1078 124.676 24.9661C124.903 24.8245 125.101 24.7537 125.271 24.7537C125.497 24.7537 125.672 24.8387 125.795 25.0086L126.588 26.0284Z" fill="white"/>
</svg>
