<svg width="959" height="432" viewBox="0 0 959 432" fill="none" xmlns="http://www.w3.org/2000/svg">
<path d="M458.275 174.38C462.185 174.38 465.5 173.898 468.22 172.935C470.997 171.915 473.263 170.527 475.02 168.77C476.777 167.013 478.052 164.973 478.845 162.65C479.638 160.27 480.035 157.72 480.035 155C480.035 149.56 478.25 145.31 474.68 142.25C471.167 139.19 465.698 137.66 458.275 137.66H446.715V174.38H458.275ZM519.305 240H493.295C488.478 240 485.022 238.187 482.925 234.56L462.355 198.605C461.392 197.075 460.315 195.97 459.125 195.29C457.935 194.553 456.235 194.185 454.025 194.185H446.715V240H417.985V116.155H458.275C467.228 116.155 474.85 117.09 481.14 118.96C487.487 120.773 492.643 123.323 496.61 126.61C500.633 129.897 503.552 133.778 505.365 138.255C507.178 142.732 508.085 147.605 508.085 152.875C508.085 156.898 507.547 160.695 506.47 164.265C505.393 167.835 503.807 171.15 501.71 174.21C499.613 177.213 497.007 179.905 493.89 182.285C490.83 184.665 487.288 186.62 483.265 188.15C485.135 189.113 486.892 190.332 488.535 191.805C490.178 193.222 491.652 194.922 492.955 196.905L519.305 240ZM575.668 185.345C575.668 183.248 575.385 181.208 574.818 179.225C574.308 177.242 573.43 175.485 572.183 173.955C570.993 172.368 569.406 171.093 567.423 170.13C565.44 169.167 563.031 168.685 560.198 168.685C555.211 168.685 551.301 170.13 548.468 173.02C545.635 175.853 543.765 179.962 542.858 185.345H575.668ZM542.518 200.645C543.368 208.012 545.606 213.367 549.233 216.71C552.86 219.997 557.535 221.64 563.258 221.64C566.318 221.64 568.953 221.272 571.163 220.535C573.373 219.798 575.328 218.977 577.028 218.07C578.785 217.163 580.371 216.342 581.788 215.605C583.261 214.868 584.791 214.5 586.378 214.5C588.475 214.5 590.061 215.265 591.138 216.795L598.788 226.23C596.068 229.347 593.121 231.897 589.948 233.88C586.831 235.807 583.601 237.337 580.258 238.47C576.971 239.547 573.656 240.283 570.313 240.68C567.026 241.133 563.881 241.36 560.878 241.36C554.701 241.36 548.893 240.368 543.453 238.385C538.07 236.345 533.338 233.342 529.258 229.375C525.235 225.408 522.033 220.478 519.653 214.585C517.33 208.692 516.168 201.835 516.168 194.015C516.168 188.122 517.16 182.54 519.143 177.27C521.183 172 524.073 167.382 527.813 163.415C531.61 159.448 536.171 156.303 541.498 153.98C546.881 151.657 552.945 150.495 559.688 150.495C565.525 150.495 570.851 151.402 575.668 153.215C580.541 155.028 584.706 157.663 588.163 161.12C591.676 164.577 594.396 168.827 596.323 173.87C598.306 178.857 599.298 184.523 599.298 190.87C599.298 192.853 599.213 194.468 599.043 195.715C598.873 196.962 598.561 197.953 598.108 198.69C597.655 199.427 597.031 199.937 596.238 200.22C595.501 200.503 594.538 200.645 593.348 200.645H542.518ZM638.834 216.03C640.817 218.183 642.97 219.713 645.294 220.62C647.617 221.527 650.054 221.98 652.604 221.98C655.04 221.98 657.279 221.498 659.319 220.535C661.359 219.572 663.115 218.042 664.589 215.945C666.119 213.792 667.309 211.015 668.159 207.615C669.009 204.215 669.434 200.078 669.434 195.205C669.434 190.558 669.094 186.648 668.414 183.475C667.734 180.302 666.77 177.752 665.524 175.825C664.334 173.842 662.889 172.425 661.189 171.575C659.489 170.725 657.59 170.3 655.494 170.3C651.64 170.3 648.467 171.008 645.974 172.425C643.48 173.842 641.1 175.91 638.834 178.63V216.03ZM637.219 162.735C640.675 159.052 644.585 156.048 648.949 153.725C653.369 151.345 658.61 150.155 664.674 150.155C669.264 150.155 673.514 151.175 677.424 153.215C681.334 155.255 684.705 158.202 687.539 162.055C690.372 165.908 692.582 170.64 694.169 176.25C695.812 181.803 696.634 188.122 696.634 195.205C696.634 201.835 695.699 207.955 693.829 213.565C692.015 219.175 689.437 224.048 686.094 228.185C682.807 232.322 678.84 235.552 674.194 237.875C669.604 240.198 664.504 241.36 658.894 241.36C654.304 241.36 650.45 240.708 647.334 239.405C644.217 238.102 641.384 236.345 638.834 234.135V267.965H612.484V151.855H628.804C632.09 151.855 634.244 153.328 635.264 156.275L637.219 162.735ZM784.812 153.64V240H774.867C772.6 240 771.127 238.895 770.447 236.685L769.257 228.015C767.387 229.998 765.432 231.812 763.392 233.455C761.352 235.098 759.17 236.515 756.847 237.705C754.523 238.838 752.058 239.717 749.452 240.34C746.845 241.02 744.04 241.36 741.037 241.36C736.277 241.36 732.083 240.567 728.457 238.98C724.887 237.393 721.883 235.183 719.447 232.35C717.01 229.46 715.168 226.003 713.922 221.98C712.675 217.957 712.052 213.508 712.052 208.635V153.64H728.712V208.635C728.712 214.812 730.128 219.628 732.962 223.085C735.795 226.485 740.13 228.185 745.967 228.185C750.217 228.185 754.183 227.193 757.867 225.21C761.55 223.17 765.007 220.393 768.237 216.88V153.64H784.812ZM834.978 241.36C828.008 241.36 822.624 239.405 818.828 235.495C815.088 231.585 813.218 226.003 813.218 218.75V167.07H803.188C802.224 167.07 801.403 166.787 800.723 166.22C800.099 165.597 799.788 164.69 799.788 163.5V156.785L813.813 154.83L817.553 129.075C817.779 128.112 818.204 127.375 818.828 126.865C819.508 126.298 820.358 126.015 821.378 126.015H829.793V155H854.273V167.07H829.793V217.645C829.793 221.045 830.614 223.595 832.258 225.295C833.958 226.938 836.111 227.76 838.718 227.76C840.248 227.76 841.551 227.562 842.628 227.165C843.761 226.768 844.724 226.343 845.518 225.89C846.311 225.38 846.991 224.927 847.558 224.53C848.124 224.133 848.634 223.935 849.088 223.935C849.654 223.935 850.079 224.077 850.363 224.36C850.703 224.587 851.043 224.983 851.383 225.55L856.313 233.54C853.593 236.033 850.363 237.96 846.623 239.32C842.883 240.68 839.001 241.36 834.978 241.36ZM926.246 187.215C926.246 183.928 925.765 180.897 924.801 178.12C923.895 175.343 922.535 172.935 920.721 170.895C918.908 168.855 916.698 167.268 914.091 166.135C911.485 165.002 908.481 164.435 905.081 164.435C898.111 164.435 892.615 166.447 888.591 170.47C884.625 174.493 882.103 180.075 881.026 187.215H926.246ZM939.931 227.675C937.891 230.055 935.54 232.123 932.876 233.88C930.213 235.58 927.38 236.968 924.376 238.045C921.373 239.122 918.256 239.915 915.026 240.425C911.853 240.935 908.708 241.19 905.591 241.19C899.641 241.19 894.116 240.198 889.016 238.215C883.973 236.175 879.581 233.228 875.841 229.375C872.158 225.465 869.268 220.648 867.171 214.925C865.131 209.145 864.111 202.515 864.111 195.035C864.111 189.028 865.046 183.447 866.916 178.29C868.786 173.077 871.45 168.543 874.906 164.69C878.42 160.837 882.698 157.805 887.741 155.595C892.785 153.385 898.451 152.28 904.741 152.28C910.011 152.28 914.856 153.158 919.276 154.915C923.753 156.615 927.606 159.108 930.836 162.395C934.066 165.682 936.588 169.733 938.401 174.55C940.271 179.367 941.206 184.863 941.206 191.04C941.206 193.59 940.923 195.318 940.356 196.225C939.79 197.075 938.741 197.5 937.211 197.5H880.601C880.771 202.657 881.508 207.162 882.811 211.015C884.115 214.812 885.9 217.985 888.166 220.535C890.49 223.085 893.238 224.983 896.411 226.23C899.585 227.477 903.126 228.1 907.036 228.1C910.72 228.1 913.893 227.675 916.556 226.825C919.276 225.975 921.6 225.068 923.526 224.105C925.51 223.085 927.153 222.15 928.456 221.3C929.816 220.45 931.006 220.025 932.026 220.025C933.386 220.025 934.435 220.535 935.171 221.555L939.931 227.675Z" fill="white"/>
<path d="M172.699 75C191.944 41.6667 240.056 41.6667 259.301 75L359.76 249C379.005 282.333 354.949 324 316.459 324H115.541C77.051 324 52.9948 282.333 72.2398 249L172.699 75Z" fill="white"/>
<path fill-rule="evenodd" clip-rule="evenodd" d="M252.488 242.597C247.351 237.46 247.346 226.63 252.483 221.494C261.867 212.113 267.671 199.152 267.671 184.836C267.671 156.208 244.464 133 215.836 133C187.208 133 164 156.208 164 184.836C164 199.152 169.804 212.112 179.186 221.493C184.324 226.63 184.319 237.46 179.181 242.597V242.597C171.115 250.664 165.982 261.115 164.468 272.294C163.951 276.113 167.123 279.251 170.976 279.251V279.251C174.829 279.251 177.888 276.101 178.593 272.313C179.985 264.846 183.601 257.911 189.048 252.464C196.152 245.36 205.788 241.369 215.835 241.369C225.882 241.369 235.517 245.36 242.621 252.464C248.068 257.911 251.685 264.846 253.076 272.313C253.782 276.101 256.84 279.251 260.693 279.251V279.251C264.547 279.251 267.719 276.113 267.202 272.294C265.688 261.115 260.555 250.664 252.488 242.597V242.597ZM252.859 184.835C252.859 205.284 236.282 221.861 215.833 221.861C195.385 221.861 178.808 205.284 178.808 184.835C178.808 164.387 195.385 147.81 215.833 147.81C236.282 147.81 252.859 164.387 252.859 184.835Z" fill="#2A47CB"/>
</svg>
