<svg width="56" height="56" viewBox="0 0 56 56" fill="none" xmlns="http://www.w3.org/2000/svg">
<circle cx="28" cy="28" r="28" fill="#FEDDC3"/>
<path d="M33 18H23C20.24 18 18 20.23 18 22.98V28.96V29.96C18 32.71 20.24 34.94 23 34.94H24.5C24.77 34.94 25.13 35.12 25.3 35.34L26.8 37.33C27.46 38.21 28.54 38.21 29.2 37.33L30.7 35.34C30.89 35.09 31.19 34.94 31.5 34.94H33C35.76 34.94 38 32.71 38 29.96V22.98C38 20.23 35.76 18 33 18ZM29 29.75H23C22.59 29.75 22.25 29.41 22.25 29C22.25 28.59 22.59 28.25 23 28.25H29C29.41 28.25 29.75 28.59 29.75 29C29.75 29.41 29.41 29.75 29 29.75ZM33 24.75H23C22.59 24.75 22.25 24.41 22.25 24C22.25 23.59 22.59 23.25 23 23.25H33C33.41 23.25 33.75 23.59 33.75 24C33.75 24.41 33.41 24.75 33 24.75Z" fill="#F16F04"/>
</svg>
