<svg width="101" height="19" viewBox="0 0 101 19" fill="none" xmlns="http://www.w3.org/2000/svg">
<rect x="0.351562" y="4.70117" width="10.4781" height="9.46136" rx="4.73068" fill="#039855"/>
<path d="M29.2981 7.642C29.2467 7.726 29.1931 7.789 29.1371 7.831C29.0811 7.86833 29.0111 7.887 28.9271 7.887C28.8384 7.887 28.7381 7.84967 28.6261 7.775C28.5187 7.70033 28.3834 7.61867 28.2201 7.53C28.0614 7.43667 27.8724 7.35267 27.6531 7.278C27.4337 7.19867 27.1724 7.159 26.8691 7.159C26.5891 7.159 26.3417 7.194 26.1271 7.264C25.9171 7.334 25.7397 7.432 25.5951 7.558C25.4504 7.684 25.3407 7.83333 25.2661 8.006C25.1961 8.174 25.1611 8.35833 25.1611 8.559C25.1611 8.81567 25.2287 9.03033 25.3641 9.203C25.4994 9.371 25.6767 9.51567 25.8961 9.637C26.1201 9.75833 26.3744 9.86567 26.6591 9.959C26.9437 10.0477 27.2331 10.1433 27.5271 10.246C27.8257 10.3487 28.1174 10.4653 28.4021 10.596C28.6867 10.7267 28.9387 10.8923 29.1581 11.093C29.3821 11.2937 29.5617 11.5387 29.6971 11.828C29.8324 12.1173 29.9001 12.4697 29.9001 12.885C29.9001 13.333 29.8231 13.753 29.6691 14.145C29.5151 14.537 29.2911 14.88 28.9971 15.174C28.7077 15.4633 28.3484 15.692 27.9191 15.86C27.4944 16.028 27.0091 16.112 26.4631 16.112C26.1411 16.112 25.8261 16.0793 25.5181 16.014C25.2147 15.9533 24.9231 15.867 24.6431 15.755C24.3677 15.6383 24.1087 15.4983 23.8661 15.335C23.6234 15.1717 23.4064 14.9897 23.2151 14.789L23.6911 14.005C23.7331 13.9397 23.7867 13.8883 23.8521 13.851C23.9174 13.8137 23.9897 13.795 24.0691 13.795C24.1764 13.795 24.2954 13.8463 24.4261 13.949C24.5567 14.047 24.7131 14.1567 24.8951 14.278C25.0817 14.3947 25.3057 14.5043 25.5671 14.607C25.8284 14.705 26.1411 14.754 26.5051 14.754C27.0977 14.754 27.5551 14.6093 27.8771 14.32C28.2037 14.0307 28.3671 13.6317 28.3671 13.123C28.3671 12.8383 28.2994 12.6073 28.1641 12.43C28.0287 12.248 27.8491 12.0963 27.6251 11.975C27.4057 11.8537 27.1537 11.751 26.8691 11.667C26.5844 11.583 26.2951 11.4943 26.0011 11.401C25.7071 11.303 25.4177 11.191 25.1331 11.065C24.8484 10.9343 24.5941 10.7663 24.3701 10.561C24.1507 10.351 23.9734 10.0943 23.8381 9.791C23.7027 9.483 23.6351 9.10033 23.6351 8.643C23.6351 8.279 23.7051 7.92667 23.8451 7.586C23.9897 7.24533 24.1974 6.94433 24.4681 6.683C24.7434 6.417 25.0817 6.20467 25.4831 6.046C25.8844 5.88733 26.3417 5.808 26.8551 5.808C27.4337 5.808 27.9634 5.899 28.4441 6.081C28.9294 6.263 29.3471 6.522 29.6971 6.858L29.2981 7.642ZM37.2729 8.86V16H36.3629C36.1623 16 36.0339 15.9043 35.9779 15.713L35.8659 15.048C35.7166 15.2067 35.5579 15.3513 35.3899 15.482C35.2266 15.6127 35.0516 15.7247 34.8649 15.818C34.6783 15.9113 34.4776 15.9837 34.2629 16.035C34.0529 16.0863 33.8266 16.112 33.5839 16.112C33.1919 16.112 32.8466 16.0467 32.5479 15.916C32.2493 15.7853 31.9973 15.601 31.7919 15.363C31.5913 15.125 31.4396 14.8403 31.3369 14.509C31.2343 14.173 31.1829 13.8043 31.1829 13.403V8.86H32.6879V13.403C32.6879 13.8837 32.7976 14.257 33.0169 14.523C33.2409 14.789 33.5793 14.922 34.0319 14.922C34.3633 14.922 34.6713 14.8473 34.9559 14.698C35.2453 14.544 35.5159 14.334 35.7679 14.068V8.86H37.2729ZM44.1476 10.26C44.1009 10.3207 44.0566 10.3673 44.0146 10.4C43.9726 10.4327 43.9119 10.449 43.8326 10.449C43.7533 10.449 43.6693 10.421 43.5806 10.365C43.4966 10.309 43.3939 10.2483 43.2726 10.183C43.1559 10.113 43.0136 10.05 42.8456 9.994C42.6776 9.938 42.4676 9.91 42.2156 9.91C41.8889 9.91 41.6019 9.96833 41.3546 10.085C41.1119 10.2017 40.9066 10.3697 40.7386 10.589C40.5753 10.8037 40.4516 11.0673 40.3676 11.38C40.2883 11.688 40.2486 12.0357 40.2486 12.423C40.2486 12.8243 40.2929 13.1813 40.3816 13.494C40.4703 13.8067 40.5963 14.0703 40.7596 14.285C40.9276 14.4997 41.1283 14.663 41.3616 14.775C41.5996 14.887 41.8656 14.943 42.1596 14.943C42.4489 14.943 42.6846 14.908 42.8666 14.838C43.0486 14.768 43.2003 14.691 43.3216 14.607C43.4429 14.523 43.5456 14.446 43.6296 14.376C43.7183 14.306 43.8116 14.271 43.9096 14.271C44.0309 14.271 44.1243 14.3177 44.1896 14.411L44.6166 14.964C44.4439 15.174 44.2526 15.3513 44.0426 15.496C43.8326 15.6407 43.6109 15.7597 43.3776 15.853C43.1443 15.9417 42.9016 16.0047 42.6496 16.042C42.3976 16.084 42.1433 16.105 41.8866 16.105C41.4433 16.105 41.0279 16.0233 40.6406 15.86C40.2579 15.692 39.9219 15.4517 39.6326 15.139C39.3479 14.8217 39.1216 14.4367 38.9536 13.984C38.7903 13.5267 38.7086 13.0063 38.7086 12.423C38.7086 11.8957 38.7833 11.408 38.9326 10.96C39.0819 10.5073 39.2989 10.1177 39.5836 9.791C39.8729 9.46433 40.2299 9.21 40.6546 9.028C41.0793 8.84133 41.5693 8.748 42.1246 8.748C42.6426 8.748 43.0976 8.832 43.4896 9C43.8863 9.168 44.2386 9.406 44.5466 9.714L44.1476 10.26ZM50.7511 10.26C50.7044 10.3207 50.6601 10.3673 50.6181 10.4C50.5761 10.4327 50.5154 10.449 50.4361 10.449C50.3568 10.449 50.2728 10.421 50.1841 10.365C50.1001 10.309 49.9974 10.2483 49.8761 10.183C49.7594 10.113 49.6171 10.05 49.4491 9.994C49.2811 9.938 49.0711 9.91 48.8191 9.91C48.4924 9.91 48.2054 9.96833 47.9581 10.085C47.7154 10.2017 47.5101 10.3697 47.3421 10.589C47.1788 10.8037 47.0551 11.0673 46.9711 11.38C46.8918 11.688 46.8521 12.0357 46.8521 12.423C46.8521 12.8243 46.8964 13.1813 46.9851 13.494C47.0738 13.8067 47.1998 14.0703 47.3631 14.285C47.5311 14.4997 47.7318 14.663 47.9651 14.775C48.2031 14.887 48.4691 14.943 48.7631 14.943C49.0524 14.943 49.2881 14.908 49.4701 14.838C49.6521 14.768 49.8038 14.691 49.9251 14.607C50.0464 14.523 50.1491 14.446 50.2331 14.376C50.3218 14.306 50.4151 14.271 50.5131 14.271C50.6344 14.271 50.7278 14.3177 50.7931 14.411L51.2201 14.964C51.0474 15.174 50.8561 15.3513 50.6461 15.496C50.4361 15.6407 50.2144 15.7597 49.9811 15.853C49.7478 15.9417 49.5051 16.0047 49.2531 16.042C49.0011 16.084 48.7468 16.105 48.4901 16.105C48.0468 16.105 47.6314 16.0233 47.2441 15.86C46.8614 15.692 46.5254 15.4517 46.2361 15.139C45.9514 14.8217 45.7251 14.4367 45.5571 13.984C45.3938 13.5267 45.3121 13.0063 45.3121 12.423C45.3121 11.8957 45.3868 11.408 45.5361 10.96C45.6854 10.5073 45.9024 10.1177 46.1871 9.791C46.4764 9.46433 46.8334 9.21 47.2581 9.028C47.6828 8.84133 48.1728 8.748 48.7281 8.748C49.2461 8.748 49.7011 8.832 50.0931 9C50.4898 9.168 50.8421 9.406 51.1501 9.714L50.7511 10.26ZM56.9906 11.625C56.9906 11.373 56.9533 11.1397 56.8786 10.925C56.8086 10.7057 56.7036 10.5167 56.5636 10.358C56.4236 10.1947 56.2486 10.0687 56.0386 9.98C55.8333 9.88667 55.5953 9.84 55.3246 9.84C54.7786 9.84 54.3493 9.99633 54.0366 10.309C53.724 10.6217 53.5256 11.0603 53.4416 11.625H56.9906ZM53.3996 12.549C53.4183 12.955 53.4813 13.3073 53.5886 13.606C53.696 13.9 53.8383 14.145 54.0156 14.341C54.1976 14.537 54.4123 14.684 54.6596 14.782C54.9116 14.8753 55.1916 14.922 55.4996 14.922C55.7936 14.922 56.048 14.8893 56.2626 14.824C56.4773 14.754 56.664 14.6793 56.8226 14.6C56.9813 14.516 57.1166 14.4413 57.2286 14.376C57.3406 14.306 57.4433 14.271 57.5366 14.271C57.658 14.271 57.7513 14.3177 57.8166 14.411L58.2436 14.964C58.0663 15.174 57.8656 15.3513 57.6416 15.496C57.4176 15.6407 57.1796 15.7597 56.9276 15.853C56.6756 15.9417 56.4166 16.0047 56.1506 16.042C55.8846 16.084 55.6256 16.105 55.3736 16.105C54.879 16.105 54.4193 16.0233 53.9946 15.86C53.5746 15.692 53.2083 15.447 52.8956 15.125C52.5876 14.803 52.345 14.404 52.1676 13.928C51.995 13.452 51.9086 12.9037 51.9086 12.283C51.9086 11.7883 51.9856 11.3263 52.1396 10.897C52.2983 10.4677 52.5223 10.0943 52.8116 9.777C53.1056 9.45967 53.4603 9.21 53.8756 9.028C54.2956 8.84133 54.7693 8.748 55.2966 8.748C55.7353 8.748 56.1413 8.82033 56.5146 8.965C56.888 9.105 57.21 9.31267 57.4806 9.588C57.7513 9.86333 57.9613 10.2017 58.1106 10.603C58.2646 10.9997 58.3416 11.4523 58.3416 11.961C58.3416 12.1943 58.316 12.3507 58.2646 12.43C58.2133 12.5093 58.12 12.549 57.9846 12.549H53.3996ZM64.0081 10.155C63.9708 10.2203 63.9288 10.267 63.8821 10.295C63.8355 10.323 63.7771 10.337 63.7071 10.337C63.6278 10.337 63.5415 10.3137 63.4481 10.267C63.3548 10.2157 63.2451 10.1597 63.1191 10.099C62.9931 10.0383 62.8438 9.98467 62.6711 9.938C62.5031 9.88667 62.3048 9.861 62.0761 9.861C61.8895 9.861 61.7191 9.88433 61.5651 9.931C61.4158 9.973 61.2875 10.036 61.1801 10.12C61.0775 10.1993 60.9981 10.295 60.9421 10.407C60.8861 10.5143 60.8581 10.631 60.8581 10.757C60.8581 10.925 60.9095 11.065 61.0121 11.177C61.1148 11.289 61.2501 11.387 61.4181 11.471C61.5861 11.5503 61.7775 11.6227 61.9921 11.688C62.2068 11.7533 62.4261 11.8233 62.6501 11.898C62.8741 11.9727 63.0935 12.059 63.3081 12.157C63.5228 12.255 63.7141 12.3763 63.8821 12.521C64.0501 12.661 64.1855 12.8337 64.2881 13.039C64.3908 13.2397 64.4421 13.4847 64.4421 13.774C64.4421 14.11 64.3815 14.4203 64.2601 14.705C64.1388 14.9897 63.9615 15.237 63.7281 15.447C63.4948 15.657 63.2031 15.8203 62.8531 15.937C62.5078 16.0537 62.1111 16.112 61.6631 16.112C61.4158 16.112 61.1755 16.0887 60.9421 16.042C60.7135 16 60.4941 15.9417 60.2841 15.867C60.0788 15.7877 59.8851 15.6943 59.7031 15.587C59.5258 15.4797 59.3671 15.363 59.2271 15.237L59.5771 14.663C59.6191 14.593 59.6705 14.5393 59.7311 14.502C59.7965 14.46 59.8758 14.439 59.9691 14.439C60.0671 14.439 60.1628 14.4717 60.2561 14.537C60.3541 14.5977 60.4661 14.6653 60.5921 14.74C60.7228 14.8147 60.8791 14.8847 61.0611 14.95C61.2431 15.0107 61.4695 15.041 61.7401 15.041C61.9641 15.041 62.1578 15.0153 62.3211 14.964C62.4845 14.908 62.6198 14.8333 62.7271 14.74C62.8345 14.6467 62.9138 14.5417 62.9651 14.425C63.0165 14.3037 63.0421 14.1753 63.0421 14.04C63.0421 13.858 62.9908 13.7087 62.8881 13.592C62.7855 13.4753 62.6478 13.375 62.4751 13.291C62.3071 13.207 62.1135 13.1323 61.8941 13.067C61.6795 13.0017 61.4601 12.9317 61.2361 12.857C61.0121 12.7823 60.7905 12.696 60.5711 12.598C60.3565 12.5 60.1628 12.3763 59.9901 12.227C59.8221 12.073 59.6868 11.8887 59.5841 11.674C59.4815 11.4547 59.4301 11.1887 59.4301 10.876C59.4301 10.5913 59.4861 10.3207 59.5981 10.064C59.7148 9.80733 59.8828 9.581 60.1021 9.385C60.3261 9.189 60.5991 9.035 60.9211 8.923C61.2478 8.80633 61.6235 8.748 62.0481 8.748C62.5288 8.748 62.9651 8.825 63.3571 8.979C63.7491 9.133 64.0781 9.343 64.3441 9.609L64.0081 10.155ZM70.1195 10.155C70.0821 10.2203 70.0401 10.267 69.9935 10.295C69.9468 10.323 69.8885 10.337 69.8185 10.337C69.7391 10.337 69.6528 10.3137 69.5595 10.267C69.4661 10.2157 69.3565 10.1597 69.2305 10.099C69.1045 10.0383 68.9551 9.98467 68.7825 9.938C68.6145 9.88667 68.4161 9.861 68.1875 9.861C68.0008 9.861 67.8305 9.88433 67.6765 9.931C67.5271 9.973 67.3988 10.036 67.2915 10.12C67.1888 10.1993 67.1095 10.295 67.0535 10.407C66.9975 10.5143 66.9695 10.631 66.9695 10.757C66.9695 10.925 67.0208 11.065 67.1235 11.177C67.2261 11.289 67.3615 11.387 67.5295 11.471C67.6975 11.5503 67.8888 11.6227 68.1035 11.688C68.3181 11.7533 68.5375 11.8233 68.7615 11.898C68.9855 11.9727 69.2048 12.059 69.4195 12.157C69.6341 12.255 69.8255 12.3763 69.9935 12.521C70.1615 12.661 70.2968 12.8337 70.3995 13.039C70.5021 13.2397 70.5535 13.4847 70.5535 13.774C70.5535 14.11 70.4928 14.4203 70.3715 14.705C70.2501 14.9897 70.0728 15.237 69.8395 15.447C69.6061 15.657 69.3145 15.8203 68.9645 15.937C68.6191 16.0537 68.2225 16.112 67.7745 16.112C67.5271 16.112 67.2868 16.0887 67.0535 16.042C66.8248 16 66.6055 15.9417 66.3955 15.867C66.1901 15.7877 65.9965 15.6943 65.8145 15.587C65.6371 15.4797 65.4785 15.363 65.3385 15.237L65.6885 14.663C65.7305 14.593 65.7818 14.5393 65.8425 14.502C65.9078 14.46 65.9871 14.439 66.0805 14.439C66.1785 14.439 66.2741 14.4717 66.3675 14.537C66.4655 14.5977 66.5775 14.6653 66.7035 14.74C66.8341 14.8147 66.9905 14.8847 67.1725 14.95C67.3545 15.0107 67.5808 15.041 67.8515 15.041C68.0755 15.041 68.2691 15.0153 68.4325 14.964C68.5958 14.908 68.7311 14.8333 68.8385 14.74C68.9458 14.6467 69.0251 14.5417 69.0765 14.425C69.1278 14.3037 69.1535 14.1753 69.1535 14.04C69.1535 13.858 69.1021 13.7087 68.9995 13.592C68.8968 13.4753 68.7591 13.375 68.5865 13.291C68.4185 13.207 68.2248 13.1323 68.0055 13.067C67.7908 13.0017 67.5715 12.9317 67.3475 12.857C67.1235 12.7823 66.9018 12.696 66.6825 12.598C66.4678 12.5 66.2741 12.3763 66.1015 12.227C65.9335 12.073 65.7981 11.8887 65.6955 11.674C65.5928 11.4547 65.5415 11.1887 65.5415 10.876C65.5415 10.5913 65.5975 10.3207 65.7095 10.064C65.8261 9.80733 65.9941 9.581 66.2135 9.385C66.4375 9.189 66.7105 9.035 67.0325 8.923C67.3591 8.80633 67.7348 8.748 68.1595 8.748C68.6401 8.748 69.0765 8.825 69.4685 8.979C69.8605 9.133 70.1895 9.343 70.4555 9.609L70.1195 10.155ZM72.4508 16V10.057L71.7508 9.959C71.6341 9.93567 71.5384 9.89367 71.4638 9.833C71.3938 9.77233 71.3588 9.686 71.3588 9.574V8.958H72.4508V8.356C72.4508 7.95 72.5091 7.586 72.6258 7.264C72.7471 6.942 72.9174 6.669 73.1368 6.445C73.3608 6.221 73.6314 6.05067 73.9488 5.934C74.2661 5.81267 74.6231 5.752 75.0198 5.752C75.1831 5.752 75.3371 5.76367 75.4818 5.787C75.6311 5.81033 75.7758 5.84533 75.9158 5.892L75.8878 6.648C75.8784 6.774 75.8154 6.84867 75.6988 6.872C75.5868 6.89533 75.4444 6.907 75.2718 6.907C75.0618 6.907 74.8728 6.93267 74.7048 6.984C74.5368 7.03067 74.3921 7.11233 74.2708 7.229C74.1541 7.34567 74.0631 7.49967 73.9978 7.691C73.9371 7.88233 73.9068 8.12033 73.9068 8.405V8.958H75.8598V10.043H73.9558V16H72.4508ZM82.9507 8.86V16H82.0407C81.84 16 81.7117 15.9043 81.6557 15.713L81.5437 15.048C81.3943 15.2067 81.2357 15.3513 81.0677 15.482C80.9043 15.6127 80.7293 15.7247 80.5427 15.818C80.356 15.9113 80.1553 15.9837 79.9407 16.035C79.7307 16.0863 79.5043 16.112 79.2617 16.112C78.8697 16.112 78.5243 16.0467 78.2257 15.916C77.927 15.7853 77.675 15.601 77.4697 15.363C77.269 15.125 77.1173 14.8403 77.0147 14.509C76.912 14.173 76.8607 13.8043 76.8607 13.403V8.86H78.3657V13.403C78.3657 13.8837 78.4753 14.257 78.6947 14.523C78.9187 14.789 79.257 14.922 79.7097 14.922C80.041 14.922 80.349 14.8473 80.6337 14.698C80.923 14.544 81.1937 14.334 81.4457 14.068V8.86H82.9507ZM86.3113 5.64V16H84.8063V5.64H86.3113Z" fill="#4D5154"/>
</svg>
