<svg width="52" height="52" viewBox="0 0 52 52" fill="none" xmlns="http://www.w3.org/2000/svg">
<g filter="url(#filter0_d_41_5403)">
<rect x="4" y="3" width="44" height="44" rx="22" fill="white" shape-rendering="crispEdges"/>
</g>
<g clip-path="url(#clip0_41_5403)">
<path d="M34 15H18C16.9 15 16.01 15.9 16.01 17L16 35L20 31H34C35.1 31 36 30.1 36 29V17C36 15.9 35.1 15 34 15ZM32 27H20V25H32V27ZM32 24H20V22H32V24ZM32 21H20V19H32V21Z" fill="#233BA9"/>
</g>
<defs>
<filter id="filter0_d_41_5403" x="0" y="0" width="52" height="52" filterUnits="userSpaceOnUse" color-interpolation-filters="sRGB">
<feFlood flood-opacity="0" result="BackgroundImageFix"/>
<feColorMatrix in="SourceAlpha" type="matrix" values="0 0 0 0 0 0 0 0 0 0 0 0 0 0 0 0 0 0 127 0" result="hardAlpha"/>
<feOffset dy="1"/>
<feGaussianBlur stdDeviation="2"/>
<feComposite in2="hardAlpha" operator="out"/>
<feColorMatrix type="matrix" values="0 0 0 0 0.470588 0 0 0 0 0.478431 0 0 0 0 0.490196 0 0 0 0.25 0"/>
<feBlend mode="normal" in2="BackgroundImageFix" result="effect1_dropShadow_41_5403"/>
<feBlend mode="normal" in="SourceGraphic" in2="effect1_dropShadow_41_5403" result="shape"/>
</filter>
<clipPath id="clip0_41_5403">
<rect width="24" height="24" fill="white" transform="translate(14 13)"/>
</clipPath>
</defs>
</svg>
