<svg width="98" height="24" viewBox="0 0 98 24" fill="none" xmlns="http://www.w3.org/2000/svg">
<circle cx="8" cy="12" r="8" fill="#788BE3"/>
<path d="M33.216 7.84H29.504V18H27.96V7.84H24.24V6.536H33.216V7.84ZM35.8725 10.976C36.2192 10.608 36.6032 10.3147 37.0245 10.096C37.4458 9.87733 37.9312 9.768 38.4805 9.768C38.9232 9.768 39.3125 9.84267 39.6485 9.992C39.9898 10.136 40.2725 10.344 40.4965 10.616C40.7258 10.8827 40.8992 11.2053 41.0165 11.584C41.1338 11.9627 41.1925 12.3813 41.1925 12.84V18H39.7605V12.84C39.7605 12.2267 39.6192 11.752 39.3365 11.416C39.0592 11.0747 38.6352 10.904 38.0645 10.904C37.6432 10.904 37.2485 11.0053 36.8805 11.208C36.5178 11.4107 36.1818 11.6853 35.8725 12.032V18H34.4405V6.216H35.8725V10.976ZM44.8664 9.896V18H43.4424V9.896H44.8664ZM45.1704 7.352C45.1704 7.49067 45.141 7.62133 45.0824 7.744C45.029 7.86133 44.9544 7.968 44.8584 8.064C44.7677 8.15467 44.6584 8.22667 44.5304 8.28C44.4077 8.33333 44.277 8.36 44.1384 8.36C43.9997 8.36 43.869 8.33333 43.7464 8.28C43.629 8.22667 43.525 8.15467 43.4344 8.064C43.3437 7.968 43.2717 7.86133 43.2184 7.744C43.165 7.62133 43.1384 7.49067 43.1384 7.352C43.1384 7.21333 43.165 7.08267 43.2184 6.96C43.2717 6.832 43.3437 6.72267 43.4344 6.632C43.525 6.536 43.629 6.46133 43.7464 6.408C43.869 6.35467 43.9997 6.328 44.1384 6.328C44.277 6.328 44.4077 6.35467 44.5304 6.408C44.6584 6.46133 44.7677 6.536 44.8584 6.632C44.9544 6.72267 45.029 6.832 45.0824 6.96C45.141 7.08267 45.1704 7.21333 45.1704 7.352ZM51.9261 11.232C51.8621 11.3493 51.7635 11.408 51.6301 11.408C51.5501 11.408 51.4595 11.3787 51.3581 11.32C51.2568 11.2613 51.1315 11.1973 50.9821 11.128C50.8381 11.0533 50.6648 10.9867 50.4621 10.928C50.2595 10.864 50.0195 10.832 49.7421 10.832C49.5021 10.832 49.2861 10.864 49.0941 10.928C48.9021 10.9867 48.7368 11.0693 48.5981 11.176C48.4648 11.2827 48.3608 11.408 48.2861 11.552C48.2168 11.6907 48.1821 11.8427 48.1821 12.008C48.1821 12.216 48.2408 12.3893 48.3581 12.528C48.4808 12.6667 48.6408 12.7867 48.8381 12.888C49.0355 12.9893 49.2595 13.08 49.5101 13.16C49.7608 13.2347 50.0168 13.3173 50.2781 13.408C50.5448 13.4933 50.8035 13.5893 51.0541 13.696C51.3048 13.8027 51.5288 13.936 51.7261 14.096C51.9235 14.256 52.0808 14.4533 52.1981 14.688C52.3208 14.9173 52.3821 15.1947 52.3821 15.52C52.3821 15.8933 52.3155 16.24 52.1821 16.56C52.0488 16.8747 51.8515 17.1493 51.5901 17.384C51.3288 17.6133 51.0088 17.7947 50.6301 17.928C50.2515 18.0613 49.8141 18.128 49.3181 18.128C48.7528 18.128 48.2408 18.0373 47.7821 17.856C47.3235 17.6693 46.9341 17.432 46.6141 17.144L46.9501 16.6C46.9928 16.5307 47.0435 16.4773 47.1021 16.44C47.1608 16.4027 47.2355 16.384 47.3261 16.384C47.4221 16.384 47.5235 16.4213 47.6301 16.496C47.7368 16.5707 47.8648 16.6533 48.0141 16.744C48.1688 16.8347 48.3555 16.9173 48.5741 16.992C48.7928 17.0667 49.0648 17.104 49.3901 17.104C49.6675 17.104 49.9101 17.0693 50.1181 17C50.3261 16.9253 50.4995 16.8267 50.6381 16.704C50.7768 16.5813 50.8781 16.44 50.9421 16.28C51.0115 16.12 51.0461 15.9493 51.0461 15.768C51.0461 15.544 50.9848 15.36 50.8621 15.216C50.7448 15.0667 50.5875 14.9413 50.3901 14.84C50.1928 14.7333 49.9661 14.6427 49.7101 14.568C49.4595 14.488 49.2008 14.4053 48.9341 14.32C48.6728 14.2347 48.4141 14.1387 48.1581 14.032C47.9075 13.92 47.6835 13.7813 47.4861 13.616C47.2888 13.4507 47.1288 13.248 47.0061 13.008C46.8888 12.7627 46.8301 12.4667 46.8301 12.12C46.8301 11.8107 46.8941 11.5147 47.0221 11.232C47.1501 10.944 47.3368 10.6933 47.5821 10.48C47.8275 10.2613 48.1288 10.088 48.4861 9.96C48.8435 9.832 49.2515 9.768 49.7101 9.768C50.2435 9.768 50.7208 9.85333 51.1421 10.024C51.5688 10.1893 51.9368 10.4187 52.2461 10.712L51.9261 11.232ZM73.195 6.536L69.619 18H68.227L65.323 9.256C65.2963 9.17067 65.2697 9.08 65.243 8.984C65.2217 8.888 65.1977 8.78667 65.171 8.68C65.1443 8.78667 65.1177 8.888 65.091 8.984C65.0643 9.08 65.0377 9.17067 65.011 9.256L62.091 18H60.699L57.123 6.536H58.411C58.5497 6.536 58.6643 6.57067 58.755 6.64C58.851 6.70933 58.9123 6.79733 58.939 6.904L61.307 14.872C61.3443 15.016 61.379 15.1707 61.411 15.336C61.4483 15.5013 61.483 15.6773 61.515 15.864C61.5523 15.6773 61.5897 15.5013 61.627 15.336C61.6697 15.1653 61.715 15.0107 61.763 14.872L64.459 6.904C64.491 6.81333 64.5523 6.73067 64.643 6.656C64.739 6.576 64.8537 6.536 64.987 6.536H65.435C65.5737 6.536 65.6857 6.57067 65.771 6.64C65.8563 6.70933 65.9203 6.79733 65.963 6.904L68.651 14.872C68.699 15.0107 68.7417 15.16 68.779 15.32C68.8217 15.48 68.8617 15.648 68.899 15.824C68.9257 15.648 68.955 15.48 68.987 15.32C69.019 15.16 69.0537 15.0107 69.091 14.872L71.467 6.904C71.4937 6.808 71.5523 6.72267 71.643 6.648C71.739 6.57333 71.8537 6.536 71.987 6.536H73.195ZM79.0833 13.064C79.0833 12.7333 79.0353 12.432 78.9393 12.16C78.8486 11.8827 78.7126 11.6453 78.5313 11.448C78.3553 11.2453 78.1393 11.0907 77.8833 10.984C77.6273 10.872 77.3366 10.816 77.0113 10.816C76.3286 10.816 75.7873 11.016 75.3873 11.416C74.9926 11.8107 74.7473 12.36 74.6513 13.064H79.0833ZM80.2353 16.864C80.0593 17.0773 79.8486 17.264 79.6033 17.424C79.3579 17.5787 79.0939 17.7067 78.8113 17.808C78.5339 17.9093 78.2459 17.984 77.9473 18.032C77.6486 18.0853 77.3526 18.112 77.0593 18.112C76.4993 18.112 75.9819 18.0187 75.5073 17.832C75.0379 17.64 74.6299 17.3627 74.2833 17C73.9419 16.632 73.6753 16.1787 73.4833 15.64C73.2913 15.1013 73.1953 14.4827 73.1953 13.784C73.1953 13.2187 73.2806 12.6907 73.4513 12.2C73.6273 11.7093 73.8779 11.2853 74.2033 10.928C74.5286 10.5653 74.9259 10.2827 75.3953 10.08C75.8646 9.872 76.3926 9.768 76.9793 9.768C77.4646 9.768 77.9126 9.85067 78.3233 10.016C78.7393 10.176 79.0966 10.4107 79.3953 10.72C79.6993 11.024 79.9366 11.4027 80.1073 11.856C80.2779 12.304 80.3633 12.816 80.3633 13.392C80.3633 13.616 80.3393 13.7653 80.2913 13.84C80.2433 13.9147 80.1526 13.952 80.0193 13.952H74.6033C74.6193 14.464 74.6886 14.9093 74.8113 15.288C74.9393 15.6667 75.1153 15.984 75.3393 16.24C75.5633 16.4907 75.8299 16.68 76.1393 16.808C76.4486 16.9307 76.7953 16.992 77.1793 16.992C77.5366 16.992 77.8433 16.952 78.0993 16.872C78.3606 16.7867 78.5846 16.696 78.7713 16.6C78.9579 16.504 79.1126 16.416 79.2353 16.336C79.3633 16.2507 79.4726 16.208 79.5633 16.208C79.6806 16.208 79.7713 16.2533 79.8353 16.344L80.2353 16.864ZM87.5364 13.064C87.5364 12.7333 87.4884 12.432 87.3924 12.16C87.3017 11.8827 87.1657 11.6453 86.9844 11.448C86.8084 11.2453 86.5924 11.0907 86.3364 10.984C86.0804 10.872 85.7897 10.816 85.4644 10.816C84.7817 10.816 84.2404 11.016 83.8404 11.416C83.4457 11.8107 83.2004 12.36 83.1044 13.064H87.5364ZM88.6884 16.864C88.5124 17.0773 88.3017 17.264 88.0564 17.424C87.811 17.5787 87.547 17.7067 87.2644 17.808C86.987 17.9093 86.699 17.984 86.4004 18.032C86.1017 18.0853 85.8057 18.112 85.5124 18.112C84.9524 18.112 84.435 18.0187 83.9604 17.832C83.491 17.64 83.083 17.3627 82.7364 17C82.395 16.632 82.1284 16.1787 81.9364 15.64C81.7444 15.1013 81.6484 14.4827 81.6484 13.784C81.6484 13.2187 81.7337 12.6907 81.9044 12.2C82.0804 11.7093 82.331 11.2853 82.6564 10.928C82.9817 10.5653 83.379 10.2827 83.8484 10.08C84.3177 9.872 84.8457 9.768 85.4324 9.768C85.9177 9.768 86.3657 9.85067 86.7764 10.016C87.1924 10.176 87.5497 10.4107 87.8484 10.72C88.1524 11.024 88.3897 11.4027 88.5604 11.856C88.731 12.304 88.8164 12.816 88.8164 13.392C88.8164 13.616 88.7924 13.7653 88.7444 13.84C88.6964 13.9147 88.6057 13.952 88.4724 13.952H83.0564C83.0724 14.464 83.1417 14.9093 83.2644 15.288C83.3924 15.6667 83.5684 15.984 83.7924 16.24C84.0164 16.4907 84.283 16.68 84.5924 16.808C84.9017 16.9307 85.2484 16.992 85.6324 16.992C85.9897 16.992 86.2964 16.952 86.5524 16.872C86.8137 16.7867 87.0377 16.696 87.2244 16.6C87.411 16.504 87.5657 16.416 87.6884 16.336C87.8164 16.2507 87.9257 16.208 88.0164 16.208C88.1337 16.208 88.2244 16.2533 88.2884 16.344L88.6884 16.864ZM91.9975 6.216V13.152H92.3655C92.4722 13.152 92.5602 13.1387 92.6295 13.112C92.7042 13.08 92.7815 13.0187 92.8615 12.928L95.4215 10.184C95.4962 10.0933 95.5735 10.024 95.6535 9.976C95.7388 9.92267 95.8508 9.896 95.9895 9.896H97.2775L94.2935 13.072C94.1495 13.2533 93.9948 13.3947 93.8295 13.496C93.9255 13.56 94.0108 13.6347 94.0855 13.72C94.1655 13.8 94.2402 13.8933 94.3095 14L97.4775 18H96.2055C96.0828 18 95.9762 17.9813 95.8855 17.944C95.8002 17.9013 95.7255 17.8267 95.6615 17.72L92.9975 14.4C92.9175 14.288 92.8375 14.216 92.7575 14.184C92.6828 14.1467 92.5655 14.128 92.4055 14.128H91.9975V18H90.5655V6.216H91.9975Z" fill="#2B2C34"/>
</svg>
