<svg width="66" height="24" viewBox="0 0 66 24" fill="none" xmlns="http://www.w3.org/2000/svg">
<circle cx="8" cy="12" r="8" fill="#233BA9"/>
<path d="M33.216 7.84H29.504V18H27.96V7.84H24.24V6.536H33.216V7.84ZM36.044 9.768C36.636 9.768 37.1693 9.86667 37.644 10.064C38.1187 10.2613 38.524 10.5413 38.86 10.904C39.196 11.2667 39.452 11.7067 39.628 12.224C39.8093 12.736 39.9 13.3093 39.9 13.944C39.9 14.584 39.8093 15.16 39.628 15.672C39.452 16.184 39.196 16.6213 38.86 16.984C38.524 17.3467 38.1187 17.6267 37.644 17.824C37.1693 18.016 36.636 18.112 36.044 18.112C35.4467 18.112 34.908 18.016 34.428 17.824C33.9533 17.6267 33.548 17.3467 33.212 16.984C32.876 16.6213 32.6173 16.184 32.436 15.672C32.26 15.16 32.172 14.584 32.172 13.944C32.172 13.3093 32.26 12.736 32.436 12.224C32.6173 11.7067 32.876 11.2667 33.212 10.904C33.548 10.5413 33.9533 10.2613 34.428 10.064C34.908 9.86667 35.4467 9.768 36.044 9.768ZM36.044 17C36.844 17 37.4413 16.7333 37.836 16.2C38.2307 15.6613 38.428 14.912 38.428 13.952C38.428 12.9867 38.2307 12.2347 37.836 11.696C37.4413 11.1573 36.844 10.888 36.044 10.888C35.6387 10.888 35.284 10.9573 34.98 11.096C34.6813 11.2347 34.4307 11.4347 34.228 11.696C34.0307 11.9573 33.8813 12.28 33.78 12.664C33.684 13.0427 33.636 13.472 33.636 13.952C33.636 14.912 33.8333 15.6613 34.228 16.2C34.628 16.7333 35.2333 17 36.044 17ZM46.9861 11.824C46.7195 11.4667 46.4315 11.2187 46.1221 11.08C45.8128 10.936 45.4661 10.864 45.0821 10.864C44.3301 10.864 43.7515 11.1333 43.3461 11.672C42.9408 12.2107 42.7381 12.9787 42.7381 13.976C42.7381 14.504 42.7835 14.9573 42.8741 15.336C42.9648 15.7093 43.0981 16.0187 43.2741 16.264C43.4501 16.504 43.6661 16.68 43.9221 16.792C44.1781 16.904 44.4688 16.96 44.7941 16.96C45.2635 16.96 45.6715 16.8533 46.0181 16.64C46.3701 16.4267 46.6928 16.1253 46.9861 15.736V11.824ZM48.4101 6.216V18H47.5621C47.3595 18 47.2315 17.9013 47.1781 17.704L47.0501 16.72C46.7035 17.136 46.3088 17.472 45.8661 17.728C45.4235 17.984 44.9115 18.112 44.3301 18.112C43.8661 18.112 43.4448 18.024 43.0661 17.848C42.6875 17.6667 42.3648 17.4027 42.0981 17.056C41.8315 16.7093 41.6261 16.2773 41.4821 15.76C41.3381 15.2427 41.2661 14.648 41.2661 13.976C41.2661 13.3787 41.3461 12.824 41.5061 12.312C41.6661 11.7947 41.8955 11.3467 42.1941 10.968C42.4928 10.5893 42.8581 10.2933 43.2901 10.08C43.7275 9.86133 44.2181 9.752 44.7621 9.752C45.2581 9.752 45.6821 9.83733 46.0341 10.008C46.3915 10.1733 46.7088 10.4053 46.9861 10.704V6.216H48.4101ZM55.0513 14.352C54.3953 14.3733 53.8353 14.4267 53.3713 14.512C52.9126 14.592 52.5366 14.6987 52.2433 14.832C51.9553 14.9653 51.7446 15.1227 51.6113 15.304C51.4833 15.4853 51.4193 15.688 51.4193 15.912C51.4193 16.1253 51.4539 16.3093 51.5233 16.464C51.5926 16.6187 51.6859 16.7467 51.8033 16.848C51.9259 16.944 52.0673 17.016 52.2273 17.064C52.3926 17.1067 52.5686 17.128 52.7553 17.128C53.0059 17.128 53.2353 17.104 53.4433 17.056C53.6513 17.0027 53.8459 16.928 54.0273 16.832C54.2139 16.736 54.3899 16.6213 54.5553 16.488C54.7259 16.3547 54.8913 16.2027 55.0513 16.032V14.352ZM50.4513 11.04C50.8993 10.608 51.3819 10.2853 51.8993 10.072C52.4166 9.85867 52.9899 9.752 53.6193 9.752C54.0726 9.752 54.4753 9.82667 54.8273 9.976C55.1793 10.1253 55.4753 10.3333 55.7153 10.6C55.9553 10.8667 56.1366 11.1893 56.2593 11.568C56.3819 11.9467 56.4433 12.3627 56.4433 12.816V18H55.8113C55.6726 18 55.5659 17.9787 55.4913 17.936C55.4166 17.888 55.3579 17.7973 55.3153 17.664L55.1553 16.896C54.9419 17.0933 54.7339 17.2693 54.5312 17.424C54.3286 17.5733 54.1153 17.7013 53.8913 17.808C53.6673 17.9093 53.4273 17.9867 53.1713 18.04C52.9206 18.0987 52.6406 18.128 52.3313 18.128C52.0166 18.128 51.7206 18.0853 51.4433 18C51.1659 17.9093 50.9233 17.776 50.7153 17.6C50.5126 17.424 50.3499 17.2027 50.2273 16.936C50.1099 16.664 50.0513 16.344 50.0513 15.976C50.0513 15.656 50.1393 15.3493 50.3153 15.056C50.4913 14.7573 50.7766 14.4933 51.1713 14.264C51.5659 14.0347 52.0806 13.848 52.7153 13.704C53.3499 13.5547 54.1286 13.4693 55.0513 13.448V12.816C55.0513 12.1867 54.9153 11.712 54.6433 11.392C54.3713 11.0667 53.9739 10.904 53.4513 10.904C53.0993 10.904 52.8033 10.9493 52.5633 11.04C52.3286 11.1253 52.1233 11.224 51.9473 11.336C51.7766 11.4427 51.6273 11.5413 51.4993 11.632C51.3766 11.7173 51.2539 11.76 51.1313 11.76C51.0353 11.76 50.9526 11.736 50.8833 11.688C50.8139 11.6347 50.7553 11.5707 50.7072 11.496L50.4513 11.04ZM65.4169 9.896L60.8969 20.392C60.8489 20.4987 60.7875 20.584 60.7129 20.648C60.6435 20.712 60.5342 20.744 60.3849 20.744H59.3289L60.8089 17.528L57.4649 9.896H58.6969C58.8195 9.896 58.9155 9.928 58.9849 9.992C59.0595 10.0507 59.1102 10.1173 59.1369 10.192L61.3049 15.296C61.3902 15.52 61.4622 15.7547 61.5209 16C61.5955 15.7493 61.6755 15.512 61.7609 15.288L63.8649 10.192C63.8969 10.1067 63.9502 10.0373 64.0249 9.984C64.1049 9.92533 64.1929 9.896 64.2889 9.896H65.4169Z" fill="#2B2C34"/>
</svg>
