<svg width="16" height="16" viewBox="0 0 16 16" fill="none" xmlns="http://www.w3.org/2000/svg">
<path d="M11.8895 12.4288L3.40426 3.94347C3.21098 3.7502 3.21098 3.42964 3.40426 3.23637C3.59753 3.04309 3.91809 3.04309 4.11137 3.23637L12.5966 11.7216C12.7899 11.9149 12.7899 12.2355 12.5966 12.4288C12.4034 12.622 12.0828 12.622 11.8895 12.4288Z" fill="#292D32"/>
<path d="M12.5967 3.94444L4.11144 12.4297C3.91817 12.623 3.59761 12.623 3.40433 12.4297C3.21106 12.2364 3.21106 11.9159 3.40433 11.7226L11.8896 3.23734C12.0829 3.04406 12.4034 3.04406 12.5967 3.23734C12.79 3.43061 12.79 3.75117 12.5967 3.94444Z" fill="#292D32"/>
</svg>
