<svg width="100" height="32" viewBox="0 0 100 32" fill="none" xmlns="http://www.w3.org/2000/svg">
<g clip-path="url(#clip0_6255_56880)">
<path d="M52.7029 8.51899C52.7029 9.64811 51.797 10.5577 50.6723 10.5577C49.5477 10.5577 48.6417 9.64811 48.6417 8.51899C48.6417 7.38986 49.5164 6.48029 50.6723 6.48029C51.8282 6.51166 52.7029 7.42123 52.7029 8.51899ZM44.3305 12.6277C44.3305 12.8159 44.3305 13.1296 44.3305 13.1296C44.3305 13.1296 43.3621 11.875 41.3002 11.875C37.8951 11.875 35.2396 14.4783 35.2396 18.0852C35.2396 21.6607 37.8638 24.2954 41.3002 24.2954C43.3933 24.2954 44.3305 23.0094 44.3305 23.0094V23.5426C44.3305 23.7935 44.518 23.9817 44.7679 23.9817H47.2984V12.1886C47.2984 12.1886 44.9866 12.1886 44.7679 12.1886C44.518 12.1886 44.3305 12.4082 44.3305 12.6277ZM44.3305 20.1866C43.8619 20.8766 42.9247 21.4725 41.8001 21.4725C39.8007 21.4725 38.2699 20.218 38.2699 18.0852C38.2699 15.9524 39.8007 14.6978 41.8001 14.6978C42.8935 14.6978 43.8932 15.3251 44.3305 15.9838V20.1866ZM49.1728 12.1886H52.1718V23.9817H49.1728V12.1886ZM93.9713 11.875C91.9094 11.875 90.941 13.1296 90.941 13.1296V6.51166H87.9419V23.9817C87.9419 23.9817 90.2537 23.9817 90.4724 23.9817C90.7223 23.9817 90.9097 23.7622 90.9097 23.5426V23.0094C90.9097 23.0094 91.8782 24.2954 93.94 24.2954C97.3452 24.2954 100.001 21.6607 100.001 18.0852C100.001 14.5096 97.3452 11.875 93.9713 11.875ZM93.4714 21.4412C92.3156 21.4412 91.4096 20.8453 90.941 20.1552V15.9524C91.4096 15.3251 92.4093 14.6664 93.4714 14.6664C95.4708 14.6664 97.0016 15.921 97.0016 18.0538C97.0016 20.1866 95.4708 21.4412 93.4714 21.4412ZM86.3799 16.9874V24.0131H83.3808V17.3324C83.3808 15.3878 82.756 14.6037 81.0691 14.6037C80.1631 14.6037 79.2259 15.0742 78.6323 15.7642V23.9817H75.6333V12.1886H78.0075C78.2574 12.1886 78.4449 12.4082 78.4449 12.6277V13.1296C79.3196 12.22 80.4755 11.875 81.6314 11.875C82.9435 11.875 84.0369 12.2514 84.9116 13.0041C85.9738 13.8823 86.3799 15.0114 86.3799 16.9874ZM68.3543 11.875C66.2924 11.875 65.324 13.1296 65.324 13.1296V6.51166H62.3249V23.9817C62.3249 23.9817 64.6367 23.9817 64.8554 23.9817C65.1053 23.9817 65.2927 23.7622 65.2927 23.5426V23.0094C65.2927 23.0094 66.2612 24.2954 68.323 24.2954C71.7282 24.2954 74.3837 21.6607 74.3837 18.0852C74.4149 14.5096 71.7595 11.875 68.3543 11.875ZM67.8544 21.4412C66.6986 21.4412 65.7926 20.8453 65.324 20.1552V15.9524C65.7926 15.3251 66.7923 14.6664 67.8544 14.6664C69.8538 14.6664 71.3846 15.921 71.3846 18.0538C71.3846 20.1866 69.8538 21.4412 67.8544 21.4412ZM59.732 11.875C60.6379 11.875 61.1066 12.0318 61.1066 12.0318V14.8233C61.1066 14.8233 58.6073 13.9764 57.0453 15.7642V24.0131H54.0463V12.1886C54.0463 12.1886 56.358 12.1886 56.5767 12.1886C56.8266 12.1886 57.0141 12.4082 57.0141 12.6277V13.1296C57.5764 12.4709 58.7948 11.875 59.732 11.875ZM28.5855 22.9153C28.4293 22.5389 28.2731 22.1312 28.1169 21.7862C27.8669 21.2216 27.617 20.6884 27.3983 20.1866L27.3671 20.1552C25.2115 15.4506 22.8997 10.6831 20.463 5.97846L20.3693 5.79027C20.1194 5.3198 19.8694 4.81797 19.6195 4.31614C19.3071 3.75158 18.9947 3.15565 18.4949 2.59109C17.4952 1.3365 16.0581 0.646484 14.5274 0.646484C12.9653 0.646484 11.5595 1.3365 10.5286 2.52836C10.06 3.09292 9.71636 3.68885 9.40396 4.25341C9.15404 4.75524 8.90412 5.25707 8.6542 5.72754L8.56048 5.91573C6.15498 10.6204 3.81196 15.3878 1.65638 20.0925L1.62514 20.1552C1.40646 20.6571 1.15654 21.1903 0.906617 21.7548C0.750416 22.0998 0.594215 22.4762 0.438014 22.884C0.0318905 24.0444 -0.0930705 25.1422 0.0631307 26.2713C0.406773 28.6237 1.96879 30.5996 4.12436 31.4778C4.93661 31.8229 5.78009 31.9797 6.65482 31.9797C6.90474 31.9797 7.21714 31.9483 7.46707 31.9169C8.49799 31.7915 9.56016 31.4465 10.5911 30.8506C11.8719 30.1292 13.0903 29.0941 14.4649 27.5886C15.8395 29.0941 17.0891 30.1292 18.3387 30.8506C19.3696 31.4465 20.4318 31.7915 21.4627 31.9169C21.7126 31.9483 22.025 31.9797 22.2749 31.9797C23.1497 31.9797 24.0244 31.8229 24.8054 31.4778C26.9922 30.5996 28.523 28.5923 28.8666 26.2713C29.1166 25.1736 28.9916 24.0758 28.5855 22.9153ZM14.4961 24.5463C12.8091 22.4135 11.7157 20.4062 11.3409 18.7125C11.1847 17.9911 11.1534 17.3638 11.2471 16.7992C11.3096 16.2974 11.4971 15.8583 11.747 15.4819C12.3405 14.6351 13.3402 14.1019 14.4961 14.1019C15.652 14.1019 16.6829 14.6037 17.2453 15.4819C17.4952 15.8583 17.6826 16.2974 17.7451 16.7992C17.8388 17.3638 17.8076 18.0224 17.6514 18.7125C17.2765 20.3748 16.1831 22.3821 14.4961 24.5463ZM26.961 26.0204C26.7423 27.6514 25.6489 29.0628 24.1181 29.6901C23.3683 30.0037 22.5561 30.0978 21.7439 30.0037C20.9628 29.9096 20.1818 29.6587 19.3696 29.1882C18.2449 28.5609 17.1203 27.5886 15.8082 26.1459C17.8701 23.6053 19.1197 21.2844 19.5883 19.2143C19.807 18.242 19.8382 17.3638 19.7445 16.5483C19.6195 15.7642 19.3384 15.0428 18.901 14.4155C17.9325 13.0041 16.3081 12.1886 14.4961 12.1886C12.6842 12.1886 11.0597 13.0355 10.0912 14.4155C9.65388 15.0428 9.37272 15.7642 9.24776 16.5483C9.1228 17.3638 9.15404 18.2734 9.40396 19.2143C9.87257 21.2844 11.1534 23.6367 13.184 26.1772C11.9032 27.62 10.7473 28.5923 9.62264 29.2196C8.8104 29.6901 8.02939 29.941 7.24839 30.0351C6.4049 30.1292 5.59265 30.0037 4.87413 29.7214C3.34336 29.0941 2.24995 27.6827 2.03127 26.0518C1.93754 25.2677 2.00003 24.4835 2.31243 23.6053C2.40615 23.2917 2.56235 22.978 2.71855 22.6017C2.93723 22.0998 3.18715 21.5666 3.43708 21.0334L3.46832 20.9707C5.62389 16.2974 7.93567 11.53 10.3412 6.88803L10.4349 6.69984C10.6848 6.22937 10.9347 5.72754 11.1847 5.25707C11.4346 4.75524 11.7157 4.28477 12.0594 3.87703C12.7154 3.12428 13.5902 2.71654 14.5586 2.71654C15.527 2.71654 16.4018 3.12428 17.0578 3.87703C17.4015 4.28477 17.6826 4.75524 17.9325 5.25707C18.1825 5.72754 18.4324 6.22937 18.6823 6.69984L18.776 6.88803C21.1503 11.5613 23.4621 16.3288 25.6176 21.0021V21.0334C25.8676 21.5353 26.0862 22.0998 26.3362 22.6017C26.4924 22.978 26.6486 23.2917 26.7423 23.6053C26.9922 24.4208 27.0859 25.2049 26.961 26.0204Z" fill="#FF385C"/>
</g>
<defs>
<clipPath id="clip0_6255_56880">
<rect width="100" height="31.3332" fill="white" transform="translate(0 0.646484)"/>
</clipPath>
</defs>
</svg>
