<svg width="327" height="271" viewBox="0 0 327 271" fill="none" xmlns="http://www.w3.org/2000/svg">
<rect width="327" height="271" rx="8" fill="#EEF1FC"/>
<g filter="url(#filter0_d_5710_34394)">
<rect x="45" y="28" width="236" height="215" rx="4" fill="white"/>
<path d="M98.9943 176.24C99.5753 176.24 100.025 175.898 100.119 175.381H99.6727C99.5921 175.653 99.3369 175.827 99.0044 175.827C98.5544 175.827 98.2656 175.492 98.2656 174.971C98.2656 174.447 98.551 174.118 99.0044 174.118C99.3302 174.118 99.5753 174.286 99.6593 174.571H100.113C100.029 174.044 99.5955 173.705 99.0145 173.705C98.2958 173.705 97.8155 174.212 97.8155 174.974C97.8155 175.743 98.279 176.24 98.9943 176.24ZM101.519 174.534C101.452 174.518 101.395 174.511 101.338 174.511C101.116 174.511 100.958 174.622 100.888 174.786L100.864 174.545H100.478V176.2H100.888V175.394C100.888 175.072 101.072 174.914 101.368 174.914H101.519V174.534ZM102.516 176.244C102.95 176.244 103.252 176.026 103.323 175.663H102.943C102.896 175.821 102.748 175.908 102.523 175.908C102.251 175.908 102.097 175.76 102.066 175.468L103.316 175.465V175.34C103.316 174.823 103 174.491 102.503 174.491C102.016 174.491 101.677 174.85 101.677 175.371C101.677 175.885 102.023 176.244 102.516 176.244ZM102.506 174.827C102.752 174.827 102.909 174.978 102.909 175.206H102.077C102.117 174.958 102.265 174.827 102.506 174.827ZM104.155 176.244C104.413 176.244 104.638 176.126 104.709 175.955L104.739 176.2H105.098V175.193C105.098 174.733 104.823 174.491 104.376 174.491C103.926 174.491 103.631 174.726 103.631 175.085H103.98C103.98 174.911 104.114 174.81 104.356 174.81C104.564 174.81 104.699 174.901 104.699 175.126V175.162L104.202 175.199C103.809 175.23 103.587 175.421 103.587 175.727C103.587 176.039 103.802 176.244 104.155 176.244ZM104.289 175.935C104.104 175.935 104.003 175.861 104.003 175.71C104.003 175.576 104.101 175.492 104.356 175.468L104.702 175.441V175.529C104.702 175.784 104.541 175.935 104.289 175.935ZM106.076 176.2V174.884H106.398V174.541H106.076V174.024H105.666V174.541H105.347V174.884H105.666V176.2H106.076ZM107.412 176.244C107.845 176.244 108.148 176.026 108.218 175.663H107.839C107.792 175.821 107.644 175.908 107.419 175.908C107.147 175.908 106.992 175.76 106.962 175.468L108.211 175.465V175.34C108.211 174.823 107.896 174.491 107.399 174.491C106.912 174.491 106.573 174.85 106.573 175.371C106.573 175.885 106.918 176.244 107.412 176.244ZM107.402 174.827C107.647 174.827 107.805 174.978 107.805 175.206H106.972C107.012 174.958 107.16 174.827 107.402 174.827ZM109.784 176.2L109.982 175.633H110.899L111.097 176.2H111.55L110.664 173.745H110.224L109.337 176.2H109.784ZM110.388 174.477C110.412 174.41 110.432 174.336 110.442 174.289C110.449 174.34 110.472 174.414 110.492 174.477L110.774 175.27H110.109L110.388 174.477ZM111.658 175.367C111.658 175.895 111.987 176.244 112.491 176.244C112.924 176.244 113.247 175.979 113.297 175.592H112.884C112.841 175.774 112.696 175.874 112.491 175.874C112.229 175.874 112.068 175.68 112.068 175.367C112.068 175.055 112.243 174.857 112.505 174.857C112.699 174.857 112.837 174.954 112.884 175.142H113.294C113.25 174.743 112.941 174.491 112.488 174.491C111.998 174.491 111.658 174.853 111.658 175.367ZM113.538 175.367C113.538 175.895 113.868 176.244 114.371 176.244C114.805 176.244 115.127 175.979 115.177 175.592H114.764C114.721 175.774 114.576 175.874 114.371 175.874C114.109 175.874 113.948 175.68 113.948 175.367C113.948 175.055 114.123 174.857 114.385 174.857C114.579 174.857 114.717 174.954 114.764 175.142H115.174C115.13 174.743 114.821 174.491 114.368 174.491C113.878 174.491 113.538 174.853 113.538 175.367ZM115.418 175.367C115.418 175.885 115.791 176.24 116.305 176.24C116.819 176.24 117.192 175.885 117.192 175.367C117.192 174.85 116.819 174.494 116.305 174.494C115.791 174.494 115.418 174.85 115.418 175.367ZM115.828 175.367C115.828 175.065 116.023 174.86 116.305 174.86C116.587 174.86 116.782 175.065 116.782 175.367C116.782 175.67 116.587 175.874 116.305 175.874C116.023 175.874 115.828 175.67 115.828 175.367ZM118.636 174.541V175.411C118.636 175.727 118.511 175.878 118.253 175.878C118.024 175.878 117.9 175.75 117.9 175.434V174.541H117.491V175.579C117.491 175.985 117.716 176.244 118.098 176.244C118.32 176.244 118.535 176.136 118.636 175.979L118.666 176.2H119.045V174.541H118.636ZM119.912 176.2V175.307C119.912 175.038 120.066 174.864 120.318 174.864C120.53 174.864 120.668 174.998 120.668 175.277V176.2H121.077V175.179C121.077 174.749 120.862 174.491 120.446 174.491C120.221 174.491 120.019 174.588 119.915 174.756L119.882 174.541H119.502V176.2H119.912ZM122.078 176.2V174.884H122.4V174.541H122.078V174.024H121.668V174.541H121.349V174.884H121.668V176.2H122.078Z" fill="white"/>
<path d="M139.389 138.263L138.681 138.971C138.59 138.88 138.534 138.755 138.534 138.617C138.534 138.34 138.758 138.116 139.035 138.116C139.173 138.116 139.298 138.172 139.389 138.263Z" stroke="#98A2B3" stroke-width="0.314848" stroke-linecap="round" stroke-linejoin="round"/>
<path d="M139.849 137.745C139.604 137.56 139.324 137.459 139.035 137.459C138.541 137.459 138.08 137.751 137.76 138.254C137.634 138.452 137.634 138.783 137.76 138.981C137.871 139.154 137.999 139.304 138.139 139.424" stroke="#98A2B3" stroke-width="0.314848" stroke-linecap="round" stroke-linejoin="round"/>
<path d="M138.534 139.671C138.693 139.738 138.863 139.774 139.035 139.774C139.529 139.774 139.989 139.483 140.309 138.979C140.435 138.782 140.435 138.45 140.309 138.253C140.263 138.18 140.213 138.112 140.161 138.047" stroke="#98A2B3" stroke-width="0.314848" stroke-linecap="round" stroke-linejoin="round"/>
<path d="M139.526 138.715C139.49 138.912 139.329 139.073 139.131 139.109" stroke="#98A2B3" stroke-width="0.314848" stroke-linecap="round" stroke-linejoin="round"/>
<path d="M138.681 138.971L137.635 140.016" stroke="#98A2B3" stroke-width="0.314848" stroke-linecap="round" stroke-linejoin="round"/>
<path d="M140.434 137.217L139.389 138.263" stroke="#98A2B3" stroke-width="0.314848" stroke-linecap="round" stroke-linejoin="round"/>
<path d="M139.389 159.253L138.681 159.961C138.59 159.87 138.534 159.745 138.534 159.607C138.534 159.33 138.758 159.106 139.035 159.106C139.173 159.106 139.298 159.162 139.389 159.253Z" stroke="#98A2B3" stroke-width="0.314848" stroke-linecap="round" stroke-linejoin="round"/>
<path d="M139.849 158.735C139.604 158.55 139.324 158.45 139.035 158.45C138.541 158.45 138.08 158.741 137.76 159.245C137.634 159.442 137.634 159.773 137.76 159.971C137.871 160.144 137.999 160.294 138.139 160.414" stroke="#98A2B3" stroke-width="0.314848" stroke-linecap="round" stroke-linejoin="round"/>
<path d="M138.534 160.661C138.693 160.728 138.863 160.764 139.035 160.764C139.529 160.764 139.989 160.473 140.309 159.97C140.435 159.772 140.435 159.441 140.309 159.243C140.263 159.171 140.213 159.102 140.161 159.038" stroke="#98A2B3" stroke-width="0.314848" stroke-linecap="round" stroke-linejoin="round"/>
<path d="M139.526 159.705C139.49 159.902 139.329 160.063 139.131 160.1" stroke="#98A2B3" stroke-width="0.314848" stroke-linecap="round" stroke-linejoin="round"/>
<path d="M138.681 159.961L137.635 161.006" stroke="#98A2B3" stroke-width="0.314848" stroke-linecap="round" stroke-linejoin="round"/>
<path d="M140.434 158.208L139.389 159.253" stroke="#98A2B3" stroke-width="0.314848" stroke-linecap="round" stroke-linejoin="round"/>
<path d="M118.885 68.73H120.392L122.295 62.365L124.161 68.73H125.645L128.301 59.9841H126.745L125.334 64.6143C125.202 65.057 125.082 65.5236 124.915 66.3371C124.771 65.5954 124.64 65.0929 124.496 64.6023L123.144 59.9841H121.457L120.081 64.6023C119.926 65.1048 119.794 65.5595 119.651 66.3371C119.519 65.5714 119.387 65.0809 119.256 64.6023L117.868 59.9841H116.277L118.885 68.73ZM131.147 68.8855C132.69 68.8855 133.767 68.1078 134.018 66.8157H132.666C132.499 67.378 131.972 67.6891 131.171 67.6891C130.201 67.6891 129.651 67.1627 129.543 66.1218L133.994 66.1098V65.6671C133.994 63.8246 132.869 62.6402 131.099 62.6402C129.364 62.6402 128.156 63.9204 128.156 65.7748C128.156 67.6053 129.388 68.8855 131.147 68.8855ZM131.111 63.8366C131.984 63.8366 132.546 64.375 132.546 65.1886H129.579C129.723 64.3032 130.249 63.8366 131.111 63.8366ZM136.753 68.73V59.8286H135.306V68.73H136.753ZM138.057 65.7629C138.057 67.6412 139.23 68.8855 141.024 68.8855C142.568 68.8855 143.716 67.9403 143.896 66.5645H142.424C142.269 67.2105 141.754 67.5695 141.024 67.5695C140.091 67.5695 139.517 66.8755 139.517 65.7629C139.517 64.6502 140.139 63.9443 141.072 63.9443C141.766 63.9443 142.257 64.2913 142.424 64.9612H143.884C143.728 63.5375 142.628 62.6402 141.012 62.6402C139.266 62.6402 138.057 63.9323 138.057 65.7629ZM144.755 65.7629C144.755 67.6053 146.083 68.8736 147.913 68.8736C149.744 68.8736 151.072 67.6053 151.072 65.7629C151.072 63.9204 149.744 62.6522 147.913 62.6522C146.083 62.6522 144.755 63.9204 144.755 65.7629ZM146.215 65.7629C146.215 64.6861 146.909 63.9563 147.913 63.9563C148.918 63.9563 149.612 64.6861 149.612 65.7629C149.612 66.8396 148.918 67.5695 147.913 67.5695C146.909 67.5695 146.215 66.8396 146.215 65.7629ZM153.808 68.73V65.38C153.808 64.4229 154.371 63.9682 155.065 63.9682C155.758 63.9682 156.201 64.4109 156.201 65.2364V68.73H157.661V65.38C157.661 64.4109 158.199 63.9563 158.905 63.9563C159.599 63.9563 160.054 64.3989 160.054 65.2484V68.73H161.501V64.8655C161.501 63.5016 160.712 62.6402 159.276 62.6402C158.379 62.6402 157.685 63.0829 157.386 63.7648C157.075 63.0829 156.452 62.6402 155.555 62.6402C154.706 62.6402 154.107 63.023 153.808 63.5136L153.689 62.8197H152.349V68.73H153.808ZM165.698 68.8855C167.241 68.8855 168.318 68.1078 168.569 66.8157H167.217C167.05 67.378 166.523 67.6891 165.722 67.6891C164.753 67.6891 164.202 67.1627 164.095 66.1218L168.545 66.1098V65.6671C168.545 63.8246 167.421 62.6402 165.65 62.6402C163.915 62.6402 162.707 63.9204 162.707 65.7748C162.707 67.6053 163.939 68.8855 165.698 68.8855ZM165.662 63.8366C166.535 63.8366 167.098 64.375 167.098 65.1886H164.131C164.274 64.3032 164.801 63.8366 165.662 63.8366ZM175.188 68.73V64.04H176.336V62.8197H175.188V60.9772H173.728V62.8197H172.591V64.04H173.728V68.73H175.188ZM176.958 65.7629C176.958 67.6053 178.286 68.8736 180.116 68.8736C181.947 68.8736 183.275 67.6053 183.275 65.7629C183.275 63.9204 181.947 62.6522 180.116 62.6522C178.286 62.6522 176.958 63.9204 176.958 65.7629ZM178.418 65.7629C178.418 64.6861 179.111 63.9563 180.116 63.9563C181.121 63.9563 181.815 64.6861 181.815 65.7629C181.815 66.8396 181.121 67.5695 180.116 67.5695C179.111 67.5695 178.418 66.8396 178.418 65.7629ZM192.897 65.1527V63.7768H189.643V61.3959H193.519V59.9841H188.111V68.73H189.643V65.1527H192.897ZM195.534 61.6352C196.012 61.6352 196.407 61.2404 196.407 60.7498C196.407 60.2593 196.012 59.8765 195.534 59.8765C195.031 59.8765 194.636 60.2593 194.636 60.7498C194.636 61.2404 195.031 61.6352 195.534 61.6352ZM194.804 68.73H196.264V62.8197H194.804V68.73ZM198.92 68.73L200.164 66.7798L201.421 68.73H203.096L201.146 65.8107L203.155 62.8197H201.516L200.26 64.8296L198.956 62.8197H197.257L199.291 65.8346L197.257 68.73H198.92ZM204.875 61.6352C205.353 61.6352 205.748 61.2404 205.748 60.7498C205.748 60.2593 205.353 59.8765 204.875 59.8765C204.372 59.8765 203.977 60.2593 203.977 60.7498C203.977 61.2404 204.372 61.6352 204.875 61.6352ZM204.145 68.73H205.605V62.8197H204.145V68.73ZM209.242 68.73V64.04H210.391V62.8197H209.242V60.9772H207.783V62.8197H206.646V64.04H207.783V68.73H209.242Z" fill="#2B2C34"/>
<path d="M136.319 78.6919C136.319 79.1856 136.616 79.508 137.18 79.644L137.79 79.7951C138.178 79.8858 138.359 80.0974 138.359 80.4198C138.359 80.8329 138.022 81.0898 137.493 81.0898C136.999 81.0898 136.666 80.8429 136.646 80.4651H136.273C136.319 81.0545 136.792 81.4223 137.493 81.4223C138.238 81.4223 138.722 81.0243 138.722 80.3996C138.722 79.911 138.43 79.5886 137.865 79.4526L137.246 79.3015C136.868 79.2057 136.682 79.0042 136.682 78.6869C136.682 78.2788 137.014 78.0169 137.523 78.0169C137.976 78.0169 138.253 78.2486 138.294 78.6566H138.661C138.606 78.0521 138.178 77.6894 137.528 77.6894C136.802 77.6894 136.319 78.0874 136.319 78.6919ZM139.52 78.2536C139.661 78.2536 139.782 78.1378 139.782 77.9967C139.782 77.8557 139.661 77.7348 139.52 77.7348C139.379 77.7348 139.263 77.8557 139.263 77.9967C139.263 78.1378 139.379 78.2536 139.52 78.2536ZM139.349 81.3618H139.696V78.9236H139.349V81.3618ZM140.305 80.0722C140.305 80.7372 140.729 81.2863 141.424 81.2863C141.842 81.2863 142.179 81.0848 142.346 80.7422V81.3215C142.346 81.8303 142.013 82.1678 141.514 82.1678C141.076 82.1678 140.774 81.9361 140.698 81.5432H140.351C140.446 82.1326 140.885 82.4852 141.509 82.4852C142.225 82.4852 142.688 82.0117 142.688 81.2863V78.9236H142.386L142.351 79.4123C142.194 79.0546 141.872 78.8581 141.449 78.8581C140.734 78.8581 140.305 79.4072 140.305 80.0722ZM140.653 80.0672C140.653 79.5735 140.955 79.1654 141.479 79.1654C142.013 79.1654 142.315 79.5483 142.315 80.0672C142.315 80.5911 142.003 80.9739 141.474 80.9739C140.96 80.9739 140.653 80.5659 140.653 80.0672ZM143.811 81.3618V80.0873C143.811 79.5382 144.094 79.1755 144.592 79.1755C144.995 79.1755 145.252 79.377 145.252 79.9463V81.3618H145.6V79.8707C145.6 79.2561 145.323 78.8581 144.653 78.8581C144.3 78.8581 143.978 79.0345 143.816 79.3468L143.766 78.9236H143.464V81.3618H143.811ZM149.503 78.9236V80.2183C149.503 80.7976 149.226 81.1099 148.758 81.1099C148.37 81.1099 148.113 80.9034 148.113 80.3241V78.9186H147.76V80.4349C147.76 81.0293 148.073 81.4223 148.647 81.4223C149.03 81.4223 149.367 81.2308 149.503 80.9487L149.549 81.3618H149.851V78.9236H149.503ZM150.625 82.4247H150.973V80.8933C151.144 81.246 151.472 81.4223 151.885 81.4223C152.605 81.4223 153.013 80.8681 153.013 80.1326C153.013 79.3972 152.59 78.8581 151.885 78.8581C151.477 78.8581 151.134 79.0395 150.963 79.4173L150.928 78.9236H150.625V82.4247ZM150.978 80.1427C150.978 79.5785 151.29 79.1755 151.824 79.1755C152.353 79.1755 152.66 79.5785 152.66 80.1427C152.66 80.7019 152.353 81.1099 151.824 81.1099C151.29 81.1099 150.978 80.7019 150.978 80.1427ZM155.624 81.3618V79.2158H156.113V78.9236H155.624V78.1529H155.282V78.9236H154.793V79.2158H155.282V81.3618H155.624ZM156.42 80.1427C156.42 80.8832 156.944 81.4223 157.659 81.4223C158.375 81.4223 158.898 80.8832 158.898 80.1427C158.898 79.3972 158.375 78.8581 157.659 78.8581C156.944 78.8581 156.42 79.3972 156.42 80.1427ZM156.773 80.1377C156.773 79.5735 157.135 79.1705 157.659 79.1705C158.178 79.1705 158.546 79.5735 158.546 80.1377C158.546 80.712 158.178 81.1099 157.659 81.1099C157.135 81.1099 156.773 80.712 156.773 80.1377ZM161.255 81.3618L161.29 80.8631C161.461 81.2409 161.799 81.4223 162.207 81.4223C162.917 81.4223 163.34 80.8782 163.34 80.1478C163.34 79.4123 162.927 78.8581 162.217 78.8581C161.804 78.8581 161.471 79.0395 161.3 79.3972V77.6894H160.952V81.3618H161.255ZM161.305 80.1377C161.305 79.5785 161.617 79.1705 162.151 79.1705C162.68 79.1705 162.987 79.5785 162.987 80.1377C162.987 80.7019 162.68 81.1049 162.151 81.1049C161.617 81.1049 161.305 80.7019 161.305 80.1377ZM164.967 81.4223C165.541 81.4223 165.919 81.1452 166.05 80.6314H165.718C165.627 80.9538 165.37 81.1251 164.972 81.1251C164.448 81.1251 164.136 80.7825 164.111 80.1881H166.05V80.0168C166.05 79.3266 165.602 78.8581 164.942 78.8581C164.247 78.8581 163.773 79.3821 163.773 80.1427C163.773 80.9084 164.252 81.4223 164.967 81.4223ZM164.942 79.1554C165.4 79.1554 165.703 79.4677 165.703 79.9362H164.121C164.181 79.4576 164.484 79.1554 164.942 79.1554ZM166.49 80.0722C166.49 80.7372 166.913 81.2863 167.608 81.2863C168.027 81.2863 168.364 81.0848 168.53 80.7422V81.3215C168.53 81.8303 168.198 82.1678 167.699 82.1678C167.261 82.1678 166.959 81.9361 166.883 81.5432H166.535C166.631 82.1326 167.069 82.4852 167.694 82.4852C168.409 82.4852 168.873 82.0117 168.873 81.2863V78.9236H168.571L168.535 79.4123C168.379 79.0546 168.057 78.8581 167.634 78.8581C166.918 78.8581 166.49 79.4072 166.49 80.0722ZM166.838 80.0672C166.838 79.5735 167.14 79.1654 167.664 79.1654C168.198 79.1654 168.5 79.5483 168.5 80.0672C168.5 80.5911 168.188 80.9739 167.659 80.9739C167.145 80.9739 166.838 80.5659 166.838 80.0672ZM169.82 78.2536C169.961 78.2536 170.082 78.1378 170.082 77.9967C170.082 77.8557 169.961 77.7348 169.82 77.7348C169.679 77.7348 169.563 77.8557 169.563 77.9967C169.563 78.1378 169.679 78.2536 169.82 78.2536ZM169.649 81.3618H169.996V78.9236H169.649V81.3618ZM171.119 81.3618V80.0873C171.119 79.5382 171.401 79.1755 171.9 79.1755C172.303 79.1755 172.56 79.377 172.56 79.9463V81.3618H172.907V79.8707C172.907 79.2561 172.63 78.8581 171.96 78.8581C171.608 78.8581 171.285 79.0345 171.124 79.3468L171.074 78.9236H170.771V81.3618H171.119ZM175.612 81.3618H175.959L176.463 79.8304C176.529 79.6289 176.569 79.4828 176.604 79.3518C176.634 79.4979 176.675 79.649 176.735 79.8304L177.239 81.3618H177.576L178.403 78.9236H178.04L177.556 80.3946C177.471 80.6566 177.461 80.717 177.41 80.9185C177.365 80.7372 177.304 80.5256 177.259 80.3946L176.781 78.9236H176.423L175.939 80.3946C175.914 80.4752 175.833 80.722 175.793 80.9185C175.743 80.722 175.697 80.5558 175.642 80.3946L175.164 78.9236H174.806L175.612 81.3618ZM179.058 78.2536C179.2 78.2536 179.32 78.1378 179.32 77.9967C179.32 77.8557 179.2 77.7348 179.058 77.7348C178.917 77.7348 178.802 77.8557 178.802 77.9967C178.802 78.1378 178.917 78.2536 179.058 78.2536ZM178.887 81.3618H179.235V78.9236H178.887V81.3618ZM180.569 81.3618V79.2158H181.058V78.9236H180.569V78.1529H180.227V78.9236H179.738V79.2158H180.227V81.3618H180.569ZM181.908 81.3568V80.0319C181.908 79.5634 182.18 79.1755 182.704 79.1755C183.082 79.1755 183.349 79.377 183.349 79.9463V81.3618H183.697V79.8707C183.697 79.2561 183.41 78.8581 182.77 78.8581C182.362 78.8581 182.065 79.0546 181.908 79.3468V77.6894H181.561V81.3568H181.908ZM187.6 78.9236V80.2183C187.6 80.7976 187.323 81.1099 186.855 81.1099C186.467 81.1099 186.21 80.9034 186.21 80.3241V78.9186H185.857V80.4349C185.857 81.0293 186.17 81.4223 186.744 81.4223C187.127 81.4223 187.464 81.2308 187.6 80.9487L187.646 81.3618H187.948V78.9236H187.6ZM188.467 80.6767C188.467 81.1301 188.809 81.4223 189.358 81.4223C189.912 81.4223 190.285 81.1351 190.285 80.6969C190.285 80.3442 190.094 80.1478 189.671 80.042L189.252 79.9362C188.985 79.8707 188.854 79.7397 188.854 79.5533C188.854 79.2914 189.046 79.1453 189.388 79.1453C189.716 79.1453 189.912 79.3115 189.922 79.5936H190.26C190.245 79.1402 189.912 78.8581 189.398 78.8581C188.875 78.8581 188.517 79.1302 188.517 79.5584C188.517 79.8908 188.723 80.1125 189.147 80.2183L189.565 80.3241C189.852 80.3946 189.953 80.5105 189.953 80.712C189.953 80.9739 189.731 81.1351 189.353 81.1351C189.011 81.1351 188.799 80.9588 188.799 80.6767H188.467Z" fill="#6F7174"/>
<path d="M130.26 91.9937H131.1C131.521 91.9937 131.776 91.7791 131.776 91.4265C131.776 91.1738 131.656 91.0034 131.421 90.9269C131.632 90.8388 131.738 90.6742 131.738 90.4303C131.738 90.0806 131.485 89.8691 131.071 89.8691H130.26V91.9937ZM131.053 90.1247C131.303 90.1247 131.444 90.2452 131.444 90.4568C131.444 90.6772 131.309 90.8065 131.071 90.8065H130.548V90.1247H131.053ZM131.095 91.0562C131.338 91.0562 131.48 91.1797 131.48 91.3912C131.48 91.6116 131.341 91.738 131.095 91.738H130.548V91.0562H131.095ZM133.083 90.5567V91.3148C133.083 91.6234 132.945 91.785 132.692 91.785C132.481 91.785 132.348 91.6675 132.348 91.3589V90.5567H132.072V91.45C132.072 91.8026 132.26 92.0289 132.595 92.0289C132.807 92.0289 132.998 91.9261 133.08 91.7762L133.109 91.9937H133.356V90.5567H133.083ZM133.611 91.5764C133.611 91.8497 133.825 92.0289 134.163 92.0289C134.504 92.0289 134.739 91.8555 134.739 91.5823C134.739 91.3677 134.619 91.2561 134.375 91.1973L134.122 91.1356C133.981 91.1003 133.911 91.0357 133.911 90.9387C133.911 90.8065 134.008 90.7301 134.181 90.7301C134.348 90.7301 134.445 90.8212 134.451 90.9651H134.716C134.71 90.6919 134.504 90.5155 134.19 90.5155C133.872 90.5155 133.649 90.683 133.649 90.9475C133.649 91.1591 133.77 91.2855 134.025 91.3472L134.278 91.4059C134.428 91.4441 134.475 91.5029 134.475 91.5999C134.475 91.7321 134.363 91.8115 134.169 91.8115C133.987 91.8115 133.875 91.7233 133.875 91.5764H133.611ZM135.181 90.2158C135.281 90.2158 135.363 90.1335 135.363 90.0336C135.363 89.9308 135.281 89.8514 135.181 89.8514C135.081 89.8514 134.999 89.9308 134.999 90.0336C134.999 90.1335 135.081 90.2158 135.181 90.2158ZM135.046 91.9937H135.322V90.5567H135.046V91.9937ZM135.999 91.9937V91.2326C135.999 90.9534 136.149 90.7683 136.408 90.7683C136.619 90.7683 136.754 90.8858 136.754 91.1767V91.9937H137.031V91.115C137.031 90.7477 136.857 90.5155 136.478 90.5155C136.275 90.5155 136.093 90.6125 136.002 90.7771L135.973 90.5567H135.723V91.9937H135.999ZM138.033 92.0289C138.389 92.0289 138.63 91.8555 138.7 91.547H138.442C138.395 91.7115 138.254 91.7997 138.039 91.7997C137.766 91.7997 137.607 91.6322 137.586 91.3295L138.697 91.3266V91.2237C138.697 90.7976 138.43 90.5155 138.021 90.5155C137.604 90.5155 137.319 90.827 137.319 91.2766C137.319 91.7233 137.61 92.0289 138.033 92.0289ZM138.021 90.7477C138.265 90.7477 138.421 90.9064 138.421 91.1444H137.592C137.628 90.8917 137.78 90.7477 138.021 90.7477ZM138.888 91.5764C138.888 91.8497 139.103 92.0289 139.441 92.0289C139.782 92.0289 140.017 91.8555 140.017 91.5823C140.017 91.3677 139.896 91.2561 139.652 91.1973L139.4 91.1356C139.259 91.1003 139.188 91.0357 139.188 90.9387C139.188 90.8065 139.285 90.7301 139.458 90.7301C139.626 90.7301 139.723 90.8212 139.729 90.9651H139.993C139.987 90.6919 139.782 90.5155 139.467 90.5155C139.15 90.5155 138.926 90.683 138.926 90.9475C138.926 91.1591 139.047 91.2855 139.303 91.3472L139.555 91.4059C139.705 91.4441 139.752 91.5029 139.752 91.5999C139.752 91.7321 139.641 91.8115 139.447 91.8115C139.264 91.8115 139.153 91.7233 139.153 91.5764H138.888ZM140.205 91.5764C140.205 91.8497 140.42 92.0289 140.758 92.0289C141.099 92.0289 141.334 91.8555 141.334 91.5823C141.334 91.3677 141.213 91.2561 140.969 91.1973L140.717 91.1356C140.576 91.1003 140.505 91.0357 140.505 90.9387C140.505 90.8065 140.602 90.7301 140.776 90.7301C140.943 90.7301 141.04 90.8212 141.046 90.9651H141.31C141.304 90.6919 141.099 90.5155 140.784 90.5155C140.467 90.5155 140.244 90.683 140.244 90.9475C140.244 91.1591 140.364 91.2855 140.62 91.3472L140.873 91.4059C141.022 91.4441 141.069 91.5029 141.069 91.5999C141.069 91.7321 140.958 91.8115 140.764 91.8115C140.582 91.8115 140.47 91.7233 140.47 91.5764H140.205ZM142.72 91.9937V91.2326C142.72 90.9534 142.87 90.7683 143.128 90.7683C143.34 90.7683 143.475 90.8858 143.475 91.1767V91.9937H143.751V91.115C143.751 90.7477 143.578 90.5155 143.199 90.5155C142.996 90.5155 142.814 90.6125 142.723 90.7771L142.693 90.5567H142.444V91.9937H142.72ZM144.554 92.0289C144.786 92.0289 144.983 91.9261 145.057 91.7615L145.086 91.9937H145.321V91.0915C145.321 90.7036 145.08 90.5155 144.725 90.5155C144.354 90.5155 144.108 90.7124 144.108 91.0122H144.348C144.348 90.8388 144.481 90.7359 144.713 90.7359C144.907 90.7359 145.051 90.8212 145.051 91.0621V91.1033L144.598 91.1385C144.26 91.165 144.063 91.3295 144.063 91.594C144.063 91.8555 144.246 92.0289 144.554 92.0289ZM144.634 91.8144C144.454 91.8144 144.343 91.738 144.343 91.5852C144.343 91.4441 144.443 91.3501 144.686 91.3266L145.054 91.2972V91.3736C145.054 91.644 144.895 91.8144 144.634 91.8144ZM145.98 91.9937V91.1415C145.98 90.9123 146.118 90.7683 146.327 90.7683C146.521 90.7683 146.644 90.8917 146.644 91.118V91.9937H146.917V91.1415C146.917 90.9123 147.055 90.7653 147.264 90.7653C147.458 90.7653 147.584 90.8946 147.584 91.1209V91.9937H147.855V91.0533C147.855 90.7212 147.655 90.5155 147.326 90.5155C147.102 90.5155 146.929 90.6272 146.861 90.8065C146.788 90.6272 146.629 90.5155 146.406 90.5155C146.203 90.5155 146.05 90.6096 145.977 90.7448L145.951 90.5567H145.704V91.9937H145.98ZM148.858 92.0289C149.213 92.0289 149.454 91.8555 149.525 91.547H149.266C149.219 91.7115 149.078 91.7997 148.864 91.7997C148.59 91.7997 148.432 91.6322 148.411 91.3295L149.522 91.3266V91.2237C149.522 90.7976 149.254 90.5155 148.846 90.5155C148.429 90.5155 148.144 90.827 148.144 91.2766C148.144 91.7233 148.435 92.0289 148.858 92.0289ZM148.846 90.7477C149.09 90.7477 149.246 90.9064 149.246 91.1444H148.417C148.452 90.8917 148.605 90.7477 148.846 90.7477Z" fill="black"/>
<g filter="url(#filter1_d_5710_34394)">
<rect x="130.013" y="95.6729" width="67.1676" height="10.198" rx="1.67919" fill="white"/>
<path d="M133.482 101.772V100.593C133.482 100.227 133.476 99.9618 133.462 99.8711L134.245 101.772H134.476L135.259 99.8611C135.245 100.026 135.239 100.21 135.239 100.63V101.772H135.477V99.3674H135.235L134.359 101.487L133.482 99.3674H133.244V101.772H133.482ZM136.478 101.812C136.753 101.812 136.975 101.691 137.075 101.487L137.106 101.772H137.3V100.721C137.3 100.291 137.025 100.103 136.649 100.103C136.249 100.103 135.98 100.314 135.98 100.644H136.192C136.192 100.425 136.36 100.298 136.642 100.298C136.881 100.298 137.072 100.398 137.072 100.717V100.771L136.535 100.815C136.155 100.845 135.927 101.033 135.927 101.332C135.927 101.617 136.132 101.812 136.478 101.812ZM136.531 101.624C136.31 101.624 136.162 101.523 136.162 101.325C136.162 101.144 136.286 101.01 136.592 100.983L137.072 100.946V101.033C137.072 101.386 136.874 101.624 136.531 101.624ZM138.615 100.126C138.558 100.113 138.514 100.11 138.464 100.11C138.235 100.11 138.064 100.224 138 100.398L137.984 100.147H137.765V101.772H137.997V100.845C137.997 100.536 138.188 100.335 138.487 100.335H138.615V100.126ZM139.165 101.772V101.285L139.481 100.959L139.998 101.772H140.266L139.638 100.795L140.263 100.147H139.971L139.165 100.986V99.3237H138.933V101.772H139.165ZM141.393 100.126C141.336 100.113 141.292 100.11 141.242 100.11C141.013 100.11 140.842 100.224 140.778 100.398L140.761 100.147H140.543V101.772H140.775V100.845C140.775 100.536 140.966 100.335 141.265 100.335H141.393V100.126ZM142.102 101.812C142.378 101.812 142.599 101.691 142.7 101.487L142.73 101.772H142.925V100.721C142.925 100.291 142.65 100.103 142.273 100.103C141.874 100.103 141.605 100.314 141.605 100.644H141.817C141.817 100.425 141.985 100.298 142.267 100.298C142.505 100.298 142.697 100.398 142.697 100.717V100.771L142.159 100.815C141.78 100.845 141.551 101.033 141.551 101.332C141.551 101.617 141.756 101.812 142.102 101.812ZM142.156 101.624C141.934 101.624 141.786 101.523 141.786 101.325C141.786 101.144 141.911 101.01 142.216 100.983L142.697 100.946V101.033C142.697 101.386 142.498 101.624 142.156 101.624ZM143.504 99.6999C143.598 99.6999 143.679 99.6226 143.679 99.5286C143.679 99.4345 143.598 99.3539 143.504 99.3539C143.41 99.3539 143.333 99.4345 143.333 99.5286C143.333 99.6226 143.41 99.6999 143.504 99.6999ZM143.39 101.772H143.622V100.147H143.39V101.772ZM144.337 101.772V100.922C144.337 100.556 144.525 100.314 144.857 100.314C145.126 100.314 145.297 100.449 145.297 100.828V101.772H145.529V100.778C145.529 100.368 145.344 100.103 144.897 100.103C144.662 100.103 144.447 100.22 144.34 100.429L144.306 100.147H144.105V101.772H144.337ZM147.389 101.812C147.664 101.812 147.886 101.691 147.987 101.487L148.017 101.772H148.212V100.721C148.212 100.291 147.936 100.103 147.56 100.103C147.161 100.103 146.892 100.314 146.892 100.644H147.103C147.103 100.425 147.271 100.298 147.554 100.298C147.792 100.298 147.983 100.398 147.983 100.717V100.771L147.446 100.815C147.067 100.845 146.838 101.033 146.838 101.332C146.838 101.617 147.043 101.812 147.389 101.812ZM147.443 101.624C147.221 101.624 147.073 101.523 147.073 101.325C147.073 101.144 147.198 101.01 147.503 100.983L147.983 100.946V101.033C147.983 101.386 147.785 101.624 147.443 101.624ZM148.908 101.772V100.922C148.908 100.556 149.097 100.314 149.429 100.314C149.698 100.314 149.869 100.449 149.869 100.828V101.772H150.101V100.778C150.101 100.368 149.916 100.103 149.469 100.103C149.234 100.103 149.019 100.22 148.912 100.429L148.878 100.147H148.677V101.772H148.908ZM151.201 101.812C151.473 101.812 151.701 101.691 151.815 101.439L151.839 101.772H152.04V99.3237H151.809V100.455C151.694 100.22 151.479 100.103 151.211 100.103C150.727 100.103 150.448 100.472 150.448 100.963C150.448 101.45 150.727 101.812 151.201 101.812ZM151.241 101.601C150.888 101.601 150.683 101.332 150.683 100.956C150.683 100.583 150.888 100.311 151.241 100.311C151.597 100.311 151.805 100.583 151.805 100.956C151.805 101.332 151.597 101.601 151.241 101.601ZM153.318 101.315C153.318 101.617 153.546 101.812 153.912 101.812C154.281 101.812 154.53 101.621 154.53 101.329C154.53 101.094 154.402 100.963 154.12 100.892L153.841 100.822C153.663 100.778 153.576 100.691 153.576 100.566C153.576 100.392 153.704 100.294 153.932 100.294C154.15 100.294 154.281 100.405 154.288 100.593H154.513C154.503 100.291 154.281 100.103 153.939 100.103C153.59 100.103 153.351 100.284 153.351 100.57C153.351 100.791 153.489 100.939 153.771 101.01L154.05 101.08C154.241 101.127 154.308 101.204 154.308 101.339C154.308 101.513 154.161 101.621 153.909 101.621C153.68 101.621 153.539 101.503 153.539 101.315H153.318ZM154.797 100.959C154.797 101.453 155.147 101.812 155.623 101.812C156.1 101.812 156.45 101.453 156.45 100.959C156.45 100.462 156.1 100.103 155.623 100.103C155.147 100.103 154.797 100.462 154.797 100.959ZM155.032 100.956C155.032 100.58 155.274 100.311 155.623 100.311C155.969 100.311 156.214 100.58 156.214 100.956C156.214 101.339 155.969 101.604 155.623 101.604C155.274 101.604 155.032 101.339 155.032 100.956ZM157.052 101.772V100.922C157.052 100.556 157.24 100.314 157.572 100.314C157.841 100.314 158.012 100.449 158.012 100.828V101.772H158.244V100.778C158.244 100.368 158.059 100.103 157.613 100.103C157.378 100.103 157.163 100.22 157.055 100.429L157.022 100.147H156.82V101.772H157.052ZM158.549 101.315C158.549 101.617 158.777 101.812 159.143 101.812C159.512 101.812 159.761 101.621 159.761 101.329C159.761 101.094 159.633 100.963 159.351 100.892L159.073 100.822C158.895 100.778 158.807 100.691 158.807 100.566C158.807 100.392 158.935 100.294 159.163 100.294C159.381 100.294 159.512 100.405 159.519 100.593H159.744C159.734 100.291 159.512 100.103 159.17 100.103C158.821 100.103 158.582 100.284 158.582 100.57C158.582 100.791 158.72 100.939 159.002 101.01L159.281 101.08C159.472 101.127 159.539 101.204 159.539 101.339C159.539 101.513 159.392 101.621 159.14 101.621C158.911 101.621 158.77 101.503 158.77 101.315H158.549Z" fill="#667085"/>
<g clip-path="url(#clip0_5710_34394)">
<path d="M192.156 100.352C192.189 100.259 192.254 100.18 192.339 100.129C192.424 100.079 192.525 100.061 192.623 100.078C192.72 100.094 192.809 100.145 192.873 100.221C192.937 100.297 192.972 100.393 192.972 100.492C192.972 100.772 192.552 100.912 192.552 100.912M192.563 101.472H192.564M193.962 100.772C193.962 101.545 193.336 102.171 192.563 102.171C191.79 102.171 191.164 101.545 191.164 100.772C191.164 99.9991 191.79 99.3726 192.563 99.3726C193.336 99.3726 193.962 99.9991 193.962 100.772Z" stroke="#98A2B3" stroke-width="0.279865" stroke-linecap="round" stroke-linejoin="round"/>
</g>
<rect x="130.118" y="95.7778" width="66.9577" height="9.98807" rx="1.57424" stroke="#D0D5DD" stroke-width="0.209899"/>
</g>
<path d="M131.556 114.502V114.235H130.548V113.562H131.456V113.306H130.548V112.642H131.556V112.378H130.26V114.502H131.556ZM132.202 114.502V113.65C132.202 113.421 132.341 113.277 132.549 113.277C132.743 113.277 132.867 113.4 132.867 113.627V114.502H133.14V113.65C133.14 113.421 133.278 113.274 133.487 113.274C133.681 113.274 133.807 113.403 133.807 113.63V114.502H134.077V113.562C134.077 113.23 133.877 113.024 133.548 113.024C133.325 113.024 133.152 113.136 133.084 113.315C133.011 113.136 132.852 113.024 132.629 113.024C132.426 113.024 132.273 113.118 132.2 113.254L132.173 113.065H131.926V114.502H132.202ZM134.88 114.538C135.113 114.538 135.309 114.435 135.383 114.27L135.412 114.502H135.647V113.6C135.647 113.212 135.406 113.024 135.051 113.024C134.681 113.024 134.434 113.221 134.434 113.521H134.675C134.675 113.348 134.807 113.245 135.039 113.245C135.233 113.245 135.377 113.33 135.377 113.571V113.612L134.924 113.647C134.587 113.674 134.39 113.838 134.39 114.103C134.39 114.364 134.572 114.538 134.88 114.538ZM134.96 114.323C134.78 114.323 134.669 114.247 134.669 114.094C134.669 113.953 134.769 113.859 135.013 113.835L135.38 113.806V113.882C135.38 114.153 135.221 114.323 134.96 114.323ZM136.165 112.725C136.265 112.725 136.347 112.642 136.347 112.542C136.347 112.44 136.265 112.36 136.165 112.36C136.065 112.36 135.983 112.44 135.983 112.542C135.983 112.642 136.065 112.725 136.165 112.725ZM136.03 114.502H136.306V113.065H136.03V114.502ZM136.989 114.502V112.34H136.713V114.502H136.989Z" fill="black"/>
<g filter="url(#filter2_d_5710_34394)">
<rect x="130.013" y="118.182" width="67.1676" height="10.198" rx="1.67919" fill="white"/>
<g clip-path="url(#clip1_5710_34394)">
<path d="M136.8 122.231C136.8 122.039 136.643 121.881 136.45 121.881H133.652C133.459 121.881 133.302 122.039 133.302 122.231M136.8 122.231V124.33C136.8 124.523 136.643 124.68 136.45 124.68H133.652C133.459 124.68 133.302 124.523 133.302 124.33V122.231M136.8 122.231L135.051 123.456L133.302 122.231" stroke="#667085" stroke-width="0.349831" stroke-linecap="round" stroke-linejoin="round"/>
</g>
<path d="M138.957 123.468C138.957 123.962 139.306 124.321 139.783 124.321C140.26 124.321 140.609 123.962 140.609 123.468C140.609 122.971 140.26 122.612 139.783 122.612C139.306 122.612 138.957 122.971 138.957 123.468ZM139.192 123.465C139.192 123.089 139.434 122.82 139.783 122.82C140.129 122.82 140.374 123.089 140.374 123.465C140.374 123.848 140.129 124.113 139.783 124.113C139.434 124.113 139.192 123.848 139.192 123.465ZM141.221 124.281V121.833H140.99V124.281H141.221ZM141.829 122.209C141.923 122.209 142.003 122.131 142.003 122.037C142.003 121.943 141.923 121.863 141.829 121.863C141.734 121.863 141.657 121.943 141.657 122.037C141.657 122.131 141.734 122.209 141.829 122.209ZM141.714 124.281H141.946V122.655H141.714V124.281ZM142.883 124.281H143.114L143.789 122.655H143.551L143.124 123.703C143.077 123.821 143.034 123.928 143.004 124.039C142.973 123.931 142.93 123.821 142.886 123.703L142.466 122.655H142.218L142.883 124.281ZM144.177 122.209C144.271 122.209 144.351 122.131 144.351 122.037C144.351 121.943 144.271 121.863 144.177 121.863C144.083 121.863 144.005 121.943 144.005 122.037C144.005 122.131 144.083 122.209 144.177 122.209ZM144.063 124.281H144.294V122.655H144.063V124.281ZM145.244 124.321C145.52 124.321 145.741 124.2 145.842 123.995L145.872 124.281H146.067V123.23C146.067 122.8 145.792 122.612 145.416 122.612C145.016 122.612 144.747 122.823 144.747 123.152H144.959C144.959 122.934 145.127 122.806 145.409 122.806C145.647 122.806 145.839 122.907 145.839 123.226V123.28L145.301 123.324C144.922 123.354 144.694 123.542 144.694 123.841C144.694 124.126 144.898 124.321 145.244 124.321ZM145.298 124.133C145.076 124.133 144.929 124.032 144.929 123.834C144.929 123.653 145.053 123.518 145.359 123.492L145.839 123.455V123.542C145.839 123.895 145.641 124.133 145.298 124.133ZM147.15 123.542C147.15 123.814 147.348 123.982 147.667 123.982C147.923 123.982 148.131 123.868 148.225 123.676C148.245 123.878 148.383 123.982 148.614 123.982C148.954 123.982 149.195 123.643 149.195 123.169C149.195 122.39 148.618 121.833 147.815 121.833C147.033 121.833 146.431 122.434 146.431 123.216C146.431 124.009 147.029 124.61 147.815 124.61C148.137 124.61 148.43 124.506 148.671 124.314L148.577 124.177C148.362 124.351 148.097 124.442 147.815 124.442C147.133 124.442 146.613 123.911 146.613 123.216C146.613 122.531 147.137 122 147.815 122C148.514 122 149.014 122.487 149.014 123.169C149.014 123.559 148.86 123.824 148.631 123.824C148.493 123.824 148.423 123.753 148.423 123.623V122.981C148.423 122.618 148.198 122.414 147.818 122.414C147.446 122.414 147.2 122.612 147.2 122.907H147.402C147.402 122.709 147.553 122.591 147.808 122.591C148.077 122.591 148.208 122.719 148.208 122.978V123.028L147.714 123.065C147.355 123.095 147.15 123.277 147.15 123.542ZM147.365 123.539C147.365 123.354 147.503 123.25 147.765 123.226L148.208 123.193V123.267C148.208 123.602 148.02 123.804 147.714 123.804C147.489 123.804 147.365 123.71 147.365 123.539ZM150.721 122.655V123.518C150.721 123.905 150.536 124.113 150.224 124.113C149.965 124.113 149.794 123.975 149.794 123.589V122.652H149.559V123.663C149.559 124.059 149.767 124.321 150.15 124.321C150.405 124.321 150.63 124.193 150.721 124.005L150.751 124.281H150.953V122.655H150.721ZM151.667 124.281V123.431C151.667 123.065 151.855 122.823 152.188 122.823C152.456 122.823 152.627 122.958 152.627 123.337V124.281H152.859V123.287C152.859 122.877 152.674 122.612 152.228 122.612C151.993 122.612 151.778 122.729 151.67 122.937L151.637 122.655H151.435V124.281H151.667ZM153.694 124.281V122.85H154.02V122.655H153.694V122.141H153.465V122.655H153.14V122.85H153.465V124.281H153.694ZM154.436 122.209C154.53 122.209 154.61 122.131 154.61 122.037C154.61 121.943 154.53 121.863 154.436 121.863C154.342 121.863 154.264 121.943 154.264 122.037C154.264 122.131 154.342 122.209 154.436 122.209ZM154.321 124.281H154.553V122.655H154.321V124.281ZM155.409 124.281V122.85H155.735V122.655H155.409V122.141H155.181V122.655H154.855V122.85H155.181V124.281H155.409ZM156.278 124.281V121.833H156.047V124.281H156.278ZM157.453 124.321C157.836 124.321 158.088 124.136 158.175 123.794H157.953C157.893 124.009 157.722 124.123 157.456 124.123C157.107 124.123 156.899 123.895 156.882 123.498H158.175V123.384C158.175 122.924 157.876 122.612 157.436 122.612C156.973 122.612 156.657 122.961 156.657 123.468C156.657 123.979 156.976 124.321 157.453 124.321ZM157.436 122.81C157.742 122.81 157.943 123.018 157.943 123.33H156.889C156.929 123.011 157.131 122.81 157.436 122.81ZM159.184 124.321C159.456 124.321 159.684 124.2 159.798 123.948L159.822 124.281H160.023V121.833H159.792V122.964C159.677 122.729 159.462 122.612 159.194 122.612C158.71 122.612 158.431 122.981 158.431 123.471C158.431 123.958 158.71 124.321 159.184 124.321ZM159.224 124.109C158.871 124.109 158.666 123.841 158.666 123.465C158.666 123.092 158.871 122.82 159.224 122.82C159.58 122.82 159.788 123.092 159.788 123.465C159.788 123.841 159.58 124.109 159.224 124.109ZM161.649 122.655V123.518C161.649 123.905 161.464 124.113 161.152 124.113C160.893 124.113 160.722 123.975 160.722 123.589V122.652H160.487V123.663C160.487 124.059 160.695 124.321 161.078 124.321C161.333 124.321 161.558 124.193 161.649 124.005L161.679 124.281H161.88V122.655H161.649ZM162.477 122.209C162.571 122.209 162.652 122.131 162.652 122.037C162.652 121.943 162.571 121.863 162.477 121.863C162.383 121.863 162.306 121.943 162.306 122.037C162.306 122.131 162.383 122.209 162.477 122.209ZM162.363 124.281H162.595V122.655H162.363V124.281ZM163.276 124.318C163.39 124.318 163.488 124.224 163.488 124.113C163.488 123.999 163.39 123.901 163.276 123.901C163.162 123.901 163.065 123.999 163.065 124.113C163.065 124.224 163.162 124.318 163.276 124.318ZM163.741 123.471C163.741 123.982 164.053 124.321 164.514 124.321C164.883 124.321 165.172 124.103 165.249 123.77H165.014C164.95 123.979 164.755 124.113 164.514 124.113C164.184 124.113 163.97 123.854 163.97 123.468C163.97 123.068 164.201 122.817 164.53 122.817C164.755 122.817 164.95 122.941 165.011 123.166H165.242C165.179 122.83 164.903 122.612 164.527 122.612C164.053 122.612 163.741 122.961 163.741 123.471ZM165.486 123.468C165.486 123.962 165.835 124.321 166.312 124.321C166.789 124.321 167.138 123.962 167.138 123.468C167.138 122.971 166.789 122.612 166.312 122.612C165.835 122.612 165.486 122.971 165.486 123.468ZM165.721 123.465C165.721 123.089 165.963 122.82 166.312 122.82C166.658 122.82 166.903 123.089 166.903 123.465C166.903 123.848 166.658 124.113 166.312 124.113C165.963 124.113 165.721 123.848 165.721 123.465ZM167.741 124.281V123.273C167.741 123.025 167.905 122.823 168.177 122.823C168.422 122.823 168.58 122.984 168.58 123.26V124.281H168.809V123.277C168.809 123.025 168.97 122.82 169.242 122.82C169.49 122.82 169.645 122.984 169.645 123.263V124.281H169.87V123.216C169.87 122.84 169.638 122.612 169.285 122.612C169.024 122.612 168.825 122.746 168.751 122.958C168.674 122.746 168.483 122.612 168.228 122.612C167.999 122.612 167.818 122.716 167.737 122.887L167.71 122.655H167.509V124.281H167.741Z" fill="#667085"/>
<g clip-path="url(#clip2_5710_34394)">
<path d="M192.156 122.861C192.189 122.767 192.254 122.688 192.339 122.638C192.424 122.588 192.525 122.57 192.623 122.586C192.72 122.603 192.809 122.654 192.873 122.73C192.937 122.806 192.972 122.902 192.972 123.001C192.972 123.281 192.552 123.421 192.552 123.421M192.563 123.98H192.564M193.962 123.281C193.962 124.053 193.336 124.68 192.563 124.68C191.79 124.68 191.164 124.053 191.164 123.281C191.164 122.508 191.79 121.881 192.563 121.881C193.336 121.881 193.962 122.508 193.962 123.281Z" stroke="#98A2B3" stroke-width="0.279865" stroke-linecap="round" stroke-linejoin="round"/>
</g>
<rect x="130.118" y="118.287" width="66.9577" height="9.98807" rx="1.57424" stroke="#D0D5DD" stroke-width="0.209899"/>
</g>
<path d="M131.086 136.253C131.5 136.253 131.77 135.965 131.77 135.568C131.77 135.16 131.503 134.887 131.086 134.887H130.26V137.011H130.548V136.253H131.086ZM131.036 135.145C131.306 135.145 131.468 135.298 131.468 135.565C131.468 135.827 131.309 135.994 131.024 135.994H130.548V135.145H131.036ZM132.412 137.046C132.645 137.046 132.841 136.944 132.915 136.779L132.944 137.011H133.179V136.109C133.179 135.721 132.938 135.533 132.583 135.533C132.213 135.533 131.966 135.73 131.966 136.03H132.207C132.207 135.856 132.339 135.754 132.571 135.754C132.765 135.754 132.909 135.839 132.909 136.08V136.121L132.457 136.156C132.119 136.183 131.922 136.347 131.922 136.612C131.922 136.873 132.104 137.046 132.412 137.046ZM132.492 136.832C132.313 136.832 132.201 136.756 132.201 136.603C132.201 136.462 132.301 136.368 132.545 136.344L132.912 136.315V136.391C132.912 136.662 132.753 136.832 132.492 136.832ZM133.444 136.594C133.444 136.867 133.659 137.046 133.997 137.046C134.338 137.046 134.573 136.873 134.573 136.6C134.573 136.385 134.452 136.274 134.208 136.215L133.956 136.153C133.815 136.118 133.744 136.053 133.744 135.956C133.744 135.824 133.841 135.748 134.014 135.748C134.182 135.748 134.279 135.839 134.285 135.983H134.549C134.543 135.709 134.338 135.533 134.023 135.533C133.706 135.533 133.483 135.701 133.483 135.965C133.483 136.177 133.603 136.303 133.859 136.365L134.111 136.424C134.261 136.462 134.308 136.52 134.308 136.617C134.308 136.75 134.197 136.829 134.003 136.829C133.821 136.829 133.709 136.741 133.709 136.594H133.444ZM134.762 136.594C134.762 136.867 134.976 137.046 135.314 137.046C135.655 137.046 135.89 136.873 135.89 136.6C135.89 136.385 135.77 136.274 135.526 136.215L135.273 136.153C135.132 136.118 135.061 136.053 135.061 135.956C135.061 135.824 135.158 135.748 135.332 135.748C135.499 135.748 135.596 135.839 135.602 135.983H135.867C135.861 135.709 135.655 135.533 135.341 135.533C135.023 135.533 134.8 135.701 134.8 135.965C134.8 136.177 134.92 136.303 135.176 136.365L135.429 136.424C135.579 136.462 135.626 136.52 135.626 136.617C135.626 136.75 135.514 136.829 135.32 136.829C135.138 136.829 135.026 136.741 135.026 136.594H134.762ZM136.47 137.011H136.744L136.994 136.244C137.046 136.071 137.073 135.977 137.088 135.906C137.102 135.986 137.132 136.097 137.179 136.241L137.428 137.011H137.69L138.181 135.574H137.893L137.652 136.321C137.611 136.447 137.584 136.547 137.561 136.662C137.537 136.559 137.49 136.391 137.467 136.321L137.229 135.574H136.947L136.706 136.321C136.673 136.415 136.635 136.535 136.612 136.662C136.585 136.535 136.556 136.426 136.523 136.321L136.285 135.574H136L136.47 137.011ZM138.257 136.291C138.257 136.735 138.575 137.046 139.007 137.046C139.436 137.046 139.753 136.735 139.753 136.291C139.753 135.848 139.436 135.536 139.007 135.536C138.575 135.536 138.257 135.848 138.257 136.291ZM138.537 136.291C138.537 135.992 138.728 135.783 139.007 135.783C139.283 135.783 139.477 135.992 139.477 136.291C139.477 136.591 139.283 136.8 139.007 136.8C138.728 136.8 138.537 136.591 138.537 136.291ZM140.882 135.563C140.826 135.551 140.785 135.545 140.735 135.545C140.538 135.545 140.394 135.645 140.335 135.795L140.318 135.577H140.059V137.011H140.335V136.25C140.335 135.974 140.497 135.815 140.758 135.815H140.882V135.563ZM141.665 137.046C141.894 137.046 142.088 136.947 142.182 136.75L142.206 137.011H142.453V134.848H142.179V135.806C142.082 135.63 141.897 135.533 141.677 135.533C141.251 135.533 140.995 135.856 140.995 136.297C140.995 136.735 141.248 137.046 141.665 137.046ZM141.721 136.797C141.439 136.797 141.274 136.585 141.274 136.288C141.274 135.994 141.439 135.783 141.721 135.783C142.003 135.783 142.176 135.994 142.176 136.288C142.176 136.588 142.003 136.797 141.721 136.797Z" fill="black"/>
<g filter="url(#filter3_d_5710_34394)">
<rect x="130.013" y="140.69" width="67.1676" height="10.198" rx="1.67919" fill="white"/>
<path d="M133.408 145.194C133.183 145.503 133.106 145.698 133.106 145.977C133.106 146.457 133.486 146.83 133.969 146.83C134.449 146.83 134.822 146.471 134.822 145.977C134.822 145.507 134.49 145.141 133.989 145.141C133.879 145.141 133.774 145.164 133.66 145.221L134.292 144.385H134.01L133.408 145.194ZM133.351 145.98C133.351 145.614 133.603 145.352 133.969 145.352C134.325 145.352 134.58 145.614 134.58 145.98C134.58 146.346 134.325 146.612 133.969 146.612C133.603 146.612 133.351 146.346 133.351 145.98ZM135.244 145.554V145.762H135.979V146.501H136.188V145.762H136.923V145.554H136.188V144.818H135.979V145.554H135.244ZM138.251 145.98C138.251 146.491 138.564 146.83 139.024 146.83C139.393 146.83 139.682 146.612 139.759 146.279H139.524C139.46 146.487 139.266 146.622 139.024 146.622C138.695 146.622 138.48 146.363 138.48 145.977C138.48 145.577 138.711 145.325 139.041 145.325C139.266 145.325 139.46 145.45 139.521 145.675H139.753C139.689 145.339 139.413 145.12 139.037 145.12C138.564 145.12 138.251 145.47 138.251 145.98ZM140.342 146.786V145.903C140.342 145.591 140.523 145.332 140.873 145.332C141.125 145.332 141.303 145.466 141.303 145.846V146.79H141.534V145.795C141.534 145.386 141.343 145.12 140.916 145.12C140.644 145.12 140.446 145.251 140.342 145.446V144.341H140.11V146.786H140.342ZM142.463 146.83C142.738 146.83 142.96 146.709 143.061 146.504L143.091 146.79H143.286V145.738C143.286 145.309 143.01 145.12 142.634 145.12C142.235 145.12 141.966 145.332 141.966 145.661H142.177C142.177 145.443 142.345 145.315 142.627 145.315C142.866 145.315 143.057 145.416 143.057 145.735V145.789L142.52 145.832C142.14 145.863 141.912 146.051 141.912 146.35C141.912 146.635 142.117 146.83 142.463 146.83ZM142.517 146.642C142.295 146.642 142.147 146.541 142.147 146.343C142.147 146.162 142.271 146.027 142.577 146L143.057 145.963V146.051C143.057 146.403 142.859 146.642 142.517 146.642ZM144.6 145.144C144.543 145.131 144.5 145.127 144.449 145.127C144.221 145.127 144.05 145.241 143.986 145.416L143.969 145.164H143.751V146.79H143.982V145.863C143.982 145.554 144.174 145.352 144.473 145.352H144.6V145.144ZM145.31 146.83C145.585 146.83 145.807 146.709 145.907 146.504L145.938 146.79H146.132V145.738C146.132 145.309 145.857 145.12 145.481 145.12C145.081 145.12 144.813 145.332 144.813 145.661H145.024C145.024 145.443 145.192 145.315 145.474 145.315C145.713 145.315 145.904 145.416 145.904 145.735V145.789L145.367 145.832C144.987 145.863 144.759 146.051 144.759 146.35C144.759 146.635 144.964 146.83 145.31 146.83ZM145.363 146.642C145.142 146.642 144.994 146.541 144.994 146.343C144.994 146.162 145.118 146.027 145.424 146L145.904 145.963V146.051C145.904 146.403 145.706 146.642 145.363 146.642ZM146.483 145.98C146.483 146.491 146.796 146.83 147.256 146.83C147.625 146.83 147.914 146.612 147.991 146.279H147.756C147.692 146.487 147.498 146.622 147.256 146.622C146.927 146.622 146.712 146.363 146.712 145.977C146.712 145.577 146.943 145.325 147.272 145.325C147.498 145.325 147.692 145.45 147.753 145.675H147.984C147.921 145.339 147.645 145.12 147.269 145.12C146.796 145.12 146.483 145.47 146.483 145.98ZM148.715 146.79V145.359H149.041V145.164H148.715V144.65H148.487V145.164H148.161V145.359H148.487V146.79H148.715ZM150.008 146.83C150.391 146.83 150.643 146.645 150.73 146.303H150.508C150.448 146.518 150.277 146.632 150.011 146.632C149.662 146.632 149.454 146.403 149.437 146.007H150.73V145.893C150.73 145.433 150.431 145.12 149.991 145.12C149.528 145.12 149.212 145.47 149.212 145.977C149.212 146.487 149.531 146.83 150.008 146.83ZM149.991 145.319C150.297 145.319 150.498 145.527 150.498 145.839H149.444C149.484 145.52 149.685 145.319 149.991 145.319ZM151.95 145.144C151.893 145.131 151.849 145.127 151.799 145.127C151.571 145.127 151.399 145.241 151.336 145.416L151.319 145.164H151.1V146.79H151.332V145.863C151.332 145.554 151.524 145.352 151.822 145.352H151.95V145.144ZM153.052 146.333C153.052 146.635 153.28 146.83 153.646 146.83C154.016 146.83 154.264 146.638 154.264 146.346C154.264 146.111 154.137 145.98 153.855 145.91L153.576 145.839C153.398 145.795 153.31 145.708 153.31 145.584C153.31 145.409 153.438 145.312 153.666 145.312C153.885 145.312 154.016 145.423 154.022 145.611H154.247C154.237 145.309 154.016 145.12 153.673 145.12C153.324 145.12 153.085 145.302 153.085 145.587C153.085 145.809 153.223 145.957 153.505 146.027L153.784 146.098C153.975 146.145 154.043 146.222 154.043 146.356C154.043 146.531 153.895 146.638 153.643 146.638C153.415 146.638 153.274 146.521 153.274 146.333H153.052ZM155.019 146.79V145.359H155.344V145.164H155.019V144.65H154.79V145.164H154.464V145.359H154.79V146.79H155.019ZM156.496 145.144C156.439 145.131 156.395 145.127 156.345 145.127C156.116 145.127 155.945 145.241 155.881 145.416L155.864 145.164H155.646V146.79H155.878V145.863C155.878 145.554 156.069 145.352 156.368 145.352H156.496V145.144ZM156.627 145.977C156.627 146.471 156.977 146.83 157.453 146.83C157.93 146.83 158.28 146.471 158.28 145.977C158.28 145.48 157.93 145.12 157.453 145.12C156.977 145.12 156.627 145.48 156.627 145.977ZM156.862 145.973C156.862 145.597 157.104 145.329 157.453 145.329C157.799 145.329 158.045 145.597 158.045 145.973C158.045 146.356 157.799 146.622 157.453 146.622C157.104 146.622 156.862 146.356 156.862 145.973ZM158.882 146.79V145.94C158.882 145.574 159.07 145.332 159.403 145.332C159.671 145.332 159.842 145.466 159.842 145.846V146.79H160.074V145.795C160.074 145.386 159.889 145.12 159.443 145.12C159.208 145.12 158.993 145.238 158.885 145.446L158.852 145.164H158.65V146.79H158.882ZM160.425 145.93C160.425 146.373 160.707 146.739 161.171 146.739C161.45 146.739 161.675 146.605 161.785 146.376V146.763C161.785 147.102 161.564 147.327 161.231 147.327C160.939 147.327 160.738 147.172 160.687 146.91H160.455C160.519 147.303 160.811 147.538 161.228 147.538C161.705 147.538 162.014 147.223 162.014 146.739V145.164H161.812L161.789 145.49C161.685 145.251 161.47 145.12 161.188 145.12C160.711 145.12 160.425 145.486 160.425 145.93ZM160.657 145.926C160.657 145.597 160.858 145.325 161.208 145.325C161.564 145.325 161.765 145.581 161.765 145.926C161.765 146.276 161.557 146.531 161.204 146.531C160.862 146.531 160.657 146.259 160.657 145.926Z" fill="#667085"/>
<rect x="130.118" y="140.795" width="66.9577" height="9.98807" rx="1.57424" stroke="#D0D5DD" stroke-width="0.209899"/>
</g>
<path d="M130.548 159.52V158.68H131.092L131.488 159.52H131.809L131.377 158.624C131.641 158.539 131.788 158.327 131.788 158.033C131.788 157.636 131.518 157.395 131.062 157.395H130.26V159.52H130.548ZM130.548 157.654H131.062C131.327 157.654 131.485 157.789 131.485 158.036C131.485 158.28 131.333 158.424 131.065 158.424H130.548V157.654ZM132.652 159.555C133.008 159.555 133.249 159.382 133.32 159.073H133.061C133.014 159.238 132.873 159.326 132.658 159.326C132.385 159.326 132.226 159.159 132.206 158.856L133.317 158.853V158.75C133.317 158.324 133.049 158.042 132.641 158.042C132.223 158.042 131.938 158.353 131.938 158.803C131.938 159.25 132.229 159.555 132.652 159.555ZM132.641 158.274C132.885 158.274 133.04 158.433 133.04 158.671H132.212C132.247 158.418 132.4 158.274 132.641 158.274ZM133.625 160.164H133.901V159.285C133.995 159.461 134.186 159.558 134.416 159.558C134.842 159.558 135.083 159.229 135.083 158.791C135.083 158.35 134.827 158.042 134.416 158.042C134.186 158.042 133.992 158.145 133.895 158.342L133.875 158.083H133.625V160.164ZM133.904 158.803C133.904 158.503 134.075 158.295 134.357 158.295C134.639 158.295 134.806 158.506 134.806 158.803C134.806 159.097 134.639 159.308 134.357 159.308C134.075 159.308 133.904 159.097 133.904 158.803ZM136.007 159.555C136.363 159.555 136.604 159.382 136.674 159.073H136.416C136.369 159.238 136.228 159.326 136.013 159.326C135.74 159.326 135.581 159.159 135.56 158.856L136.671 158.853V158.75C136.671 158.324 136.404 158.042 135.995 158.042C135.578 158.042 135.293 158.353 135.293 158.803C135.293 159.25 135.584 159.555 136.007 159.555ZM135.995 158.274C136.239 158.274 136.395 158.433 136.395 158.671H135.566C135.602 158.418 135.754 158.274 135.995 158.274ZM137.386 159.555C137.618 159.555 137.815 159.452 137.888 159.288L137.918 159.52H138.153V158.618C138.153 158.23 137.912 158.042 137.556 158.042C137.186 158.042 136.939 158.239 136.939 158.539H137.18C137.18 158.365 137.312 158.262 137.544 158.262C137.738 158.262 137.882 158.348 137.882 158.588V158.63L137.43 158.665C137.092 158.691 136.895 158.856 136.895 159.12C136.895 159.382 137.077 159.555 137.386 159.555ZM137.465 159.341C137.286 159.341 137.174 159.264 137.174 159.112C137.174 158.971 137.274 158.876 137.518 158.853L137.885 158.824V158.9C137.885 159.17 137.727 159.341 137.465 159.341ZM138.918 159.52V158.315H139.2V158.083H138.918V157.633H138.641V158.083H138.359V158.315H138.641V159.52H138.918ZM141.124 158.762C141.538 158.762 141.809 158.474 141.809 158.077C141.809 157.669 141.541 157.395 141.124 157.395H140.298V159.52H140.586V158.762H141.124ZM141.074 157.654C141.344 157.654 141.506 157.807 141.506 158.074C141.506 158.336 141.347 158.503 141.062 158.503H140.586V157.654H141.074ZM142.451 159.555C142.683 159.555 142.88 159.452 142.953 159.288L142.983 159.52H143.218V158.618C143.218 158.23 142.977 158.042 142.621 158.042C142.251 158.042 142.004 158.239 142.004 158.539H142.245C142.245 158.365 142.377 158.262 142.609 158.262C142.803 158.262 142.947 158.348 142.947 158.588V158.63L142.495 158.665C142.157 158.691 141.96 158.856 141.96 159.12C141.96 159.382 142.142 159.555 142.451 159.555ZM142.53 159.341C142.351 159.341 142.239 159.264 142.239 159.112C142.239 158.971 142.339 158.876 142.583 158.853L142.95 158.824V158.9C142.95 159.17 142.792 159.341 142.53 159.341ZM143.483 159.103C143.483 159.376 143.697 159.555 144.035 159.555C144.376 159.555 144.611 159.382 144.611 159.109C144.611 158.894 144.491 158.782 144.247 158.724L143.994 158.662C143.853 158.627 143.782 158.562 143.782 158.465C143.782 158.333 143.879 158.256 144.053 158.256C144.22 158.256 144.317 158.348 144.323 158.492H144.588C144.582 158.218 144.376 158.042 144.062 158.042C143.744 158.042 143.521 158.209 143.521 158.474C143.521 158.685 143.641 158.812 143.897 158.874L144.15 158.932C144.3 158.971 144.347 159.029 144.347 159.126C144.347 159.258 144.235 159.338 144.041 159.338C143.859 159.338 143.747 159.25 143.747 159.103H143.483ZM144.8 159.103C144.8 159.376 145.014 159.555 145.352 159.555C145.693 159.555 145.928 159.382 145.928 159.109C145.928 158.894 145.808 158.782 145.564 158.724L145.311 158.662C145.17 158.627 145.1 158.562 145.1 158.465C145.1 158.333 145.197 158.256 145.37 158.256C145.537 158.256 145.634 158.348 145.64 158.492H145.905C145.899 158.218 145.693 158.042 145.379 158.042C145.061 158.042 144.838 158.209 144.838 158.474C144.838 158.685 144.959 158.812 145.214 158.874L145.467 158.932C145.617 158.971 145.664 159.029 145.664 159.126C145.664 159.258 145.552 159.338 145.358 159.338C145.176 159.338 145.064 159.25 145.064 159.103H144.8ZM146.509 159.52H146.782L147.032 158.753C147.085 158.58 147.111 158.486 147.126 158.415C147.14 158.494 147.17 158.606 147.217 158.75L147.467 159.52H147.728L148.219 158.083H147.931L147.69 158.829C147.649 158.956 147.622 159.056 147.599 159.17C147.575 159.067 147.528 158.9 147.505 158.829L147.267 158.083H146.985L146.744 158.829C146.711 158.923 146.673 159.044 146.65 159.17C146.623 159.044 146.594 158.935 146.562 158.829L146.324 158.083H146.039L146.509 159.52ZM148.296 158.8C148.296 159.244 148.613 159.555 149.045 159.555C149.474 159.555 149.791 159.244 149.791 158.8C149.791 158.356 149.474 158.045 149.045 158.045C148.613 158.045 148.296 158.356 148.296 158.8ZM148.575 158.8C148.575 158.5 148.766 158.292 149.045 158.292C149.321 158.292 149.515 158.5 149.515 158.8C149.515 159.1 149.321 159.308 149.045 159.308C148.766 159.308 148.575 159.1 148.575 158.8ZM150.92 158.071C150.864 158.06 150.823 158.054 150.773 158.054C150.576 158.054 150.432 158.154 150.373 158.303L150.356 158.086H150.097V159.52H150.373V158.759C150.373 158.483 150.535 158.324 150.797 158.324H150.92V158.071ZM151.703 159.555C151.933 159.555 152.127 159.455 152.221 159.258L152.244 159.52H152.491V157.357H152.218V158.315C152.121 158.139 151.936 158.042 151.715 158.042C151.289 158.042 151.033 158.365 151.033 158.806C151.033 159.244 151.286 159.555 151.703 159.555ZM151.759 159.306C151.477 159.306 151.313 159.094 151.313 158.797C151.313 158.503 151.477 158.292 151.759 158.292C152.041 158.292 152.215 158.503 152.215 158.797C152.215 159.097 152.041 159.306 151.759 159.306Z" fill="black"/>
<g filter="url(#filter4_d_5710_34394)">
<rect x="130.013" y="163.199" width="67.1676" height="10.198" rx="1.67919" fill="white"/>
<path d="M133.408 167.703C133.183 168.012 133.106 168.207 133.106 168.486C133.106 168.966 133.486 169.339 133.969 169.339C134.449 169.339 134.822 168.979 134.822 168.486C134.822 168.015 134.49 167.649 133.989 167.649C133.879 167.649 133.774 167.673 133.66 167.73L134.292 166.894H134.01L133.408 167.703ZM133.351 168.489C133.351 168.123 133.603 167.861 133.969 167.861C134.325 167.861 134.58 168.123 134.58 168.489C134.58 168.855 134.325 169.12 133.969 169.12C133.603 169.12 133.351 168.855 133.351 168.489ZM135.244 168.062V168.271H135.979V169.01H136.188V168.271H136.923V168.062H136.188V167.327H135.979V168.062H135.244ZM138.251 168.489C138.251 168.999 138.564 169.339 139.024 169.339C139.393 169.339 139.682 169.12 139.759 168.788H139.524C139.46 168.996 139.266 169.13 139.024 169.13C138.695 169.13 138.48 168.872 138.48 168.486C138.48 168.086 138.711 167.834 139.041 167.834C139.266 167.834 139.46 167.958 139.521 168.183H139.753C139.689 167.848 139.413 167.629 139.037 167.629C138.564 167.629 138.251 167.978 138.251 168.489ZM140.342 169.295V168.412C140.342 168.099 140.523 167.841 140.873 167.841C141.125 167.841 141.303 167.975 141.303 168.355V169.298H141.534V168.304C141.534 167.895 141.343 167.629 140.916 167.629C140.644 167.629 140.446 167.76 140.342 167.955V166.85H140.11V169.295H140.342ZM142.463 169.339C142.738 169.339 142.96 169.218 143.061 169.013L143.091 169.298H143.286V168.247C143.286 167.817 143.01 167.629 142.634 167.629C142.235 167.629 141.966 167.841 141.966 168.17H142.177C142.177 167.952 142.345 167.824 142.627 167.824C142.866 167.824 143.057 167.925 143.057 168.244V168.298L142.52 168.341C142.14 168.371 141.912 168.559 141.912 168.858C141.912 169.144 142.117 169.339 142.463 169.339ZM142.517 169.151C142.295 169.151 142.147 169.05 142.147 168.852C142.147 168.67 142.271 168.536 142.577 168.509L143.057 168.472V168.559C143.057 168.912 142.859 169.151 142.517 169.151ZM144.6 167.653C144.543 167.639 144.5 167.636 144.449 167.636C144.221 167.636 144.05 167.75 143.986 167.925L143.969 167.673H143.751V169.298H143.982V168.371C143.982 168.062 144.174 167.861 144.473 167.861H144.6V167.653ZM145.31 169.339C145.585 169.339 145.807 169.218 145.907 169.013L145.938 169.298H146.132V168.247C146.132 167.817 145.857 167.629 145.481 167.629C145.081 167.629 144.813 167.841 144.813 168.17H145.024C145.024 167.952 145.192 167.824 145.474 167.824C145.713 167.824 145.904 167.925 145.904 168.244V168.298L145.367 168.341C144.987 168.371 144.759 168.559 144.759 168.858C144.759 169.144 144.964 169.339 145.31 169.339ZM145.363 169.151C145.142 169.151 144.994 169.05 144.994 168.852C144.994 168.67 145.118 168.536 145.424 168.509L145.904 168.472V168.559C145.904 168.912 145.706 169.151 145.363 169.151ZM146.483 168.489C146.483 168.999 146.796 169.339 147.256 169.339C147.625 169.339 147.914 169.12 147.991 168.788H147.756C147.692 168.996 147.498 169.13 147.256 169.13C146.927 169.13 146.712 168.872 146.712 168.486C146.712 168.086 146.943 167.834 147.272 167.834C147.498 167.834 147.692 167.958 147.753 168.183H147.984C147.921 167.848 147.645 167.629 147.269 167.629C146.796 167.629 146.483 167.978 146.483 168.489ZM148.715 169.298V167.868H149.041V167.673H148.715V167.159H148.487V167.673H148.161V167.868H148.487V169.298H148.715ZM150.008 169.339C150.391 169.339 150.643 169.154 150.73 168.811H150.508C150.448 169.026 150.277 169.14 150.011 169.14C149.662 169.14 149.454 168.912 149.437 168.516H150.73V168.402C150.73 167.942 150.431 167.629 149.991 167.629C149.528 167.629 149.212 167.978 149.212 168.486C149.212 168.996 149.531 169.339 150.008 169.339ZM149.991 167.827C150.297 167.827 150.498 168.036 150.498 168.348H149.444C149.484 168.029 149.685 167.827 149.991 167.827ZM151.95 167.653C151.893 167.639 151.849 167.636 151.799 167.636C151.571 167.636 151.399 167.75 151.336 167.925L151.319 167.673H151.1V169.298H151.332V168.371C151.332 168.062 151.524 167.861 151.822 167.861H151.95V167.653ZM153.052 168.842C153.052 169.144 153.28 169.339 153.646 169.339C154.016 169.339 154.264 169.147 154.264 168.855C154.264 168.62 154.137 168.489 153.855 168.418L153.576 168.348C153.398 168.304 153.31 168.217 153.31 168.093C153.31 167.918 153.438 167.821 153.666 167.821C153.885 167.821 154.016 167.931 154.022 168.12H154.247C154.237 167.817 154.016 167.629 153.673 167.629C153.324 167.629 153.085 167.811 153.085 168.096C153.085 168.318 153.223 168.465 153.505 168.536L153.784 168.607C153.975 168.654 154.043 168.731 154.043 168.865C154.043 169.04 153.895 169.147 153.643 169.147C153.415 169.147 153.274 169.03 153.274 168.842H153.052ZM155.019 169.298V167.868H155.344V167.673H155.019V167.159H154.79V167.673H154.464V167.868H154.79V169.298H155.019ZM156.496 167.653C156.439 167.639 156.395 167.636 156.345 167.636C156.116 167.636 155.945 167.75 155.881 167.925L155.864 167.673H155.646V169.298H155.878V168.371C155.878 168.062 156.069 167.861 156.368 167.861H156.496V167.653ZM156.627 168.486C156.627 168.979 156.977 169.339 157.453 169.339C157.93 169.339 158.28 168.979 158.28 168.486C158.28 167.989 157.93 167.629 157.453 167.629C156.977 167.629 156.627 167.989 156.627 168.486ZM156.862 168.482C156.862 168.106 157.104 167.837 157.453 167.837C157.799 167.837 158.045 168.106 158.045 168.482C158.045 168.865 157.799 169.13 157.453 169.13C157.104 169.13 156.862 168.865 156.862 168.482ZM158.882 169.298V168.449C158.882 168.083 159.07 167.841 159.403 167.841C159.671 167.841 159.842 167.975 159.842 168.355V169.298H160.074V168.304C160.074 167.895 159.889 167.629 159.443 167.629C159.208 167.629 158.993 167.747 158.885 167.955L158.852 167.673H158.65V169.298H158.882ZM160.425 168.439C160.425 168.882 160.707 169.248 161.171 169.248C161.45 169.248 161.675 169.114 161.785 168.885V169.271C161.785 169.611 161.564 169.836 161.231 169.836C160.939 169.836 160.738 169.681 160.687 169.419H160.455C160.519 169.812 160.811 170.047 161.228 170.047C161.705 170.047 162.014 169.732 162.014 169.248V167.673H161.812L161.789 167.999C161.685 167.76 161.47 167.629 161.188 167.629C160.711 167.629 160.425 167.995 160.425 168.439ZM160.657 168.435C160.657 168.106 160.858 167.834 161.208 167.834C161.564 167.834 161.765 168.089 161.765 168.435C161.765 168.785 161.557 169.04 161.204 169.04C160.862 169.04 160.657 168.768 160.657 168.435Z" fill="#667085"/>
<rect x="130.118" y="163.304" width="66.9577" height="9.98807" rx="1.57424" stroke="#D0D5DD" stroke-width="0.209899"/>
</g>
<rect x="129.804" y="178.029" width="67.5874" height="11.7543" rx="1.67919" fill="#01B0D8"/>
<line x1="129.705" y1="196.336" x2="150.658" y2="196.336" stroke="#98A2B3" stroke-width="0.157544"/>
<path d="M154.683 196.79C154.683 197.178 154.963 197.445 155.348 197.445C155.734 197.445 156.014 197.178 156.014 196.79C156.014 196.402 155.734 196.135 155.348 196.135C154.963 196.135 154.683 196.402 154.683 196.79ZM154.99 196.79C154.99 196.563 155.137 196.409 155.348 196.409C155.56 196.409 155.706 196.563 155.706 196.79C155.706 197.017 155.56 197.171 155.348 197.171C155.137 197.171 154.99 197.017 154.99 196.79ZM157.064 196.165C157.014 196.152 156.971 196.147 156.928 196.147C156.762 196.147 156.643 196.23 156.59 196.354L156.573 196.172H156.283V197.415H156.59V196.81C156.59 196.568 156.729 196.45 156.951 196.45H157.064V196.165ZM157.906 197.037C157.906 197.281 158.103 197.448 158.413 197.448C158.721 197.448 158.935 197.292 158.935 197.039C158.935 196.848 158.829 196.752 158.62 196.704L158.395 196.651C158.29 196.626 158.234 196.581 158.234 196.51C158.234 196.417 158.305 196.361 158.426 196.361C158.544 196.361 158.615 196.429 158.617 196.535H158.91C158.907 196.293 158.718 196.132 158.438 196.132C158.151 196.132 157.944 196.278 157.944 196.523C157.944 196.722 158.053 196.828 158.277 196.878L158.501 196.931C158.612 196.956 158.645 197.002 158.645 197.065C158.645 197.155 158.567 197.213 158.423 197.213C158.282 197.213 158.201 197.145 158.199 197.037H157.906ZM159.348 195.92C159.449 195.92 159.532 195.837 159.532 195.734C159.532 195.63 159.449 195.55 159.348 195.55C159.242 195.55 159.159 195.63 159.159 195.734C159.159 195.837 159.242 195.92 159.348 195.92ZM159.194 197.415H159.502V196.17H159.194V197.415ZM159.774 196.765C159.774 197.125 160.006 197.39 160.359 197.39C160.538 197.39 160.692 197.317 160.77 197.201V197.407C160.77 197.614 160.634 197.748 160.422 197.748C160.233 197.748 160.109 197.652 160.089 197.491H159.782C159.819 197.823 160.064 198.028 160.422 198.028C160.825 198.028 161.075 197.768 161.075 197.352V196.17H160.79L160.772 196.341C160.699 196.208 160.553 196.129 160.366 196.129C160.011 196.129 159.774 196.402 159.774 196.765ZM160.084 196.757C160.084 196.553 160.215 196.399 160.419 196.399C160.634 196.399 160.762 196.545 160.762 196.757C160.762 196.974 160.631 197.123 160.419 197.123C160.218 197.123 160.084 196.966 160.084 196.757ZM161.726 197.415V196.745C161.726 196.543 161.842 196.412 162.031 196.412C162.19 196.412 162.293 196.513 162.293 196.722V197.415H162.6V196.649C162.6 196.326 162.439 196.132 162.127 196.132C161.958 196.132 161.806 196.205 161.728 196.331L161.703 196.17H161.418V197.415H161.726ZM164.477 196.17V196.823C164.477 197.06 164.384 197.173 164.189 197.173C164.018 197.173 163.925 197.077 163.925 196.84V196.17H163.617V196.949C163.617 197.254 163.786 197.448 164.073 197.448C164.24 197.448 164.401 197.367 164.477 197.249L164.499 197.415H164.784V196.17H164.477ZM165.127 197.992H165.435V197.249C165.513 197.375 165.674 197.448 165.861 197.448C166.231 197.448 166.443 197.165 166.443 196.777C166.443 196.387 166.211 196.132 165.861 196.132C165.672 196.132 165.508 196.215 165.432 196.359L165.412 196.17H165.127V197.992ZM165.437 196.792C165.437 196.568 165.576 196.412 165.788 196.412C166.004 196.412 166.133 196.571 166.133 196.792C166.133 197.014 166.004 197.171 165.788 197.171C165.576 197.171 165.437 197.017 165.437 196.792ZM167.692 197.415H167.992L168.164 196.881C168.227 196.676 168.249 196.588 168.262 196.53C168.272 196.593 168.3 196.712 168.35 196.876L168.522 197.415H168.809L169.24 196.17H168.915L168.749 196.704C168.726 196.782 168.686 196.931 168.665 197.024C168.65 196.941 168.6 196.755 168.585 196.704L168.418 196.17H168.106L167.934 196.704C167.894 196.828 167.871 196.906 167.849 197.027C167.826 196.911 167.801 196.803 167.773 196.704L167.609 196.17H167.289L167.692 197.415ZM169.605 195.92C169.706 195.92 169.789 195.837 169.789 195.734C169.789 195.63 169.706 195.55 169.605 195.55C169.499 195.55 169.416 195.63 169.416 195.734C169.416 195.837 169.499 195.92 169.605 195.92ZM169.452 197.415H169.759V196.17H169.452V197.415ZM170.525 197.415V196.427H170.767V196.17H170.525V195.782H170.218V196.17H169.978V196.427H170.218V197.415H170.525ZM171.291 197.415V196.734C171.291 196.548 171.405 196.412 171.599 196.412C171.755 196.412 171.859 196.513 171.859 196.722V197.415H172.166V196.649C172.166 196.326 172.005 196.132 171.697 196.132C171.518 196.132 171.372 196.21 171.294 196.331V195.54H170.984V197.415H171.291Z" fill="#6F7174"/>
<line x1="176.536" y1="196.336" x2="197.49" y2="196.336" stroke="#98A2B3" stroke-width="0.157544"/>
<g clip-path="url(#clip3_5710_34394)">
<path d="M137.833 207.303C137.833 207.132 137.819 206.96 137.79 206.792H135.414V207.761H136.775C136.718 208.074 136.537 208.351 136.271 208.527V209.156H137.083C137.559 208.717 137.833 208.07 137.833 207.303Z" fill="#4285F4"/>
<path d="M135.414 209.764C136.093 209.764 136.666 209.541 137.084 209.156L136.272 208.527C136.046 208.68 135.755 208.767 135.415 208.767C134.758 208.767 134.201 208.324 134.001 207.728H133.163V208.377C133.591 209.227 134.462 209.764 135.414 209.764V209.764Z" fill="#34A853"/>
<path d="M134 207.728C133.894 207.415 133.894 207.076 134 206.764V206.115H133.163C132.806 206.826 132.806 207.665 133.163 208.377L134 207.728V207.728Z" fill="#FBBC04"/>
<path d="M135.414 205.724C135.773 205.718 136.12 205.853 136.38 206.101L137.099 205.382C136.644 204.954 136.04 204.719 135.414 204.727C134.462 204.727 133.591 205.264 133.163 206.115L134 206.764C134.199 206.167 134.757 205.724 135.414 205.724V205.724Z" fill="#EA4335"/>
</g>
<rect x="130.223" y="203.152" width="10.0751" height="8.18605" rx="1.57424" stroke="#787A7D" stroke-width="0.209899"/>
<g clip-path="url(#clip4_5710_34394)">
<path d="M166.219 207.245C166.219 205.854 165.091 204.727 163.7 204.727C162.309 204.727 161.181 205.854 161.181 207.245C161.181 208.503 162.102 209.545 163.306 209.734V207.973H162.667V207.245H163.306V206.69C163.306 206.059 163.682 205.71 164.258 205.71C164.533 205.71 164.822 205.76 164.822 205.76V206.38H164.504C164.191 206.38 164.093 206.574 164.093 206.773V207.245H164.792L164.68 207.973H164.093V209.734C165.298 209.545 166.219 208.503 166.219 207.245Z" fill="#1877F2"/>
<path d="M164.681 207.973L164.792 207.245H164.094V206.773C164.094 206.574 164.191 206.38 164.504 206.38H164.822V205.76C164.822 205.76 164.533 205.71 164.258 205.71C163.683 205.71 163.307 206.059 163.307 206.69V207.245H162.667V207.973H163.307V209.734C163.567 209.774 163.833 209.774 164.094 209.734V207.973H164.681Z" fill="white"/>
</g>
<rect x="158.56" y="203.152" width="10.0751" height="8.18605" rx="1.57424" stroke="#787A7D" stroke-width="0.209899"/>
<g clip-path="url(#clip5_5710_34394)">
<path d="M193.892 208.324C193.822 208.486 193.74 208.634 193.644 208.771C193.513 208.957 193.406 209.086 193.324 209.157C193.196 209.275 193.06 209.335 192.913 209.338C192.808 209.338 192.681 209.308 192.533 209.247C192.385 209.187 192.249 209.157 192.125 209.157C191.994 209.157 191.854 209.187 191.704 209.247C191.554 209.308 191.433 209.34 191.341 209.343C191.201 209.349 191.061 209.287 190.921 209.157C190.832 209.079 190.72 208.946 190.586 208.757C190.443 208.555 190.325 208.321 190.233 208.054C190.134 207.766 190.084 207.487 190.084 207.217C190.084 206.907 190.151 206.641 190.285 206.417C190.39 206.237 190.53 206.095 190.705 205.991C190.881 205.887 191.07 205.834 191.274 205.831C191.386 205.831 191.532 205.866 191.714 205.933C191.895 206.001 192.012 206.036 192.063 206.036C192.101 206.036 192.23 205.996 192.449 205.915C192.657 205.84 192.832 205.81 192.975 205.822C193.364 205.853 193.656 206.006 193.85 206.282C193.502 206.493 193.33 206.788 193.334 207.166C193.337 207.461 193.444 207.706 193.654 207.9C193.749 207.991 193.855 208.061 193.974 208.11C193.948 208.185 193.921 208.256 193.892 208.324V208.324ZM193.001 204.818C193.001 205.049 192.917 205.265 192.749 205.464C192.546 205.701 192.3 205.838 192.034 205.817C192.031 205.789 192.029 205.76 192.029 205.729C192.029 205.508 192.125 205.27 192.296 205.076C192.382 204.978 192.491 204.896 192.623 204.831C192.755 204.767 192.879 204.732 192.996 204.726C193 204.756 193.001 204.787 193.001 204.818V204.818Z" fill="black"/>
</g>
<rect x="186.895" y="203.152" width="10.0751" height="8.18605" rx="1.57424" stroke="#787A7D" stroke-width="0.209899"/>
</g>
<defs>
<filter id="filter0_d_5710_34394" x="33" y="16" width="268" height="247" filterUnits="userSpaceOnUse" color-interpolation-filters="sRGB">
<feFlood flood-opacity="0" result="BackgroundImageFix"/>
<feColorMatrix in="SourceAlpha" type="matrix" values="0 0 0 0 0 0 0 0 0 0 0 0 0 0 0 0 0 0 127 0" result="hardAlpha"/>
<feOffset dx="4" dy="4"/>
<feGaussianBlur stdDeviation="8"/>
<feComposite in2="hardAlpha" operator="out"/>
<feColorMatrix type="matrix" values="0 0 0 0 0.470588 0 0 0 0 0.478431 0 0 0 0 0.490196 0 0 0 0.15 0"/>
<feBlend mode="normal" in2="BackgroundImageFix" result="effect1_dropShadow_5710_34394"/>
<feBlend mode="normal" in="SourceGraphic" in2="effect1_dropShadow_5710_34394" result="shape"/>
</filter>
<filter id="filter1_d_5710_34394" x="128.013" y="94.6729" width="71.1675" height="14.1978" filterUnits="userSpaceOnUse" color-interpolation-filters="sRGB">
<feFlood flood-opacity="0" result="BackgroundImageFix"/>
<feColorMatrix in="SourceAlpha" type="matrix" values="0 0 0 0 0 0 0 0 0 0 0 0 0 0 0 0 0 0 127 0" result="hardAlpha"/>
<feOffset dy="1"/>
<feGaussianBlur stdDeviation="1"/>
<feColorMatrix type="matrix" values="0 0 0 0 0.0627451 0 0 0 0 0.0941176 0 0 0 0 0.156863 0 0 0 0.05 0"/>
<feBlend mode="normal" in2="BackgroundImageFix" result="effect1_dropShadow_5710_34394"/>
<feBlend mode="normal" in="SourceGraphic" in2="effect1_dropShadow_5710_34394" result="shape"/>
</filter>
<filter id="filter2_d_5710_34394" x="128.013" y="117.182" width="71.1675" height="14.1978" filterUnits="userSpaceOnUse" color-interpolation-filters="sRGB">
<feFlood flood-opacity="0" result="BackgroundImageFix"/>
<feColorMatrix in="SourceAlpha" type="matrix" values="0 0 0 0 0 0 0 0 0 0 0 0 0 0 0 0 0 0 127 0" result="hardAlpha"/>
<feOffset dy="1"/>
<feGaussianBlur stdDeviation="1"/>
<feColorMatrix type="matrix" values="0 0 0 0 0.0627451 0 0 0 0 0.0941176 0 0 0 0 0.156863 0 0 0 0.05 0"/>
<feBlend mode="normal" in2="BackgroundImageFix" result="effect1_dropShadow_5710_34394"/>
<feBlend mode="normal" in="SourceGraphic" in2="effect1_dropShadow_5710_34394" result="shape"/>
</filter>
<filter id="filter3_d_5710_34394" x="128.013" y="139.69" width="71.1675" height="14.1978" filterUnits="userSpaceOnUse" color-interpolation-filters="sRGB">
<feFlood flood-opacity="0" result="BackgroundImageFix"/>
<feColorMatrix in="SourceAlpha" type="matrix" values="0 0 0 0 0 0 0 0 0 0 0 0 0 0 0 0 0 0 127 0" result="hardAlpha"/>
<feOffset dy="1"/>
<feGaussianBlur stdDeviation="1"/>
<feColorMatrix type="matrix" values="0 0 0 0 0.0627451 0 0 0 0 0.0941176 0 0 0 0 0.156863 0 0 0 0.05 0"/>
<feBlend mode="normal" in2="BackgroundImageFix" result="effect1_dropShadow_5710_34394"/>
<feBlend mode="normal" in="SourceGraphic" in2="effect1_dropShadow_5710_34394" result="shape"/>
</filter>
<filter id="filter4_d_5710_34394" x="128.013" y="162.199" width="71.1675" height="14.1978" filterUnits="userSpaceOnUse" color-interpolation-filters="sRGB">
<feFlood flood-opacity="0" result="BackgroundImageFix"/>
<feColorMatrix in="SourceAlpha" type="matrix" values="0 0 0 0 0 0 0 0 0 0 0 0 0 0 0 0 0 0 127 0" result="hardAlpha"/>
<feOffset dy="1"/>
<feGaussianBlur stdDeviation="1"/>
<feColorMatrix type="matrix" values="0 0 0 0 0.0627451 0 0 0 0 0.0941176 0 0 0 0 0.156863 0 0 0 0.05 0"/>
<feBlend mode="normal" in2="BackgroundImageFix" result="effect1_dropShadow_5710_34394"/>
<feBlend mode="normal" in="SourceGraphic" in2="effect1_dropShadow_5710_34394" result="shape"/>
</filter>
<clipPath id="clip0_5710_34394">
<rect width="3.35838" height="3.35838" fill="white" transform="translate(190.884 99.0928)"/>
</clipPath>
<clipPath id="clip1_5710_34394">
<rect width="4.19797" height="4.19797" fill="white" transform="translate(132.952 121.182)"/>
</clipPath>
<clipPath id="clip2_5710_34394">
<rect width="3.35838" height="3.35838" fill="white" transform="translate(190.884 121.602)"/>
</clipPath>
<clipPath id="clip3_5710_34394">
<rect width="5.03757" height="5.03757" fill="white" transform="translate(132.845 204.727)"/>
</clipPath>
<clipPath id="clip4_5710_34394">
<rect width="5.03757" height="5.03757" fill="white" transform="translate(161.181 204.727)"/>
</clipPath>
<clipPath id="clip5_5710_34394">
<rect width="5.03757" height="5.03757" fill="white" transform="translate(189.517 204.726)"/>
</clipPath>
</defs>
</svg>
