<svg width="596" height="508" viewBox="0 0 596 508" fill="none" xmlns="http://www.w3.org/2000/svg">
<rect width="596" height="508" rx="8" fill="#EEF1FC"/>
<rect x="88" y="44" width="420" height="420" rx="4" fill="#016AC5"/>
<path d="M210.962 88.8633H190.27V91.4725H210.962V88.8633Z" fill="#99A8EA"/>
<path d="M113.733 118.451H111C111.007 110.629 114.256 103.127 120.038 97.583C125.82 92.0394 133.665 88.9046 141.86 88.8633H179.035V91.4725H141.86C134.39 91.5138 127.241 94.3736 121.971 99.4279C116.702 104.482 113.741 111.321 113.733 118.451Z" fill="#99A8EA"/>
<path d="M464.596 97.9941H141.86C130.039 97.9941 120.457 107.141 120.457 118.424V169.147C120.457 180.43 130.039 189.577 141.86 189.577H464.596C476.417 189.577 485.999 180.43 485.999 169.147V118.424C485.999 107.141 476.417 97.9941 464.596 97.9941Z" fill="#99A8EA"/>
<path d="M259.561 129.984L264.263 139.064L274.786 140.525L267.16 147.596L268.964 157.616L259.561 152.893L250.158 157.616L251.962 147.596L244.336 140.525L254.86 139.064L259.561 129.984Z" fill="white"/>
<path d="M302.258 129.984L306.96 139.064L317.484 140.525L309.857 147.596L311.661 157.616L302.258 152.893L292.855 157.616L294.66 147.596L287.033 140.525L297.557 139.064L302.258 129.984Z" fill="white"/>
<path opacity="0.3" d="M345.299 136.207L347.541 140.565C347.738 140.948 348.03 141.279 348.392 141.529C348.755 141.779 349.175 141.941 349.618 142L354.648 142.704L351.012 146.096C350.696 146.389 350.459 146.751 350.321 147.151C350.183 147.551 350.148 147.977 350.22 148.392L351.067 153.193L346.584 150.923C346.189 150.72 345.748 150.612 345.299 150.61C344.859 150.609 344.426 150.717 344.042 150.923L339.532 153.193L340.379 148.392C340.451 147.977 340.416 147.551 340.278 147.151C340.14 146.751 339.903 146.389 339.587 146.096L335.951 142.704L340.981 142C341.423 141.941 341.844 141.779 342.207 141.529C342.569 141.279 342.861 140.948 343.058 140.565L345.299 136.207ZM345.299 130.311L340.598 139.417L330.074 140.878L337.7 147.949L335.896 157.942L345.299 153.219L354.702 157.942L352.926 147.949L360.552 140.878L350.028 139.417L345.327 130.311H345.299Z" fill="white"/>
<path opacity="0.3" d="M387.651 136.207L389.892 140.565C390.089 140.948 390.382 141.279 390.744 141.529C391.106 141.779 391.527 141.941 391.97 142L396.999 142.704L393.364 146.096C393.048 146.389 392.81 146.751 392.672 147.151C392.534 147.551 392.499 147.977 392.571 148.392L393.419 153.193L388.936 150.923C388.541 150.72 388.1 150.612 387.651 150.61C387.211 150.609 386.777 150.717 386.394 150.923L381.883 153.193L382.731 148.392C382.803 147.977 382.768 147.551 382.63 147.151C382.492 146.751 382.254 146.389 381.938 146.096L378.303 142.704L383.332 142C383.775 141.941 384.196 141.779 384.558 141.529C384.92 141.279 385.213 140.948 385.41 140.565L387.651 136.207ZM387.651 130.311L382.95 139.417L372.426 140.878L380.052 147.949L378.248 157.942L387.651 153.219L397.054 157.942L395.277 147.949L402.904 140.878L392.38 139.417L387.678 130.311H387.651Z" fill="white"/>
<path opacity="0.3" d="M430.346 135.881L432.588 140.239C432.788 140.617 433.082 140.943 433.444 141.188C433.806 141.434 434.225 141.592 434.665 141.648L439.695 142.352L436.059 145.744C435.743 146.037 435.505 146.399 435.367 146.799C435.229 147.199 435.195 147.625 435.267 148.04L436.114 152.841L431.631 150.702C431.23 150.518 430.791 150.42 430.346 150.415C429.909 150.413 429.478 150.511 429.089 150.702L424.579 152.972L425.344 148.092C425.416 147.677 425.381 147.251 425.243 146.851C425.105 146.452 424.868 146.09 424.551 145.796L420.916 142.404L425.945 141.7C426.398 141.649 426.83 141.491 427.202 141.241C427.575 140.99 427.876 140.655 428.078 140.265L430.319 135.908M430.319 130.011L425.617 139.091L415.094 140.552L422.72 147.649L420.916 157.642L430.319 152.919L439.722 157.642L437.918 147.649L445.544 140.552L435.02 139.091L430.319 130.011Z" fill="white"/>
<path opacity="0.2" d="M187.125 175.123C205.256 175.123 219.954 161.093 219.954 143.787C219.954 126.48 205.256 112.45 187.125 112.45C168.995 112.45 154.297 126.48 154.297 143.787C154.297 161.093 168.995 175.123 187.125 175.123Z" fill="white"/>
<path d="M214.243 143.784C214.25 149.542 212.244 155.137 208.542 159.683C204.84 164.229 199.655 167.465 193.808 168.879C187.961 170.293 181.786 169.804 176.263 167.489C170.741 165.174 166.185 161.166 163.319 156.099C161.153 152.325 160.025 148.088 160.039 143.784C160.263 137.065 163.216 130.693 168.274 126.015C173.333 121.338 180.099 118.723 187.141 118.723C194.184 118.723 200.95 121.338 206.008 126.015C211.066 130.693 214.02 137.065 214.243 143.784Z" fill="white"/>
<path d="M210.962 156.102C208.645 160.206 205.207 163.636 201.013 166.026C196.819 168.416 192.025 169.678 187.14 169.678C182.256 169.678 177.462 168.416 173.268 166.026C169.074 163.636 165.636 160.206 163.318 156.102C170.371 151.609 178.661 149.211 187.14 149.211C195.62 149.211 203.909 151.609 210.962 156.102Z" fill="#263238"/>
<path d="M199.208 135.046C199.208 137.327 198.5 139.557 197.172 141.453C195.845 143.35 193.958 144.828 191.75 145.701C189.543 146.574 187.113 146.802 184.77 146.357C182.426 145.912 180.273 144.814 178.584 143.201C176.894 141.588 175.743 139.533 175.277 137.296C174.811 135.059 175.05 132.74 175.965 130.633C176.879 128.526 178.428 126.724 180.414 125.457C182.401 124.19 184.737 123.514 187.127 123.514C190.331 123.514 193.404 124.729 195.67 126.891C197.936 129.054 199.208 131.988 199.208 135.046Z" fill="#FFC3BD"/>
<path d="M442.346 416.262H387.65V418.871H442.346V416.262Z" fill="#99A8EA"/>
<path d="M464.596 318.158H141.86C130.039 318.158 120.457 327.305 120.457 338.588V389.311C120.457 400.594 130.039 409.741 141.86 409.741H464.596C476.417 409.741 485.999 400.594 485.999 389.311V338.588C485.999 327.305 476.417 318.158 464.596 318.158Z" fill="#99A8EA"/>
<path d="M259.561 350.121L264.263 359.227L274.786 360.662L267.16 367.759L268.964 377.752L259.561 373.03L250.158 377.752L251.962 367.759L244.336 360.662L254.86 359.227L259.561 350.121Z" fill="white"/>
<path opacity="0.3" d="M302.083 355.664L304.324 360.022C304.521 360.405 304.813 360.736 305.176 360.986C305.538 361.236 305.959 361.398 306.401 361.457L311.431 362.161L307.796 365.553C307.479 365.846 307.242 366.208 307.104 366.608C306.966 367.008 306.931 367.434 307.003 367.849L307.85 372.65L303.367 370.38C302.973 370.177 302.531 370.069 302.083 370.067C301.642 370.066 301.209 370.174 300.825 370.38L296.315 372.65L297.162 367.849C297.234 367.434 297.2 367.008 297.062 366.608C296.923 366.208 296.686 365.846 296.37 365.553L292.734 362.161L297.764 361.457C298.207 361.398 298.628 361.236 298.99 360.986C299.352 360.736 299.644 360.405 299.841 360.022L302.083 355.664ZM302.083 349.768L297.381 358.874L286.857 360.335L294.484 367.406L292.68 377.399L302.083 372.676L311.486 377.399L309.709 367.406L317.335 360.335L306.811 358.874L302.11 349.768H302.083Z" fill="white"/>
<path opacity="0.3" d="M345.299 355.664L347.541 360.022C347.738 360.405 348.03 360.736 348.392 360.986C348.755 361.236 349.175 361.398 349.618 361.457L354.648 362.161L351.012 365.553C350.696 365.846 350.459 366.208 350.321 366.608C350.183 367.008 350.148 367.434 350.22 367.849L351.067 372.65L346.584 370.38C346.189 370.177 345.748 370.069 345.299 370.067C344.859 370.066 344.426 370.174 344.042 370.38L339.532 372.65L340.379 367.849C340.451 367.434 340.416 367.008 340.278 366.608C340.14 366.208 339.903 365.846 339.587 365.553L335.951 362.161L340.981 361.457C341.423 361.398 341.844 361.236 342.207 360.986C342.569 360.736 342.861 360.405 343.058 360.022L345.299 355.664ZM345.299 349.768L340.598 358.874L330.074 360.335L337.7 367.406L335.896 377.399L345.299 372.676L354.702 377.399L352.926 367.406L360.552 360.335L350.028 358.874L345.327 349.768H345.299Z" fill="white"/>
<path opacity="0.3" d="M387.651 355.664L389.892 360.022C390.089 360.405 390.382 360.736 390.744 360.986C391.106 361.236 391.527 361.398 391.97 361.457L396.999 362.161L393.364 365.553C393.048 365.846 392.81 366.208 392.672 366.608C392.534 367.008 392.499 367.434 392.571 367.849L393.419 372.65L388.936 370.38C388.541 370.177 388.1 370.069 387.651 370.067C387.211 370.066 386.777 370.174 386.394 370.38L381.883 372.65L382.731 367.849C382.803 367.434 382.768 367.008 382.63 366.608C382.492 366.208 382.254 365.846 381.938 365.553L378.303 362.161L383.332 361.457C383.775 361.398 384.196 361.236 384.558 360.986C384.92 360.736 385.213 360.405 385.41 360.022L387.651 355.664ZM387.651 349.768L382.95 358.874L372.426 360.335L380.052 367.406L378.248 377.399L387.651 372.676L397.054 377.399L395.277 367.406L402.904 360.335L392.38 358.874L387.678 349.768H387.651Z" fill="white"/>
<path opacity="0.3" d="M430.003 355.664L432.244 360.022C432.441 360.405 432.733 360.736 433.095 360.986C433.458 361.236 433.879 361.398 434.321 361.457L439.351 362.161L435.715 365.553C435.399 365.846 435.162 366.208 435.024 366.608C434.886 367.008 434.851 367.434 434.923 367.849L435.77 372.65L431.287 370.38C430.892 370.177 430.451 370.069 430.003 370.067C429.562 370.066 429.129 370.174 428.745 370.38L424.235 372.65L425.082 367.849C425.154 367.434 425.119 367.008 424.981 366.608C424.843 366.208 424.606 365.846 424.29 365.553L420.654 362.161L425.684 361.457C426.127 361.398 426.547 361.236 426.91 360.986C427.272 360.736 427.564 360.405 427.761 360.022L430.003 355.664ZM430.003 349.768L425.301 358.874L414.777 360.335L422.404 367.406L420.6 377.399L430.003 372.676L439.406 377.399L437.629 367.406L445.255 360.335L434.731 358.874L430.03 349.768H430.003Z" fill="white"/>
<path opacity="0.2" d="M210.357 386.104C223.177 373.867 223.177 354.026 210.357 341.788C197.536 329.551 176.75 329.551 163.93 341.788C151.11 354.026 151.11 373.867 163.93 386.104C176.75 398.342 197.536 398.342 210.357 386.104Z" fill="white"/>
<path d="M214.243 363.925C214.256 369.685 212.254 375.284 208.555 379.834C204.855 384.385 199.67 387.626 193.821 389.043C187.972 390.46 181.795 389.973 176.27 387.659C170.744 385.344 166.186 381.334 163.319 376.266C161.153 372.482 160.025 368.237 160.039 363.925C160.263 357.206 163.216 350.833 168.274 346.156C173.333 341.479 180.099 338.863 187.141 338.863C194.184 338.863 200.95 341.479 206.008 346.156C211.066 350.833 214.02 357.206 214.243 363.925Z" fill="white"/>
<path opacity="0.5" d="M210.962 376.266C208.638 380.363 205.198 383.785 201.005 386.17C196.812 388.554 192.021 389.813 187.14 389.813C182.259 389.813 177.469 388.554 173.276 386.17C169.082 383.785 165.642 380.363 163.318 376.266C170.371 371.773 178.661 369.375 187.14 369.375C195.62 369.375 203.909 371.773 210.962 376.266Z" fill="#99A8EA"/>
<path d="M199.208 355.077C199.214 357.359 198.51 359.591 197.186 361.491C195.861 363.391 193.976 364.873 191.769 365.75C189.562 366.627 187.132 366.859 184.786 366.417C182.441 365.975 180.286 364.879 178.593 363.267C176.901 361.655 175.747 359.6 175.279 357.362C174.811 355.125 175.048 352.804 175.962 350.696C176.876 348.587 178.424 346.784 180.412 345.516C182.399 344.247 184.736 343.57 187.127 343.57C190.326 343.57 193.395 344.782 195.66 346.939C197.925 349.096 199.201 352.023 199.208 355.077Z" fill="#FFB573"/>
<path d="M464.596 208.077H141.86C130.039 208.077 120.457 217.224 120.457 228.507V279.23C120.457 290.513 130.039 299.66 141.86 299.66H464.596C476.417 299.66 485.999 290.513 485.999 279.23V228.507C485.999 217.224 476.417 208.077 464.596 208.077Z" fill="#99A8EA"/>
<path d="M259.561 240.038L264.263 249.144L274.786 250.605L267.16 257.676L268.964 267.669L259.561 262.947L250.158 267.669L251.962 257.676L244.336 250.605L254.86 249.144L259.561 240.038Z" fill="white"/>
<path d="M302.258 240.038L306.96 249.144L317.484 250.605L309.857 257.676L311.661 267.669L302.258 262.947L292.855 267.669L294.66 257.676L287.033 250.605L297.557 249.144L302.258 240.038Z" fill="white"/>
<path d="M344.954 239.713L349.655 248.793L360.179 250.254L352.58 257.325L354.357 267.344L344.954 262.622L335.551 267.344L337.355 257.325L329.729 250.254L340.252 248.793L344.954 239.713Z" fill="white"/>
<path opacity="0.3" d="M387.651 245.935L389.892 250.292C390.089 250.675 390.382 251.006 390.744 251.257C391.106 251.507 391.527 251.668 391.97 251.727L396.999 252.432L393.364 255.824C393.048 256.117 392.81 256.479 392.672 256.879C392.534 257.279 392.499 257.704 392.571 258.12L393.419 262.921L388.936 260.651C388.541 260.447 388.1 260.34 387.651 260.338C387.211 260.336 386.777 260.444 386.394 260.651L381.883 262.921L382.731 258.12C382.803 257.704 382.768 257.279 382.63 256.879C382.492 256.479 382.254 256.117 381.938 255.824L378.303 252.432L383.332 251.727C383.775 251.668 384.196 251.507 384.558 251.257C384.92 251.006 385.213 250.675 385.41 250.292L387.651 245.935ZM387.651 240.038L382.95 249.144L372.426 250.605L380.052 257.676L378.248 267.669L387.651 262.947L397.054 267.669L395.277 257.676L402.904 250.605L392.38 249.144L387.678 240.038H387.651Z" fill="white"/>
<path opacity="0.3" d="M430.346 245.935L432.588 250.292C432.785 250.675 433.077 251.006 433.439 251.257C433.801 251.507 434.222 251.668 434.665 251.727L439.695 252.432L436.059 255.824C435.743 256.117 435.506 256.479 435.367 256.879C435.229 257.279 435.195 257.704 435.267 258.12L436.114 262.921L431.631 260.651C431.236 260.447 430.795 260.34 430.346 260.338C429.906 260.336 429.473 260.444 429.089 260.651L424.579 262.921L425.426 258.12C425.498 257.704 425.463 257.279 425.325 256.879C425.187 256.479 424.95 256.117 424.633 255.824L420.998 252.432L426.028 251.727C426.47 251.668 426.891 251.507 427.253 251.257C427.616 251.006 427.908 250.675 428.105 250.292L430.346 245.935ZM430.346 240.038L425.645 249.144L415.121 250.605L422.747 257.676L420.943 267.669L430.346 262.947L439.749 267.669L437.945 257.676L445.572 250.605L435.048 249.144L430.346 240.038Z" fill="white"/>
<path opacity="0.2" d="M187.125 285.204C205.256 285.204 219.954 271.174 219.954 253.868C219.954 236.561 205.256 222.531 187.125 222.531C168.995 222.531 154.297 236.561 154.297 253.868C154.297 271.174 168.995 285.204 187.125 285.204Z" fill="white"/>
<path d="M214.241 253.868C214.248 259.626 212.242 265.221 208.54 269.767C204.838 274.313 199.653 277.549 193.806 278.963C187.958 280.377 181.784 279.888 176.261 277.573C170.738 275.258 166.183 271.25 163.317 266.183C161.151 262.409 160.023 258.172 160.037 253.868C159.922 250.401 160.537 246.948 161.848 243.713C163.158 240.478 165.135 237.528 167.663 235.037C170.191 232.546 173.218 230.565 176.564 229.213C179.909 227.86 183.506 227.163 187.139 227.163C190.772 227.163 194.369 227.86 197.714 229.213C201.06 230.565 204.087 232.546 206.615 235.037C209.143 237.528 211.121 240.478 212.431 243.713C213.741 246.948 214.356 250.401 214.241 253.868Z" fill="white"/>
<path d="M210.962 266.184C208.638 270.281 205.198 273.703 201.005 276.088C196.812 278.472 192.021 279.731 187.14 279.731C182.259 279.731 177.469 278.472 173.276 276.088C169.082 273.703 165.642 270.281 163.318 266.184C170.371 261.691 178.661 259.293 187.14 259.293C195.62 259.293 203.909 261.691 210.962 266.184Z" fill="#99A8EA"/>
<path d="M199.208 245.023C199.208 247.304 198.5 249.534 197.172 251.43C195.845 253.327 193.958 254.805 191.75 255.678C189.543 256.551 187.113 256.779 184.77 256.334C182.426 255.889 180.273 254.791 178.584 253.178C176.894 251.565 175.743 249.51 175.277 247.273C174.811 245.036 175.05 242.717 175.965 240.61C176.879 238.502 178.428 236.701 180.414 235.434C182.401 234.167 184.737 233.49 187.127 233.49C188.714 233.487 190.287 233.783 191.754 234.361C193.222 234.939 194.555 235.789 195.678 236.86C196.8 237.932 197.69 239.205 198.296 240.605C198.902 242.006 199.212 243.507 199.208 245.023Z" fill="#B55B52"/>
</svg>
