<svg width="89" height="88" viewBox="0 0 89 88" fill="none" xmlns="http://www.w3.org/2000/svg">
<circle cx="44.5" cy="44" r="44" fill="#CCD4F5"/>
<path d="M62.7777 55.6051C62.7777 56.2651 62.631 56.9434 62.3193 57.6034C62.0077 58.2634 61.6043 58.8867 61.0727 59.4734C60.1743 60.4634 59.1843 61.1784 58.066 61.6367C56.966 62.0951 55.7743 62.3334 54.491 62.3334C52.621 62.3334 50.6227 61.8934 48.5143 60.9951C46.406 60.0967 44.2977 58.8867 42.2077 57.3651C40.0993 55.8251 38.101 54.1201 36.1943 52.2317C34.306 50.3251 32.601 48.3267 31.0793 46.2367C29.576 44.1467 28.366 42.0567 27.486 39.9851C26.606 37.8951 26.166 35.8967 26.166 33.9901C26.166 32.7434 26.386 31.5517 26.826 30.4517C27.266 29.3334 27.9627 28.3067 28.9343 27.3901C30.1077 26.2351 31.391 25.6667 32.7477 25.6667C33.261 25.6667 33.7743 25.7767 34.2327 25.9967C34.7093 26.2167 35.131 26.5467 35.461 27.0234L39.7143 33.0184C40.0443 33.4767 40.2827 33.8984 40.4477 34.3017C40.6127 34.6867 40.7043 35.0717 40.7043 35.4201C40.7043 35.8601 40.576 36.3001 40.3193 36.7217C40.081 37.1434 39.7327 37.5834 39.2927 38.0234L37.8993 39.4717C37.6977 39.6734 37.606 39.9117 37.606 40.2051C37.606 40.3517 37.6243 40.4801 37.661 40.6267C37.716 40.7734 37.771 40.8834 37.8077 40.9934C38.1377 41.5984 38.706 42.3867 39.5127 43.3401C40.3377 44.2934 41.2177 45.2651 42.171 46.2367C43.161 47.2084 44.1143 48.1067 45.086 48.9317C46.0393 49.7384 46.8277 50.2884 47.451 50.6184C47.5427 50.6551 47.6527 50.7101 47.781 50.7651C47.9277 50.8201 48.0743 50.8384 48.2393 50.8384C48.551 50.8384 48.7893 50.7284 48.991 50.5267L50.3843 49.1517C50.8427 48.6934 51.2827 48.3451 51.7043 48.1251C52.126 47.8684 52.5477 47.7401 53.006 47.7401C53.3543 47.7401 53.721 47.8134 54.1243 47.9784C54.5277 48.1434 54.9493 48.3817 55.4077 48.6934L61.476 53.0017C61.9527 53.3317 62.2827 53.7167 62.4843 54.1751C62.6677 54.6334 62.7777 55.0917 62.7777 55.6051Z" stroke="#4560D9" stroke-width="1.5" stroke-miterlimit="10"/>
</svg>
