<svg width="56" height="57" viewBox="0 0 56 57" fill="none" xmlns="http://www.w3.org/2000/svg">
<circle cx="28" cy="28.5" r="28" fill="#FFF4EB"/>
<path d="M25.8989 35.3886L25.899 35.3885L25.8935 35.3814C25.7217 35.1591 25.4891 34.9948 25.2729 34.8867C25.0581 34.7793 24.7845 34.69 24.5 34.69H23C20.6513 34.69 18.75 32.7929 18.75 30.46V29.46V23.48C18.75 21.1471 20.6513 19.25 23 19.25H33C35.3487 19.25 37.25 21.1471 37.25 23.48V30.46C37.25 32.7929 35.3487 34.69 33 34.69H31.5C30.9521 34.69 30.4325 34.9524 30.1029 35.3862L30.1011 35.3886L28.6011 37.3786L28.6 37.38C28.3908 37.6589 28.1663 37.74 28 37.74C27.8337 37.74 27.6092 37.6589 27.4 37.38L27.3989 37.3786L25.8989 35.3886ZM23 31H29C29.8242 31 30.5 30.3242 30.5 29.5C30.5 28.6758 29.8242 28 29 28H23C22.1758 28 21.5 28.6758 21.5 29.5C21.5 30.3242 22.1758 31 23 31ZM23 26H33C33.8242 26 34.5 25.3242 34.5 24.5C34.5 23.6758 33.8242 23 33 23H23C22.1758 23 21.5 23.6758 21.5 24.5C21.5 25.3242 22.1758 26 23 26Z" stroke="#F16F04" stroke-width="1.5"/>
</svg>
