<svg width="72" height="72" viewBox="0 0 72 72" fill="none" xmlns="http://www.w3.org/2000/svg">
<g filter="url(#filter0_d_1837_35059)">
<circle cx="32" cy="32" r="28" fill="#FFF4EB"/>
<path d="M33.4002 37.4201H30.8902C29.2502 37.4201 27.9202 36.0401 27.9202 34.3401C27.9202 33.9301 28.2602 33.5901 28.6702 33.5901C29.0802 33.5901 29.4202 33.9301 29.4202 34.3401C29.4202 35.2101 30.0802 35.9201 30.8902 35.9201H33.4002C34.0502 35.9201 34.5902 35.3401 34.5902 34.6401C34.5902 33.7701 34.2802 33.6001 33.7702 33.4201L29.7402 32.0001C28.9602 31.7301 27.9102 31.1501 27.9102 29.3601C27.9102 27.8201 29.1202 26.5801 30.6002 26.5801H33.1102C34.7502 26.5801 36.0802 27.9601 36.0802 29.6601C36.0802 30.0701 35.7402 30.4101 35.3302 30.4101C34.9202 30.4101 34.5802 30.0701 34.5802 29.6601C34.5802 28.7901 33.9202 28.0801 33.1102 28.0801H30.6002C29.9502 28.0801 29.4102 28.6601 29.4102 29.3601C29.4102 30.2301 29.7202 30.4001 30.2302 30.5801L34.2602 32.0001C35.0402 32.2701 36.0902 32.8501 36.0902 34.6401C36.0802 36.1701 34.8802 37.4201 33.4002 37.4201Z" fill="#F16F04"/>
<path d="M32 38.75C31.59 38.75 31.25 38.41 31.25 38V26C31.25 25.59 31.59 25.25 32 25.25C32.41 25.25 32.75 25.59 32.75 26V38C32.75 38.41 32.41 38.75 32 38.75Z" fill="#F16F04"/>
<path d="M35 42.75H29C23.57 42.75 21.25 40.43 21.25 35V29C21.25 23.57 23.57 21.25 29 21.25H35C40.43 21.25 42.75 23.57 42.75 29V35C42.75 40.43 40.43 42.75 35 42.75ZM29 22.75C24.39 22.75 22.75 24.39 22.75 29V35C22.75 39.61 24.39 41.25 29 41.25H35C39.61 41.25 41.25 39.61 41.25 35V29C41.25 24.39 39.61 22.75 35 22.75H29Z" fill="#F16F04"/>
</g>
<defs>
<filter id="filter0_d_1837_35059" x="0" y="0" width="72" height="72" filterUnits="userSpaceOnUse" color-interpolation-filters="sRGB">
<feFlood flood-opacity="0" result="BackgroundImageFix"/>
<feColorMatrix in="SourceAlpha" type="matrix" values="0 0 0 0 0 0 0 0 0 0 0 0 0 0 0 0 0 0 127 0" result="hardAlpha"/>
<feOffset dx="4" dy="4"/>
<feGaussianBlur stdDeviation="4"/>
<feComposite in2="hardAlpha" operator="out"/>
<feColorMatrix type="matrix" values="0 0 0 0 0.470588 0 0 0 0 0.478431 0 0 0 0 0.490196 0 0 0 0.08 0"/>
<feBlend mode="normal" in2="BackgroundImageFix" result="effect1_dropShadow_1837_35059"/>
<feBlend mode="normal" in="SourceGraphic" in2="effect1_dropShadow_1837_35059" result="shape"/>
</filter>
</defs>
</svg>
