<svg width="72" height="73" viewBox="0 0 72 73" fill="none" xmlns="http://www.w3.org/2000/svg">
<g filter="url(#filter0_d_1837_35102)">
<circle cx="32" cy="32.5" r="28" fill="#FFF4EB"/>
<path d="M41.9292 27.26L38.5592 40.79C38.3192 41.8 37.4192 42.5 36.3792 42.5H23.2392C21.7292 42.5 20.6492 41.0199 21.0992 39.5699L25.3092 26.05C25.5992 25.11 26.4692 24.46 27.4492 24.46H39.7492C40.6992 24.46 41.4892 25.04 41.8192 25.84C42.0092 26.27 42.0492 26.76 41.9292 27.26Z" stroke="#F16F04" stroke-width="1.5" stroke-miterlimit="10"/>
<path d="M36 42.5H40.78C42.07 42.5 43.08 41.41 42.99 40.12L42 26.5" stroke="#F16F04" stroke-width="1.5" stroke-miterlimit="10" stroke-linecap="round" stroke-linejoin="round"/>
<path d="M29.6797 26.88L30.7197 22.5601" stroke="#F16F04" stroke-width="1.5" stroke-miterlimit="10" stroke-linecap="round" stroke-linejoin="round"/>
<path d="M36.3809 26.89L37.3209 22.55" stroke="#F16F04" stroke-width="1.5" stroke-miterlimit="10" stroke-linecap="round" stroke-linejoin="round"/>
<path d="M27.6992 32.5H35.6992" stroke="#F16F04" stroke-width="1.5" stroke-miterlimit="10" stroke-linecap="round" stroke-linejoin="round"/>
<path d="M26.6992 36.5H34.6992" stroke="#F16F04" stroke-width="1.5" stroke-miterlimit="10" stroke-linecap="round" stroke-linejoin="round"/>
</g>
<defs>
<filter id="filter0_d_1837_35102" x="0" y="0.5" width="72" height="72" filterUnits="userSpaceOnUse" color-interpolation-filters="sRGB">
<feFlood flood-opacity="0" result="BackgroundImageFix"/>
<feColorMatrix in="SourceAlpha" type="matrix" values="0 0 0 0 0 0 0 0 0 0 0 0 0 0 0 0 0 0 127 0" result="hardAlpha"/>
<feOffset dx="4" dy="4"/>
<feGaussianBlur stdDeviation="4"/>
<feComposite in2="hardAlpha" operator="out"/>
<feColorMatrix type="matrix" values="0 0 0 0 0.470588 0 0 0 0 0.478431 0 0 0 0 0.490196 0 0 0 0.08 0"/>
<feBlend mode="normal" in2="BackgroundImageFix" result="effect1_dropShadow_1837_35102"/>
<feBlend mode="normal" in="SourceGraphic" in2="effect1_dropShadow_1837_35102" result="shape"/>
</filter>
</defs>
</svg>
