<svg width="72" height="72" viewBox="0 0 72 72" fill="none" xmlns="http://www.w3.org/2000/svg">
<g filter="url(#filter0_d_1837_35125)">
<circle cx="32" cy="32" r="28" fill="#FFF4EB"/>
<path d="M32.1605 30.87C32.0605 30.86 31.9405 30.86 31.8305 30.87C29.4505 30.79 27.5605 28.84 27.5605 26.44C27.5605 23.99 29.5405 22 32.0005 22C34.4505 22 36.4405 23.99 36.4405 26.44C36.4305 28.84 34.5405 30.79 32.1605 30.87Z" stroke="#F16F04" stroke-width="1.5" stroke-linecap="round" stroke-linejoin="round"/>
<path d="M27.1607 34.56C24.7407 36.18 24.7407 38.82 27.1607 40.43C29.9107 42.27 34.4207 42.27 37.1707 40.43C39.5907 38.81 39.5907 36.17 37.1707 34.56C34.4307 32.73 29.9207 32.73 27.1607 34.56Z" stroke="#F16F04" stroke-width="1.5" stroke-linecap="round" stroke-linejoin="round"/>
</g>
<defs>
<filter id="filter0_d_1837_35125" x="0" y="0" width="72" height="72" filterUnits="userSpaceOnUse" color-interpolation-filters="sRGB">
<feFlood flood-opacity="0" result="BackgroundImageFix"/>
<feColorMatrix in="SourceAlpha" type="matrix" values="0 0 0 0 0 0 0 0 0 0 0 0 0 0 0 0 0 0 127 0" result="hardAlpha"/>
<feOffset dx="4" dy="4"/>
<feGaussianBlur stdDeviation="4"/>
<feComposite in2="hardAlpha" operator="out"/>
<feColorMatrix type="matrix" values="0 0 0 0 0.470588 0 0 0 0 0.478431 0 0 0 0 0.490196 0 0 0 0.08 0"/>
<feBlend mode="normal" in2="BackgroundImageFix" result="effect1_dropShadow_1837_35125"/>
<feBlend mode="normal" in="SourceGraphic" in2="effect1_dropShadow_1837_35125" result="shape"/>
</filter>
</defs>
</svg>
