<svg width="89" height="88" viewBox="0 0 89 88" fill="none" xmlns="http://www.w3.org/2000/svg">
<circle cx="44.5" cy="44" r="44" fill="#FFF4EB"/>
<path d="M60.5 30.25H27.5C26.7707 30.25 26.0712 30.5397 25.5555 31.0555C25.0397 31.5712 24.75 32.2707 24.75 33V55C24.75 55.7293 25.0397 56.4288 25.5555 56.9445C26.0712 57.4603 26.7707 57.75 27.5 57.75H60.5C61.2293 57.75 61.9288 57.4603 62.4445 56.9445C62.9603 56.4288 63.25 55.7293 63.25 55V33C63.25 32.2707 62.9603 31.5712 62.4445 31.0555C61.9288 30.5397 61.2293 30.25 60.5 30.25ZM57.475 33L44 42.3225L30.525 33H57.475ZM27.5 55V34.2512L43.2163 45.1275C43.4464 45.2872 43.7199 45.3727 44 45.3727C44.2801 45.3727 44.5536 45.2872 44.7837 45.1275L60.5 34.2512V55H27.5Z" fill="#F16F04"/>
</svg>
