<svg width="89" height="88" viewBox="0 0 89 88" fill="none" xmlns="http://www.w3.org/2000/svg">
<circle cx="44.5" cy="44" r="44" fill="#FFF4EB"/>
<path d="M62.7777 55.6048C62.7777 56.2648 62.631 56.9432 62.3193 57.6032C62.0077 58.2632 61.6043 58.8865 61.0727 59.4732C60.1743 60.4632 59.1843 61.1782 58.066 61.6365C56.966 62.0948 55.7743 62.3332 54.491 62.3332C52.621 62.3332 50.6227 61.8932 48.5143 60.9948C46.406 60.0965 44.2977 58.8865 42.2077 57.3648C40.0993 55.8248 38.101 54.1198 36.1943 52.2315C34.306 50.3248 32.601 48.3265 31.0793 46.2365C29.576 44.1465 28.366 42.0565 27.486 39.9848C26.606 37.8948 26.166 35.8965 26.166 33.9898C26.166 32.7432 26.386 31.5515 26.826 30.4515C27.266 29.3332 27.9627 28.3065 28.9343 27.3898C30.1077 26.2348 31.391 25.6665 32.7477 25.6665C33.261 25.6665 33.7743 25.7765 34.2327 25.9965C34.7093 26.2165 35.131 26.5465 35.461 27.0232L39.7143 33.0182C40.0443 33.4765 40.2827 33.8982 40.4477 34.3015C40.6127 34.6865 40.7043 35.0715 40.7043 35.4198C40.7043 35.8598 40.576 36.2998 40.3193 36.7215C40.081 37.1432 39.7327 37.5832 39.2927 38.0232L37.8993 39.4715C37.6977 39.6732 37.606 39.9115 37.606 40.2048C37.606 40.3515 37.6243 40.4798 37.661 40.6265C37.716 40.7732 37.771 40.8832 37.8077 40.9932C38.1377 41.5982 38.706 42.3865 39.5127 43.3398C40.3377 44.2932 41.2177 45.2648 42.171 46.2365C43.161 47.2082 44.1143 48.1065 45.086 48.9315C46.0393 49.7382 46.8277 50.2882 47.451 50.6182C47.5427 50.6548 47.6527 50.7098 47.781 50.7648C47.9277 50.8198 48.0743 50.8382 48.2393 50.8382C48.551 50.8382 48.7893 50.7282 48.991 50.5265L50.3843 49.1515C50.8427 48.6932 51.2827 48.3448 51.7043 48.1248C52.126 47.8682 52.5477 47.7398 53.006 47.7398C53.3543 47.7398 53.721 47.8132 54.1243 47.9782C54.5277 48.1432 54.9493 48.3815 55.4077 48.6932L61.476 53.0015C61.9527 53.3315 62.2827 53.7165 62.4843 54.1748C62.6677 54.6332 62.7777 55.0915 62.7777 55.6048Z" stroke="#F16F04" stroke-width="1.5" stroke-miterlimit="10"/>
</svg>
