<svg width="201" height="400" viewBox="0 0 201 400" fill="none" xmlns="http://www.w3.org/2000/svg">
<path d="M164.426 167.358H151.001V166.666H1.00067V233.333H95.1924C81.4507 272.141 44.5257 300 1.00067 300C-54.2243 300 -98.9993 255.225 -98.9993 200C-98.9993 144.775 -54.2243 99.9997 1.00067 99.9997C26.4923 99.9997 49.684 109.616 67.3423 125.325L114.484 78.183C84.7173 50.4413 44.9007 33.333 1.00067 33.333C-91.041 33.333 -165.666 107.958 -165.666 200C-165.666 292.041 -91.041 366.666 1.00067 366.666C93.0424 366.666 167.667 292.041 167.667 200C167.667 188.825 166.517 177.916 164.426 167.358Z" fill="#FBC02D"/>
<path d="M-146.449 122.425L-91.6909 162.583C-76.8742 125.9 -40.9909 99.9997 1.00079 99.9997C26.4925 99.9997 49.6841 109.616 67.3425 125.325L114.484 78.183C84.7175 50.4413 44.9008 33.333 1.00079 33.333C-63.0159 33.333 -118.533 69.4747 -146.449 122.425Z" fill="#E53935"/>
<path d="M1 366.667C44.05 366.667 83.1667 350.192 112.742 323.4L61.1583 279.75C44.425 292.425 23.625 300 1 300C-42.35 300 -79.1583 272.358 -93.025 233.783L-147.375 275.658C-119.792 329.633 -63.775 366.667 1 366.667Z" fill="#4CAF50"/>
<path d="M164.425 167.359L164.292 166.667H151H1V233.334H95.1917C88.5917 251.975 76.6 268.05 61.1333 279.759C61.1417 279.75 61.15 279.75 61.1583 279.742L112.742 323.392C109.092 326.709 167.667 283.334 167.667 200C167.667 188.825 166.517 177.917 164.425 167.359Z" fill="#1565C0"/>
</svg>
