<svg width="48" height="48" viewBox="0 0 48 48" fill="none" xmlns="http://www.w3.org/2000/svg">
<rect x="-0.5" y="0.5" width="47" height="47" rx="23.5" transform="matrix(-1 0 0 1 47 0)" fill="white"/>
<path fill-rule="evenodd" clip-rule="evenodd" d="M22.7803 31.0303C22.4874 31.3232 22.0126 31.3232 21.7197 31.0303L15.4697 24.7803C15.1768 24.4874 15.1768 24.0126 15.4697 23.7197L21.7197 17.4697C22.0126 17.1768 22.4874 17.1768 22.7803 17.4697C23.0732 17.7626 23.0732 18.2374 22.7803 18.5303L17.8107 23.5H32.25C32.6642 23.5 33 23.8358 33 24.25C33 24.6642 32.6642 25 32.25 25H17.8107L22.7803 29.9697C23.0732 30.2626 23.0732 30.7374 22.7803 31.0303Z" fill="#24292E"/>
<rect x="-0.5" y="0.5" width="47" height="47" rx="23.5" transform="matrix(-1 0 0 1 47 0)" stroke="#E4E4E5"/>
</svg>
