<svg width="48" height="48" viewBox="0 0 48 48" fill="none" xmlns="http://www.w3.org/2000/svg">
<rect x="0.5" y="0.5" width="47" height="47" rx="23.5" fill="white"/>
<path fill-rule="evenodd" clip-rule="evenodd" d="M25.2197 31.0303C25.5126 31.3232 25.9874 31.3232 26.2803 31.0303L32.5303 24.7803C32.8232 24.4874 32.8232 24.0126 32.5303 23.7197L26.2803 17.4697C25.9874 17.1768 25.5126 17.1768 25.2197 17.4697C24.9268 17.7626 24.9268 18.2374 25.2197 18.5303L30.1893 23.5H15.75C15.3358 23.5 15 23.8358 15 24.25C15 24.6642 15.3358 25 15.75 25H30.1893L25.2197 29.9697C24.9268 30.2626 24.9268 30.7374 25.2197 31.0303Z" fill="#24292E"/>
<rect x="0.5" y="0.5" width="47" height="47" rx="23.5" stroke="#E4E4E5"/>
</svg>
