<svg width="31" height="32" viewBox="0 0 31 32" fill="none" xmlns="http://www.w3.org/2000/svg">
<path d="M15.5691 0.0692133C18.0224 0.700327 17.4841 5.3391 19.8484 6.24888C22.7044 7.34791 26.9553 2.79587 28.8662 5.18608C30.762 7.55738 25.376 10.6297 25.7586 13.6415C26.0782 16.1566 30.0798 16.8773 30.665 19.3442C31.2147 21.6615 29.9551 24.1007 28.7233 26.139C27.4707 28.2117 25.8368 30.3355 23.5466 31.1229C21.2409 31.9158 18.7509 30.8114 16.3487 30.3941C14.4482 30.0639 12.6701 29.4589 10.8203 28.9121C8.98139 28.3687 7.11377 28.0341 5.40695 27.1602C3.45807 26.1623 0.6889 25.5277 0.0946029 23.4204C-0.544472 21.1543 2.25454 19.2037 2.50276 16.8623C2.70828 14.9237 1.12333 13.1163 1.3917 11.1853C1.6739 9.15489 2.5283 7.0866 4.05202 5.71522C5.57225 4.34698 7.9235 4.55401 9.75998 3.65371C11.8256 2.64108 13.3411 -0.503907 15.5691 0.0692133Z" fill="#2A47CB"/>
</svg>
