<svg width="36" height="34" viewBox="0 0 36 34" fill="none" xmlns="http://www.w3.org/2000/svg">
<path d="M19.5964 0.0197647C22.0727 0.177359 24.4612 1.32898 26.362 2.92385C28.1775 4.4471 28.6909 6.97848 30.1322 8.85964C31.6005 10.7759 34.1247 11.8849 34.9627 14.1488C35.809 16.4352 35.4235 19.0324 34.7668 21.3804C34.1268 23.6689 32.835 25.7266 31.2338 27.4825C29.7114 29.1519 27.7179 30.2398 25.7221 31.2989C23.7816 32.3286 21.834 33.6447 19.6372 33.6362C17.4644 33.6279 15.5316 32.3337 13.647 31.2524C11.9839 30.2983 10.9285 28.5569 9.23083 27.6657C6.9461 26.4663 3.72854 27.0582 2.00284 25.1398C0.377203 23.3326 0.794915 20.4883 0.595416 18.0657C0.385914 15.5217 -0.743251 12.5298 0.796774 10.494C2.45897 8.29672 6.22806 9.2692 8.46571 7.66173C10.3677 6.29538 10.627 3.37086 12.5576 2.04533C14.5926 0.64817 17.1329 -0.137013 19.5964 0.0197647Z" fill="#FD6F00"/>
</svg>
