<svg width="33" height="32" viewBox="0 0 33 32" fill="none" xmlns="http://www.w3.org/2000/svg">
<path d="M17.0398 0.00655171C19.1859 -0.135144 20.7485 2.05964 22.7295 2.89715C24.9993 3.85673 27.8759 3.59244 29.6259 5.32751C31.3606 7.04759 31.7087 9.7368 32.0652 12.1536C32.4128 14.5104 32.8627 17.1471 31.6739 19.2115C30.4541 21.3296 26.9799 21.2109 25.6635 23.2703C24.2075 25.5479 26.0702 29.3257 24.056 31.1285C22.224 32.7681 19.2165 31.3732 16.7617 31.2377C14.5673 31.1167 12.3536 31.1484 10.2986 30.3694C8.27519 29.6025 6.66556 28.1295 4.98022 26.7724C3.21461 25.3506 0.658963 24.3461 0.0927035 22.151C-0.495722 19.8701 1.90349 17.7938 2.05761 15.4432C2.20097 13.2568 0.00745477 11.0131 0.95259 9.03632C1.90364 7.04719 4.69155 6.83286 6.65446 5.82879C8.25151 5.01186 9.94086 4.51543 11.5056 3.6382C13.4515 2.54728 14.8138 0.153522 17.0398 0.00655171Z" fill="#FF2C62"/>
</svg>
