<svg width="24" height="24" viewBox="0 0 24 24" fill="none" xmlns="http://www.w3.org/2000/svg">
<path d="M7.48047 18.35L10.5805 20.75C10.9805 21.15 11.8805 21.35 12.4805 21.35H16.2805C17.4805 21.35 18.7805 20.45 19.0805 19.25L21.4805 11.95C21.9805 10.55 21.0805 9.35003 19.5805 9.35003H15.5805C14.9805 9.35003 14.4805 8.85003 14.5805 8.15003L15.0805 4.95003C15.2805 4.05003 14.6805 3.05003 13.7805 2.75003C12.9805 2.45003 11.9805 2.85003 11.5805 3.45003L7.48047 9.55003" stroke="#D2D3D4" stroke-width="1.5" stroke-miterlimit="10"/>
<path d="M2.38086 18.35V8.55002C2.38086 7.15002 2.98086 6.65002 4.38086 6.65002H5.38086C6.78086 6.65002 7.38086 7.15002 7.38086 8.55002V18.35C7.38086 19.75 6.78086 20.25 5.38086 20.25H4.38086C2.98086 20.25 2.38086 19.75 2.38086 18.35Z" stroke="#D2D3D4" stroke-width="1.5" stroke-linecap="round" stroke-linejoin="round"/>
</svg>
