<svg width="45" height="44" viewBox="0 0 45 44" fill="none" xmlns="http://www.w3.org/2000/svg">
<path d="M40.7777 33.6051C40.7777 34.2651 40.631 34.9434 40.3193 35.6034C40.0077 36.2634 39.6043 36.8867 39.0727 37.4734C38.1743 38.4634 37.1843 39.1784 36.066 39.6367C34.966 40.0951 33.7743 40.3334 32.491 40.3334C30.621 40.3334 28.6227 39.8934 26.5143 38.9951C24.406 38.0967 22.2977 36.8867 20.2077 35.3651C18.0993 33.8251 16.101 32.1201 14.1943 30.2317C12.306 28.3251 10.601 26.3267 9.07935 24.2367C7.57602 22.1467 6.36602 20.0567 5.48602 17.9851C4.60602 15.8951 4.16602 13.8967 4.16602 11.9901C4.16602 10.7434 4.38602 9.55175 4.82602 8.45175C5.26602 7.33341 5.96268 6.30675 6.93435 5.39008C8.10768 4.23508 9.39102 3.66675 10.7477 3.66675C11.261 3.66675 11.7743 3.77675 12.2327 3.99675C12.7093 4.21675 13.131 4.54675 13.461 5.02341L17.7143 11.0184C18.0443 11.4767 18.2827 11.8984 18.4477 12.3017C18.6127 12.6867 18.7043 13.0717 18.7043 13.4201C18.7043 13.8601 18.576 14.3001 18.3193 14.7217C18.081 15.1434 17.7327 15.5834 17.2927 16.0234L15.8993 17.4717C15.6977 17.6734 15.606 17.9117 15.606 18.2051C15.606 18.3517 15.6243 18.4801 15.661 18.6267C15.716 18.7734 15.771 18.8834 15.8077 18.9934C16.1377 19.5984 16.706 20.3867 17.5127 21.3401C18.3377 22.2934 19.2177 23.2651 20.171 24.2367C21.161 25.2084 22.1143 26.1067 23.086 26.9317C24.0393 27.7384 24.8277 28.2884 25.451 28.6184C25.5427 28.6551 25.6527 28.7101 25.781 28.7651C25.9277 28.8201 26.0743 28.8384 26.2393 28.8384C26.551 28.8384 26.7893 28.7284 26.991 28.5267L28.3843 27.1517C28.8427 26.6934 29.2827 26.3451 29.7043 26.1251C30.126 25.8684 30.5477 25.7401 31.006 25.7401C31.3543 25.7401 31.721 25.8134 32.1243 25.9784C32.5277 26.1434 32.9493 26.3817 33.4077 26.6934L39.476 31.0017C39.9527 31.3317 40.2827 31.7167 40.4843 32.1751C40.6677 32.6334 40.7777 33.0917 40.7777 33.6051Z" stroke="#F16F04" stroke-width="1.5" stroke-miterlimit="10"/>
</svg>
