<svg width="24" height="25" viewBox="0 0 24 25" fill="none" xmlns="http://www.w3.org/2000/svg">
<path d="M4.90926 23.32C3.81926 23.32 2.88926 22.97 2.20926 22.29C1.23926 21.32 0.939261 19.84 1.36926 18.12L3.84926 8.19001C4.27926 6.47001 5.95926 4.80001 7.66926 4.37001L17.5993 1.89001C19.3193 1.46001 20.7993 1.76001 21.7693 2.73001C22.7393 3.70001 23.0393 5.18001 22.6093 6.90001L20.1293 16.83C19.6993 18.55 18.0193 20.22 16.3093 20.65L6.37926 23.13C5.86926 23.25 5.37926 23.32 4.90926 23.32ZM17.9793 3.33001L8.04926 5.82001C6.87926 6.11001 5.60926 7.38001 5.30926 8.55001L2.82926 18.48C2.52926 19.67 2.68926 20.64 3.26926 21.23C3.84926 21.81 4.82926 21.97 6.01926 21.67L15.9493 19.19C17.1193 18.9 18.3893 17.62 18.6793 16.46L21.1593 6.53001C21.4593 5.34001 21.2993 4.37001 20.7193 3.78001C20.1393 3.19001 19.1693 3.04001 17.9793 3.33001Z" fill="#F16F04"/>
<path d="M12 16.75C9.66 16.75 7.75 14.84 7.75 12.5C7.75 10.16 9.66 8.25 12 8.25C14.34 8.25 16.25 10.16 16.25 12.5C16.25 14.84 14.34 16.75 12 16.75ZM12 9.75C10.48 9.75 9.25 10.98 9.25 12.5C9.25 14.02 10.48 15.25 12 15.25C13.52 15.25 14.75 14.02 14.75 12.5C14.75 10.98 13.52 9.75 12 9.75Z" fill="#F16F04"/>
</svg>
