<svg width="24" height="25" viewBox="0 0 24 25" fill="none" xmlns="http://www.w3.org/2000/svg">
<path d="M21.9292 7.26001L18.5592 20.79C18.3192 21.8 17.4192 22.5 16.3792 22.5H3.23915C1.72915 22.5 0.649169 21.0199 1.09917 19.5699L5.30916 6.05005C5.59916 5.11005 6.46917 4.45996 7.44917 4.45996H19.7492C20.6992 4.45996 21.4892 5.03997 21.8192 5.83997C22.0092 6.26997 22.0492 6.76001 21.9292 7.26001Z" stroke="#F16F04" stroke-width="1.5" stroke-miterlimit="10"/>
<path d="M16 22.5H20.78C22.07 22.5 23.08 21.41 22.99 20.12L22 6.5" stroke="#F16F04" stroke-width="1.5" stroke-miterlimit="10" stroke-linecap="round" stroke-linejoin="round"/>
<path d="M9.67969 6.88L10.7197 2.56006" stroke="#F16F04" stroke-width="1.5" stroke-miterlimit="10" stroke-linecap="round" stroke-linejoin="round"/>
<path d="M16.3809 6.89001L17.3209 2.55005" stroke="#F16F04" stroke-width="1.5" stroke-miterlimit="10" stroke-linecap="round" stroke-linejoin="round"/>
<path d="M7.69922 12.5H15.6992" stroke="#F16F04" stroke-width="1.5" stroke-miterlimit="10" stroke-linecap="round" stroke-linejoin="round"/>
<path d="M6.69922 16.5H14.6992" stroke="#F16F04" stroke-width="1.5" stroke-miterlimit="10" stroke-linecap="round" stroke-linejoin="round"/>
</svg>
