<svg width="24" height="25" viewBox="0 0 24 25" fill="none" xmlns="http://www.w3.org/2000/svg">
<path d="M9.89891 19.3886L9.89896 19.3885L9.89346 19.3814C9.72171 19.1591 9.48906 18.9948 9.27291 18.8867C9.05808 18.7793 8.78453 18.69 8.5 18.69H7C4.65127 18.69 2.75 16.7929 2.75 14.46V13.46V7.48C2.75 5.14715 4.65127 3.25 7 3.25H17C19.3487 3.25 21.25 5.14715 21.25 7.48V14.46C21.25 16.7929 19.3487 18.69 17 18.69H15.5C14.9521 18.69 14.4325 18.9524 14.1029 19.3862L14.1011 19.3886L12.6011 21.3786L12.6 21.38C12.3908 21.6589 12.1663 21.74 12 21.74C11.8337 21.74 11.6092 21.6589 11.4 21.38L11.3989 21.3786L9.89891 19.3886ZM7 15H13C13.8242 15 14.5 14.3242 14.5 13.5C14.5 12.6758 13.8242 12 13 12H7C6.17579 12 5.5 12.6758 5.5 13.5C5.5 14.3242 6.17579 15 7 15ZM7 10H17C17.8242 10 18.5 9.32421 18.5 8.5C18.5 7.67579 17.8242 7 17 7H7C6.17579 7 5.5 7.67579 5.5 8.5C5.5 9.32421 6.17579 10 7 10Z" stroke="#F16F04" stroke-width="1.5"/>
</svg>
