<svg width="22" height="22" viewBox="0 0 22 22" fill="none" xmlns="http://www.w3.org/2000/svg">
<path d="M21 3.6697V15.7397C21 16.6997 20.22 17.5997 19.26 17.7197L18.93 17.7597C16.75 18.0497 13.39 19.1597 11.47 20.2197C11.21 20.3697 10.78 20.3697 10.51 20.2197L10.47 20.1997C8.54997 19.1497 5.20003 18.0497 3.03003 17.7597L2.73999 17.7197C1.77999 17.5997 1 16.6997 1 15.7397V3.65969C1 2.46969 1.96997 1.5697 3.15997 1.6697C5.25997 1.8397 8.43997 2.89973 10.22 4.00973L10.47 4.15969C10.76 4.33969 11.24 4.33969 11.53 4.15969L11.7 4.04971C12.33 3.65971 13.13 3.2697 14 2.9197V6.99972L16 5.6697L18 6.99972V1.77975C18.27 1.72975 18.53 1.69971 18.77 1.67971H18.83C20.02 1.57971 21 2.4697 21 3.6697Z" stroke="#F16F04" stroke-width="1.5" stroke-linecap="round" stroke-linejoin="round"/>
</svg>
