<svg width="48" height="48" viewBox="0 0 48 48" fill="none" xmlns="http://www.w3.org/2000/svg">
<g clip-path="url(#clip0_46_464)">
<path d="M36 24C36 17.3726 30.6274 12 24 12C17.3726 12 12 17.3726 12 24C12 29.9895 16.3882 34.954 22.125 35.8542V27.4688H19.0781V24H22.125V21.3563C22.125 18.3488 23.9166 16.6875 26.6576 16.6875C27.9701 16.6875 29.3438 16.9219 29.3438 16.9219V19.875H27.8306C26.34 19.875 25.875 20.8001 25.875 21.75V24H29.2031L28.6711 27.4688H25.875V35.8542C31.6118 34.954 36 29.9895 36 24Z" fill="#1877F2"/>
<path d="M28.6711 27.4688L29.2031 24H25.875V21.75C25.875 20.801 26.34 19.875 27.8306 19.875H29.3438V16.9219C29.3438 16.9219 27.9705 16.6875 26.6576 16.6875C23.9166 16.6875 22.125 18.3488 22.125 21.3563V24H19.0781V27.4688H22.125V35.8542C23.3674 36.0486 24.6326 36.0486 25.875 35.8542V27.4688H28.6711Z" fill="white"/>
</g>
<rect x="0.5" y="0.5" width="47" height="47" rx="7.5" stroke="#787A7D"/>
<defs>
<clipPath id="clip0_46_464">
<rect width="24" height="24" fill="white" transform="translate(12 12)"/>
</clipPath>
</defs>
</svg>
