<svg width="48" height="48" viewBox="0 0 48 48" fill="none" xmlns="http://www.w3.org/2000/svg">
<g clip-path="url(#clip0_46_462)">
<path d="M35.766 24.2763C35.766 23.4605 35.6999 22.6404 35.5588 21.8379H24.24V26.4589H30.7217C30.4528 27.9492 29.5885 29.2676 28.323 30.1054V33.1037H32.19C34.4608 31.0137 35.766 27.9272 35.766 24.2763Z" fill="#4285F4"/>
<path d="M24.24 36.0008C27.4764 36.0008 30.2058 34.9382 32.1944 33.1039L28.3274 30.1055C27.2516 30.8375 25.8626 31.252 24.2444 31.252C21.1138 31.252 18.4593 29.1399 17.5069 26.3003H13.5165V29.3912C15.5536 33.4434 19.7028 36.0008 24.24 36.0008Z" fill="#34A853"/>
<path d="M17.5025 26.3002C16.9999 24.8099 16.9999 23.196 17.5025 21.7057V18.6147H13.5165C11.8145 22.0055 11.8145 26.0004 13.5165 29.3912L17.5025 26.3002Z" fill="#FBBC04"/>
<path d="M24.24 16.7497C25.9508 16.7232 27.6043 17.367 28.8433 18.5487L32.2694 15.1226C30.1 13.0855 27.2207 11.9655 24.24 12.0008C19.7028 12.0008 15.5536 14.5582 13.5165 18.6148L17.5025 21.7058C18.4505 18.8617 21.1094 16.7497 24.24 16.7497Z" fill="#EA4335"/>
</g>
<rect x="0.5" y="0.5" width="47" height="47" rx="7.5" stroke="#787A7D"/>
<defs>
<clipPath id="clip0_46_462">
<rect width="24" height="24" fill="white" transform="translate(12 12)"/>
</clipPath>
</defs>
</svg>
