<svg width="30" height="30" viewBox="0 0 30 30" fill="none" xmlns="http://www.w3.org/2000/svg">
<g clip-path="url(#clip0_2081_19890)">
<path d="M23.333 25H4.99967V6.66667H16.0163L17.683 5H4.99967C4.55765 5 4.13372 5.17559 3.82116 5.48816C3.5086 5.80072 3.33301 6.22464 3.33301 6.66667V25C3.33301 25.442 3.5086 25.866 3.82116 26.1785C4.13372 26.4911 4.55765 26.6667 4.99967 26.6667H23.333C23.775 26.6667 24.199 26.4911 24.5115 26.1785C24.8241 25.866 24.9997 25.442 24.9997 25V12.5L23.333 14.1667V25Z" fill="white"/>
<path d="M27.9415 4.86666L25.1332 2.05833C25.0086 1.93335 24.8605 1.8342 24.6975 1.76654C24.5345 1.69889 24.3597 1.66406 24.1832 1.66406C24.0067 1.66406 23.832 1.69889 23.6689 1.76654C23.5059 1.8342 23.3578 1.93335 23.2332 2.05833L11.8082 13.55L10.8832 17.5583C10.8438 17.7526 10.848 17.9532 10.8953 18.1458C10.9427 18.3383 11.0322 18.5179 11.1573 18.6717C11.2824 18.8255 11.4401 18.9496 11.6189 19.0352C11.7977 19.1208 11.9933 19.1657 12.1915 19.1667C12.294 19.1779 12.3974 19.1779 12.4999 19.1667L16.5416 18.275L27.9415 6.76666C28.0665 6.64203 28.1657 6.49396 28.2333 6.33094C28.301 6.16793 28.3358 5.99316 28.3358 5.81666C28.3358 5.64016 28.301 5.4654 28.2333 5.30238C28.1657 5.13936 28.0665 4.99129 27.9415 4.86666ZM15.6749 16.7333L12.6249 17.4083L13.3332 14.3833L21.9332 5.72499L24.2832 8.07499L15.6749 16.7333ZM25.2249 7.13333L22.8749 4.78333L24.1665 3.46666L26.5332 5.83333L25.2249 7.13333Z" fill="white"/>
</g>
<defs>
<clipPath id="clip0_2081_19890">
<rect width="30" height="30" fill="white"/>
</clipPath>
</defs>
</svg>
