<svg width="30" height="30" viewBox="0 0 30 30" fill="none" xmlns="http://www.w3.org/2000/svg">
<path d="M5 23.75V21.25H7.5V12.5C7.5 10.7708 8.02083 9.23417 9.0625 7.89C10.1042 6.54667 11.4583 5.66667 13.125 5.25V4.375C13.125 3.85417 13.3075 3.41167 13.6725 3.0475C14.0367 2.6825 14.4792 2.5 15 2.5C15.5208 2.5 15.9633 2.6825 16.3275 3.0475C16.6925 3.41167 16.875 3.85417 16.875 4.375V5.25C18.5417 5.66667 19.8958 6.54667 20.9375 7.89C21.9792 9.23417 22.5 10.7708 22.5 12.5V21.25H25V23.75H5ZM15 27.5C14.3125 27.5 13.7242 27.2554 13.235 26.7662C12.745 26.2762 12.5 25.6875 12.5 25H17.5C17.5 25.6875 17.2554 26.2762 16.7662 26.7662C16.2762 27.2554 15.6875 27.5 15 27.5Z" fill="#3D3B3D"/>
</svg>
