<svg width="30" height="30" viewBox="0 0 30 30" fill="none" xmlns="http://www.w3.org/2000/svg">
<path d="M8.375 24.1259L4.9375 23.3759C4.625 23.3134 4.375 23.1517 4.1875 22.8909C4 22.6309 3.92708 22.3446 3.96875 22.0321L4.3125 18.5009L1.96875 15.8134C1.76042 15.5842 1.65625 15.3134 1.65625 15.0009C1.65625 14.6884 1.76042 14.4175 1.96875 14.1884L4.3125 11.5009L3.96875 7.96962C3.92708 7.65712 4 7.37087 4.1875 7.11087C4.375 6.85003 4.625 6.68837 4.9375 6.62587L8.375 5.87587L10.1875 2.81337C10.3542 2.54253 10.5833 2.36545 10.875 2.28212C11.1667 2.19878 11.4583 2.2092 11.75 2.31337L15 3.68837L18.25 2.31337C18.5417 2.2092 18.8333 2.19878 19.125 2.28212C19.4167 2.36545 19.6458 2.54253 19.8125 2.81337L21.625 5.87587L25.0625 6.62587C25.375 6.68837 25.625 6.85003 25.8125 7.11087C26 7.37087 26.0729 7.65712 26.0312 7.96962L25.6875 11.5009L28.0312 14.1884C28.2396 14.4175 28.3437 14.6884 28.3437 15.0009C28.3437 15.3134 28.2396 15.5842 28.0312 15.8134L25.6875 18.5009L26.0312 22.0321C26.0729 22.3446 26 22.6309 25.8125 22.8909C25.625 23.1517 25.375 23.3134 25.0625 23.3759L21.625 24.1259L19.8125 27.1884C19.6458 27.4592 19.4167 27.6363 19.125 27.7196C18.8333 27.8029 18.5417 27.7925 18.25 27.6884L15 26.3134L11.75 27.6884C11.4583 27.7925 11.1667 27.8029 10.875 27.7196C10.5833 27.6363 10.3542 27.4592 10.1875 27.1884L8.375 24.1259ZM12.8125 18.5634C13.0417 18.7925 13.3333 18.9071 13.6875 18.9071C14.0417 18.9071 14.3333 18.7925 14.5625 18.5634L19.875 13.2509C20.125 13.0009 20.25 12.7038 20.25 12.3596C20.25 12.0163 20.125 11.7196 19.875 11.4696C19.625 11.2196 19.3283 11.0946 18.985 11.0946C18.6408 11.0946 18.3438 11.2196 18.0938 11.4696L13.6875 15.8759L11.875 14.0946C11.625 13.8654 11.3283 13.7559 10.985 13.7659C10.6408 13.7767 10.3542 13.8967 10.125 14.1259C9.89583 14.355 9.78125 14.6467 9.78125 15.0009C9.78125 15.355 9.89583 15.6467 10.125 15.8759L12.8125 18.5634Z" fill="#0A66C2"/>
</svg>
