<svg width="24" height="24" viewBox="0 0 24 24" fill="none" xmlns="http://www.w3.org/2000/svg">
<path d="M17.5401 8.80965C19.1748 8.80965 20.5001 7.48441 20.5001 5.84965C20.5001 4.21489 19.1748 2.88965 17.5401 2.88965C15.9053 2.88965 14.5801 4.21489 14.5801 5.84965C14.5801 7.48441 15.9053 8.80965 17.5401 8.80965Z" fill="#F16F04"/>
<path d="M6.46 8.80965C8.09476 8.80965 9.42 7.48441 9.42 5.84965C9.42 4.21489 8.09476 2.88965 6.46 2.88965C4.82524 2.88965 3.5 4.21489 3.5 5.84965C3.5 7.48441 4.82524 8.80965 6.46 8.80965Z" fill="#F16F04"/>
<path d="M17.5401 21.1104C19.1748 21.1104 20.5001 19.7852 20.5001 18.1504C20.5001 16.5157 19.1748 15.1904 17.5401 15.1904C15.9053 15.1904 14.5801 16.5157 14.5801 18.1504C14.5801 19.7852 15.9053 21.1104 17.5401 21.1104Z" fill="#F16F04"/>
<path d="M6.46 21.1104C8.09476 21.1104 9.42 19.7852 9.42 18.1504C9.42 16.5157 8.09476 15.1904 6.46 15.1904C4.82524 15.1904 3.5 16.5157 3.5 18.1504C3.5 19.7852 4.82524 21.1104 6.46 21.1104Z" fill="#F16F04"/>
</svg>
