<svg width="56" height="56" viewBox="0 0 56 56" fill="none" xmlns="http://www.w3.org/2000/svg">
<circle cx="28" cy="28" r="28" fill="#FEDDC3"/>
<path d="M38 27.1V22.9C38 19.4 36.6 18 33.1 18H28.9C25.4 18 24 19.4 24 22.9V24H27.1C30.6 24 32 25.4 32 28.9V32H33.1C36.6 32 38 30.6 38 27.1Z" stroke="#F16F04" stroke-width="1.5" stroke-linecap="round" stroke-linejoin="round"/>
<path d="M32 33.1V28.9C32 25.4 30.6 24 27.1 24H22.9C19.4 24 18 25.4 18 28.9V33.1C18 36.6 19.4 38 22.9 38H27.1C30.6 38 32 36.6 32 33.1Z" stroke="#F16F04" stroke-width="1.5" stroke-linecap="round" stroke-linejoin="round"/>
<path d="M22.0801 30.9998L24.0301 32.9498L27.9201 29.0498" stroke="#F16F04" stroke-width="1.5" stroke-linecap="round" stroke-linejoin="round"/>
</svg>
