<svg width="56" height="56" viewBox="0 0 56 56" fill="none" xmlns="http://www.w3.org/2000/svg">
<circle cx="28" cy="28" r="28" fill="#FEDDC3"/>
<g clip-path="url(#clip0_1567_29470)">
<path d="M31.4085 30.0916C30.4688 29.732 30.4819 29.3341 30.1377 28.9494C30.1482 28.9449 30.1553 28.937 30.1553 28.9183L30.102 28.9074C29.8185 28.5748 29.709 28.2496 29.6959 27.9661C29.7094 27.6808 29.8185 27.3571 30.102 27.0249L30.1553 27.014C30.1553 26.9956 30.1478 26.9881 30.1377 26.9829C30.4819 26.5966 30.4688 26.2006 31.4085 25.8406C35.1027 24.4288 34.3414 17.0049 34.3414 17.0049H22.1828C22.1828 17.0049 21.4227 24.4284 25.116 25.8406C26.0565 26.2003 26.0427 26.5981 26.3869 26.9829C26.3764 26.9881 26.37 26.9956 26.37 27.014L26.4233 27.0249C26.7053 27.3575 26.8155 27.6811 26.8294 27.9661C26.8152 28.2496 26.7053 28.5748 26.4233 28.9074L26.37 28.9183C26.37 28.937 26.3768 28.9449 26.3869 28.9494C26.0427 29.3356 26.0565 29.732 25.116 30.0916C21.4227 31.5035 22.1828 38.9274 22.1828 38.9274H34.3414C34.3414 38.9274 35.1023 31.5035 31.4085 30.0916Z" fill="#FDB172"/>
<path d="M27.4752 30.0915C28.415 29.7319 28.127 29.2841 28.4705 28.8982L28.5185 28.5405C28.8005 28.2083 28.2489 28.2495 28.2627 27.966C28.2489 27.6806 29.0637 27.357 28.7806 27.0247L28.7281 27.0139C28.7281 26.9955 28.7356 26.988 28.7442 26.9827C28.4 26.5965 28.415 26.2005 27.4749 25.8405C23.7811 24.4286 26.3424 16.9688 26.3424 16.9688L22.1799 17.0047C22.1799 17.0047 21.4197 24.4282 25.1131 25.8405C26.0536 26.2001 26.0397 26.598 26.384 26.9827C26.3735 26.988 26.3671 26.9955 26.3671 27.0139L26.4204 27.0247C26.7024 27.3574 26.8126 27.681 26.8265 27.966C26.8122 28.2495 26.7024 28.5746 26.4204 28.9072L26.3671 28.9181C26.3671 28.9369 26.3739 28.9447 26.384 28.9492C26.0397 29.3355 26.0536 29.7319 25.1131 30.0915C21.4197 31.5034 22.1799 38.9272 22.1799 38.9272L25.9242 38.9325C25.9242 38.9325 23.7781 31.5034 27.4722 30.0915" fill="#F16F04"/>
<path d="M31.7987 24.8721H24.7266C24.7266 24.8721 27.9501 26.3372 27.9692 29.8682C27.9602 29.9983 27.9403 30.1599 27.9137 30.3321C28.3059 31.2384 28.4057 32.2746 28.1972 33.2229C28.3363 34.1946 28.3427 35.1823 28.1927 36.1412C28.1271 36.8053 28.0014 37.4601 27.7997 38.0871H29.1369C28.5051 35.7373 28.5399 33.1896 28.6899 30.7858C28.6207 30.4839 28.5755 30.1769 28.5546 29.8678C28.5744 26.3372 31.7987 24.8721 31.7987 24.8721Z" fill="#F16F04"/>
<path d="M35.2749 16.648C35.2749 17.0073 34.9516 17.2979 34.5537 17.2979H21.9736C21.5754 17.2979 21.251 17.0073 21.251 16.648C21.251 16.2903 21.5754 16 21.9736 16H34.5541C34.9516 16 35.2749 16.2903 35.2749 16.648ZM35.2749 39.4225C35.2749 39.7791 34.9516 40.0705 34.5537 40.0705H21.9736C21.5754 40.0705 21.251 39.7791 21.251 39.4225C21.251 39.0632 21.5754 38.773 21.9736 38.773H34.5541C34.9516 38.773 35.2749 39.0632 35.2749 39.4225Z" fill="#F16F04"/>
<path d="M28.6305 28.9851C28.6305 28.9851 28.5499 36.5785 29.952 38.0868H28.3556L28.1621 28.4785L28.6305 28.9851Z" fill="#C95C01"/>
<path d="M28.8171 35.2596C27.8271 33.832 27.7386 31.8081 28.6131 30.3734C28.5849 30.1855 28.5643 30.0096 28.5553 29.8701C28.5744 26.3391 31.7987 24.874 31.7987 24.874H24.7266C24.7266 24.874 27.9501 26.3391 27.9692 29.8701C27.9485 30.1793 27.9032 30.4862 27.8338 30.7881C27.9831 33.19 28.0187 35.7396 27.3868 38.0894H29.5048C29.4197 37.6345 29.3453 37.1776 29.2817 36.7191C29.0469 36.2623 28.8899 35.7696 28.8171 35.2611" fill="#C95C01"/>
<path d="M27.8938 28.9851C27.8938 28.9851 27.9744 36.5785 26.5723 38.0868H28.1686L28.3629 28.4785L27.8938 28.9851Z" fill="#C95C01"/>
</g>
<defs>
<clipPath id="clip0_1567_29470">
<rect width="24" height="24" fill="white" transform="translate(16 16)"/>
</clipPath>
</defs>
</svg>
