<svg width="186" height="65" viewBox="0 0 186 65" fill="none" xmlns="http://www.w3.org/2000/svg">
<g clip-path="url(#clip0_4885_28747)">
<path fill-rule="evenodd" clip-rule="evenodd" d="M64.5572 32.5238C64.5572 50.2642 50.2161 64.6455 32.5253 64.6455C14.8337 64.6455 0.492188 50.2642 0.492188 32.5238C0.492188 14.7834 14.8337 0.402016 32.5253 0.402016C50.2161 0.402016 64.5572 14.7834 64.5572 32.5238Z" fill="#ED342B"/>
<path fill-rule="evenodd" clip-rule="evenodd" d="M32.5252 46.2835C25.3603 29.997 20.1068 14.7824 20.1068 14.7824H9.12305C9.12305 14.7824 15.8083 34.3104 28.2263 58.7314H36.8242C49.2422 34.3104 55.927 14.7824 55.927 14.7824H44.9432C44.9432 14.7824 39.6902 29.997 32.5252 46.2835Z" fill="#FEFEFE"/>
<path fill-rule="evenodd" clip-rule="evenodd" d="M170.474 30.8481C164.265 30.8481 163.788 37.5533 163.788 37.5533H177.159C177.159 37.5533 176.682 30.8481 170.474 30.8481ZM185.279 44.2573H163.788C163.788 44.2573 164.265 51.4419 173.818 51.4419C178.593 51.4419 183.368 50.0037 183.368 50.0037L184.324 57.6661C184.324 57.6661 179.548 59.5829 172.862 59.5829C163.311 59.5829 154.714 54.7933 154.714 41.3841C154.714 30.8481 161.401 24.1433 170.952 24.1433C185.279 24.1433 186.233 38.5105 185.279 44.2573ZM112.203 32.9414L113.682 25.0341C113.682 25.0341 102.264 21.5596 92.9831 27.9985V59.6279H102.839V33.9289C106.782 30.9649 112.203 32.9414 112.203 32.9414ZM71.1198 30.8481C64.9118 30.8481 64.4345 37.5533 64.4345 37.5533H77.8058C77.8058 37.5533 77.329 30.8481 71.1198 30.8481ZM85.9241 44.2573H64.4345C64.4345 44.2573 64.9118 51.4419 74.463 51.4419C79.2376 51.4419 84.0138 50.0037 84.0138 50.0037L84.9696 57.6661C84.9696 57.6661 80.1934 59.5829 73.5073 59.5829C63.9561 59.5829 55.3594 54.7933 55.3594 41.3841C55.3594 30.8481 62.0458 24.1433 71.597 24.1433C85.9241 24.1433 86.8786 38.5105 85.9241 44.2573ZM136.257 47.5394C131.252 35.4933 128.751 24.149 128.751 24.149L118.743 24.1502C118.743 24.1502 123.748 43.5238 132.255 59.577H140.258C148.767 43.5238 153.771 24.1531 153.771 24.1531H143.763C143.763 24.1531 141.262 35.4933 136.257 47.5394Z" fill="#03435F"/>
</g>
<defs>
<clipPath id="clip0_4885_28747">
<rect width="186" height="65" fill="white"/>
</clipPath>
</defs>
</svg>
