<svg width="48" height="48" viewBox="0 0 48 48" fill="none" xmlns="http://www.w3.org/2000/svg">
<path d="M32.8426 29.1447C32.5099 29.9133 32.1161 30.6208 31.6598 31.2713C31.0378 32.158 30.5286 32.7719 30.1361 33.1127C29.5277 33.6722 28.8759 33.9587 28.1779 33.975C27.6768 33.975 27.0725 33.8324 26.3691 33.5432C25.6633 33.2553 25.0148 33.1127 24.4217 33.1127C23.7998 33.1127 23.1327 33.2553 22.4193 33.5432C21.7047 33.8324 21.129 33.9832 20.6889 33.9981C20.0196 34.0266 19.3524 33.7319 18.6864 33.1127C18.2614 32.742 17.7297 32.1064 17.0928 31.2061C16.4095 30.2446 15.8477 29.1297 15.4076 27.8587C14.9362 26.4857 14.7 25.1563 14.7 23.8692C14.7 22.3948 15.0185 21.1232 15.6566 20.0576C16.1582 19.2017 16.8253 18.5265 17.6603 18.0308C18.4954 17.5351 19.3976 17.2826 20.3693 17.2664C20.9009 17.2664 21.5981 17.4309 22.4645 17.7541C23.3284 18.0783 23.8832 18.2428 24.1264 18.2428C24.3082 18.2428 24.9245 18.0505 25.9692 17.6671C26.9571 17.3116 27.7909 17.1644 28.474 17.2224C30.3249 17.3718 31.7155 18.1014 32.6402 19.416C30.9849 20.419 30.166 21.8238 30.1823 23.626C30.1972 25.0297 30.7065 26.1979 31.7073 27.1254C32.1609 27.5558 32.6674 27.8885 33.231 28.1248C33.1087 28.4793 32.9797 28.8188 32.8426 29.1447ZM28.5975 12.4401C28.5975 13.5404 28.1956 14.5677 27.3944 15.5185C26.4275 16.6489 25.258 17.3021 23.9898 17.199C23.9736 17.067 23.9642 16.9281 23.9642 16.7821C23.9642 15.7259 24.424 14.5955 25.2406 13.6713C25.6483 13.2033 26.1667 12.8142 26.7955 12.5038C27.4229 12.1981 28.0163 12.029 28.5744 12C28.5907 12.1471 28.5975 12.2942 28.5975 12.4401V12.4401Z" fill="black"/>
<rect x="0.5" y="0.5" width="47" height="47" rx="7.5" stroke="#787A7D"/>
</svg>
