<svg width="30" height="30" viewBox="0 0 30 30" fill="none" xmlns="http://www.w3.org/2000/svg">
<g clip-path="url(#clip0_4656_28520)">
<path d="M29.7083 15.3458C29.7083 14.3261 29.6256 13.301 29.4493 12.2979H15.3008V18.0741H23.4029C23.0667 19.937 21.9864 21.585 20.4046 22.6322V26.3802H25.2383C28.0768 23.7676 29.7083 19.9095 29.7083 15.3458Z" fill="#4285F4"/>
<path d="M15.2989 30.0007C19.3445 30.0007 22.7562 28.6724 25.242 26.3795L20.4082 22.6316C19.0634 23.5465 17.3272 24.0646 15.3044 24.0646C11.3911 24.0646 8.07311 21.4245 6.88259 17.875H1.89453V21.7387C4.44092 26.8039 9.6274 30.0007 15.2989 30.0007Z" fill="#34A853"/>
<path d="M6.87895 17.8754C6.25063 16.0124 6.25063 13.9952 6.87895 12.1322V8.26855H1.89641C-0.231095 12.507 -0.231095 17.5006 1.89641 21.7391L6.87895 17.8754Z" fill="#FBBC04"/>
<path d="M15.2989 5.93708C17.4374 5.90401 19.5043 6.70871 21.0531 8.18583L25.3356 3.90327C22.6239 1.35688 19.0248 -0.0430825 15.2989 0.00101083C9.6274 0.00101083 4.44092 3.19778 1.89453 8.26851L6.87708 12.1322C8.06209 8.57716 11.3856 5.93708 15.2989 5.93708Z" fill="#EA4335"/>
</g>
<defs>
<clipPath id="clip0_4656_28520">
<rect width="30" height="30" fill="white"/>
</clipPath>
</defs>
</svg>
