<svg width="56" height="56" viewBox="0 0 56 56" fill="none" xmlns="http://www.w3.org/2000/svg">
<circle cx="28" cy="28" r="28" fill="#FEDDC3"/>
<path d="M17.4188 31.0962C16.6695 30.8254 16.0596 30.2647 15.7234 29.5375C15.3871 28.8102 15.352 27.976 15.6259 27.2184C15.8997 26.4608 16.46 25.8418 17.1834 25.4975C17.9069 25.1533 18.7343 25.1121 19.4837 25.3829C20.233 25.6537 20.8429 26.2144 21.1792 26.9416C21.5154 27.6689 21.5505 28.503 21.2767 29.2607C21.0029 30.0183 20.4426 30.6373 19.7191 30.9816C18.9956 31.3258 18.1682 31.367 17.4188 31.0962ZM26.9275 31.3029C26.1781 31.0321 25.5683 30.4714 25.232 29.7442C24.8958 29.017 24.8607 28.1828 25.1345 27.4251C25.4083 26.6675 25.9686 26.0485 26.6921 25.7043C27.4156 25.36 28.243 25.3188 28.9923 25.5896C29.7417 25.8604 30.3515 26.4211 30.6878 27.1484C31.024 27.8756 31.0591 28.7098 30.7853 29.4674C30.5115 30.225 29.9512 30.8441 29.2277 31.1883C28.5042 31.5325 27.6768 31.5738 26.9275 31.3029ZM36.4361 31.5097C35.6868 31.2388 35.0769 30.6781 34.7406 29.9509C34.4044 29.2237 34.3693 28.3895 34.6431 27.6319C34.9169 26.8742 35.4772 26.2552 36.2007 25.911C36.9242 25.5668 37.7516 25.5255 38.501 25.7963C39.2503 26.0672 39.8602 26.6279 40.1964 27.3551C40.5327 28.0823 40.5677 28.9165 40.2939 29.6741C40.0201 30.4318 39.4598 31.0508 38.7364 31.395C38.0129 31.7392 37.1854 31.7805 36.4361 31.5097Z" fill="#F16F04"/>
</svg>
