<svg width="16" height="16" viewBox="0 0 16 16" fill="none" xmlns="http://www.w3.org/2000/svg">
<path d="M11.3066 4.11328C12.64 5.03995 13.56 6.51328 13.7466 8.21328" stroke="#D2D3D4" stroke-width="1.5" stroke-linecap="round" stroke-linejoin="round"/>
<path d="M2.32617 8.24673C2.49951 6.5534 3.40617 5.08006 4.72617 4.14673" stroke="#D2D3D4" stroke-width="1.5" stroke-linecap="round" stroke-linejoin="round"/>
<path d="M5.46094 13.96C6.23427 14.3533 7.11427 14.5733 8.04094 14.5733C8.93427 14.5733 9.77427 14.3733 10.5276 14.0066" stroke="#D2D3D4" stroke-width="1.5" stroke-linecap="round" stroke-linejoin="round"/>
<path d="M8.04083 5.13342C9.0644 5.13342 9.89417 4.30366 9.89417 3.28009C9.89417 2.25652 9.0644 1.42676 8.04083 1.42676C7.01727 1.42676 6.1875 2.25652 6.1875 3.28009C6.1875 4.30366 7.01727 5.13342 8.04083 5.13342Z" stroke="#D2D3D4" stroke-width="1.5" stroke-linecap="round" stroke-linejoin="round"/>
<path d="M3.22052 13.2799C4.24409 13.2799 5.07385 12.4501 5.07385 11.4266C5.07385 10.403 4.24409 9.57324 3.22052 9.57324C2.19695 9.57324 1.36719 10.403 1.36719 11.4266C1.36719 12.4501 2.19695 13.2799 3.22052 13.2799Z" stroke="#D2D3D4" stroke-width="1.5" stroke-linecap="round" stroke-linejoin="round"/>
<path d="M12.7791 13.2799C13.8027 13.2799 14.6324 12.4501 14.6324 11.4266C14.6324 10.403 13.8027 9.57324 12.7791 9.57324C11.7555 9.57324 10.9258 10.403 10.9258 11.4266C10.9258 12.4501 11.7555 13.2799 12.7791 13.2799Z" stroke="#D2D3D4" stroke-width="1.5" stroke-linecap="round" stroke-linejoin="round"/>
</svg>
