<svg width="24" height="24" viewBox="0 0 24 24" fill="none" xmlns="http://www.w3.org/2000/svg">
<path d="M16.9609 6.16998C18.9609 7.55998 20.3409 9.76998 20.6209 12.32" stroke="#D2D3D4" stroke-width="1.5" stroke-linecap="round" stroke-linejoin="round"/>
<path d="M3.49023 12.37C3.75023 9.82997 5.11023 7.61997 7.09023 6.21997" stroke="#D2D3D4" stroke-width="1.5" stroke-linecap="round" stroke-linejoin="round"/>
<path d="M8.18945 20.94C9.34945 21.53 10.6695 21.86 12.0595 21.86C13.3995 21.86 14.6595 21.56 15.7895 21.01" stroke="#D2D3D4" stroke-width="1.5" stroke-linecap="round" stroke-linejoin="round"/>
<path d="M12.0593 7.70001C13.5946 7.70001 14.8393 6.45537 14.8393 4.92001C14.8393 3.38466 13.5946 2.14001 12.0593 2.14001C10.5239 2.14001 9.2793 3.38466 9.2793 4.92001C9.2793 6.45537 10.5239 7.70001 12.0593 7.70001Z" stroke="#D2D3D4" stroke-width="1.5" stroke-linecap="round" stroke-linejoin="round"/>
<path d="M4.83078 19.92C6.36613 19.92 7.61078 18.6753 7.61078 17.14C7.61078 15.6046 6.36613 14.36 4.83078 14.36C3.29543 14.36 2.05078 15.6046 2.05078 17.14C2.05078 18.6753 3.29543 19.92 4.83078 19.92Z" stroke="#D2D3D4" stroke-width="1.5" stroke-linecap="round" stroke-linejoin="round"/>
<path d="M19.1706 19.92C20.706 19.92 21.9506 18.6753 21.9506 17.14C21.9506 15.6046 20.706 14.36 19.1706 14.36C17.6353 14.36 16.3906 15.6046 16.3906 17.14C16.3906 18.6753 17.6353 19.92 19.1706 19.92Z" stroke="#D2D3D4" stroke-width="1.5" stroke-linecap="round" stroke-linejoin="round"/>
</svg>
