<svg width="96" height="17" viewBox="0 0 96 17" fill="none" xmlns="http://www.w3.org/2000/svg">
<path d="M7.52447 1.49331C7.67415 1.03265 8.32585 1.03266 8.47553 1.49331L9.68386 5.21216C9.75079 5.41817 9.94277 5.55765 10.1594 5.55765H14.0696C14.554 5.55765 14.7554 6.17746 14.3635 6.46216L11.2001 8.76053C11.0248 8.88785 10.9515 9.11354 11.0184 9.31955L12.2268 13.0384C12.3764 13.499 11.8492 13.8821 11.4573 13.5974L8.29389 11.299C8.11865 11.1717 7.88135 11.1717 7.70611 11.299L4.54267 13.5974C4.15081 13.8821 3.62357 13.4991 3.77325 13.0384L4.98157 9.31955C5.04851 9.11354 4.97518 8.88785 4.79994 8.76053L1.6365 6.46216C1.24464 6.17746 1.44603 5.55765 1.93039 5.55765H5.84062C6.05723 5.55765 6.24921 5.41817 6.31614 5.21216L7.52447 1.49331Z" fill="#E9A905"/>
<path d="M27.5245 1.49331C27.6741 1.03265 28.3259 1.03266 28.4755 1.49331L29.6839 5.21216C29.7508 5.41817 29.9428 5.55765 30.1594 5.55765H34.0696C34.554 5.55765 34.7554 6.17746 34.3635 6.46216L31.2001 8.76053C31.0248 8.88785 30.9515 9.11354 31.0184 9.31955L32.2268 13.0384C32.3764 13.499 31.8492 13.8821 31.4573 13.5974L28.2939 11.299C28.1186 11.1717 27.8814 11.1717 27.7061 11.299L24.5427 13.5974C24.1508 13.8821 23.6236 13.4991 23.7732 13.0384L24.9816 9.31955C25.0485 9.11354 24.9752 8.88785 24.7999 8.76053L21.6365 6.46216C21.2446 6.17746 21.446 5.55765 21.9304 5.55765H25.8406C26.0572 5.55765 26.2492 5.41817 26.3161 5.21216L27.5245 1.49331Z" fill="#E9A905"/>
<path d="M47.5245 1.49331C47.6741 1.03265 48.3259 1.03266 48.4755 1.49331L49.6839 5.21216C49.7508 5.41817 49.9428 5.55765 50.1594 5.55765H54.0696C54.554 5.55765 54.7554 6.17746 54.3635 6.46216L51.2001 8.76053C51.0248 8.88785 50.9515 9.11354 51.0184 9.31955L52.2268 13.0384C52.3764 13.499 51.8492 13.8821 51.4573 13.5974L48.2939 11.299C48.1186 11.1717 47.8814 11.1717 47.7061 11.299L44.5427 13.5974C44.1508 13.8821 43.6236 13.4991 43.7732 13.0384L44.9816 9.31955C45.0485 9.11354 44.9752 8.88785 44.7999 8.76053L41.6365 6.46216C41.2446 6.17746 41.446 5.55765 41.9304 5.55765H45.8406C46.0572 5.55765 46.2492 5.41817 46.3161 5.21216L47.5245 1.49331Z" fill="#E9A905"/>
<path d="M67.5245 1.49331C67.6741 1.03265 68.3259 1.03266 68.4755 1.49331L69.6839 5.21216C69.7508 5.41817 69.9428 5.55765 70.1594 5.55765H74.0696C74.554 5.55765 74.7554 6.17746 74.3635 6.46216L71.2001 8.76053C71.0248 8.88785 70.9515 9.11354 71.0184 9.31955L72.2268 13.0384C72.3764 13.499 71.8492 13.8821 71.4573 13.5974L68.2939 11.299C68.1186 11.1717 67.8814 11.1717 67.7061 11.299L64.5427 13.5974C64.1508 13.8821 63.6236 13.4991 63.7732 13.0384L64.9816 9.31955C65.0485 9.11354 64.9752 8.88785 64.7999 8.76053L61.6365 6.46216C61.2446 6.17746 61.446 5.55765 61.9304 5.55765H65.8406C66.0572 5.55765 66.2492 5.41817 66.3161 5.21216L67.5245 1.49331Z" fill="#E9A905"/>
<path d="M87.5245 1.49331C87.6741 1.03265 88.3259 1.03266 88.4755 1.49331L89.6839 5.21216C89.7508 5.41817 89.9428 5.55765 90.1594 5.55765H94.0696C94.554 5.55765 94.7554 6.17746 94.3635 6.46216L91.2001 8.76053C91.0248 8.88785 90.9515 9.11354 91.0184 9.31955L92.2268 13.0384C92.3764 13.499 91.8492 13.8821 91.4573 13.5974L88.2939 11.299C88.1186 11.1717 87.8814 11.1717 87.7061 11.299L84.5427 13.5974C84.1508 13.8821 83.6236 13.4991 83.7732 13.0384L84.9816 9.31955C85.0485 9.11354 84.9752 8.88785 84.7999 8.76053L81.6365 6.46216C81.2446 6.17746 81.446 5.55765 81.9304 5.55765H85.8406C86.0572 5.55765 86.2492 5.41817 86.3161 5.21216L87.5245 1.49331Z" fill="url(#paint0_linear_5710_34646)"/>
<defs>
<linearGradient id="paint0_linear_5710_34646" x1="80" y1="0.0297852" x2="96" y2="16.0298" gradientUnits="userSpaceOnUse">
<stop stop-color="#E9A905"/>
<stop offset="1" stop-color="white" stop-opacity="0"/>
</linearGradient>
</defs>
</svg>
