<svg width="16" height="17" viewBox="0 0 16 17" fill="none" xmlns="http://www.w3.org/2000/svg">
<path d="M6.38008 3.95326C6.50675 3.95326 6.63342 3.99992 6.73342 4.09992C6.92675 4.29326 6.92675 4.61326 6.73342 4.80659L3.04008 8.49992L6.73342 12.1933C6.92675 12.3866 6.92675 12.7066 6.73342 12.8999C6.54008 13.0933 6.22008 13.0933 6.02675 12.8999L1.98008 8.85326C1.78675 8.65992 1.78675 8.33992 1.98008 8.14659L6.02675 4.09992C6.12675 3.99992 6.25342 3.95326 6.38008 3.95326Z" fill="#28292A"/>
<path d="M2.4465 8L13.6665 8C13.9398 8 14.1665 8.22667 14.1665 8.5C14.1665 8.77333 13.9398 9 13.6665 9L2.4465 9C2.17317 9 1.9465 8.77333 1.9465 8.5C1.9465 8.22667 2.17317 8 2.4465 8Z" fill="#28292A"/>
</svg>
