<svg width="56" height="56" viewBox="0 0 56 56" fill="none" xmlns="http://www.w3.org/2000/svg">
<path d="M28.0007 27.9419C25.434 27.9419 23.334 27.1252 21.7007 25.4919C20.0673 23.8586 19.2507 21.7586 19.2507 19.1919C19.2507 16.6252 20.0673 14.5252 21.7007 12.8919C23.334 11.2586 25.434 10.4419 28.0007 10.4419C30.5673 10.4419 32.6673 11.2586 34.3006 12.8919C35.934 14.5252 36.7507 16.6252 36.7507 19.1919C36.7507 21.7586 35.934 23.8586 34.3006 25.4919C32.6673 27.1252 30.5673 27.9419 28.0007 27.9419ZM9.33398 46.6669V41.1836C9.33398 39.7058 9.70343 38.4419 10.4423 37.3919C11.1812 36.3419 12.134 35.5447 13.3007 35.0002C15.9062 33.8336 18.4048 32.9586 20.7965 32.3752C23.1882 31.7919 25.5895 31.5002 28.0007 31.5002C30.4118 31.5002 32.8034 31.8016 35.1756 32.4044C37.5479 33.0072 40.0368 33.8724 42.6423 35.0002C43.8479 35.5447 44.8201 36.3419 45.559 37.3919C46.2979 38.4419 46.6673 39.7058 46.6673 41.1836V46.6669H9.33398Z" fill="#233BA9"/>
</svg>
